<svg xmlns="http://www.w3.org/2000/svg" xmlns:xlink="http://www.w3.org/1999/xlink" viewBox="0 0 1080 1080" width="1080" height="1080" preserveAspectRatio="xMidYMid meet" style="width: 100%; height: 100%; transform: translate3d(0px, 0px, 0px); content-visibility: visible;"><defs><clipPath id="__lottie_element_327"><rect width="1080" height="1080" x="0" y="0"></rect></clipPath></defs><g clip-path="url(#__lottie_element_327)"><g transform="matrix(30.709999084472656,0,0,30.709999084472656,523.794189453125,523.1223754882812)" opacity="1" style="display: block;"><g opacity="1" transform="matrix(1,0,0,1,0,0)"><path fill="rgb(92,255,79)" fill-opacity="1" d=" M1.9179999828338623,3.5169999599456787 C1.9179999828338623,3.5169999599456787 2.3369998931884766,12.187999725341797 2.3369998931884766,12.187999725341797 C2.3480000495910645,12.42300033569336 2.5420000553131104,12.607000350952148 2.7750000953674316,12.607000350952148 C2.7820000648498535,12.607000350952148 2.7899999618530273,12.605999946594238 2.796999931335449,12.605999946594238 C3.0390000343322754,12.593999862670898 3.2260000705718994,12.387999534606934 3.2139999866485596,12.145999908447266 C3.2139999866485596,12.145999908447266 2.7960000038146973,3.4749999046325684 2.7960000038146973,3.4749999046325684 C2.7839999198913574,3.2330000400543213 2.5799999237060547,3.0460000038146973 2.3359999656677246,3.056999921798706 C2.0940001010894775,3.069000005722046 1.906000018119812,3.2750000953674316 1.9179999828338623,3.5169999599456787z"></path></g></g><g transform="matrix(30.709999084472656,0,0,30.709999084472656,523.794189453125,523.1223754882812)" opacity="1" style="display: block;"><g opacity="1" transform="matrix(1,0,0,1,0,0)"><path fill="rgb(92,255,79)" fill-opacity="1" d=" M4.385000228881836,12.173999786376953 C4.388999938964844,12.413999557495117 4.584000110626221,12.607000350952148 4.823999881744385,12.607000350952148 C4.826000213623047,12.607000350952148 4.828999996185303,12.607000350952148 4.830999851226807,12.607000350952148 C5.073999881744385,12.602999687194824 5.267000198364258,12.402999877929688 5.263000011444092,12.15999984741211 C5.263000011444092,12.15999984741211 5.124000072479248,3.489000082015991 5.124000072479248,3.489000082015991 C5.119999885559082,3.246000051498413 4.921999931335449,3.055000066757202 4.677999973297119,3.056999921798706 C4.434999942779541,3.061000108718872 4.241000175476074,3.259999990463257 4.244999885559082,3.503000020980835 C4.244999885559082,3.503000020980835 4.385000228881836,12.173999786376953 4.385000228881836,12.173999786376953z"></path></g></g><g transform="matrix(30.709999084472656,0,0,30.709999084472656,523.794189453125,523.1223754882812)" opacity="1" style="display: block;"><g opacity="1" transform="matrix(1,0,0,1,0,0)"><path fill="rgb(92,255,79)" fill-opacity="1" d=" M6.866000175476074,12.607000350952148 C6.868000030517578,12.607000350952148 6.870999813079834,12.607000350952148 6.873000144958496,12.607000350952148 C7.111999988555908,12.607000350952148 7.308000087738037,12.413999557495117 7.311999797821045,12.173999786376953 C7.311999797821045,12.173999786376953 7.452000141143799,3.503000020980835 7.452000141143799,3.503000020980835 C7.455999851226807,3.259999990463257 7.26200008392334,3.061000108718872 7.019000053405762,3.056999921798706 C6.775000095367432,3.052999973297119 6.577000141143799,3.246000051498413 6.572999954223633,3.489000082015991 C6.572999954223633,3.489000082015991 6.434000015258789,12.15999984741211 6.434000015258789,12.15999984741211 C6.429999828338623,12.402999877929688 6.623000144958496,12.602999687194824 6.866000175476074,12.607000350952148z"></path></g></g><g transform="matrix(30.709999084472656,0,0,30.709999084472656,523.794189453125,523.1223754882812)" opacity="1" style="display: block;"><g opacity="1" transform="matrix(1,0,0,1,0,0)"><path fill="rgb(92,255,79)" fill-opacity="1" d=" M8.899999618530273,12.605999946594238 C8.906999588012695,12.605999946594238 8.913999557495117,12.607000350952148 8.920999526977539,12.607000350952148 C9.154000282287598,12.607000350952148 9.348999977111816,12.42300033569336 9.359999656677246,12.187999725341797 C9.359999656677246,12.187999725341797 9.777999877929688,3.5169999599456787 9.777999877929688,3.5169999599456787 C9.789999961853027,3.2750000953674316 9.60200023651123,3.069000005722046 9.359999656677246,3.056999921798706 C9.118000030517578,3.0460000038146973 8.911999702453613,3.2330000400543213 8.899999618530273,3.4749999046325684 C8.899999618530273,3.4749999046325684 8.482000350952148,12.145999908447266 8.482000350952148,12.145999908447266 C8.470000267028809,12.387999534606934 8.657999992370605,12.593999862670898 8.899999618530273,12.605999946594238z"></path></g></g><g transform="matrix(30.709999084472656,0,0,30.709999084472656,523.794189453125,523.1223754882812)" opacity="1" style="display: block;"><g opacity="1" transform="matrix(1,0,0,1,0,0)"><path fill="rgb(92,255,79)" fill-opacity="1" d=" M12.772000312805176,-0.9959999918937683 C12.772000312805176,-0.9959999918937683 10.395999908447266,-0.9959999918937683 10.395999908447266,-0.9959999918937683 C10.17199993133545,-2.0399999618530273 9.251999855041504,-2.806999921798706 8.142999649047852,-2.806999921798706 C8.142999649047852,-2.806999921798706 3.555000066757202,-2.806999921798706 3.555000066757202,-2.806999921798706 C2.446000099182129,-2.806999921798706 1.5260000228881836,-2.0399999618530273 1.3020000457763672,-0.9959999918937683 C1.3020000457763672,-0.9959999918937683 -1.0740000009536743,-0.9959999918937683 -1.0740000009536743,-0.9959999918937683 C-1.937999963760376,-0.9959999918937683 -2.6419999599456787,-0.2919999957084656 -2.6419999599456787,0.5720000267028809 C-2.6419999599456787,1.4359999895095825 -1.937999963760376,2.1389999389648438 -1.0740000009536743,2.1389999389648438 C-1.0740000009536743,2.1389999389648438 -0.8550000190734863,2.1389999389648438 -0.8550000190734863,2.1389999389648438 C-0.8550000190734863,2.1389999389648438 -0.20600000023841858,12.895000457763672 -0.20600000023841858,12.895000457763672 C-0.13500000536441803,14.069000244140625 0.8420000076293945,14.98799991607666 2.0179998874664307,14.98799991607666 C2.0179998874664307,14.98799991607666 9.680000305175781,14.98799991607666 9.680000305175781,14.98799991607666 C10.855999946594238,14.98799991607666 11.833000183105469,14.069000244140625 11.904000282287598,12.895000457763672 C11.904000282287598,12.895000457763672 12.553000450134277,2.1389999389648438 12.553000450134277,2.1389999389648438 C12.553000450134277,2.1389999389648438 12.772000312805176,2.1389999389648438 12.772000312805176,2.1389999389648438 C13.63599967956543,2.1389999389648438 14.33899974822998,1.4359999895095825 14.33899974822998,0.5720000267028809 C14.33899974822998,-0.2919999957084656 13.63599967956543,-0.9959999918937683 12.772000312805176,-0.9959999918937683z M3.555000066757202,-1.9279999732971191 C3.555000066757202,-1.9279999732971191 8.142999649047852,-1.9279999732971191 8.142999649047852,-1.9279999732971191 C8.76099967956543,-1.9279999732971191 9.284000396728516,-1.5440000295639038 9.482999801635742,-0.9959999918937683 C9.482999801635742,-0.9959999918937683 2.2149999141693115,-0.9959999918937683 2.2149999141693115,-0.9959999918937683 C2.4140000343322754,-1.5440000295639038 2.937000036239624,-1.9279999732971191 3.555000066757202,-1.9279999732971191z M12.772000312805176,1.2599999904632568 C12.772000312805176,1.2599999904632568 2.7760000228881836,1.2599999904632568 2.7760000228881836,1.2599999904632568 C2.5329999923706055,1.2599999904632568 2.3369998931884766,1.4559999704360962 2.3369998931884766,1.6990000009536743 C2.3369998931884766,1.9420000314712524 2.5329999923706055,2.1389999389648438 2.7760000228881836,2.1389999389648438 C2.7760000228881836,2.1389999389648438 11.67199993133545,2.1389999389648438 11.67199993133545,2.1389999389648438 C11.67199993133545,2.1389999389648438 11.026000022888184,12.842000007629395 11.026000022888184,12.842000007629395 C10.982999801635742,13.553000450134277 10.392000198364258,14.109000205993652 9.680000305175781,14.109000205993652 C9.680000305175781,14.109000205993652 2.0179998874664307,14.109000205993652 2.0179998874664307,14.109000205993652 C1.305999994277954,14.109000205993652 0.7139999866485596,13.553000450134277 0.6710000038146973,12.842000007629395 C0.6710000038146973,12.842000007629395 0.026000000536441803,2.1389999389648438 0.026000000536441803,2.1389999389648438 C0.026000000536441803,2.1389999389648438 0.7310000061988831,2.1389999389648438 0.7310000061988831,2.1389999389648438 C0.9739999771118164,2.1389999389648438 1.1710000038146973,1.9420000314712524 1.1710000038146973,1.6990000009536743 C1.1710000038146973,1.4559999704360962 0.9739999771118164,1.2599999904632568 0.7310000061988831,1.2599999904632568 C0.7310000061988831,1.2599999904632568 -1.0740000009536743,1.2599999904632568 -1.0740000009536743,1.2599999904632568 C-1.4539999961853027,1.2599999904632568 -1.7630000114440918,0.9520000219345093 -1.7630000114440918,0.5720000267028809 C-1.7630000114440918,0.19200000166893005 -1.4539999961853027,-0.11699999868869781 -1.0740000009536743,-0.11699999868869781 C-1.0740000009536743,-0.11699999868869781 12.772000312805176,-0.11699999868869781 12.772000312805176,-0.11699999868869781 C13.152000427246094,-0.11699999868869781 13.460000038146973,0.19200000166893005 13.460000038146973,0.5720000267028809 C13.460000038146973,0.9520000219345093 13.152000427246094,1.2599999904632568 12.772000312805176,1.2599999904632568z"></path></g></g><g transform="matrix(25.200000762939453,0,0,25.200000762939453,610.2960205078125,598)" opacity="1" style="display: block;"><g opacity="1" transform="matrix(1,0,0,1,0,0)"><path fill="rgb(92,255,79)" fill-opacity="1" d=" M-0.9959999918937683,14.121000289916992 C-0.9959999918937683,14.121000289916992 -12.347999572753906,14.121000289916992 -12.347999572753906,14.121000289916992 C-12.961000442504883,14.121000289916992 -13.460000038146973,13.621999740600586 -13.460000038146973,13.008999824523926 C-13.460000038146973,13.008999824523926 -13.460000038146973,-13.008999824523926 -13.460000038146973,-13.008999824523926 C-13.460000038146973,-13.621999740600586 -12.961000442504883,-14.121000289916992 -12.347999572753906,-14.121000289916992 C-12.347999572753906,-14.121000289916992 1.7289999723434448,-14.121000289916992 1.7289999723434448,-14.121000289916992 C1.7289999723434448,-14.121000289916992 1.7289999723434448,-8.892000198364258 1.7289999723434448,-8.892000198364258 C1.7289999723434448,-8.003000259399414 2.4509999752044678,-7.28000020980835 3.3399999141693115,-7.28000020980835 C3.3399999141693115,-7.28000020980835 8.569999694824219,-7.28000020980835 8.569999694824219,-7.28000020980835 C8.569999694824219,-7.28000020980835 8.569999694824219,-4.364999771118164 8.569999694824219,-4.364999771118164 C8.569999694824219,-4.122000217437744 8.765999794006348,-3.9260001182556152 9.008999824523926,-3.9260001182556152 C9.251999855041504,-3.9260001182556152 9.449000358581543,-4.122000217437744 9.449000358581543,-4.364999771118164 C9.449000358581543,-4.364999771118164 9.449000358581543,-7.71999979019165 9.449000358581543,-7.71999979019165 C9.449000358581543,-7.836999893188477 9.402000427246094,-7.947999954223633 9.319999694824219,-8.029999732971191 C9.319999694824219,-8.029999732971191 2.4790000915527344,-14.871000289916992 2.4790000915527344,-14.871000289916992 C2.3959999084472656,-14.95300006866455 2.2850000858306885,-15 2.1679999828338623,-15 C2.1679999828338623,-15 -12.347999572753906,-15 -12.347999572753906,-15 C-13.446000099182129,-15 -14.33899974822998,-14.107000350952148 -14.33899974822998,-13.008999824523926 C-14.33899974822998,-13.008999824523926 -14.33899974822998,13.008999824523926 -14.33899974822998,13.008999824523926 C-14.33899974822998,14.107000350952148 -13.446000099182129,15 -12.347999572753906,15 C-12.347999572753906,15 -0.9959999918937683,15 -0.9959999918937683,15 C-0.753000020980835,15 -0.5569999814033508,14.803999900817871 -0.5569999814033508,14.560999870300293 C-0.5569999814033508,14.317999839782715 -0.753000020980835,14.121000289916992 -0.9959999918937683,14.121000289916992z M2.6080000400543213,-8.892000198364258 C2.6080000400543213,-8.892000198364258 2.6080000400543213,-13.5 2.6080000400543213,-13.5 C2.6080000400543213,-13.5 7.947999954223633,-8.159000396728516 7.947999954223633,-8.159000396728516 C7.947999954223633,-8.159000396728516 3.3399999141693115,-8.159000396728516 3.3399999141693115,-8.159000396728516 C2.936000108718872,-8.159000396728516 2.6080000400543213,-8.48799991607666 2.6080000400543213,-8.892000198364258z"></path></g></g><g transform="matrix(0.9019080400466919,0,0,0.9019080400466919,610.2788696289062,597.9962158203125)" opacity="1" style="display: block;"><g opacity="1" transform="matrix(1,0,0,1,0,0)"><path fill="rgb(255,255,255)" fill-opacity="1" d=" M-308,-215 C-308,-215 -63,-215 -63,-215"></path><path stroke-linecap="round" stroke-linejoin="miter" fill-opacity="0" stroke-miterlimit="4" stroke="rgb(91,255,79)" stroke-opacity="1" stroke-width="28" d=" M-308,-215 C-308,-215 -63,-215 -63,-215"></path></g></g><g transform="matrix(0.9019080400466919,0,0,0.9019080400466919,610.2788696289062,523.1270141601562)" opacity="1" style="display: block;"><g opacity="1" transform="matrix(1,0,0,1,0,0)"><path fill="rgb(255,255,255)" fill-opacity="1" d=" M-308,-215 C-308,-215 -63,-215 -63,-215"></path><path stroke-linecap="round" stroke-linejoin="miter" fill-opacity="0" stroke-miterlimit="4" stroke="rgb(91,255,79)" stroke-opacity="1" stroke-width="28" d=" M-308,-215 C-308,-215 -63,-215 -63,-215"></path></g></g></g></svg>