<svg xmlns="http://www.w3.org/2000/svg" xmlns:xlink="http://www.w3.org/1999/xlink" viewBox="0 0 1080 1080" width="1080" height="1080" preserveAspectRatio="xMidYMid meet" style="width: 100%; height: 100%; transform: translate3d(0px, 0px, 0px); content-visibility: visible;"><defs><clipPath id="__lottie_element_28"><rect width="1080" height="1080" x="0" y="0"></rect></clipPath></defs><g clip-path="url(#__lottie_element_28)"><g transform="matrix(25.450000762939453,0,0,25.450000762939453,540.02001953125,539.8975219726562)" opacity="1" style="display: block;"><g opacity="1" transform="matrix(1,0,0,1,0,0)"><path fill="rgb(92,255,79)" fill-opacity="1" d=" M14.142999649047852,-7.732999801635742 C14.142999649047852,-9.09000015258789 13.038999557495117,-10.194000244140625 11.682000160217285,-10.194000244140625 C10.984999656677246,-10.194000244140625 10.355999946594238,-9.902999877929688 9.907999992370605,-9.435999870300293 C9.907999992370605,-9.435999870300293 0.30399999022483826,-14.979999542236328 0.30399999022483826,-14.979999542236328 C0.12300000339746475,-15.085000038146973 -0.10100000351667404,-15.085000038146973 -0.28200000524520874,-14.979999542236328 C-0.28200000524520874,-14.979999542236328 -9.88599967956543,-9.435999870300293 -9.88599967956543,-9.435999870300293 C-10.333999633789062,-9.902999877929688 -10.963000297546387,-10.194000244140625 -11.65999984741211,-10.194000244140625 C-13.017000198364258,-10.194000244140625 -14.121000289916992,-9.09000015258789 -14.121000289916992,-7.732999801635742 C-14.121000289916992,-6.578000068664551 -13.321000099182129,-5.607999801635742 -12.246000289916992,-5.343999862670898 C-12.246000289916992,-5.343999862670898 -12.246000289916992,5.742000102996826 -12.246000289916992,5.742000102996826 C-12.246000289916992,5.951000213623047 -12.133999824523926,6.144000053405762 -11.95300006866455,6.249000072479248 C-11.95300006866455,6.249000072479248 -2.3519999980926514,11.791999816894531 -2.3519999980926514,11.791999816894531 C-2.4159998893737793,12.010000228881836 -2.4509999752044678,12.241000175476074 -2.4509999752044678,12.479999542236328 C-2.4509999752044678,13.836999893188477 -1.347000002861023,14.940999984741211 0.009999999776482582,14.940999984741211 C1.3669999837875366,14.940999984741211 2.4709999561309814,13.836999893188477 2.4709999561309814,12.479999542236328 C2.4709999561309814,12.241999626159668 2.437000036239624,12.01099967956543 2.372999906539917,11.793000221252441 C2.372999906539917,11.793000221252441 11.975000381469727,6.249000072479248 11.975000381469727,6.249000072479248 C12.156000137329102,6.144000053405762 12.267999649047852,5.951000213623047 12.267999649047852,5.742000102996826 C12.267999649047852,5.742000102996826 12.267999649047852,-5.343999862670898 12.267999649047852,-5.343999862670898 C13.343000411987305,-5.607999801635742 14.142999649047852,-6.578000068664551 14.142999649047852,-7.732999801635742z M-12.949000358581543,-7.732999801635742 C-12.949000358581543,-8.444000244140625 -12.371000289916992,-9.022000312805176 -11.65999984741211,-9.022000312805176 C-10.949000358581543,-9.022000312805176 -10.371000289916992,-8.444000244140625 -10.371000289916992,-7.732999801635742 C-10.371000289916992,-7.021999835968018 -10.949000358581543,-6.443999767303467 -11.65999984741211,-6.443999767303467 C-12.371000289916992,-6.443999767303467 -12.949000358581543,-7.021999835968018 -12.949000358581543,-7.732999801635742z M0.009999999776482582,13.769000053405762 C-0.7009999752044678,13.769000053405762 -1.2790000438690186,13.190999984741211 -1.2790000438690186,12.479999542236328 C-1.2790000438690186,11.769000053405762 -0.7009999752044678,11.190999984741211 0.009999999776482582,11.190999984741211 C0.7210000157356262,11.190999984741211 1.2990000247955322,11.769000053405762 1.2990000247955322,12.479999542236328 C1.2990000247955322,13.190999984741211 0.7210000157356262,13.769000053405762 0.009999999776482582,13.769000053405762z M1.7860000133514404,10.779000282287598 C1.3380000591278076,10.310999870300293 0.7070000171661377,10.019000053405762 0.009999999776482582,10.019000053405762 C-0.6869999766349792,10.019000053405762 -1.3170000314712524,10.310999870300293 -1.7649999856948853,10.777999877929688 C-1.7649999856948853,10.777999877929688 -11.074000358581543,5.4039998054504395 -11.074000358581543,5.4039998054504395 C-11.074000358581543,5.4039998054504395 -11.074000358581543,-5.343999862670898 -11.074000358581543,-5.343999862670898 C-9.99899959564209,-5.607999801635742 -9.199000358581543,-6.578000068664551 -9.199000358581543,-7.732999801635742 C-9.199000358581543,-7.9720001220703125 -9.234000205993652,-8.20300006866455 -9.29800033569336,-8.42199993133545 C-9.29800033569336,-8.42199993133545 0.010999999940395355,-13.795999526977539 0.010999999940395355,-13.795999526977539 C0.010999999940395355,-13.795999526977539 9.319999694824219,-8.42199993133545 9.319999694824219,-8.42199993133545 C9.255999565124512,-8.20300006866455 9.220999717712402,-7.9720001220703125 9.220999717712402,-7.732999801635742 C9.220999717712402,-6.578000068664551 10.020999908447266,-5.607999801635742 11.095999717712402,-5.343999862670898 C11.095999717712402,-5.343999862670898 11.095999717712402,5.4039998054504395 11.095999717712402,5.4039998054504395 C11.095999717712402,5.4039998054504395 1.7860000133514404,10.779000282287598 1.7860000133514404,10.779000282287598z M11.682000160217285,-6.443999767303467 C10.970999717712402,-6.443999767303467 10.392999649047852,-7.021999835968018 10.392999649047852,-7.732999801635742 C10.392999649047852,-8.444000244140625 10.970999717712402,-9.022000312805176 11.682000160217285,-9.022000312805176 C12.392999649047852,-9.022000312805176 12.970999717712402,-8.444000244140625 12.970999717712402,-7.732999801635742 C12.970999717712402,-7.021999835968018 12.392999649047852,-6.443999767303467 11.682000160217285,-6.443999767303467z"></path></g></g><g transform="matrix(1,0,0,1,0,0)" opacity="1" style="display: block;"><g opacity="1" transform="matrix(27.270000457763672,0,0,27.270000457763672,539.9970092773438,539.992919921875)"><g opacity="1" transform="matrix(1,0,0,1,0,0)"><path fill="rgb(92,255,79)" fill-opacity="1" d=" M8.038000106811523,-5.968999862670898 C8.038000106811523,-5.968999862670898 0.30399999022483826,-10.434000015258789 0.30399999022483826,-10.434000015258789 C0.12300000339746475,-10.538999557495117 -0.10100000351667404,-10.538999557495117 -0.28200000524520874,-10.434000015258789 C-0.28200000524520874,-10.434000015258789 -8.015999794006348,-5.968999862670898 -8.015999794006348,-5.968999862670898 C-8.196999549865723,-5.863999843597412 -8.309000015258789,-5.671000003814697 -8.309000015258789,-5.461999893188477 C-8.309000015258789,-5.461999893188477 -8.309000015258789,3.4690001010894775 -8.309000015258789,3.4690001010894775 C-8.309000015258789,3.677999973297119 -8.196999549865723,3.871000051498413 -8.015999794006348,3.9760000705718994 C-8.015999794006348,3.9760000705718994 -0.28200000524520874,8.442000389099121 -0.28200000524520874,8.442000389099121 C-0.19099999964237213,8.494000434875488 -0.09000000357627869,8.520000457763672 0.010999999940395355,8.520000457763672 C0.1120000034570694,8.520000457763672 0.21299999952316284,8.494000434875488 0.30399999022483826,8.442000389099121 C0.30399999022483826,8.442000389099121 8.038000106811523,3.9760000705718994 8.038000106811523,3.9760000705718994 C8.218999862670898,3.871000051498413 8.331000328063965,3.677999973297119 8.331000328063965,3.4690001010894775 C8.331000328063965,3.4690001010894775 8.331000328063965,-5.461999893188477 8.331000328063965,-5.461999893188477 C8.331000328063965,-5.671000003814697 8.218999862670898,-5.863999843597412 8.038000106811523,-5.968999862670898z M0.010999999940395355,-9.25 C0.010999999940395355,-9.25 6.572999954223633,-5.461999893188477 6.572999954223633,-5.461999893188477 C6.572999954223633,-5.461999893188477 0.010999999940395355,-1.6729999780654907 0.010999999940395355,-1.6729999780654907 C0.010999999940395355,-1.6729999780654907 -6.552000045776367,-5.461999893188477 -6.552000045776367,-5.461999893188477 C-6.552000045776367,-5.461999893188477 0.010999999940395355,-9.25 0.010999999940395355,-9.25z M0.597000002861023,6.920000076293945 C0.597000002861023,6.920000076293945 0.597000002861023,4.2769999504089355 0.597000002861023,4.2769999504089355 C0.597000002861023,3.953000068664551 0.33500000834465027,3.690999984741211 0.010999999940395355,3.690999984741211 C-0.31200000643730164,3.690999984741211 -0.574999988079071,3.953000068664551 -0.574999988079071,4.2769999504089355 C-0.574999988079071,4.2769999504089355 -0.574999988079071,6.920000076293945 -0.574999988079071,6.920000076293945 C-0.574999988079071,6.920000076293945 -7.13700008392334,3.13100004196167 -7.13700008392334,3.13100004196167 C-7.13700008392334,3.13100004196167 -7.13700008392334,-4.447000026702881 -7.13700008392334,-4.447000026702881 C-7.13700008392334,-4.447000026702881 -0.28200000524520874,-0.48899999260902405 -0.28200000524520874,-0.48899999260902405 C-0.19099999964237213,-0.43700000643730164 -0.09000000357627869,-0.4099999964237213 0.010999999940395355,-0.4099999964237213 C0.1120000034570694,-0.4099999964237213 0.21299999952316284,-0.43700000643730164 0.30399999022483826,-0.48899999260902405 C0.30399999022483826,-0.48899999260902405 7.158999919891357,-4.447000026702881 7.158999919891357,-4.447000026702881 C7.158999919891357,-4.447000026702881 7.158999919891357,3.13100004196167 7.158999919891357,3.13100004196167 C7.158999919891357,3.13100004196167 0.597000002861023,6.920000076293945 0.597000002861023,6.920000076293945z"></path></g></g></g><g transform="matrix(1,0,0,1,0,0)" opacity="1" style="display: block;"><g opacity="1" transform="matrix(27.270000457763672,0,0,27.270000457763672,540.0003051757812,540.0092163085938)"><g opacity="1" transform="matrix(1,0,0,1,0,0)"><path fill="rgb(92,255,79)" fill-opacity="1" d=" M0.009999999776482582,1.0540000200271606 C-0.14499999582767487,1.0540000200271606 -0.29499998688697815,1.1169999837875366 -0.4050000011920929,1.2259999513626099 C-0.5139999985694885,1.3350000381469727 -0.5759999752044678,1.4859999418258667 -0.5759999752044678,1.6399999856948853 C-0.5759999752044678,1.7940000295639038 -0.5139999985694885,1.9450000524520874 -0.4050000011920929,2.053999900817871 C-0.29499998688697815,2.1630001068115234 -0.14499999582767487,2.2260000705718994 0.009999999776482582,2.2260000705718994 C0.164000004529953,2.2260000705718994 0.3160000145435333,2.1630001068115234 0.42500001192092896,2.053999900817871 C0.5339999794960022,1.9450000524520874 0.5960000157356262,1.7940000295639038 0.5960000157356262,1.6399999856948853 C0.5960000157356262,1.4859999418258667 0.5339999794960022,1.3350000381469727 0.42500001192092896,1.2259999513626099 C0.3160000145435333,1.1169999837875366 0.164000004529953,1.0540000200271606 0.009999999776482582,1.0540000200271606z"></path></g></g></g></g></svg>