<svg xmlns="http://www.w3.org/2000/svg" xmlns:xlink="http://www.w3.org/1999/xlink" viewBox="0 0 1080 1080" width="1080" height="1080" preserveAspectRatio="xMidYMid meet" style="width: 100%; height: 100%; transform: translate3d(0px, 0px, 0px); content-visibility: visible;"><defs><clipPath id="__lottie_element_316"><rect width="1080" height="1080" x="0" y="0"></rect></clipPath><clipPath id="__lottie_element_320"><path fill="#ffffff" clip-rule="nonzero" d=" M2.2860000133514404,-4.22599983215332 C-1.6169999837875366,-4.22599983215332 -4.572000026702881,-1.062999963760376 -4.572000026702881,2.8399999141693115 C-4.572000026702881,6.743000030517578 -1.1319999694824219,9.628999710083008 2.7709999084472656,9.628999710083008 C3.7760000228881836,9.628999710083008 5.572000026702881,9.116999626159668 6.21999979019165,9.803999900817871 C7.892000198364258,11.57699966430664 10.53600025177002,14.734000205993652 13.168000221252441,15.638999938964844 C14.536999702453613,16.110000610351562 16.17099952697754,14.401000022888184 16.31100082397461,13.423999786376953 C16.457000732421875,12.402999877929688 11.3100004196167,8.477999687194824 9.303000450134277,5.685999870300293 C8.628000259399414,4.747000217437744 9.35200023651123,3.0759999752044678 9.35200023651123,2.8399999141693115 C9.35200023651123,-1.062999963760376 6.189000129699707,-4.22599983215332 2.2860000133514404,-4.22599983215332" fill-opacity="1"></path></clipPath><mask id="__lottie_element_325"><rect fill="#ffffff" width="1080" height="1080" transform="matrix(0.03463803231716156,0,0,0.03463803231716156,-18.70453643798828,-18.70453643798828)"></rect><path fill="#000000" clip-rule="nonzero" d=" M2.2170000076293945,-4.122000217437744 C-1.6859999895095825,-4.122000217437744 -4.677000045776367,-1.343999981880188 -4.677000045776367,2.559000015258789 C-4.677000045776367,6.461999893188477 -1.409000039100647,9.628999710083008 2.49399995803833,9.628999710083008 C3.499000072479248,9.628999710083008 5.572000026702881,9.116999626159668 6.21999979019165,9.803999900817871 C7.892000198364258,11.57699966430664 10.53600025177002,14.734000205993652 13.168000221252441,15.638999938964844 C14.536999702453613,16.110000610351562 16.17099952697754,14.401000022888184 16.31100082397461,13.423999786376953 C16.457000732421875,12.402999877929688 11.3100004196167,8.477999687194824 9.303000450134277,5.685999870300293 C8.628000259399414,4.747000217437744 9.35200023651123,3.0759999752044678 9.35200023651123,2.8399999141693115 C9.35200023651123,-1.062999963760376 6.119999885559082,-4.122000217437744 2.2170000076293945,-4.122000217437744" fill-opacity="1"></path></mask></defs><g clip-path="url(#__lottie_element_316)"><g mask="url(#__lottie_element_325)" transform="matrix(28.8700008392334,0,0,28.8700008392334,540,540)" opacity="1" style="display: block;"><g opacity="1" transform="matrix(1,0,0,1,0,0)"><path fill="rgb(92,255,79)" fill-opacity="1" d=" M-1.3769999742507935,8.48799991607666 C-1.930999994277954,8.571000099182129 -2.497999906539917,8.61299991607666 -3.075000047683716,8.61299991607666 C-9.416000366210938,8.61299991607666 -14.588000297546387,3.443000078201294 -14.588000297546387,-2.8980000019073486 C-14.588000297546387,-9.23900032043457 -9.416000366210938,-14.41100025177002 -3.075000047683716,-14.41100025177002 C3.2660000324249268,-14.41100025177002 8.437000274658203,-9.23900032043457 8.437000274658203,-2.8980000019073486 C8.437000274658203,-2.171999931335449 8.369000434875488,-1.4609999656677246 8.23900032043457,-0.7720000147819519 C8.260000228881836,-0.7369999885559082 8.279000282287598,-0.7009999752044678 8.298999786376953,-0.6660000085830688 C8.425999641418457,-0.4390000104904175 8.345000267028809,-0.15199999511241913 8.118000030517578,-0.02500000037252903 C7.890999794006348,0.10199999809265137 7.605000019073486,0.019999999552965164 7.478000164031982,-0.2070000022649765 C6.464000225067139,-2.0220000743865967 4.5229997634887695,-3.25 2.2960000038146973,-3.25 C-0.9789999723434448,-3.25 -3.634000062942505,-0.5950000286102295 -3.634000062942505,2.680000066757202 C-3.634000062942505,5.954999923706055 -0.9789999723434448,8.609999656677246 2.2960000038146973,8.609999656677246 C5.571000099182129,8.609999656677246 8.22700023651123,5.954999923706055 8.22700023651123,2.680000066757202 C8.22700023651123,2.4200000762939453 8.437000274658203,2.2100000381469727 8.696999549865723,2.2100000381469727 C8.956999778747559,2.2100000381469727 9.168000221252441,2.4200000762939453 9.168000221252441,2.680000066757202 C9.168000221252441,4.001999855041504 8.795000076293945,5.236000061035156 8.14799976348877,6.283999919891357 C8.14799976348877,6.283999919891357 9.58899974822998,7.682000160217285 9.58899974822998,7.682000160217285 C9.970999717712402,7.511000156402588 10.437999725341797,7.578000068664551 10.755000114440918,7.886000156402588 C10.755000114440918,7.886000156402588 14.270000457763672,11.29699993133545 14.270000457763672,11.29699993133545 C14.6850004196167,11.699999809265137 14.694999694824219,12.369999885559082 14.291999816894531,12.78499984741211 C14.291999816894531,12.78499984741211 13.02299976348877,14.093000411987305 13.02299976348877,14.093000411987305 C12.619999885559082,14.508000373840332 11.949999809265137,14.519000053405762 11.53499984741211,14.116000175476074 C11.53499984741211,14.116000175476074 8.020000457763672,10.704999923706055 8.020000457763672,10.704999923706055 C7.691999912261963,10.38599967956543 7.617000102996826,9.901000022888184 7.798999786376953,9.505999565124512 C7.798999786376953,9.505999565124512 6.425000190734863,8.17300033569336 6.425000190734863,8.17300033569336 C5.276000022888184,9.038000106811523 3.8450000286102295,9.550999641418457 2.2960000038146973,9.550999641418457 C0.9449999928474426,9.550999641418457 -0.3140000104904175,9.161999702453613 -1.3769999742507935,8.48799991607666z M7.445000171661377,-1.8700000047683716 C7.478000164031982,-2.2090001106262207 7.494999885559082,-2.5510001182556152 7.494999885559082,-2.8980000019073486 C7.494999885559082,-5.909999847412109 6.224999904632568,-8.633999824523926 4.192999839782715,-10.562999725341797 C4.119999885559082,-10.532999992370605 4.039999961853027,-10.503000259399414 3.9539999961853027,-10.473999977111816 C3.4709999561309814,-10.3100004196167 2.7230000495910645,-10.107999801635742 2.2890000343322754,-9.711000442504883 C2.2890000343322754,-9.711000442504883 2.2880001068115234,-9.711000442504883 2.2880001068115234,-9.711000442504883 C2.135999917984009,-9.571999549865723 2.0920000076293945,-9.355999946594238 2.075000047683716,-9.142000198364258 C2.052000045776367,-8.85099983215332 2.0950000286102295,-8.550999641418457 2.1449999809265137,-8.342000007629395 C2.325000047683716,-8.336999893188477 2.6440000534057617,-8.331000328063965 2.9010000228881836,-8.347999572753906 C3.5980000495910645,-8.394000053405762 4.367000102996826,-8.484999656677246 4.5269999504089355,-8.479000091552734 C5.107999801635742,-8.456000328063965 5.433000087738037,-8.222999572753906 5.61299991607666,-7.947999954223633 C5.873000144958496,-7.550000190734863 5.822000026702881,-6.98199987411499 5.614999771118164,-6.554999828338623 C5.443999767303467,-6.202000141143799 5.165999889373779,-5.9710001945495605 4.964000225067139,-5.914999961853027 C4.964000225067139,-5.914999961853027 4.9629998207092285,-5.914999961853027 4.9629998207092285,-5.914999961853027 C4.635000228881836,-5.824999809265137 2.4590001106262207,-5.8480000495910645 1.5160000324249268,-6.116000175476074 C1.5160000324249268,-6.116000175476074 1.2359999418258667,-5.811999797821045 1.2359999418258667,-5.811999797821045 C1.3289999961853027,-5.439000129699707 1.2039999961853027,-5.046000003814697 0.9639999866485596,-4.639999866485596 C0.8370000123977661,-4.425000190734863 0.6790000200271606,-4.202000141143799 0.5540000200271606,-3.9679999351501465 C1.1100000143051147,-4.11299991607666 1.694000005722046,-4.190999984741211 2.2960000038146973,-4.190999984741211 C4.3460001945495605,-4.190999984741211 6.185999870300293,-3.2939999103546143 7.445000171661377,-1.8700000047683716z M3.367000102996826,-11.270000457763672 C1.5809999704360962,-12.64799976348877 -0.6539999842643738,-13.470000267028809 -3.075000047683716,-13.470000267028809 C-4.896999835968018,-13.470000267028809 -6.61299991607666,-13.005000114440918 -8.112000465393066,-12.187999725341797 C-7.309000015258789,-11.89799976348877 -7.296000003814697,-11.87600040435791 -5.8379998207092285,-12.182999610900879 C-4.586999893188477,-12.446000099182129 -4.122000217437744,-12.211000442504883 -3.7330000400543213,-11.920999526977539 C-3.4639999866485596,-11.720999717712402 -3.257999897003174,-11.437000274658203 -2.615999937057495,-11.345999717712402 C-1.996000051498413,-11.258000373840332 -1.6299999952316284,-11.107999801635742 -1.4240000247955322,-10.855999946594238 C-1.215999960899353,-10.60200023651123 -1.1239999532699585,-10.197999954223633 -1.2269999980926514,-9.486000061035156 C-1.2640000581741333,-9.223999977111816 -1.284999966621399,-8.927000045776367 -1.3650000095367432,-8.675999641418457 C-1.4859999418258667,-8.295000076293945 -1.715999960899353,-7.998000144958496 -2.1570000648498535,-7.880000114440918 C-2.757999897003174,-7.7179999351501465 -3.562000036239624,-7.6529998779296875 -4,-7.379000186920166 C-4,-7.379000186920166 -4,-7.379000186920166 -4,-7.379000186920166 C-4.236000061035156,-7.23199987411499 -4.513000011444092,-7.113999843597412 -4.77400016784668,-6.956999778747559 C-5.061999797821045,-6.7829999923706055 -5.327000141143799,-6.546000003814697 -5.421999931335449,-6.061999797821045 C-5.505000114440918,-5.638000011444092 -5.765999794006348,-5.366000175476074 -6.13700008392334,-5.192999839782715 C-6.4039998054504395,-5.068999767303467 -6.738999843597412,-5.000999927520752 -7.073999881744385,-4.951000213623047 C-7.2789998054504395,-4.920000076293945 -7.484000205993652,-4.894000053405762 -7.664999961853027,-4.854000091552734 C-7.756999969482422,-4.834000110626221 -7.88700008392334,-4.78000020980835 -7.928999900817871,-4.76200008392334 C-7.925000190734863,-4.734000205993652 -7.915999889373779,-4.679999828338623 -7.9019999504089355,-4.638999938964844 C-7.863999843597412,-4.53000020980835 -7.798999786376953,-4.4039998054504395 -7.706999778747559,-4.25600004196167 C-7.461999893188477,-3.86299991607666 -7.296000003814697,-3.5869998931884766 -7.15500020980835,-3.3959999084472656 C-7.080999851226807,-3.2950000762939453 -7.034999847412109,-3.2239999771118164 -6.961999893188477,-3.197000026702881 C-6.873000144958496,-3.1640000343322754 -6.769000053405762,-3.181999921798706 -6.616000175476074,-3.197000026702881 C-6.368000030517578,-3.2219998836517334 -6.040999889373779,-3.2679998874664307 -5.581999778747559,-3.305000066757202 C-5.581999778747559,-3.305000066757202 -5.580999851226807,-3.305000066757202 -5.580999851226807,-3.305000066757202 C-5.474999904632568,-3.312999963760376 -5.204999923706055,-3.2820000648498535 -4.841000080108643,-3.190999984741211 C-4.216000080108643,-3.0350000858306885 -3.255000114440918,-2.7160000801086426 -2.441999912261963,-2.2960000038146973 C-1.8910000324249268,-2.821000099182129 -1.253999948501587,-3.253999948501587 -0.5529999732971191,-3.5739998817443848 C-0.5009999871253967,-4.040999889373779 -0.24899999797344208,-4.479000091552734 0.00800000037997961,-4.883999824523926 C0.10300000011920929,-5.0329999923706055 0.19499999284744263,-5.177000045776367 0.26100000739097595,-5.317999839782715 C0.30799999833106995,-5.418000221252441 0.35899999737739563,-5.511000156402588 0.3160000145435333,-5.603000164031982 C0.27300000190734863,-5.696000099182129 0.24500000476837158,-5.827000141143799 0.28200000524520874,-5.98799991607666 C0.3100000023841858,-6.111000061035156 0.3930000066757202,-6.289999961853027 0.5239999890327454,-6.464000225067139 C0.703000009059906,-6.703000068664551 0.9679999947547913,-6.931000232696533 1.2120000123977661,-7.019000053405762 C1.3899999856948853,-7.083000183105469 1.565999984741211,-7.0879998207092285 1.7259999513626099,-7.035999774932861 C2.4509999752044678,-6.801000118255615 4.247000217437744,-6.749000072479248 4.664000034332275,-6.811999797821045 C4.703000068664551,-6.873000144958496 4.8379998207092285,-7.0960001945495605 4.8520002365112305,-7.251999855041504 C4.857999801635742,-7.320000171661377 4.861000061035156,-7.392000198364258 4.817999839782715,-7.443999767303467 C4.758999824523926,-7.513999938964844 4.6479997634887695,-7.5329999923706055 4.489999771118164,-7.539000034332275 C4.489999771118164,-7.539000034332275 4.489999771118164,-7.539000034332275 4.489999771118164,-7.539000034332275 C4.260000228881836,-7.547999858856201 2.7190001010894775,-7.3429999351501465 2.0439999103546143,-7.394000053405762 C1.8450000286102295,-7.408999919891357 1.694000005722046,-7.451000213623047 1.6039999723434448,-7.497000217437744 C1.4739999771118164,-7.563000202178955 1.3969999551773071,-7.65500020980835 1.3519999980926514,-7.74399995803833 C1.3450000286102295,-7.756999969482422 1.3389999866485596,-7.769999980926514 1.3339999914169312,-7.7829999923706055 C1.2419999837875366,-8.015999794006348 1.090000033378601,-8.628000259399414 1.1369999647140503,-9.217000007629395 C1.1729999780654907,-9.67300033569336 1.3300000429153442,-10.109999656677246 1.6540000438690186,-10.406000137329102 C2.0989999771118164,-10.812999725341797 2.8010001182556152,-11.079000473022461 3.367000102996826,-11.270000457763672z M-9.142999649047852,-11.545999526977539 C-10.616000175476074,-10.508000373840332 -11.8149995803833,-9.104999542236328 -12.604000091552734,-7.468999862670898 C-11.741000175476074,-5.061999797821045 -10.22700023651123,-4.196000099182129 -9.461000442504883,-3.753000020980835 C-9.201000213623047,-3.6029999256134033 -9.01200008392334,-3.4809999465942383 -8.913000106811523,-3.378999948501587 C-8.913000106811523,-3.378999948501587 -8.91100025177002,-3.378000020980835 -8.91100025177002,-3.378000020980835 C-8.505999565124512,-2.9579999446868896 -7.947000026702881,-2.628000020980835 -7.932000160217285,-1.305999994277954 C-7.932000160217285,-1.305999994277954 -7.932000160217285,-1.305999994277954 -7.932000160217285,-1.305999994277954 C-7.921999931335449,-0.37599998712539673 -7.817999839782715,0.08900000154972076 -7.618000030517578,0.3709999918937683 C-7.499000072479248,0.5400000214576721 -7.3480000495910645,0.6309999823570251 -7.191999912261963,0.7369999885559082 C-6.626999855041504,1.1200000047683716 -5.934999942779541,1.559000015258789 -5.525000095367432,3.8570001125335693 C-5.377999782562256,4.683000087738037 -5.201000213623047,5.265999794006348 -5.004000186920166,5.645999908447266 C-4.941999912261963,5.767000198364258 -4.879000186920166,5.861999988555908 -4.814000129699707,5.934000015258789 C-4.7779998779296875,5.9730000495910645 -4.754000186920166,6.01200008392334 -4.7179999351501465,6.014999866485596 C-4.699999809265137,6.017000198364258 -4.690000057220459,5.994999885559082 -4.673999786376953,5.98199987411499 C-4.624000072479248,5.940999984741211 -4.577000141143799,5.885000228881836 -4.531000137329102,5.817999839782715 C-4.389999866485596,5.611000061035156 -4.2729997634887695,5.317999839782715 -4.184000015258789,4.9720001220703125 C-4.436999797821045,4.255000114440918 -4.574999809265137,3.4830000400543213 -4.574999809265137,2.680000066757202 C-4.574999809265137,1.0740000009536743 -4.0229997634887695,-0.40299999713897705 -3.0999999046325684,-1.5729999542236328 C-3.7890000343322754,-1.9019999504089355 -4.554999828338623,-2.1489999294281006 -5.068999767303467,-2.2769999504089355 C-5.26800012588501,-2.3269999027252197 -5.494999885559082,-2.361999988555908 -5.520999908447266,-2.365999937057495 C-6.063000202178955,-2.322000026702881 -6.418000221252441,-2.2639999389648438 -6.677999973297119,-2.246999979019165 C-6.933000087738037,-2.2309999465942383 -7.125,-2.253000020980835 -7.293000221252441,-2.315999984741211 C-7.474999904632568,-2.384000062942505 -7.63700008392334,-2.499000072479248 -7.809999942779541,-2.7070000171661377 C-7.982999801635742,-2.9140000343322754 -8.1850004196167,-3.243000030517578 -8.505999565124512,-3.757999897003174 C-8.954000473022461,-4.4770002365112305 -8.918999671936035,-4.941999912261963 -8.756999969482422,-5.228000164031982 C-8.630999565124512,-5.449999809265137 -8.402000427246094,-5.614999771118164 -8.090999603271484,-5.714000225067139 C-7.738999843597412,-5.826000213623047 -7.249000072479248,-5.855000019073486 -6.824999809265137,-5.953000068664551 C-6.703999996185303,-5.980999946594238 -6.590000152587891,-6.013999938964844 -6.49399995803833,-6.065999984741211 C-6.422999858856201,-6.105000019073486 -6.36299991607666,-6.15500020980835 -6.3460001945495605,-6.242000102996826 C-6.3460001945495605,-6.242000102996826 -6.3460001945495605,-6.242000102996826 -6.3460001945495605,-6.242000102996826 C-6.185999870300293,-7.060999870300293 -5.745999813079834,-7.4710001945495605 -5.258999824523926,-7.763999938964844 C-5.002999782562256,-7.918000221252441 -4.730000019073486,-8.031999588012695 -4.498000144958496,-8.177000045776367 C-3.996999979019165,-8.489999771118164 -3.0889999866485596,-8.604000091552734 -2.4019999504089355,-8.788999557495117 C-2.4019999504089355,-8.788999557495117 -2.4010000228881836,-8.788999557495117 -2.4010000228881836,-8.788999557495117 C-2.2760000228881836,-8.822999954223633 -2.26200008392334,-8.944999694824219 -2.236999988555908,-9.059000015258789 C-2.197000026702881,-9.241000175476074 -2.184999942779541,-9.440999984741211 -2.1589999198913574,-9.619999885559082 C-2.1589999198913574,-9.619999885559082 -2.1589999198913574,-9.619999885559082 -2.1589999198913574,-9.619999885559082 C-2.132999897003174,-9.79800033569336 -2.11899995803833,-9.946000099182129 -2.121000051498413,-10.069999694824219 C-2.121999979019165,-10.154000282287598 -2.118000030517578,-10.217000007629395 -2.1530001163482666,-10.260000228881836 C-2.190000057220459,-10.305999755859375 -2.25600004196167,-10.315999984741211 -2.3359999656677246,-10.338000297546387 C-2.4509999752044678,-10.369000434875488 -2.5869998931884766,-10.390999794006348 -2.747999906539917,-10.413999557495117 C-2.747999906539917,-10.413999557495117 -2.749000072479248,-10.413999557495117 -2.749000072479248,-10.413999557495117 C-3.4800000190734863,-10.517999649047852 -3.821000099182129,-10.781999588012695 -4.124000072479248,-11.029999732971191 C-4.263000011444092,-11.144000053405762 -4.383999824523926,-11.26099967956543 -4.5879998207092285,-11.317000389099121 C-4.817999839782715,-11.380000114440918 -5.135000228881836,-11.369000434875488 -5.644000053405762,-11.26200008392334 C-7.7270002365112305,-10.824000358581543 -7.230000019073486,-10.946000099182129 -9.142999649047852,-11.545999526977539z M-13.105999946594238,-6.235000133514404 C-13.456999778747559,-5.184999942779541 -13.647000312805176,-4.063000202178955 -13.647000312805176,-2.8980000019073486 C-13.647000312805176,2.9240000247955322 -8.897000312805176,7.671999931335449 -3.075000047683716,7.671999931335449 C-2.86299991607666,7.671999931335449 -2.6530001163482666,7.665999889373779 -2.444999933242798,7.6539998054504395 C-2.9079999923706055,7.2129998207092285 -3.309000015258789,6.705999851226807 -3.634999990463257,6.151000022888184 C-3.7200000286102295,6.304999828338623 -3.811000108718872,6.438000202178955 -3.9049999713897705,6.544000148773193 C-4.179999828338623,6.854000091552734 -4.499000072479248,6.98199987411499 -4.808000087738037,6.952000141143799 C-5.091000080108643,6.925000190734863 -5.406000137329102,6.758999824523926 -5.684000015258789,6.343999862670898 C-5.966000080108643,5.922999858856201 -6.24399995803833,5.181000232696533 -6.451000213623047,4.0229997634887695 C-6.650000095367432,2.9059998989105225 -6.9070000648498535,2.319999933242798 -7.191999912261963,1.968000054359436 C-7.482999801635742,1.6080000400543213 -7.794000148773193,1.4880000352859497 -8.04800033569336,1.2769999504089355 C-8.477999687194824,0.9200000166893005 -8.854000091552734,0.39100000262260437 -8.873000144958496,-1.2960000038146973 C-8.883999824523926,-2.2170000076293945 -9.305000305175781,-2.430999994277954 -9.58899974822998,-2.7249999046325684 C-9.694999694824219,-2.8320000171661377 -9.956999778747559,-2.947000026702881 -10.291000366210938,-3.1510000228881836 C-11.088000297546387,-3.63700008392334 -12.253000259399414,-4.485000133514404 -13.105999946594238,-6.235000133514404z M7.593999862670898,7.057000160217285 C7.451000213623047,7.230000019073486 7.297999858856201,7.396999835968018 7.138999938964844,7.554999828338623 C7.138999938964844,7.554999828338623 8.411999702453613,8.789999961853027 8.411999702453613,8.789999961853027 C8.411999702453613,8.789999961853027 8.880999565124512,8.305999755859375 8.880999565124512,8.305999755859375 C8.880999565124512,8.305999755859375 7.593999862670898,7.057000160217285 7.593999862670898,7.057000160217285z M12.347999572753906,13.437999725341797 C12.347999572753906,13.437999725341797 13.616999626159668,12.130000114440918 13.616999626159668,12.130000114440918 C13.65999984741211,12.086000442504883 13.657999992370605,12.015999794006348 13.61400032043457,11.972999572753906 C13.61400032043457,11.972999572753906 10.098999977111816,8.562000274658203 10.098999977111816,8.562000274658203 C10.055000305175781,8.520000457763672 9.984999656677246,8.520000457763672 9.942000389099121,8.564000129699707 C9.942000389099121,8.564000129699707 8.67300033569336,9.871999740600586 8.67300033569336,9.871999740600586 C8.630000114440918,9.916000366210938 8.630999565124512,9.987000465393066 8.675000190734863,10.029000282287598 C8.675000190734863,10.029000282287598 12.1899995803833,13.4399995803833 12.1899995803833,13.4399995803833 C12.234000205993652,13.482999801635742 12.305000305175781,13.482000350952148 12.347999572753906,13.437999725341797z M6.622000217437744,3.634999990463257 C6.677999973297119,3.38100004196167 6.927999973297119,3.2209999561309814 7.182000160217285,3.2769999504089355 C7.435999870300293,3.3329999446868896 7.5970001220703125,3.5829999446868896 7.540999889373779,3.8369998931884766 C7.01200008392334,6.245999813079834 4.863999843597412,8.050000190734863 2.2960000038146973,8.050000190734863 C-0.6690000295639038,8.050000190734863 -3.072999954223633,5.644999980926514 -3.072999954223633,2.680000066757202 C-3.072999954223633,-0.2849999964237213 -0.6690000295639038,-2.688999891281128 2.2960000038146973,-2.688999891281128 C4.51800012588501,-2.688999891281128 6.426000118255615,-1.3389999866485596 7.242000102996826,0.5860000252723694 C7.3429999351501465,0.824999988079071 7.230999946594238,1.1019999980926514 6.992000102996826,1.2029999494552612 C6.752999782562256,1.3040000200271606 6.4770002365112305,1.1920000314712524 6.375999927520752,0.953000009059906 C5.703000068664551,-0.6349999904632568 4.129000186920166,-1.7480000257492065 2.2960000038146973,-1.7480000257492065 C-0.15000000596046448,-1.7480000257492065 -2.131999969482422,0.23399999737739563 -2.131999969482422,2.680000066757202 C-2.131999969482422,5.125999927520752 -0.15000000596046448,7.109000205993652 2.2960000038146973,7.109000205993652 C4.414000034332275,7.109000205993652 6.184999942779541,5.622000217437744 6.622000217437744,3.634999990463257z"></path></g></g><g clip-path="url(#__lottie_element_320)" transform="matrix(28.8700008392334,0,0,28.8700008392334,549.5869750976562,533.2890014648438)" opacity="1" style="display: block;"><g opacity="1" transform="matrix(1,0,0,1,0,0)"><path fill="rgb(92,255,79)" fill-opacity="1" d=" M-1.3769999742507935,8.48799991607666 C-1.930999994277954,8.571000099182129 -2.497999906539917,8.61299991607666 -3.075000047683716,8.61299991607666 C-9.416000366210938,8.61299991607666 -14.588000297546387,3.443000078201294 -14.588000297546387,-2.8980000019073486 C-14.588000297546387,-9.23900032043457 -9.416000366210938,-14.41100025177002 -3.075000047683716,-14.41100025177002 C3.2660000324249268,-14.41100025177002 8.437000274658203,-9.23900032043457 8.437000274658203,-2.8980000019073486 C8.437000274658203,-2.171999931335449 8.369000434875488,-1.4609999656677246 8.23900032043457,-0.7720000147819519 C8.260000228881836,-0.7369999885559082 8.279000282287598,-0.7009999752044678 8.298999786376953,-0.6660000085830688 C8.425999641418457,-0.4390000104904175 8.345000267028809,-0.15199999511241913 8.118000030517578,-0.02500000037252903 C7.890999794006348,0.10199999809265137 7.605000019073486,0.019999999552965164 7.478000164031982,-0.2070000022649765 C6.464000225067139,-2.0220000743865967 4.5229997634887695,-3.25 2.2960000038146973,-3.25 C-0.9789999723434448,-3.25 -3.634000062942505,-0.5950000286102295 -3.634000062942505,2.680000066757202 C-3.634000062942505,5.954999923706055 -0.9789999723434448,8.609999656677246 2.2960000038146973,8.609999656677246 C5.571000099182129,8.609999656677246 8.22700023651123,5.954999923706055 8.22700023651123,2.680000066757202 C8.22700023651123,2.4200000762939453 8.437000274658203,2.2100000381469727 8.696999549865723,2.2100000381469727 C8.956999778747559,2.2100000381469727 9.168000221252441,2.4200000762939453 9.168000221252441,2.680000066757202 C9.168000221252441,4.001999855041504 8.795000076293945,5.236000061035156 8.14799976348877,6.283999919891357 C8.14799976348877,6.283999919891357 9.58899974822998,7.682000160217285 9.58899974822998,7.682000160217285 C9.970999717712402,7.511000156402588 10.437999725341797,7.578000068664551 10.755000114440918,7.886000156402588 C10.755000114440918,7.886000156402588 14.270000457763672,11.29699993133545 14.270000457763672,11.29699993133545 C14.6850004196167,11.699999809265137 14.694999694824219,12.369999885559082 14.291999816894531,12.78499984741211 C14.291999816894531,12.78499984741211 13.02299976348877,14.093000411987305 13.02299976348877,14.093000411987305 C12.619999885559082,14.508000373840332 11.949999809265137,14.519000053405762 11.53499984741211,14.116000175476074 C11.53499984741211,14.116000175476074 8.020000457763672,10.704999923706055 8.020000457763672,10.704999923706055 C7.691999912261963,10.38599967956543 7.617000102996826,9.901000022888184 7.798999786376953,9.505999565124512 C7.798999786376953,9.505999565124512 6.425000190734863,8.17300033569336 6.425000190734863,8.17300033569336 C5.276000022888184,9.038000106811523 3.8450000286102295,9.550999641418457 2.2960000038146973,9.550999641418457 C0.9449999928474426,9.550999641418457 -0.3140000104904175,9.161999702453613 -1.3769999742507935,8.48799991607666z M7.445000171661377,-1.8700000047683716 C7.478000164031982,-2.2090001106262207 7.494999885559082,-2.5510001182556152 7.494999885559082,-2.8980000019073486 C7.494999885559082,-5.909999847412109 6.224999904632568,-8.633999824523926 4.192999839782715,-10.562999725341797 C4.119999885559082,-10.532999992370605 4.039999961853027,-10.503000259399414 3.9539999961853027,-10.473999977111816 C3.4709999561309814,-10.3100004196167 2.7230000495910645,-10.107999801635742 2.2890000343322754,-9.711000442504883 C2.2890000343322754,-9.711000442504883 2.2880001068115234,-9.711000442504883 2.2880001068115234,-9.711000442504883 C2.135999917984009,-9.571999549865723 2.0920000076293945,-9.355999946594238 2.075000047683716,-9.142000198364258 C2.052000045776367,-8.85099983215332 2.0950000286102295,-8.550999641418457 2.1449999809265137,-8.342000007629395 C2.325000047683716,-8.336999893188477 2.6440000534057617,-8.331000328063965 2.9010000228881836,-8.347999572753906 C3.5980000495910645,-8.394000053405762 4.367000102996826,-8.484999656677246 4.5269999504089355,-8.479000091552734 C5.107999801635742,-8.456000328063965 5.433000087738037,-8.222999572753906 5.61299991607666,-7.947999954223633 C5.873000144958496,-7.550000190734863 5.822000026702881,-6.98199987411499 5.614999771118164,-6.554999828338623 C5.443999767303467,-6.202000141143799 5.165999889373779,-5.9710001945495605 4.964000225067139,-5.914999961853027 C4.964000225067139,-5.914999961853027 4.9629998207092285,-5.914999961853027 4.9629998207092285,-5.914999961853027 C4.635000228881836,-5.824999809265137 2.4590001106262207,-5.8480000495910645 1.5160000324249268,-6.116000175476074 C1.5160000324249268,-6.116000175476074 1.2359999418258667,-5.811999797821045 1.2359999418258667,-5.811999797821045 C1.3289999961853027,-5.439000129699707 1.2039999961853027,-5.046000003814697 0.9639999866485596,-4.639999866485596 C0.8370000123977661,-4.425000190734863 0.6790000200271606,-4.202000141143799 0.5540000200271606,-3.9679999351501465 C1.1100000143051147,-4.11299991607666 1.694000005722046,-4.190999984741211 2.2960000038146973,-4.190999984741211 C4.3460001945495605,-4.190999984741211 6.185999870300293,-3.2939999103546143 7.445000171661377,-1.8700000047683716z M3.367000102996826,-11.270000457763672 C1.5809999704360962,-12.64799976348877 -0.6539999842643738,-13.470000267028809 -3.075000047683716,-13.470000267028809 C-4.896999835968018,-13.470000267028809 -6.61299991607666,-13.005000114440918 -8.112000465393066,-12.187999725341797 C-7.309000015258789,-11.89799976348877 -7.296000003814697,-11.87600040435791 -5.8379998207092285,-12.182999610900879 C-4.586999893188477,-12.446000099182129 -4.122000217437744,-12.211000442504883 -3.7330000400543213,-11.920999526977539 C-3.4639999866485596,-11.720999717712402 -3.257999897003174,-11.437000274658203 -2.615999937057495,-11.345999717712402 C-1.996000051498413,-11.258000373840332 -1.6299999952316284,-11.107999801635742 -1.4240000247955322,-10.855999946594238 C-1.215999960899353,-10.60200023651123 -1.1239999532699585,-10.197999954223633 -1.2269999980926514,-9.486000061035156 C-1.2640000581741333,-9.223999977111816 -1.284999966621399,-8.927000045776367 -1.3650000095367432,-8.675999641418457 C-1.4859999418258667,-8.295000076293945 -1.715999960899353,-7.998000144958496 -2.1570000648498535,-7.880000114440918 C-2.757999897003174,-7.7179999351501465 -3.562000036239624,-7.6529998779296875 -4,-7.379000186920166 C-4,-7.379000186920166 -4,-7.379000186920166 -4,-7.379000186920166 C-4.236000061035156,-7.23199987411499 -4.513000011444092,-7.113999843597412 -4.77400016784668,-6.956999778747559 C-5.061999797821045,-6.7829999923706055 -5.327000141143799,-6.546000003814697 -5.421999931335449,-6.061999797821045 C-5.505000114440918,-5.638000011444092 -5.765999794006348,-5.366000175476074 -6.13700008392334,-5.192999839782715 C-6.4039998054504395,-5.068999767303467 -6.738999843597412,-5.000999927520752 -7.073999881744385,-4.951000213623047 C-7.2789998054504395,-4.920000076293945 -7.484000205993652,-4.894000053405762 -7.664999961853027,-4.854000091552734 C-7.756999969482422,-4.834000110626221 -7.88700008392334,-4.78000020980835 -7.928999900817871,-4.76200008392334 C-7.925000190734863,-4.734000205993652 -7.915999889373779,-4.679999828338623 -7.9019999504089355,-4.638999938964844 C-7.863999843597412,-4.53000020980835 -7.798999786376953,-4.4039998054504395 -7.706999778747559,-4.25600004196167 C-7.461999893188477,-3.86299991607666 -7.296000003814697,-3.5869998931884766 -7.15500020980835,-3.3959999084472656 C-7.080999851226807,-3.2950000762939453 -7.034999847412109,-3.2239999771118164 -6.961999893188477,-3.197000026702881 C-6.873000144958496,-3.1640000343322754 -6.769000053405762,-3.181999921798706 -6.616000175476074,-3.197000026702881 C-6.368000030517578,-3.2219998836517334 -6.040999889373779,-3.2679998874664307 -5.581999778747559,-3.305000066757202 C-5.581999778747559,-3.305000066757202 -5.580999851226807,-3.305000066757202 -5.580999851226807,-3.305000066757202 C-5.474999904632568,-3.312999963760376 -5.204999923706055,-3.2820000648498535 -4.841000080108643,-3.190999984741211 C-4.216000080108643,-3.0350000858306885 -3.255000114440918,-2.7160000801086426 -2.441999912261963,-2.2960000038146973 C-1.8910000324249268,-2.821000099182129 -1.253999948501587,-3.253999948501587 -0.5529999732971191,-3.5739998817443848 C-0.5009999871253967,-4.040999889373779 -0.24899999797344208,-4.479000091552734 0.00800000037997961,-4.883999824523926 C0.10300000011920929,-5.0329999923706055 0.19499999284744263,-5.177000045776367 0.26100000739097595,-5.317999839782715 C0.30799999833106995,-5.418000221252441 0.35899999737739563,-5.511000156402588 0.3160000145435333,-5.603000164031982 C0.27300000190734863,-5.696000099182129 0.24500000476837158,-5.827000141143799 0.28200000524520874,-5.98799991607666 C0.3100000023841858,-6.111000061035156 0.3930000066757202,-6.289999961853027 0.5239999890327454,-6.464000225067139 C0.703000009059906,-6.703000068664551 0.9679999947547913,-6.931000232696533 1.2120000123977661,-7.019000053405762 C1.3899999856948853,-7.083000183105469 1.565999984741211,-7.0879998207092285 1.7259999513626099,-7.035999774932861 C2.4509999752044678,-6.801000118255615 4.247000217437744,-6.749000072479248 4.664000034332275,-6.811999797821045 C4.703000068664551,-6.873000144958496 4.8379998207092285,-7.0960001945495605 4.8520002365112305,-7.251999855041504 C4.857999801635742,-7.320000171661377 4.861000061035156,-7.392000198364258 4.817999839782715,-7.443999767303467 C4.758999824523926,-7.513999938964844 4.6479997634887695,-7.5329999923706055 4.489999771118164,-7.539000034332275 C4.489999771118164,-7.539000034332275 4.489999771118164,-7.539000034332275 4.489999771118164,-7.539000034332275 C4.260000228881836,-7.547999858856201 2.7190001010894775,-7.3429999351501465 2.0439999103546143,-7.394000053405762 C1.8450000286102295,-7.408999919891357 1.694000005722046,-7.451000213623047 1.6039999723434448,-7.497000217437744 C1.4739999771118164,-7.563000202178955 1.3969999551773071,-7.65500020980835 1.3519999980926514,-7.74399995803833 C1.3450000286102295,-7.756999969482422 1.3389999866485596,-7.769999980926514 1.3339999914169312,-7.7829999923706055 C1.2419999837875366,-8.015999794006348 1.090000033378601,-8.628000259399414 1.1369999647140503,-9.217000007629395 C1.1729999780654907,-9.67300033569336 1.3300000429153442,-10.109999656677246 1.6540000438690186,-10.406000137329102 C2.0989999771118164,-10.812999725341797 2.8010001182556152,-11.079000473022461 3.367000102996826,-11.270000457763672z M-9.142999649047852,-11.545999526977539 C-10.616000175476074,-10.508000373840332 -11.8149995803833,-9.104999542236328 -12.604000091552734,-7.468999862670898 C-11.741000175476074,-5.061999797821045 -10.22700023651123,-4.196000099182129 -9.461000442504883,-3.753000020980835 C-9.201000213623047,-3.6029999256134033 -9.01200008392334,-3.4809999465942383 -8.913000106811523,-3.378999948501587 C-8.913000106811523,-3.378999948501587 -8.91100025177002,-3.378000020980835 -8.91100025177002,-3.378000020980835 C-8.505999565124512,-2.9579999446868896 -7.947000026702881,-2.628000020980835 -7.932000160217285,-1.305999994277954 C-7.932000160217285,-1.305999994277954 -7.932000160217285,-1.305999994277954 -7.932000160217285,-1.305999994277954 C-7.921999931335449,-0.37599998712539673 -7.817999839782715,0.08900000154972076 -7.618000030517578,0.3709999918937683 C-7.499000072479248,0.5400000214576721 -7.3480000495910645,0.6309999823570251 -7.191999912261963,0.7369999885559082 C-6.626999855041504,1.1200000047683716 -5.934999942779541,1.559000015258789 -5.525000095367432,3.8570001125335693 C-5.377999782562256,4.683000087738037 -5.201000213623047,5.265999794006348 -5.004000186920166,5.645999908447266 C-4.941999912261963,5.767000198364258 -4.879000186920166,5.861999988555908 -4.814000129699707,5.934000015258789 C-4.7779998779296875,5.9730000495910645 -4.754000186920166,6.01200008392334 -4.7179999351501465,6.014999866485596 C-4.699999809265137,6.017000198364258 -4.690000057220459,5.994999885559082 -4.673999786376953,5.98199987411499 C-4.624000072479248,5.940999984741211 -4.577000141143799,5.885000228881836 -4.531000137329102,5.817999839782715 C-4.389999866485596,5.611000061035156 -4.2729997634887695,5.317999839782715 -4.184000015258789,4.9720001220703125 C-4.436999797821045,4.255000114440918 -4.574999809265137,3.4830000400543213 -4.574999809265137,2.680000066757202 C-4.574999809265137,1.0740000009536743 -4.0229997634887695,-0.40299999713897705 -3.0999999046325684,-1.5729999542236328 C-3.7890000343322754,-1.9019999504089355 -4.554999828338623,-2.1489999294281006 -5.068999767303467,-2.2769999504089355 C-5.26800012588501,-2.3269999027252197 -5.494999885559082,-2.361999988555908 -5.520999908447266,-2.365999937057495 C-6.063000202178955,-2.322000026702881 -6.418000221252441,-2.2639999389648438 -6.677999973297119,-2.246999979019165 C-6.933000087738037,-2.2309999465942383 -7.125,-2.253000020980835 -7.293000221252441,-2.315999984741211 C-7.474999904632568,-2.384000062942505 -7.63700008392334,-2.499000072479248 -7.809999942779541,-2.7070000171661377 C-7.982999801635742,-2.9140000343322754 -8.1850004196167,-3.243000030517578 -8.505999565124512,-3.757999897003174 C-8.954000473022461,-4.4770002365112305 -8.918999671936035,-4.941999912261963 -8.756999969482422,-5.228000164031982 C-8.630999565124512,-5.449999809265137 -8.402000427246094,-5.614999771118164 -8.090999603271484,-5.714000225067139 C-7.738999843597412,-5.826000213623047 -7.249000072479248,-5.855000019073486 -6.824999809265137,-5.953000068664551 C-6.703999996185303,-5.980999946594238 -6.590000152587891,-6.013999938964844 -6.49399995803833,-6.065999984741211 C-6.422999858856201,-6.105000019073486 -6.36299991607666,-6.15500020980835 -6.3460001945495605,-6.242000102996826 C-6.3460001945495605,-6.242000102996826 -6.3460001945495605,-6.242000102996826 -6.3460001945495605,-6.242000102996826 C-6.185999870300293,-7.060999870300293 -5.745999813079834,-7.4710001945495605 -5.258999824523926,-7.763999938964844 C-5.002999782562256,-7.918000221252441 -4.730000019073486,-8.031999588012695 -4.498000144958496,-8.177000045776367 C-3.996999979019165,-8.489999771118164 -3.0889999866485596,-8.604000091552734 -2.4019999504089355,-8.788999557495117 C-2.4019999504089355,-8.788999557495117 -2.4010000228881836,-8.788999557495117 -2.4010000228881836,-8.788999557495117 C-2.2760000228881836,-8.822999954223633 -2.26200008392334,-8.944999694824219 -2.236999988555908,-9.059000015258789 C-2.197000026702881,-9.241000175476074 -2.184999942779541,-9.440999984741211 -2.1589999198913574,-9.619999885559082 C-2.1589999198913574,-9.619999885559082 -2.1589999198913574,-9.619999885559082 -2.1589999198913574,-9.619999885559082 C-2.132999897003174,-9.79800033569336 -2.11899995803833,-9.946000099182129 -2.121000051498413,-10.069999694824219 C-2.121999979019165,-10.154000282287598 -2.118000030517578,-10.217000007629395 -2.1530001163482666,-10.260000228881836 C-2.190000057220459,-10.305999755859375 -2.25600004196167,-10.315999984741211 -2.3359999656677246,-10.338000297546387 C-2.4509999752044678,-10.369000434875488 -2.5869998931884766,-10.390999794006348 -2.747999906539917,-10.413999557495117 C-2.747999906539917,-10.413999557495117 -2.749000072479248,-10.413999557495117 -2.749000072479248,-10.413999557495117 C-3.4800000190734863,-10.517999649047852 -3.821000099182129,-10.781999588012695 -4.124000072479248,-11.029999732971191 C-4.263000011444092,-11.144000053405762 -4.383999824523926,-11.26099967956543 -4.5879998207092285,-11.317000389099121 C-4.817999839782715,-11.380000114440918 -5.135000228881836,-11.369000434875488 -5.644000053405762,-11.26200008392334 C-7.7270002365112305,-10.824000358581543 -7.230000019073486,-10.946000099182129 -9.142999649047852,-11.545999526977539z M-13.105999946594238,-6.235000133514404 C-13.456999778747559,-5.184999942779541 -13.647000312805176,-4.063000202178955 -13.647000312805176,-2.8980000019073486 C-13.647000312805176,2.9240000247955322 -8.897000312805176,7.671999931335449 -3.075000047683716,7.671999931335449 C-2.86299991607666,7.671999931335449 -2.6530001163482666,7.665999889373779 -2.444999933242798,7.6539998054504395 C-2.9079999923706055,7.2129998207092285 -3.309000015258789,6.705999851226807 -3.634999990463257,6.151000022888184 C-3.7200000286102295,6.304999828338623 -3.811000108718872,6.438000202178955 -3.9049999713897705,6.544000148773193 C-4.179999828338623,6.854000091552734 -4.499000072479248,6.98199987411499 -4.808000087738037,6.952000141143799 C-5.091000080108643,6.925000190734863 -5.406000137329102,6.758999824523926 -5.684000015258789,6.343999862670898 C-5.966000080108643,5.922999858856201 -6.24399995803833,5.181000232696533 -6.451000213623047,4.0229997634887695 C-6.650000095367432,2.9059998989105225 -6.9070000648498535,2.319999933242798 -7.191999912261963,1.968000054359436 C-7.482999801635742,1.6080000400543213 -7.794000148773193,1.4880000352859497 -8.04800033569336,1.2769999504089355 C-8.477999687194824,0.9200000166893005 -8.854000091552734,0.39100000262260437 -8.873000144958496,-1.2960000038146973 C-8.883999824523926,-2.2170000076293945 -9.305000305175781,-2.430999994277954 -9.58899974822998,-2.7249999046325684 C-9.694999694824219,-2.8320000171661377 -9.956999778747559,-2.947000026702881 -10.291000366210938,-3.1510000228881836 C-11.088000297546387,-3.63700008392334 -12.253000259399414,-4.485000133514404 -13.105999946594238,-6.235000133514404z M7.593999862670898,7.057000160217285 C7.451000213623047,7.230000019073486 7.297999858856201,7.396999835968018 7.138999938964844,7.554999828338623 C7.138999938964844,7.554999828338623 8.411999702453613,8.789999961853027 8.411999702453613,8.789999961853027 C8.411999702453613,8.789999961853027 8.880999565124512,8.305999755859375 8.880999565124512,8.305999755859375 C8.880999565124512,8.305999755859375 7.593999862670898,7.057000160217285 7.593999862670898,7.057000160217285z M12.347999572753906,13.437999725341797 C12.347999572753906,13.437999725341797 13.616999626159668,12.130000114440918 13.616999626159668,12.130000114440918 C13.65999984741211,12.086000442504883 13.657999992370605,12.015999794006348 13.61400032043457,11.972999572753906 C13.61400032043457,11.972999572753906 10.098999977111816,8.562000274658203 10.098999977111816,8.562000274658203 C10.055000305175781,8.520000457763672 9.984999656677246,8.520000457763672 9.942000389099121,8.564000129699707 C9.942000389099121,8.564000129699707 8.67300033569336,9.871999740600586 8.67300033569336,9.871999740600586 C8.630000114440918,9.916000366210938 8.630999565124512,9.987000465393066 8.675000190734863,10.029000282287598 C8.675000190734863,10.029000282287598 12.1899995803833,13.4399995803833 12.1899995803833,13.4399995803833 C12.234000205993652,13.482999801635742 12.305000305175781,13.482000350952148 12.347999572753906,13.437999725341797z M6.622000217437744,3.634999990463257 C6.677999973297119,3.38100004196167 6.927999973297119,3.2209999561309814 7.182000160217285,3.2769999504089355 C7.435999870300293,3.3329999446868896 7.5970001220703125,3.5829999446868896 7.540999889373779,3.8369998931884766 C7.01200008392334,6.245999813079834 4.863999843597412,8.050000190734863 2.2960000038146973,8.050000190734863 C-0.6690000295639038,8.050000190734863 -3.072999954223633,5.644999980926514 -3.072999954223633,2.680000066757202 C-3.072999954223633,-0.2849999964237213 -0.6690000295639038,-2.688999891281128 2.2960000038146973,-2.688999891281128 C4.51800012588501,-2.688999891281128 6.426000118255615,-1.3389999866485596 7.242000102996826,0.5860000252723694 C7.3429999351501465,0.824999988079071 7.230999946594238,1.1019999980926514 6.992000102996826,1.2029999494552612 C6.752999782562256,1.3040000200271606 6.4770002365112305,1.1920000314712524 6.375999927520752,0.953000009059906 C5.703000068664551,-0.6349999904632568 4.129000186920166,-1.7480000257492065 2.2960000038146973,-1.7480000257492065 C-0.15000000596046448,-1.7480000257492065 -2.131999969482422,0.23399999737739563 -2.131999969482422,2.680000066757202 C-2.131999969482422,5.125999927520752 -0.15000000596046448,7.109000205993652 2.2960000038146973,7.109000205993652 C4.414000034332275,7.109000205993652 6.184999942779541,5.622000217437744 6.622000217437744,3.634999990463257z"></path></g></g><g transform="matrix(1.0000568628311157,0,0,1.0000568628311157,549.5869750976562,533.2890014648438)" opacity="1" style="display: block;"><g opacity="1" transform="matrix(1,0,0,1,0,0)"><path stroke-linecap="round" stroke-linejoin="round" fill-opacity="0" stroke="rgb(91,255,79)" stroke-opacity="1" stroke-width="24" d=" M-8,114 C-8,114 100,10 100,10 C100,10 204,70 204,70 C204,70 370,-114 370,-114"></path></g><g opacity="1" transform="matrix(1,0,0,1,0,0)"><path stroke-linecap="round" stroke-linejoin="round" fill-opacity="0" stroke="rgb(91,255,79)" stroke-opacity="1" stroke-width="27" d=" M282,-100 C282,-100 368,-116 368,-116 C368,-116 364,-26 364,-26"></path></g></g></g></svg>