<svg xmlns="http://www.w3.org/2000/svg" xmlns:xlink="http://www.w3.org/1999/xlink" viewBox="0 0 1080 1080" width="1080" height="1080" preserveAspectRatio="xMidYMid meet" style="width: 100%; height: 100%; transform: translate3d(0px, 0px, 0px); content-visibility: visible;"><defs><clipPath id="__lottie_element_411"><rect width="1080" height="1080" x="0" y="0"></rect></clipPath><mask id="__lottie_element_435"><rect fill="#ffffff" width="1080" height="1080" transform="matrix(0.03275466710329056,0,0,0.03275466710329056,-17.68752098083496,-17.687488555908203)"></rect><path fill="#000000" clip-rule="nonzero" d=" M15.461999893188477,-7.99399995803833 C15.461999893188477,-7.99399995803833 2.8480000495910645,-7.99399995803833 2.8480000495910645,-7.99399995803833 C2.8480000495910645,-7.99399995803833 2.8480000495910645,10.35099983215332 2.8480000495910645,10.35099983215332 C2.8480000495910645,10.35099983215332 15.461999893188477,10.35099983215332 15.461999893188477,10.35099983215332 C15.461999893188477,10.35099983215332 15.461999893188477,-7.99399995803833 15.461999893188477,-7.99399995803833" fill-opacity="1"></path></mask><mask id="__lottie_element_438"><path fill="#ffffff" clip-rule="nonzero" d=" M14.996000289916992,-7.960999965667725 C14.996000289916992,-7.960999965667725 2.809999942779541,-7.960999965667725 2.809999942779541,-7.960999965667725 C2.809999942779541,-7.960999965667725 2.809999942779541,10.383999824523926 2.809999942779541,10.383999824523926 C2.809999942779541,10.383999824523926 14.996000289916992,10.383999824523926 14.996000289916992,10.383999824523926 C14.996000289916992,10.383999824523926 14.996000289916992,-7.960999965667725 14.996000289916992,-7.960999965667725" fill-opacity="1"></path></mask></defs><g clip-path="url(#__lottie_element_411)"><g mask="url(#__lottie_element_438)" transform="matrix(30.530000686645508,0,0,30.530000686645508,540,539.9990234375)" opacity="1" style="display: block;"><g opacity="1" transform="matrix(1,0,0,1,0,0)"><path fill="rgb(92,255,79)" fill-opacity="1" d=" M12.42199993133545,-5.625 C12.42199993133545,-5.625 2.812000036239624,-5.625 2.812000036239624,-5.625 C2.812000036239624,-5.625 2.812000036239624,-12.890999794006348 2.812000036239624,-12.890999794006348 C2.811000108718872,-13.326000213623047 2.6389999389648438,-13.741999626159668 2.3310000896453857,-14.050000190734863 C2.0239999294281006,-14.357999801635742 1.6069999933242798,-14.531000137329102 1.1720000505447388,-14.531000137329102 C1.1720000505447388,-14.531000137329102 -12.42199993133545,-14.531000137329102 -12.42199993133545,-14.531000137329102 C-12.857000350952148,-14.531000137329102 -13.27299976348877,-14.357999801635742 -13.581000328063965,-14.050000190734863 C-13.888999938964844,-13.741999626159668 -14.062000274658203,-13.326000213623047 -14.062000274658203,-12.890999794006348 C-14.062000274658203,-12.890999794006348 -14.062000274658203,12.890999794006348 -14.062000274658203,12.890999794006348 C-14.062000274658203,13.326000213623047 -13.888999938964844,13.741999626159668 -13.581000328063965,14.050000190734863 C-13.27299976348877,14.357999801635742 -12.857000350952148,14.531000137329102 -12.42199993133545,14.531000137329102 C-12.42199993133545,14.531000137329102 1.1720000505447388,14.531000137329102 1.1720000505447388,14.531000137329102 C1.6069999933242798,14.531000137329102 2.0239999294281006,14.357999801635742 2.3310000896453857,14.050000190734863 C2.6389999389648438,13.741999626159668 2.811000108718872,13.326000213623047 2.812000036239624,12.890999794006348 C2.812000036239624,12.890999794006348 2.812000036239624,6.093999862670898 2.812000036239624,6.093999862670898 C2.812000036239624,6.093999862670898 12.42199993133545,6.093999862670898 12.42199993133545,6.093999862670898 C12.857000350952148,6.0929999351501465 13.27400016784668,5.921000003814697 13.581000328063965,5.61299991607666 C13.888999938964844,5.304999828338623 14.060999870300293,4.888000011444092 14.062000274658203,4.453000068664551 C14.062000274658203,4.453000068664551 14.062000274658203,-3.9839999675750732 14.062000274658203,-3.9839999675750732 C14.060999870300293,-4.419000148773193 13.888999938964844,-4.835999965667725 13.581000328063965,-5.144000053405762 C13.27400016784668,-5.452000141143799 12.857000350952148,-5.625 12.42199993133545,-5.625z M-3.4130001068115234,-13.593999862670898 C-3.4130001068115234,-13.593999862670898 -3.6480000019073486,-12.656000137329102 -3.6480000019073486,-12.656000137329102 C-3.6480000019073486,-12.656000137329102 -7.603000164031982,-12.656000137329102 -7.603000164031982,-12.656000137329102 C-7.603000164031982,-12.656000137329102 -7.836999893188477,-13.593999862670898 -7.836999893188477,-13.593999862670898 C-7.836999893188477,-13.593999862670898 -3.4130001068115234,-13.593999862670898 -3.4130001068115234,-13.593999862670898z M1.875,12.890999794006348 C1.875,13.07800006866455 1.8009999990463257,13.255999565124512 1.6690000295639038,13.387999534606934 C1.5369999408721924,13.520000457763672 1.3580000400543213,13.593999862670898 1.1720000505447388,13.593999862670898 C1.1720000505447388,13.593999862670898 -12.42199993133545,13.593999862670898 -12.42199993133545,13.593999862670898 C-12.607999801635742,13.593999862670898 -12.786999702453613,13.520000457763672 -12.918999671936035,13.387999534606934 C-13.050999641418457,13.255999565124512 -13.125,13.07800006866455 -13.125,12.890999794006348 C-13.125,12.890999794006348 -13.125,-12.890999794006348 -13.125,-12.890999794006348 C-13.125,-13.07699966430664 -13.050999641418457,-13.255999565124512 -12.918999671936035,-13.387999534606934 C-12.786999702453613,-13.520000457763672 -12.607999801635742,-13.593999862670898 -12.42199993133545,-13.593999862670898 C-12.42199993133545,-13.593999862670898 -8.803999900817871,-13.593999862670898 -8.803999900817871,-13.593999862670898 C-8.803999900817871,-13.593999862670898 -8.42300033569336,-12.074000358581543 -8.42300033569336,-12.074000358581543 C-8.39799976348877,-11.972999572753906 -8.33899974822998,-11.881999969482422 -8.256999969482422,-11.817999839782715 C-8.175000190734863,-11.753999710083008 -8.074000358581543,-11.718999862670898 -7.968999862670898,-11.718999862670898 C-7.968999862670898,-11.718999862670898 -3.2809998989105225,-11.718999862670898 -3.2809998989105225,-11.718999862670898 C-3.1760001182556152,-11.718999862670898 -3.075000047683716,-11.753999710083008 -2.993000030517578,-11.817999839782715 C-2.9110000133514404,-11.881999969482422 -2.8519999980926514,-11.972999572753906 -2.8269999027252197,-12.074000358581543 C-2.8269999027252197,-12.074000358581543 -2.446000099182129,-13.593999862670898 -2.446000099182129,-13.593999862670898 C-2.446000099182129,-13.593999862670898 1.1720000505447388,-13.593999862670898 1.1720000505447388,-13.593999862670898 C1.3580000400543213,-13.593999862670898 1.5369999408721924,-13.520000457763672 1.6690000295639038,-13.387999534606934 C1.8009999990463257,-13.255999565124512 1.875,-13.07699966430664 1.875,-12.890999794006348 C1.875,-12.890999794006348 1.875,12.890999794006348 1.875,12.890999794006348z M2.812000036239624,1.406000018119812 C2.812000036239624,1.406000018119812 4.218999862670898,1.406000018119812 4.218999862670898,1.406000018119812 C4.218999862670898,1.406000018119812 4.218999862670898,3.2809998989105225 4.218999862670898,3.2809998989105225 C4.218999862670898,3.2809998989105225 2.812000036239624,3.2809998989105225 2.812000036239624,3.2809998989105225 C2.812000036239624,3.2809998989105225 2.812000036239624,1.406000018119812 2.812000036239624,1.406000018119812z M13.125,4.453000068664551 C13.125,4.639999866485596 13.050999641418457,4.817999839782715 12.918999671936035,4.949999809265137 C12.786999702453613,5.081999778747559 12.607999801635742,5.156000137329102 12.42199993133545,5.156000137329102 C12.42199993133545,5.156000137329102 2.812000036239624,5.156000137329102 2.812000036239624,5.156000137329102 C2.812000036239624,5.156000137329102 2.812000036239624,4.218999862670898 2.812000036239624,4.218999862670898 C2.812000036239624,4.218999862670898 4.688000202178955,4.218999862670898 4.688000202178955,4.218999862670898 C4.811999797821045,4.218999862670898 4.931000232696533,4.169000148773193 5.019000053405762,4.080999851226807 C5.10699987411499,3.993000030517578 5.156000137329102,3.874000072479248 5.156000137329102,3.75 C5.156000137329102,3.75 5.156000137329102,0.9380000233650208 5.156000137329102,0.9380000233650208 C5.156000137329102,0.8140000104904175 5.10699987411499,0.6940000057220459 5.019000053405762,0.6060000061988831 C4.931000232696533,0.5180000066757202 4.811999797821045,0.4690000116825104 4.688000202178955,0.4690000116825104 C4.688000202178955,0.4690000116825104 2.812000036239624,0.4690000116825104 2.812000036239624,0.4690000116825104 C2.812000036239624,0.4690000116825104 2.812000036239624,-0.9380000233650208 2.812000036239624,-0.9380000233650208 C2.812000036239624,-0.9380000233650208 13.125,-0.9380000233650208 13.125,-0.9380000233650208 C13.125,-0.9380000233650208 13.125,4.453000068664551 13.125,4.453000068664551z M13.125,-1.875 C13.125,-1.875 2.812000036239624,-1.875 2.812000036239624,-1.875 C2.812000036239624,-1.875 2.812000036239624,-2.812000036239624 2.812000036239624,-2.812000036239624 C2.812000036239624,-2.812000036239624 13.125,-2.812000036239624 13.125,-2.812000036239624 C13.125,-2.812000036239624 13.125,-1.875 13.125,-1.875z M13.125,-3.75 C13.125,-3.75 2.812000036239624,-3.75 2.812000036239624,-3.75 C2.812000036239624,-3.75 2.812000036239624,-4.688000202178955 2.812000036239624,-4.688000202178955 C2.812000036239624,-4.688000202178955 12.42199993133545,-4.688000202178955 12.42199993133545,-4.688000202178955 C12.607999801635742,-4.688000202178955 12.786999702453613,-4.61299991607666 12.918999671936035,-4.480999946594238 C13.050999641418457,-4.348999977111816 13.125,-4.170000076293945 13.125,-3.9839999675750732 C13.125,-3.9839999675750732 13.125,-3.75 13.125,-3.75z"></path></g></g><g mask="url(#__lottie_element_435)" transform="matrix(30.530000686645508,0,0,30.530000686645508,540,539.9990234375)" opacity="1" style="display: block;"><g opacity="1" transform="matrix(1,0,0,1,0,0)"><path fill="rgb(92,255,79)" fill-opacity="1" d=" M12.42199993133545,-5.625 C12.42199993133545,-5.625 2.812000036239624,-5.625 2.812000036239624,-5.625 C2.812000036239624,-5.625 2.812000036239624,-12.890999794006348 2.812000036239624,-12.890999794006348 C2.811000108718872,-13.326000213623047 2.6389999389648438,-13.741999626159668 2.3310000896453857,-14.050000190734863 C2.0239999294281006,-14.357999801635742 1.6069999933242798,-14.531000137329102 1.1720000505447388,-14.531000137329102 C1.1720000505447388,-14.531000137329102 -12.42199993133545,-14.531000137329102 -12.42199993133545,-14.531000137329102 C-12.857000350952148,-14.531000137329102 -13.27299976348877,-14.357999801635742 -13.581000328063965,-14.050000190734863 C-13.888999938964844,-13.741999626159668 -14.062000274658203,-13.326000213623047 -14.062000274658203,-12.890999794006348 C-14.062000274658203,-12.890999794006348 -14.062000274658203,12.890999794006348 -14.062000274658203,12.890999794006348 C-14.062000274658203,13.326000213623047 -13.888999938964844,13.741999626159668 -13.581000328063965,14.050000190734863 C-13.27299976348877,14.357999801635742 -12.857000350952148,14.531000137329102 -12.42199993133545,14.531000137329102 C-12.42199993133545,14.531000137329102 1.1720000505447388,14.531000137329102 1.1720000505447388,14.531000137329102 C1.6069999933242798,14.531000137329102 2.0239999294281006,14.357999801635742 2.3310000896453857,14.050000190734863 C2.6389999389648438,13.741999626159668 2.811000108718872,13.326000213623047 2.812000036239624,12.890999794006348 C2.812000036239624,12.890999794006348 2.812000036239624,6.093999862670898 2.812000036239624,6.093999862670898 C2.812000036239624,6.093999862670898 12.42199993133545,6.093999862670898 12.42199993133545,6.093999862670898 C12.857000350952148,6.0929999351501465 13.27400016784668,5.921000003814697 13.581000328063965,5.61299991607666 C13.888999938964844,5.304999828338623 14.060999870300293,4.888000011444092 14.062000274658203,4.453000068664551 C14.062000274658203,4.453000068664551 14.062000274658203,-3.9839999675750732 14.062000274658203,-3.9839999675750732 C14.060999870300293,-4.419000148773193 13.888999938964844,-4.835999965667725 13.581000328063965,-5.144000053405762 C13.27400016784668,-5.452000141143799 12.857000350952148,-5.625 12.42199993133545,-5.625z M-3.4130001068115234,-13.593999862670898 C-3.4130001068115234,-13.593999862670898 -3.6480000019073486,-12.656000137329102 -3.6480000019073486,-12.656000137329102 C-3.6480000019073486,-12.656000137329102 -7.603000164031982,-12.656000137329102 -7.603000164031982,-12.656000137329102 C-7.603000164031982,-12.656000137329102 -7.836999893188477,-13.593999862670898 -7.836999893188477,-13.593999862670898 C-7.836999893188477,-13.593999862670898 -3.4130001068115234,-13.593999862670898 -3.4130001068115234,-13.593999862670898z M1.875,12.890999794006348 C1.875,13.07800006866455 1.8009999990463257,13.255999565124512 1.6690000295639038,13.387999534606934 C1.5369999408721924,13.520000457763672 1.3580000400543213,13.593999862670898 1.1720000505447388,13.593999862670898 C1.1720000505447388,13.593999862670898 -12.42199993133545,13.593999862670898 -12.42199993133545,13.593999862670898 C-12.607999801635742,13.593999862670898 -12.786999702453613,13.520000457763672 -12.918999671936035,13.387999534606934 C-13.050999641418457,13.255999565124512 -13.125,13.07800006866455 -13.125,12.890999794006348 C-13.125,12.890999794006348 -13.125,-12.890999794006348 -13.125,-12.890999794006348 C-13.125,-13.07699966430664 -13.050999641418457,-13.255999565124512 -12.918999671936035,-13.387999534606934 C-12.786999702453613,-13.520000457763672 -12.607999801635742,-13.593999862670898 -12.42199993133545,-13.593999862670898 C-12.42199993133545,-13.593999862670898 -8.803999900817871,-13.593999862670898 -8.803999900817871,-13.593999862670898 C-8.803999900817871,-13.593999862670898 -8.42300033569336,-12.074000358581543 -8.42300033569336,-12.074000358581543 C-8.39799976348877,-11.972999572753906 -8.33899974822998,-11.881999969482422 -8.256999969482422,-11.817999839782715 C-8.175000190734863,-11.753999710083008 -8.074000358581543,-11.718999862670898 -7.968999862670898,-11.718999862670898 C-7.968999862670898,-11.718999862670898 -3.2809998989105225,-11.718999862670898 -3.2809998989105225,-11.718999862670898 C-3.1760001182556152,-11.718999862670898 -3.075000047683716,-11.753999710083008 -2.993000030517578,-11.817999839782715 C-2.9110000133514404,-11.881999969482422 -2.8519999980926514,-11.972999572753906 -2.8269999027252197,-12.074000358581543 C-2.8269999027252197,-12.074000358581543 -2.446000099182129,-13.593999862670898 -2.446000099182129,-13.593999862670898 C-2.446000099182129,-13.593999862670898 1.1720000505447388,-13.593999862670898 1.1720000505447388,-13.593999862670898 C1.3580000400543213,-13.593999862670898 1.5369999408721924,-13.520000457763672 1.6690000295639038,-13.387999534606934 C1.8009999990463257,-13.255999565124512 1.875,-13.07699966430664 1.875,-12.890999794006348 C1.875,-12.890999794006348 1.875,12.890999794006348 1.875,12.890999794006348z M2.812000036239624,1.406000018119812 C2.812000036239624,1.406000018119812 4.218999862670898,1.406000018119812 4.218999862670898,1.406000018119812 C4.218999862670898,1.406000018119812 4.218999862670898,3.2809998989105225 4.218999862670898,3.2809998989105225 C4.218999862670898,3.2809998989105225 2.812000036239624,3.2809998989105225 2.812000036239624,3.2809998989105225 C2.812000036239624,3.2809998989105225 2.812000036239624,1.406000018119812 2.812000036239624,1.406000018119812z M13.125,4.453000068664551 C13.125,4.639999866485596 13.050999641418457,4.817999839782715 12.918999671936035,4.949999809265137 C12.786999702453613,5.081999778747559 12.607999801635742,5.156000137329102 12.42199993133545,5.156000137329102 C12.42199993133545,5.156000137329102 2.812000036239624,5.156000137329102 2.812000036239624,5.156000137329102 C2.812000036239624,5.156000137329102 2.812000036239624,4.218999862670898 2.812000036239624,4.218999862670898 C2.812000036239624,4.218999862670898 4.688000202178955,4.218999862670898 4.688000202178955,4.218999862670898 C4.811999797821045,4.218999862670898 4.931000232696533,4.169000148773193 5.019000053405762,4.080999851226807 C5.10699987411499,3.993000030517578 5.156000137329102,3.874000072479248 5.156000137329102,3.75 C5.156000137329102,3.75 5.156000137329102,0.9380000233650208 5.156000137329102,0.9380000233650208 C5.156000137329102,0.8140000104904175 5.10699987411499,0.6940000057220459 5.019000053405762,0.6060000061988831 C4.931000232696533,0.5180000066757202 4.811999797821045,0.4690000116825104 4.688000202178955,0.4690000116825104 C4.688000202178955,0.4690000116825104 2.812000036239624,0.4690000116825104 2.812000036239624,0.4690000116825104 C2.812000036239624,0.4690000116825104 2.812000036239624,-0.9380000233650208 2.812000036239624,-0.9380000233650208 C2.812000036239624,-0.9380000233650208 13.125,-0.9380000233650208 13.125,-0.9380000233650208 C13.125,-0.9380000233650208 13.125,4.453000068664551 13.125,4.453000068664551z M13.125,-1.875 C13.125,-1.875 2.812000036239624,-1.875 2.812000036239624,-1.875 C2.812000036239624,-1.875 2.812000036239624,-2.812000036239624 2.812000036239624,-2.812000036239624 C2.812000036239624,-2.812000036239624 13.125,-2.812000036239624 13.125,-2.812000036239624 C13.125,-2.812000036239624 13.125,-1.875 13.125,-1.875z M13.125,-3.75 C13.125,-3.75 2.812000036239624,-3.75 2.812000036239624,-3.75 C2.812000036239624,-3.75 2.812000036239624,-4.688000202178955 2.812000036239624,-4.688000202178955 C2.812000036239624,-4.688000202178955 12.42199993133545,-4.688000202178955 12.42199993133545,-4.688000202178955 C12.607999801635742,-4.688000202178955 12.786999702453613,-4.61299991607666 12.918999671936035,-4.480999946594238 C13.050999641418457,-4.348999977111816 13.125,-4.170000076293945 13.125,-3.9839999675750732 C13.125,-3.9839999675750732 13.125,-3.75 13.125,-3.75z"></path></g></g><g transform="matrix(30.530000686645508,0,0,30.530000686645508,540.000244140625,540)" opacity="1" style="display: block;"><g opacity="1" transform="matrix(1,0,0,1,0,0)"><path fill="rgb(92,255,79)" fill-opacity="1" d=" M-5.625,-5.625 C-6.73799991607666,-5.625 -7.824999809265137,-5.295000076293945 -8.75,-4.677000045776367 C-9.675000190734863,-4.059000015258789 -10.395999908447266,-3.180999994277954 -10.821999549865723,-2.1530001163482666 C-11.248000144958496,-1.125 -11.359000205993652,0.006000000052154064 -11.142000198364258,1.097000002861023 C-10.925000190734863,2.187999963760376 -10.388999938964844,3.190000057220459 -9.60200023651123,3.9769999980926514 C-8.8149995803833,4.763999938964844 -7.813000202178955,5.300000190734863 -6.7220001220703125,5.517000198364258 C-5.63100004196167,5.734000205993652 -4.5,5.623000144958496 -3.4719998836517334,5.197000026702881 C-2.444000005722046,4.770999908447266 -1.565999984741211,4.050000190734863 -0.9480000138282776,3.125 C-0.33000001311302185,2.200000047683716 0,1.1130000352859497 0,0 C-0.0020000000949949026,-1.4910000562667847 -0.593999981880188,-2.9210000038146973 -1.6490000486373901,-3.9760000705718994 C-2.7039999961853027,-5.031000137329102 -4.133999824523926,-5.623000144958496 -5.625,-5.625z M-5.625,4.688000202178955 C-6.552000045776367,4.688000202178955 -7.458000183105469,4.413000106811523 -8.229000091552734,3.8980000019073486 C-9,3.382999897003174 -9.60099983215332,2.6510000228881836 -9.956000328063965,1.7940000295639038 C-10.310999870300293,0.9369999766349792 -10.402999877929688,-0.006000000052154064 -10.222000122070312,-0.9150000214576721 C-10.041000366210938,-1.8240000009536743 -9.595999717712402,-2.6589999198913574 -8.9399995803833,-3.315000057220459 C-8.284000396728516,-3.9709999561309814 -7.447999954223633,-4.415999889373779 -6.539000034332275,-4.5970001220703125 C-5.630000114440918,-4.7779998779296875 -4.688000202178955,-4.685999870300293 -3.8310000896453857,-4.330999851226807 C-2.9739999771118164,-3.9760000705718994 -2.242000102996826,-3.375 -1.7269999980926514,-2.6040000915527344 C-1.2120000123977661,-1.8329999446868896 -0.9380000233650208,-0.9269999861717224 -0.9380000233650208,0 C-0.9390000104904175,1.2430000305175781 -1.4329999685287476,2.434000015258789 -2.312000036239624,3.312999963760376 C-3.190999984741211,4.191999912261963 -4.381999969482422,4.686999797821045 -5.625,4.688000202178955z"></path></g></g><g transform="matrix(30.530000686645508,0,0,30.530000686645508,540.01220703125,540.011962890625)" opacity="1" style="display: block;"><g opacity="1" transform="matrix(1,0,0,1,0,0)"><path fill="rgb(92,255,79)" fill-opacity="1" d=" M-3.1440000534057617,-1.7380000352859497 C-3.1440000534057617,-1.7380000352859497 -6.138000011444092,1.25600004196167 -6.138000011444092,1.25600004196167 C-6.138000011444092,1.25600004196167 -7.688000202178955,0.09399999678134918 -7.688000202178955,0.09399999678134918 C-7.7870001792907715,0.01899999938905239 -7.9120001792907715,-0.013000000268220901 -8.03499984741211,0.004999999888241291 C-8.157999992370605,0.023000000044703484 -8.269000053405762,0.08900000154972076 -8.343999862670898,0.18799999356269836 C-8.418999671936035,0.2879999876022339 -8.451000213623047,0.41200000047683716 -8.432999610900879,0.5350000262260437 C-8.414999961853027,0.6579999923706055 -8.348999977111816,0.7689999938011169 -8.25,0.843999981880188 C-8.25,0.843999981880188 -6.375,2.25 -6.375,2.25 C-6.284999847412109,2.318000078201294 -6.173999786376953,2.3510000705718994 -6.060999870300293,2.3429999351501465 C-5.947999954223633,2.3350000381469727 -5.8420000076293945,2.2860000133514404 -5.76200008392334,2.2060000896453857 C-5.76200008392334,2.2060000896453857 -2.4809999465942383,-1.0750000476837158 -2.4809999465942383,-1.0750000476837158 C-2.3929998874664307,-1.1629999876022339 -2.3440001010894775,-1.281999945640564 -2.3440001010894775,-1.406000018119812 C-2.3440001010894775,-1.5299999713897705 -2.3929998874664307,-1.649999976158142 -2.4809999465942383,-1.7380000352859497 C-2.569000005722046,-1.8259999752044678 -2.687999963760376,-1.875 -2.812000036239624,-1.875 C-2.936000108718872,-1.875 -3.055999994277954,-1.8259999752044678 -3.1440000534057617,-1.7380000352859497z"></path></g></g><g transform="matrix(0.999857485294342,0,0,0.999857485294342,140.02670288085938,299.0458068847656)" opacity="1" style="display: block;"><g opacity="1" transform="matrix(1,0,0,1,0,0)"><path stroke-linecap="round" stroke-linejoin="round" fill-opacity="0" stroke="rgb(92,255,79)" stroke-opacity="1" stroke-width="28" d="M0 0"></path></g></g><g transform="matrix(1,0,0,1,540,540)" opacity="1" style="display: block;"><g opacity="1" transform="matrix(1,0,0,1,0,0)"><path stroke-linecap="round" stroke-linejoin="round" fill-opacity="0" stroke="rgb(92,255,79)" stroke-opacity="1" stroke-width="27" d=" M-237,386 C-237,386 -108,386 -108,386"></path></g></g><g transform="matrix(1.000380039215088,0,0,1.000380039215088,539.9810791015625,583.405029296875)" opacity="1" style="display: block;"><g opacity="1" transform="matrix(1,0,0,1,0,0)"><path stroke-linecap="round" stroke-linejoin="miter" fill-opacity="0" stroke-miterlimit="4" stroke="rgb(92,255,79)" stroke-opacity="1" stroke-width="29" d="M0 0"></path></g></g><g transform="matrix(1.000380039215088,0,0,1.000380039215088,539.9810791015625,539.926025390625)" opacity="1" style="display: block;"><g opacity="1" transform="matrix(1,0,0,1,0,0)"><path stroke-linecap="round" stroke-linejoin="miter" fill-opacity="0" stroke-miterlimit="4" stroke="rgb(92,255,79)" stroke-opacity="1" stroke-width="29" d="M0 0"></path></g></g><g transform="matrix(1.000380039215088,0,0,1.000380039215088,539.981201171875,625.7739868164062)" opacity="1" style="display: block;"><g opacity="1" transform="matrix(1,0,0,1,0,0)"><path stroke-linecap="round" stroke-linejoin="miter" fill-opacity="0" stroke-miterlimit="4" stroke="rgb(92,255,79)" stroke-opacity="1" stroke-width="29" d="M0 0"></path></g></g></g></svg>