<svg xmlns="http://www.w3.org/2000/svg" xmlns:xlink="http://www.w3.org/1999/xlink" viewBox="0 0 1080 1080" width="1080" height="1080" preserveAspectRatio="xMidYMid meet" style="width: 100%; height: 100%; transform: translate3d(0px, 0px, 0px); content-visibility: visible;"><defs><clipPath id="__lottie_element_491"><rect width="1080" height="1080" x="0" y="0"></rect></clipPath></defs><g clip-path="url(#__lottie_element_491)"><g transform="matrix(24.459999084472656,0,0,24.459999084472656,540,539.9990234375)" opacity="1" style="display: block;"><g opacity="1" transform="matrix(1,0,0,1,0,0)"><path fill="rgb(92,255,79)" fill-opacity="1" d=" M2.996000051498413,5.390999794006348 C2.996000051498413,5.390999794006348 -2.996000051498413,5.390999794006348 -2.996000051498413,5.390999794006348 C-3.63100004196167,5.389999866485596 -4.238999843597412,5.13700008392334 -4.688000202178955,4.688000202178955 C-5.13700008392334,4.238999843597412 -5.389999866485596,3.63100004196167 -5.390999794006348,2.996000051498413 C-5.390999794006348,2.996000051498413 -5.390999794006348,-2.996000051498413 -5.390999794006348,-2.996000051498413 C-5.389999866485596,-3.63100004196167 -5.13700008392334,-4.238999843597412 -4.688000202178955,-4.688000202178955 C-4.238999843597412,-5.13700008392334 -3.63100004196167,-5.389999866485596 -2.996000051498413,-5.390999794006348 C-2.996000051498413,-5.390999794006348 2.996000051498413,-5.390999794006348 2.996000051498413,-5.390999794006348 C3.63100004196167,-5.389999866485596 4.238999843597412,-5.13700008392334 4.688000202178955,-4.688000202178955 C5.13700008392334,-4.238999843597412 5.389999866485596,-3.63100004196167 5.390999794006348,-2.996000051498413 C5.390999794006348,-2.996000051498413 5.390999794006348,2.996000051498413 5.390999794006348,2.996000051498413 C5.389999866485596,3.63100004196167 5.13700008392334,4.238999843597412 4.688000202178955,4.688000202178955 C4.238999843597412,5.13700008392334 3.63100004196167,5.389999866485596 2.996000051498413,5.390999794006348z M-2.996000051498413,-3.9260001182556152 C-3.243000030517578,-3.9260001182556152 -3.4790000915527344,-3.8269999027252197 -3.6530001163482666,-3.6530001163482666 C-3.8269999027252197,-3.4790000915527344 -3.9260001182556152,-3.243000030517578 -3.9260001182556152,-2.996000051498413 C-3.9260001182556152,-2.996000051498413 -3.9260001182556152,2.996000051498413 -3.9260001182556152,2.996000051498413 C-3.9260001182556152,3.243000030517578 -3.8269999027252197,3.4790000915527344 -3.6530001163482666,3.6530001163482666 C-3.4790000915527344,3.8269999027252197 -3.243000030517578,3.9260001182556152 -2.996000051498413,3.9260001182556152 C-2.996000051498413,3.9260001182556152 2.996000051498413,3.9260001182556152 2.996000051498413,3.9260001182556152 C3.243000030517578,3.9260001182556152 3.4790000915527344,3.8269999027252197 3.6530001163482666,3.6530001163482666 C3.8269999027252197,3.4790000915527344 3.9260001182556152,3.243000030517578 3.9260001182556152,2.996000051498413 C3.9260001182556152,2.996000051498413 3.9260001182556152,-2.996000051498413 3.9260001182556152,-2.996000051498413 C3.9260001182556152,-3.243000030517578 3.8269999027252197,-3.4790000915527344 3.6530001163482666,-3.6530001163482666 C3.4790000915527344,-3.8269999027252197 3.243000030517578,-3.9260001182556152 2.996000051498413,-3.9260001182556152 C2.996000051498413,-3.9260001182556152 -2.996000051498413,-3.9260001182556152 -2.996000051498413,-3.9260001182556152z"></path></g></g><g transform="matrix(24.459999084472656,0,0,24.459999084472656,540,540)" opacity="1" style="display: block;"><g opacity="1" transform="matrix(1,0,0,1,0,0)"><path fill="rgb(92,255,79)" fill-opacity="1" d=" M-14.706000328063965,-14.706999778747559 C-14.798999786376953,-14.61400032043457 -14.87399959564209,-14.503999710083008 -14.923999786376953,-14.381999969482422 C-14.973999977111816,-14.260000228881836 -15,-14.130000114440918 -15,-13.998000144958496 C-15,-13.998000144958496 -15,-9.314000129699707 -15,-9.314000129699707 C-15.00100040435791,-9.217000007629395 -14.982000350952148,-9.121000289916992 -14.946000099182129,-9.031000137329102 C-14.90999984741211,-8.940999984741211 -14.854999542236328,-8.859999656677246 -14.786999702453613,-8.791000366210938 C-14.718999862670898,-8.722000122070312 -14.63700008392334,-8.666999816894531 -14.54800033569336,-8.630000114440918 C-14.458999633789062,-8.593000411987305 -14.36299991607666,-8.572999954223633 -14.265999794006348,-8.572999954223633 C-14.168999671936035,-8.572999954223633 -14.072999954223633,-8.593000411987305 -13.984000205993652,-8.630000114440918 C-13.895000457763672,-8.666999816894531 -13.812999725341797,-8.722000122070312 -13.744999885559082,-8.791000366210938 C-13.677000045776367,-8.859999656677246 -13.621999740600586,-8.940999984741211 -13.586000442504883,-9.031000137329102 C-13.550000190734863,-9.121000289916992 -13.531000137329102,-9.217000007629395 -13.531999588012695,-9.314000129699707 C-13.531999588012695,-9.314000129699707 -13.531999588012695,-12.494000434875488 -13.531999588012695,-12.494000434875488 C-13.531999588012695,-12.494000434875488 -6.928999900817871,-5.890999794006348 -6.928999900817871,-5.890999794006348 C-6.790999889373779,-5.755000114440918 -6.605000019073486,-5.678999900817871 -6.410999774932861,-5.679999828338623 C-6.2170000076293945,-5.681000232696533 -6.0320000648498535,-5.757999897003174 -5.894999980926514,-5.894999980926514 C-5.757999897003174,-6.0320000648498535 -5.681000232696533,-6.2170000076293945 -5.679999828338623,-6.410999774932861 C-5.678999900817871,-6.605000019073486 -5.755000114440918,-6.790999889373779 -5.890999794006348,-6.928999900817871 C-5.890999794006348,-6.928999900817871 -12.494000434875488,-13.531999588012695 -12.494000434875488,-13.531999588012695 C-12.494000434875488,-13.531999588012695 -9.314000129699707,-13.531999588012695 -9.314000129699707,-13.531999588012695 C-9.121000289916992,-13.534000396728516 -8.9350004196167,-13.61299991607666 -8.798999786376953,-13.75 C-8.663000106811523,-13.88700008392334 -8.586000442504883,-14.072999954223633 -8.586000442504883,-14.265999794006348 C-8.586000442504883,-14.458999633789062 -8.663000106811523,-14.645999908447266 -8.798999786376953,-14.782999992370605 C-8.9350004196167,-14.920000076293945 -9.121000289916992,-14.998000144958496 -9.314000129699707,-15 C-9.314000129699707,-15 -13.998000144958496,-15 -13.998000144958496,-15 C-14.130000114440918,-15 -14.260000228881836,-14.973999977111816 -14.381999969482422,-14.923999786376953 C-14.503999710083008,-14.87399959564209 -14.61299991607666,-14.800000190734863 -14.706000328063965,-14.706999778747559z"></path></g></g><g transform="matrix(24.459999084472656,0,0,24.459999084472656,540,540)" opacity="1" style="display: block;"><g opacity="1" transform="matrix(1,0,0,1,0,0)"><path fill="rgb(92,255,79)" fill-opacity="1" d=" M-14.706999778747559,14.706000328063965 C-14.61400032043457,14.798999786376953 -14.503999710083008,14.87399959564209 -14.381999969482422,14.923999786376953 C-14.260000228881836,14.973999977111816 -14.130000114440918,15 -13.998000144958496,15 C-13.998000144958496,15 -9.314000129699707,15 -9.314000129699707,15 C-9.217000007629395,15.00100040435791 -9.121000289916992,14.982000350952148 -9.031000137329102,14.946000099182129 C-8.940999984741211,14.90999984741211 -8.859999656677246,14.854999542236328 -8.791000366210938,14.786999702453613 C-8.722000122070312,14.718999862670898 -8.666999816894531,14.63700008392334 -8.630000114440918,14.54800033569336 C-8.593000411987305,14.458999633789062 -8.572999954223633,14.36299991607666 -8.572999954223633,14.265999794006348 C-8.572999954223633,14.168999671936035 -8.593000411987305,14.072999954223633 -8.630000114440918,13.984000205993652 C-8.666999816894531,13.895000457763672 -8.722000122070312,13.812999725341797 -8.791000366210938,13.744999885559082 C-8.859999656677246,13.677000045776367 -8.940999984741211,13.621999740600586 -9.031000137329102,13.586000442504883 C-9.121000289916992,13.550000190734863 -9.217000007629395,13.531000137329102 -9.314000129699707,13.531999588012695 C-9.314000129699707,13.531999588012695 -12.494000434875488,13.531999588012695 -12.494000434875488,13.531999588012695 C-12.494000434875488,13.531999588012695 -5.890999794006348,6.928999900817871 -5.890999794006348,6.928999900817871 C-5.822000026702881,6.861000061035156 -5.767000198364258,6.78000020980835 -5.729000091552734,6.690999984741211 C-5.690999984741211,6.6020002365112305 -5.671999931335449,6.50600004196167 -5.671999931335449,6.408999919891357 C-5.671999931335449,6.311999797821045 -5.690000057220459,6.216000080108643 -5.7270002365112305,6.125999927520752 C-5.763999938964844,6.0370001792907715 -5.818999767303467,5.954999923706055 -5.88700008392334,5.88700008392334 C-5.954999923706055,5.818999767303467 -6.035999774932861,5.763999938964844 -6.125999927520752,5.7270002365112305 C-6.216000080108643,5.690000057220459 -6.311999797821045,5.671999931335449 -6.408999919891357,5.671999931335449 C-6.50600004196167,5.671999931335449 -6.6020002365112305,5.690999984741211 -6.690999984741211,5.729000091552734 C-6.78000020980835,5.765999794006348 -6.861000061035156,5.822000026702881 -6.928999900817871,5.890999794006348 C-6.928999900817871,5.890999794006348 -13.531999588012695,12.494000434875488 -13.531999588012695,12.494000434875488 C-13.531999588012695,12.494000434875488 -13.531999588012695,9.314000129699707 -13.531999588012695,9.314000129699707 C-13.534000396728516,9.121000289916992 -13.61299991607666,8.9350004196167 -13.75,8.798999786376953 C-13.88700008392334,8.663000106811523 -14.072999954223633,8.586000442504883 -14.265999794006348,8.586000442504883 C-14.458999633789062,8.586000442504883 -14.645999908447266,8.663000106811523 -14.782999992370605,8.798999786376953 C-14.920000076293945,8.9350004196167 -14.998000144958496,9.121000289916992 -15,9.314000129699707 C-15,9.314000129699707 -15,13.998000144958496 -15,13.998000144958496 C-15,14.130000114440918 -14.973999977111816,14.260000228881836 -14.923999786376953,14.381999969482422 C-14.87399959564209,14.503999710083008 -14.800000190734863,14.61299991607666 -14.706999778747559,14.706000328063965z"></path></g></g><g transform="matrix(24.459999084472656,0,0,24.459999084472656,540,540)" opacity="1" style="display: block;"><g opacity="1" transform="matrix(1,0,0,1,0,0)"><path fill="rgb(92,255,79)" fill-opacity="1" d=" M14.706999778747559,14.706000328063965 C14.61400032043457,14.798999786376953 14.503999710083008,14.87399959564209 14.381999969482422,14.923999786376953 C14.260000228881836,14.973999977111816 14.130000114440918,15 13.998000144958496,15 C13.998000144958496,15 9.314000129699707,15 9.314000129699707,15 C9.217000007629395,15.00100040435791 9.121000289916992,14.982000350952148 9.031000137329102,14.946000099182129 C8.940999984741211,14.90999984741211 8.859999656677246,14.854999542236328 8.791000366210938,14.786999702453613 C8.722000122070312,14.718999862670898 8.666999816894531,14.63700008392334 8.630000114440918,14.54800033569336 C8.593000411987305,14.458999633789062 8.572999954223633,14.36299991607666 8.572999954223633,14.265999794006348 C8.572999954223633,14.168999671936035 8.593000411987305,14.072999954223633 8.630000114440918,13.984000205993652 C8.666999816894531,13.895000457763672 8.722000122070312,13.812999725341797 8.791000366210938,13.744999885559082 C8.859999656677246,13.677000045776367 8.940999984741211,13.621999740600586 9.031000137329102,13.586000442504883 C9.121000289916992,13.550000190734863 9.217000007629395,13.531000137329102 9.314000129699707,13.531999588012695 C9.314000129699707,13.531999588012695 12.494999885559082,13.531999588012695 12.494999885559082,13.531999588012695 C12.494999885559082,13.531999588012695 5.890999794006348,6.928999900817871 5.890999794006348,6.928999900817871 C5.822000026702881,6.861000061035156 5.767000198364258,6.78000020980835 5.730000019073486,6.690999984741211 C5.691999912261963,6.6020002365112305 5.671999931335449,6.50600004196167 5.671999931335449,6.408999919891357 C5.671999931335449,6.311999797821045 5.690000057220459,6.216000080108643 5.7270002365112305,6.125999927520752 C5.763999938964844,6.0370001792907715 5.818999767303467,5.954999923706055 5.88700008392334,5.88700008392334 C5.954999923706055,5.818999767303467 6.035999774932861,5.763999938964844 6.125999927520752,5.7270002365112305 C6.215000152587891,5.690000057220459 6.311999797821045,5.671999931335449 6.408999919891357,5.671999931335449 C6.50600004196167,5.671999931335449 6.6020002365112305,5.690999984741211 6.690999984741211,5.729000091552734 C6.78000020980835,5.765999794006348 6.861000061035156,5.822000026702881 6.928999900817871,5.890999794006348 C6.928999900817871,5.890999794006348 13.531999588012695,12.494000434875488 13.531999588012695,12.494000434875488 C13.531999588012695,12.494000434875488 13.531999588012695,9.314000129699707 13.531999588012695,9.314000129699707 C13.534000396728516,9.121000289916992 13.61299991607666,8.9350004196167 13.75,8.798999786376953 C13.88700008392334,8.663000106811523 14.072999954223633,8.586000442504883 14.265999794006348,8.586000442504883 C14.458999633789062,8.586000442504883 14.645999908447266,8.663000106811523 14.782999992370605,8.798999786376953 C14.920000076293945,8.9350004196167 14.998000144958496,9.121000289916992 15,9.314000129699707 C15,9.314000129699707 15,13.998000144958496 15,13.998000144958496 C15,14.130000114440918 14.973999977111816,14.260000228881836 14.923999786376953,14.381999969482422 C14.87399959564209,14.503999710083008 14.800000190734863,14.61299991607666 14.706999778747559,14.706000328063965z"></path></g></g><g transform="matrix(24.459999084472656,0,0,24.459999084472656,540,540)" opacity="1" style="display: block;"><g opacity="1" transform="matrix(1,0,0,1,0,0)"><path fill="rgb(92,255,79)" fill-opacity="1" d=" M14.706000328063965,-14.706999778747559 C14.798999786376953,-14.61400032043457 14.87399959564209,-14.503999710083008 14.923999786376953,-14.381999969482422 C14.973999977111816,-14.260000228881836 15,-14.130000114440918 15,-13.998000144958496 C15,-13.998000144958496 15,-9.314000129699707 15,-9.314000129699707 C15.00100040435791,-9.217000007629395 14.982000350952148,-9.121000289916992 14.946000099182129,-9.031000137329102 C14.90999984741211,-8.940999984741211 14.854999542236328,-8.859999656677246 14.786999702453613,-8.791000366210938 C14.718999862670898,-8.722000122070312 14.637999534606934,-8.666999816894531 14.548999786376953,-8.630000114440918 C14.460000038146973,-8.593000411987305 14.36299991607666,-8.572999954223633 14.265999794006348,-8.572999954223633 C14.168999671936035,-8.572999954223633 14.072999954223633,-8.593000411987305 13.984000205993652,-8.630000114440918 C13.895000457763672,-8.666999816894531 13.812999725341797,-8.722000122070312 13.744999885559082,-8.791000366210938 C13.677000045776367,-8.859999656677246 13.621999740600586,-8.940999984741211 13.586000442504883,-9.031000137329102 C13.550000190734863,-9.121000289916992 13.531000137329102,-9.217000007629395 13.531999588012695,-9.314000129699707 C13.531999588012695,-9.314000129699707 13.531999588012695,-12.494000434875488 13.531999588012695,-12.494000434875488 C13.531999588012695,-12.494000434875488 6.928999900817871,-5.890999794006348 6.928999900817871,-5.890999794006348 C6.861000061035156,-5.822000026702881 6.78000020980835,-5.767000198364258 6.690999984741211,-5.729000091552734 C6.6020002365112305,-5.690999984741211 6.50600004196167,-5.671999931335449 6.408999919891357,-5.671999931335449 C6.311999797821045,-5.671999931335449 6.216000080108643,-5.690000057220459 6.125999927520752,-5.7270002365112305 C6.035999774932861,-5.763999938964844 5.954999923706055,-5.818999767303467 5.88700008392334,-5.88700008392334 C5.818999767303467,-5.954999923706055 5.763999938964844,-6.035999774932861 5.7270002365112305,-6.125999927520752 C5.690000057220459,-6.216000080108643 5.671999931335449,-6.311999797821045 5.671999931335449,-6.408999919891357 C5.671999931335449,-6.50600004196167 5.690999984741211,-6.6020002365112305 5.729000091552734,-6.690999984741211 C5.767000198364258,-6.78000020980835 5.822000026702881,-6.861000061035156 5.890999794006348,-6.928999900817871 C5.890999794006348,-6.928999900817871 12.494000434875488,-13.531999588012695 12.494000434875488,-13.531999588012695 C12.494000434875488,-13.531999588012695 9.314000129699707,-13.531999588012695 9.314000129699707,-13.531999588012695 C9.121000289916992,-13.534000396728516 8.9350004196167,-13.61299991607666 8.798999786376953,-13.75 C8.663000106811523,-13.88700008392334 8.586000442504883,-14.072999954223633 8.586000442504883,-14.265999794006348 C8.586000442504883,-14.458999633789062 8.663000106811523,-14.645999908447266 8.798999786376953,-14.782999992370605 C8.9350004196167,-14.920000076293945 9.121000289916992,-14.998000144958496 9.314000129699707,-15 C9.314000129699707,-15 13.998000144958496,-15 13.998000144958496,-15 C14.130000114440918,-15 14.260000228881836,-14.973999977111816 14.381999969482422,-14.923999786376953 C14.503999710083008,-14.87399959564209 14.61299991607666,-14.800000190734863 14.706000328063965,-14.706999778747559z"></path></g></g></g></svg>