<svg xmlns="http://www.w3.org/2000/svg" xmlns:xlink="http://www.w3.org/1999/xlink" viewBox="0 0 1080 1080" width="1080" height="1080" preserveAspectRatio="xMidYMid meet" style="width: 100%; height: 100%; transform: translate3d(0px, 0px, 0px); content-visibility: visible;"><defs><clipPath id="__lottie_element_299"><rect width="1080" height="1080" x="0" y="0"></rect></clipPath></defs><g clip-path="url(#__lottie_element_299)"><g transform="matrix(26.649999618530273,0,0,26.649999618530273,540,540)" opacity="1" style="display: block;"><g opacity="1" transform="matrix(1,0,0,1,0,0)"><path fill="rgb(92,255,79)" fill-opacity="1" d=" M6.449999809265137,-15 C6.449999809265137,-15 -6.449999809265137,-15 -6.449999809265137,-15 C-11.149999618530273,-15 -15,-11.149999618530273 -15,-6.449999809265137 C-15,-6.449999809265137 -15,6.449999809265137 -15,6.449999809265137 C-15,11.149999618530273 -11.149999618530273,15 -6.449999809265137,15 C-6.449999809265137,15 6.449999809265137,15 6.449999809265137,15 C11.149999618530273,15 15,11.149999618530273 15,6.449999809265137 C15,6.449999809265137 15,-6.449999809265137 15,-6.449999809265137 C15,-11.149999618530273 11.149999618530273,-15 6.449999809265137,-15z M14,6.449999809265137 C14,10.600000381469727 10.600000381469727,14 6.449999809265137,14 C6.449999809265137,14 -6.449999809265137,14 -6.449999809265137,14 C-10.600000381469727,14 -14,10.600000381469727 -14,6.449999809265137 C-14,6.449999809265137 -14,-6.449999809265137 -14,-6.449999809265137 C-14,-10.600000381469727 -10.600000381469727,-14 -6.449999809265137,-14 C-6.449999809265137,-14 6.449999809265137,-14 6.449999809265137,-14 C10.600000381469727,-14 14,-10.600000381469727 14,-6.449999809265137 C14,-6.449999809265137 14,6.449999809265137 14,6.449999809265137z"></path></g></g><g transform="matrix(26.649999618530273,0,0,26.649999618530273,540,540)" opacity="1" style="display: block;"><g opacity="1" transform="matrix(1,0,0,1,0,0)"><path fill="rgb(92,255,79)" fill-opacity="1" d=" M6.449999809265137,-12 C6.449999809265137,-12 -6.449999809265137,-12 -6.449999809265137,-12 C-9.5,-12 -12,-9.5 -12,-6.449999809265137 C-12,-6.449999809265137 -12,6.449999809265137 -12,6.449999809265137 C-12,9.5 -9.5,12 -6.449999809265137,12 C-6.449999809265137,12 6.449999809265137,12 6.449999809265137,12 C9.5,12 12,9.5 12,6.449999809265137 C12,6.449999809265137 12,-6.449999809265137 12,-6.449999809265137 C12,-9.5 9.5,-12 6.449999809265137,-12z M11,6.449999809265137 C11,8.949999809265137 8.949999809265137,11 6.449999809265137,11 C6.449999809265137,11 -6.449999809265137,11 -6.449999809265137,11 C-8.949999809265137,11 -11,8.949999809265137 -11,6.449999809265137 C-11,6.449999809265137 -11,-6.449999809265137 -11,-6.449999809265137 C-11,-8.949999809265137 -8.949999809265137,-11 -6.449999809265137,-11 C-6.449999809265137,-11 6.449999809265137,-11 6.449999809265137,-11 C8.949999809265137,-11 11,-8.949999809265137 11,-6.449999809265137 C11,-6.449999809265137 11,6.449999809265137 11,6.449999809265137z"></path></g></g><g transform="matrix(26.649999618530273,0,0,26.649999618530273,540,540)" opacity="1" style="display: block;"><g opacity="1" transform="matrix(1,0,0,1,0,0)"><path fill="rgb(92,255,79)" fill-opacity="1" d=" M0,-8 C-4.400000095367432,-8 -8,-4.400000095367432 -8,0 C-8,4.400000095367432 -4.400000095367432,8 0,8 C4.400000095367432,8 8,4.400000095367432 8,0 C8,-4.400000095367432 4.400000095367432,-8 0,-8z M0,7 C-3.8499999046325684,7 -7,3.8499999046325684 -7,0 C-7,-3.8499999046325684 -3.8499999046325684,-7 0,-7 C3.8499999046325684,-7 7,-3.8499999046325684 7,0 C7,3.8499999046325684 3.8499999046325684,7 0,7z"></path></g></g><g transform="matrix(26.649999618530273,0,0,26.649999618530273,540,540)" opacity="1" style="display: block;"><g opacity="1" transform="matrix(1,0,0,1,0,0)"><path fill="rgb(92,255,79)" fill-opacity="1" d=" M0,-5.5 C-3.049999952316284,-5.5 -5.5,-3.049999952316284 -5.5,0 C-5.5,3.049999952316284 -3.049999952316284,5.5 0,5.5 C3.049999952316284,5.5 5.5,3.049999952316284 5.5,0 C5.5,-3.049999952316284 3.049999952316284,-5.5 0,-5.5z M0,4.5 C-2.5,4.5 -4.5,2.5 -4.5,0 C-4.5,-2.5 -2.5,-4.5 0,-4.5 C2.5,-4.5 4.5,-2.5 4.5,0 C4.5,2.5 2.5,4.5 0,4.5z"></path></g></g><g transform="matrix(26.649999618530273,0,0,26.649999618530273,539.9979858398438,540)" opacity="1" style="display: block;"><g opacity="1" transform="matrix(1,0,0,1,0,0)"><path fill="rgb(92,255,79)" fill-opacity="1" d=" M8,-9.5 C7.150000095367432,-9.5 6.5,-8.850000381469727 6.5,-8 C6.5,-7.150000095367432 7.150000095367432,-6.5 8,-6.5 C8.850000381469727,-6.5 9.5,-7.150000095367432 9.5,-8 C9.5,-8.850000381469727 8.850000381469727,-9.5 8,-9.5z"></path></g></g></g></svg>