<svg xmlns="http://www.w3.org/2000/svg" xmlns:xlink="http://www.w3.org/1999/xlink" viewBox="0 0 1080 1080" width="1080" height="1080" preserveAspectRatio="xMidYMid meet" style="width: 100%; height: 100%; transform: translate3d(0px, 0px, 0px); content-visibility: visible;"><defs><clipPath id="__lottie_element_51"><rect width="1080" height="1080" x="0" y="0"></rect></clipPath></defs><g clip-path="url(#__lottie_element_51)"><g transform="matrix(28.770000457763672,0,0,28.770000457763672,539.9990234375,539.9990234375)" opacity="1" style="display: block;"><g opacity="1" transform="matrix(1,0,0,1,0,0)"><path fill="rgb(92,255,79)" fill-opacity="1" d=" M0,-8.880999565124512 C-4.896999835968018,-8.880999565124512 -8.880999565124512,-4.896999835968018 -8.880999565124512,0 C-8.880999565124512,4.896999835968018 -4.896999835968018,8.880999565124512 0,8.880999565124512 C4.896999835968018,8.880999565124512 8.880999565124512,4.896999835968018 8.880999565124512,0 C8.880999565124512,-4.896999835968018 4.896999835968018,-8.880999565124512 0,-8.880999565124512z M0,7.123000144958496 C-3.927999973297119,7.123000144958496 -7.123000144958496,3.927999973297119 -7.123000144958496,0 C-7.123000144958496,-3.927999973297119 -3.927999973297119,-7.123000144958496 0,-7.123000144958496 C3.927999973297119,-7.123000144958496 7.123000144958496,-3.927999973297119 7.123000144958496,0 C7.123000144958496,3.927999973297119 3.927999973297119,7.123000144958496 0,7.123000144958496z"></path></g></g><g transform="matrix(0,28.770000457763672,-28.770000457763672,0,540,540)" opacity="1" style="display: block;"><g opacity="1" transform="matrix(1,0,0,1,0,0)"><path fill="rgb(92,255,79)" fill-opacity="1" d=" M14.121000289916992,-2.76200008392334 C14.121000289916992,-2.76200008392334 12.343000411987305,-2.76200008392334 12.343000411987305,-2.76200008392334 C12.024999618530273,-4.179999828338623 11.460000038146973,-5.545000076293945 10.680000305175781,-6.77400016784668 C10.680000305175781,-6.77400016784668 11.937999725341797,-8.031999588012695 11.937999725341797,-8.031999588012695 C12.102999687194824,-8.196999549865723 12.194999694824219,-8.420999526977539 12.194999694824219,-8.654000282287598 C12.194999694824219,-8.88700008392334 12.102999687194824,-9.109999656677246 11.937999725341797,-9.274999618530273 C11.937999725341797,-9.274999618530273 9.274999618530273,-11.937999725341797 9.274999618530273,-11.937999725341797 C9.109999656677246,-12.102999687194824 8.88700008392334,-12.194999694824219 8.654000282287598,-12.194999694824219 C8.420999526977539,-12.194999694824219 8.196999549865723,-12.102999687194824 8.031999588012695,-11.937999725341797 C8.031999588012695,-11.937999725341797 6.77400016784668,-10.680000305175781 6.77400016784668,-10.680000305175781 C5.545000076293945,-11.460000038146973 4.179999828338623,-12.026000022888184 2.76200008392334,-12.343000411987305 C2.76200008392334,-12.343000411987305 2.76200008392334,-14.121000289916992 2.76200008392334,-14.121000289916992 C2.76200008392334,-14.605999946594238 2.368000030517578,-15 1.8830000162124634,-15 C1.8830000162124634,-15 -1.8830000162124634,-15 -1.8830000162124634,-15 C-2.368000030517578,-15 -2.76200008392334,-14.605999946594238 -2.76200008392334,-14.121000289916992 C-2.76200008392334,-14.121000289916992 -2.76200008392334,-12.343000411987305 -2.76200008392334,-12.343000411987305 C-4.179999828338623,-12.026000022888184 -5.544000148773193,-11.460000038146973 -6.77400016784668,-10.680000305175781 C-6.77400016784668,-10.680000305175781 -8.031999588012695,-11.937999725341797 -8.031999588012695,-11.937999725341797 C-8.196999549865723,-12.102999687194824 -8.420999526977539,-12.194999694824219 -8.654000282287598,-12.194999694824219 C-8.88700008392334,-12.194999694824219 -9.109999656677246,-12.102999687194824 -9.274999618530273,-11.937999725341797 C-9.274999618530273,-11.937999725341797 -11.937999725341797,-9.274999618530273 -11.937999725341797,-9.274999618530273 C-12.102999687194824,-9.109999656677246 -12.196000099182129,-8.88700008392334 -12.196000099182129,-8.654000282287598 C-12.196000099182129,-8.420999526977539 -12.102999687194824,-8.196999549865723 -11.937999725341797,-8.031999588012695 C-11.937999725341797,-8.031999588012695 -10.680000305175781,-6.77400016784668 -10.680000305175781,-6.77400016784668 C-11.460000038146973,-5.545000076293945 -12.026000022888184,-4.179999828338623 -12.343000411987305,-2.76200008392334 C-12.343000411987305,-2.76200008392334 -14.121000289916992,-2.76200008392334 -14.121000289916992,-2.76200008392334 C-14.605999946594238,-2.76200008392334 -15,-2.368000030517578 -15,-1.8830000162124634 C-15,-1.8830000162124634 -15,1.8830000162124634 -15,1.8830000162124634 C-15,2.368000030517578 -14.605999946594238,2.76200008392334 -14.121000289916992,2.76200008392334 C-14.121000289916992,2.76200008392334 -12.343000411987305,2.76200008392334 -12.343000411987305,2.76200008392334 C-12.026000022888184,4.179999828338623 -11.460000038146973,5.545000076293945 -10.680000305175781,6.77400016784668 C-10.680000305175781,6.77400016784668 -11.937999725341797,8.032999992370605 -11.937999725341797,8.032999992370605 C-12.102999687194824,8.197999954223633 -12.196000099182129,8.420999526977539 -12.196000099182129,8.654000282287598 C-12.196000099182129,8.88700008392334 -12.102999687194824,9.109999656677246 -11.937999725341797,9.274999618530273 C-11.937999725341797,9.274999618530273 -9.274999618530273,11.937999725341797 -9.274999618530273,11.937999725341797 C-8.932000160217285,12.281000137329102 -8.375,12.281000137329102 -8.031999588012695,11.937999725341797 C-8.031999588012695,11.937999725341797 -6.77400016784668,10.680000305175781 -6.77400016784668,10.680000305175781 C-5.545000076293945,11.460000038146973 -4.179999828338623,12.026000022888184 -2.76200008392334,12.343000411987305 C-2.76200008392334,12.343000411987305 -2.76200008392334,14.121000289916992 -2.76200008392334,14.121000289916992 C-2.76200008392334,14.605999946594238 -2.368000030517578,15 -1.8830000162124634,15 C-1.8830000162124634,15 1.8830000162124634,15 1.8830000162124634,15 C2.368000030517578,15 2.76200008392334,14.605999946594238 2.76200008392334,14.121000289916992 C2.76200008392334,14.121000289916992 2.76200008392334,12.343000411987305 2.76200008392334,12.343000411987305 C4.179999828338623,12.026000022888184 5.544000148773193,11.460000038146973 6.77400016784668,10.680000305175781 C6.77400016784668,10.680000305175781 8.031999588012695,11.937999725341797 8.031999588012695,11.937999725341797 C8.375,12.281000137329102 8.932000160217285,12.281000137329102 9.274999618530273,11.937999725341797 C9.274999618530273,11.937999725341797 11.937999725341797,9.274999618530273 11.937999725341797,9.274999618530273 C12.102999687194824,9.109999656677246 12.194999694824219,8.88700008392334 12.194999694824219,8.654000282287598 C12.194999694824219,8.420999526977539 12.102999687194824,8.196999549865723 11.937999725341797,8.031999588012695 C11.937999725341797,8.031999588012695 10.680000305175781,6.77400016784668 10.680000305175781,6.77400016784668 C11.460000038146973,5.545000076293945 12.024999618530273,4.179999828338623 12.343000411987305,2.76200008392334 C12.343000411987305,2.76200008392334 14.121000289916992,2.76200008392334 14.121000289916992,2.76200008392334 C14.605999946594238,2.76200008392334 15,2.368000030517578 15,1.8830000162124634 C15,1.8830000162124634 15,-1.8830000162124634 15,-1.8830000162124634 C15,-2.368000030517578 14.605999946594238,-2.76200008392334 14.121000289916992,-2.76200008392334z M13.241999626159668,1.003999948501587 C13.241999626159668,1.003999948501587 11.616999626159668,1.003999948501587 11.616999626159668,1.003999948501587 C11.1850004196167,1.003999948501587 10.817000389099121,1.3170000314712524 10.74899959564209,1.7430000305175781 C10.482000350952148,3.4019999504089355 9.819999694824219,5.001999855041504 8.833000183105469,6.368000030517578 C8.579999923706055,6.7179999351501465 8.619000434875488,7.198999881744385 8.923999786376953,7.504000186920166 C8.923999786376953,7.504000186920166 10.074000358581543,8.654000282287598 10.074000358581543,8.654000282287598 C10.074000358581543,8.654000282287598 8.654000282287598,10.074000358581543 8.654000282287598,10.074000358581543 C8.654000282287598,10.074000358581543 7.504000186920166,8.923999786376953 7.504000186920166,8.923999786376953 C7.198999881744385,8.619000434875488 6.7179999351501465,8.579999923706055 6.368000030517578,8.833000183105469 C5.000999927520752,9.819999694824219 3.4019999504089355,10.482000350952148 1.7430000305175781,10.74899959564209 C1.3170000314712524,10.817000389099121 1.003999948501587,11.1850004196167 1.003999948501587,11.616999626159668 C1.003999948501587,11.616999626159668 1.003999948501587,13.241999626159668 1.003999948501587,13.241999626159668 C1.003999948501587,13.241999626159668 -1.003999948501587,13.241999626159668 -1.003999948501587,13.241999626159668 C-1.003999948501587,13.241999626159668 -1.003999948501587,11.616999626159668 -1.003999948501587,11.616999626159668 C-1.003999948501587,11.1850004196167 -1.3170000314712524,10.817000389099121 -1.7430000305175781,10.74899959564209 C-3.4019999504089355,10.482000350952148 -5.000999927520752,9.819999694824219 -6.368000030517578,8.833000183105469 C-6.7179999351501465,8.579999923706055 -7.198999881744385,8.619000434875488 -7.504000186920166,8.923999786376953 C-7.504000186920166,8.923999786376953 -8.654000282287598,10.074000358581543 -8.654000282287598,10.074000358581543 C-8.654000282287598,10.074000358581543 -10.074000358581543,8.654000282287598 -10.074000358581543,8.654000282287598 C-10.074000358581543,8.654000282287598 -8.923999786376953,7.504000186920166 -8.923999786376953,7.504000186920166 C-8.619000434875488,7.198999881744385 -8.579999923706055,6.7179999351501465 -8.833000183105469,6.368000030517578 C-9.819999694824219,5.001999855041504 -10.482000350952148,3.4019999504089355 -10.74899959564209,1.7430000305175781 C-10.817999839782715,1.3170000314712524 -11.1850004196167,1.003999948501587 -11.616999626159668,1.003999948501587 C-11.616999626159668,1.003999948501587 -13.241999626159668,1.003999948501587 -13.241999626159668,1.003999948501587 C-13.241999626159668,1.003999948501587 -13.241999626159668,-1.003999948501587 -13.241999626159668,-1.003999948501587 C-13.241999626159668,-1.003999948501587 -11.616999626159668,-1.003999948501587 -11.616999626159668,-1.003999948501587 C-11.1850004196167,-1.003999948501587 -10.817000389099121,-1.3170000314712524 -10.74899959564209,-1.7430000305175781 C-10.482000350952148,-3.4019999504089355 -9.819999694824219,-5.000999927520752 -8.833000183105469,-6.368000030517578 C-8.579999923706055,-6.7179999351501465 -8.619000434875488,-7.198999881744385 -8.923999786376953,-7.504000186920166 C-8.923999786376953,-7.504000186920166 -10.074000358581543,-8.654000282287598 -10.074000358581543,-8.654000282287598 C-10.074000358581543,-8.654000282287598 -8.654000282287598,-10.072999954223633 -8.654000282287598,-10.072999954223633 C-8.654000282287598,-10.072999954223633 -7.504000186920166,-8.923999786376953 -7.504000186920166,-8.923999786376953 C-7.198999881744385,-8.619000434875488 -6.7179999351501465,-8.579999923706055 -6.368000030517578,-8.833000183105469 C-5.001999855041504,-9.819999694824219 -3.4019999504089355,-10.482000350952148 -1.7430000305175781,-10.74899959564209 C-1.3170000314712524,-10.817000389099121 -1.003999948501587,-11.1850004196167 -1.003999948501587,-11.616999626159668 C-1.003999948501587,-11.616999626159668 -1.003999948501587,-13.241999626159668 -1.003999948501587,-13.241999626159668 C-1.003999948501587,-13.241999626159668 1.003999948501587,-13.241999626159668 1.003999948501587,-13.241999626159668 C1.003999948501587,-13.241999626159668 1.003999948501587,-11.616999626159668 1.003999948501587,-11.616999626159668 C1.003999948501587,-11.1850004196167 1.3170000314712524,-10.817000389099121 1.7430000305175781,-10.74899959564209 C3.4019999504089355,-10.482000350952148 5.000999927520752,-9.819999694824219 6.368000030517578,-8.833000183105469 C6.7179999351501465,-8.579999923706055 7.198999881744385,-8.619000434875488 7.504000186920166,-8.923999786376953 C7.504000186920166,-8.923999786376953 8.654000282287598,-10.074000358581543 8.654000282287598,-10.074000358581543 C8.654000282287598,-10.074000358581543 10.074000358581543,-8.654000282287598 10.074000358581543,-8.654000282287598 C10.074000358581543,-8.654000282287598 8.923999786376953,-7.504000186920166 8.923999786376953,-7.504000186920166 C8.619000434875488,-7.198999881744385 8.579999923706055,-6.7179999351501465 8.833000183105469,-6.368000030517578 C9.819999694824219,-5.001999855041504 10.482000350952148,-3.4019999504089355 10.74899959564209,-1.7430000305175781 C10.817000389099121,-1.3170000314712524 11.1850004196167,-1.003999948501587 11.616999626159668,-1.003999948501587 C11.616999626159668,-1.003999948501587 13.241999626159668,-1.003999948501587 13.241999626159668,-1.003999948501587 C13.241999626159668,-1.003999948501587 13.241999626159668,1.003999948501587 13.241999626159668,1.003999948501587z"></path></g></g><g transform="matrix(1,0,0,1,540,538)" opacity="1" style="display: block;"><g opacity="1" transform="matrix(1,0,0,1,0,0)"><path fill="rgb(244,244,246)" fill-opacity="1" d=" M1,-121 C1,-121 1,4 1,4"></path><path stroke-linecap="round" stroke-linejoin="miter" fill-opacity="0" stroke-miterlimit="4" stroke="rgb(92,255,79)" stroke-opacity="1" stroke-width="50" d=" M1,-121 C1,-121 1,4 1,4"></path></g></g><g transform="matrix(0,1,-1,0,545,541)" opacity="1" style="display: block;"><g opacity="1" transform="matrix(1,0,0,1,0,0)"><path fill="rgb(244,244,246)" fill-opacity="1" d=" M1,-121 C1,-121 1,4 1,4"></path><path stroke-linecap="round" stroke-linejoin="miter" fill-opacity="0" stroke-miterlimit="4" stroke="rgb(92,255,79)" stroke-opacity="1" stroke-width="50" d=" M1,-121 C1,-121 1,4 1,4"></path></g></g></g></svg>