<svg xmlns="http://www.w3.org/2000/svg" xmlns:xlink="http://www.w3.org/1999/xlink" viewBox="0 0 1080 1080" width="1080" height="1080" preserveAspectRatio="xMidYMid meet" style="width: 100%; height: 100%; transform: translate3d(0px, 0px, 0px); content-visibility: visible;"><defs><clipPath id="__lottie_element_64"><rect width="1080" height="1080" x="0" y="0"></rect></clipPath></defs><g clip-path="url(#__lottie_element_64)"><g transform="matrix(30.280000686645508,0,0,30.280000686645508,540,540)" opacity="1" style="display: block;"><g opacity="1" transform="matrix(1,0,0,1,0,0)"><path fill="rgb(92,255,79)" fill-opacity="1" d="M0 0"></path></g></g><g transform="matrix(-30.280000686645508,0,0,-30.280000686645508,540,539.9959716796875)" opacity="1" style="display: block;"><g opacity="1" transform="matrix(1,0,0,1,0,0)"><path fill="rgb(92,255,79)" fill-opacity="1" d=" M3.993000030517578,5.138999938964844 C3.993000030517578,5.138999938964844 5.138999938964844,3.993000030517578 5.138999938964844,3.993000030517578 C5.276000022888184,3.8559999465942383 5.315000057220459,3.6480000019073486 5.236000061035156,3.4709999561309814 C5.236000061035156,3.4709999561309814 4.901000022888184,2.7179999351501465 4.901000022888184,2.7179999351501465 C5.107999801635742,2.3459999561309814 5.270999908447266,1.9529999494552612 5.388000011444092,1.5440000295639038 C5.388000011444092,1.5440000295639038 6.1570000648498535,1.2480000257492065 6.1570000648498535,1.2480000257492065 C6.3379998207092285,1.1779999732971191 6.456999778747559,1.003999948501587 6.456999778747559,0.8100000023841858 C6.456999778747559,0.8100000023841858 6.456999778747559,-0.8109999895095825 6.456999778747559,-0.8109999895095825 C6.456999778747559,-1.0049999952316284 6.3379998207092285,-1.1779999732971191 6.1570000648498535,-1.2480000257492065 C6.1570000648498535,-1.2480000257492065 5.388999938964844,-1.5440000295639038 5.388999938964844,-1.5440000295639038 C5.271999835968018,-1.9529999494552612 5.109000205993652,-2.3469998836517334 4.9019999504089355,-2.7190001010894775 C4.9019999504089355,-2.7190001010894775 5.236000061035156,-3.4709999561309814 5.236000061035156,-3.4709999561309814 C5.315000057220459,-3.6480000019073486 5.276000022888184,-3.8559999465942383 5.138999938964844,-3.993000030517578 C5.138999938964844,-3.993000030517578 3.993000030517578,-5.138999938964844 3.993000030517578,-5.138999938964844 C3.8559999465942383,-5.276000022888184 3.6480000019073486,-5.315000057220459 3.4709999561309814,-5.236000061035156 C3.4709999561309814,-5.236000061035156 2.7179999351501465,-4.9019999504089355 2.7179999351501465,-4.9019999504089355 C2.3459999561309814,-5.109000205993652 1.9529999494552612,-5.271999835968018 1.5440000295639038,-5.388999938964844 C1.5440000295639038,-5.388999938964844 1.2480000257492065,-6.1570000648498535 1.2480000257492065,-6.1570000648498535 C1.1779999732971191,-6.3379998207092285 1.003999948501587,-6.456999778747559 0.8100000023841858,-6.456999778747559 C0.8100000023841858,-6.456999778747559 -0.8100000023841858,-6.456999778747559 -0.8100000023841858,-6.456999778747559 C-1.003999948501587,-6.456999778747559 -1.1779999732971191,-6.3379998207092285 -1.2480000257492065,-6.1570000648498535 C-1.2480000257492065,-6.1570000648498535 -1.5440000295639038,-5.388999938964844 -1.5440000295639038,-5.388999938964844 C-1.9529999494552612,-5.271999835968018 -2.3459999561309814,-5.109000205993652 -2.7179999351501465,-4.9019999504089355 C-2.7179999351501465,-4.9019999504089355 -3.4709999561309814,-5.236000061035156 -3.4709999561309814,-5.236000061035156 C-3.6480000019073486,-5.315000057220459 -3.8559999465942383,-5.276000022888184 -3.993000030517578,-5.138999938964844 C-3.993000030517578,-5.138999938964844 -5.138999938964844,-3.993000030517578 -5.138999938964844,-3.993000030517578 C-5.276000022888184,-3.8559999465942383 -5.315000057220459,-3.6480000019073486 -5.236000061035156,-3.4709999561309814 C-5.236000061035156,-3.4709999561309814 -4.9019999504089355,-2.7179999351501465 -4.9019999504089355,-2.7179999351501465 C-5.109000205993652,-2.3459999561309814 -5.271999835968018,-1.9529999494552612 -5.388999938964844,-1.5440000295639038 C-5.388999938964844,-1.5440000295639038 -6.1570000648498535,-1.2480000257492065 -6.1570000648498535,-1.2480000257492065 C-6.3379998207092285,-1.1779999732971191 -6.456999778747559,-1.0049999952316284 -6.456999778747559,-0.8109999895095825 C-6.456999778747559,-0.8109999895095825 -6.456999778747559,0.8100000023841858 -6.456999778747559,0.8100000023841858 C-6.456999778747559,1.003999948501587 -6.3379998207092285,1.1779999732971191 -6.1570000648498535,1.2480000257492065 C-6.1570000648498535,1.2480000257492065 -5.388999938964844,1.5429999828338623 -5.388999938964844,1.5429999828338623 C-5.271999835968018,1.9520000219345093 -5.109000205993652,2.3459999561309814 -4.9019999504089355,2.7179999351501465 C-4.9019999504089355,2.7179999351501465 -5.236000061035156,3.4709999561309814 -5.236000061035156,3.4709999561309814 C-5.315000057220459,3.6480000019073486 -5.276000022888184,3.8559999465942383 -5.138999938964844,3.993000030517578 C-5.138999938964844,3.993000030517578 -3.993000030517578,5.138999938964844 -3.993000030517578,5.138999938964844 C-3.8559999465942383,5.276000022888184 -3.6480000019073486,5.315000057220459 -3.4709999561309814,5.236000061035156 C-3.4709999561309814,5.236000061035156 -2.7179999351501465,4.901000022888184 -2.7179999351501465,4.901000022888184 C-2.3459999561309814,5.107999801635742 -1.9529999494552612,5.270999908447266 -1.5440000295639038,5.388000011444092 C-1.5440000295639038,5.388000011444092 -1.2480000257492065,6.1570000648498535 -1.2480000257492065,6.1570000648498535 C-1.1779999732971191,6.3379998207092285 -1.003999948501587,6.456999778747559 -0.8100000023841858,6.456999778747559 C-0.8100000023841858,6.456999778747559 0.8100000023841858,6.456999778747559 0.8100000023841858,6.456999778747559 C1.003999948501587,6.456999778747559 1.1779999732971191,6.3379998207092285 1.2480000257492065,6.1570000648498535 C1.2480000257492065,6.1570000648498535 1.5440000295639038,5.388999938964844 1.5440000295639038,5.388999938964844 C1.9529999494552612,5.271999835968018 2.3469998836517334,5.109000205993652 2.7190001010894775,4.9019999504089355 C2.7190001010894775,4.9019999504089355 3.4709999561309814,5.236000061035156 3.4709999561309814,5.236000061035156 C3.6480000019073486,5.315000057220459 3.8559999465942383,5.276000022888184 3.993000030517578,5.138999938964844z M2.443000078201294,3.9769999980926514 C2.0209999084472656,4.236999988555908 1.5640000104904175,4.426000118255615 1.0839999914169312,4.539999961853027 C0.9340000152587891,4.576000213623047 0.8100000023841858,4.684000015258789 0.7549999952316284,4.828000068664551 C0.7549999952316284,4.828000068664551 0.48899999260902405,5.519999980926514 0.48899999260902405,5.519999980926514 C0.48899999260902405,5.519999980926514 -0.4880000054836273,5.519999980926514 -0.4880000054836273,5.519999980926514 C-0.4880000054836273,5.519999980926514 -0.7549999952316284,4.827000141143799 -0.7549999952316284,4.827000141143799 C-0.8100000023841858,4.683000087738037 -0.9340000152587891,4.576000213623047 -1.0839999914169312,4.539999961853027 C-1.5640000104904175,4.426000118255615 -2.0220000743865967,4.236000061035156 -2.443000078201294,3.9760000705718994 C-2.575000047683716,3.8949999809265137 -2.73799991607666,3.884000062942505 -2.878999948501587,3.947000026702881 C-2.878999948501587,3.947000026702881 -3.556999921798706,4.248000144958496 -3.556999921798706,4.248000144958496 C-3.556999921798706,4.248000144958496 -4.248000144958496,3.556999921798706 -4.248000144958496,3.556999921798706 C-4.248000144958496,3.556999921798706 -3.947000026702881,2.880000114440918 -3.947000026702881,2.880000114440918 C-3.884000062942505,2.739000082015991 -3.8949999809265137,2.575000047683716 -3.9760000705718994,2.443000078201294 C-4.236000061035156,2.0220000743865967 -4.425000190734863,1.565000057220459 -4.539999961853027,1.0839999914169312 C-4.576000213623047,0.9340000152587891 -4.684000015258789,0.8100000023841858 -4.828000068664551,0.7549999952316284 C-4.828000068664551,0.7549999952316284 -5.519000053405762,0.48899999260902405 -5.519000053405762,0.48899999260902405 C-5.519000053405762,0.48899999260902405 -5.519000053405762,-0.4880000054836273 -5.519000053405762,-0.4880000054836273 C-5.519000053405762,-0.4880000054836273 -4.827000141143799,-0.7549999952316284 -4.827000141143799,-0.7549999952316284 C-4.683000087738037,-0.8100000023841858 -4.576000213623047,-0.9340000152587891 -4.539999961853027,-1.0839999914169312 C-4.426000118255615,-1.5640000104904175 -4.236000061035156,-2.0209999084472656 -3.9760000705718994,-2.443000078201294 C-3.8949999809265137,-2.575000047683716 -3.884000062942505,-2.73799991607666 -3.947000026702881,-2.878999948501587 C-3.947000026702881,-2.878999948501587 -4.248000144958496,-3.556999921798706 -4.248000144958496,-3.556999921798706 C-4.248000144958496,-3.556999921798706 -3.556999921798706,-4.248000144958496 -3.556999921798706,-4.248000144958496 C-3.556999921798706,-4.248000144958496 -2.878999948501587,-3.947000026702881 -2.878999948501587,-3.947000026702881 C-2.73799991607666,-3.884000062942505 -2.575000047683716,-3.8949999809265137 -2.443000078201294,-3.9760000705718994 C-2.0209999084472656,-4.236000061035156 -1.5640000104904175,-4.426000118255615 -1.0839999914169312,-4.539999961853027 C-0.9340000152587891,-4.576000213623047 -0.8100000023841858,-4.684000015258789 -0.7549999952316284,-4.828000068664551 C-0.7549999952316284,-4.828000068664551 -0.48899999260902405,-5.519999980926514 -0.48899999260902405,-5.519999980926514 C-0.48899999260902405,-5.519999980926514 0.48899999260902405,-5.519999980926514 0.48899999260902405,-5.519999980926514 C0.48899999260902405,-5.519999980926514 0.7549999952316284,-4.828000068664551 0.7549999952316284,-4.828000068664551 C0.8100000023841858,-4.684000015258789 0.9340000152587891,-4.576000213623047 1.0839999914169312,-4.539999961853027 C1.5640000104904175,-4.426000118255615 2.0209999084472656,-4.236000061035156 2.443000078201294,-3.9760000705718994 C2.575000047683716,-3.8949999809265137 2.73799991607666,-3.884000062942505 2.878999948501587,-3.947000026702881 C2.878999948501587,-3.947000026702881 3.556999921798706,-4.248000144958496 3.556999921798706,-4.248000144958496 C3.556999921798706,-4.248000144958496 4.248000144958496,-3.556999921798706 4.248000144958496,-3.556999921798706 C4.248000144958496,-3.556999921798706 3.947000026702881,-2.880000114440918 3.947000026702881,-2.880000114440918 C3.884000062942505,-2.739000082015991 3.8959999084472656,-2.575000047683716 3.9769999980926514,-2.443000078201294 C4.236999988555908,-2.0209999084472656 4.426000118255615,-1.565000057220459 4.539999961853027,-1.0839999914169312 C4.576000213623047,-0.9340000152587891 4.684000015258789,-0.8100000023841858 4.828000068664551,-0.7549999952316284 C4.828000068664551,-0.7549999952316284 5.519999980926514,-0.48899999260902405 5.519999980926514,-0.48899999260902405 C5.519999980926514,-0.48899999260902405 5.519999980926514,0.4880000054836273 5.519999980926514,0.4880000054836273 C5.519999980926514,0.4880000054836273 4.827000141143799,0.7549999952316284 4.827000141143799,0.7549999952316284 C4.683000087738037,0.8100000023841858 4.576000213623047,0.9340000152587891 4.539999961853027,1.0839999914169312 C4.426000118255615,1.5640000104904175 4.236000061035156,2.0209999084472656 3.9760000705718994,2.443000078201294 C3.8949999809265137,2.575000047683716 3.884000062942505,2.73799991607666 3.947000026702881,2.878999948501587 C3.947000026702881,2.878999948501587 4.248000144958496,3.556999921798706 4.248000144958496,3.556999921798706 C4.248000144958496,3.556999921798706 3.556999921798706,4.248000144958496 3.556999921798706,4.248000144958496 C3.556999921798706,4.248000144958496 2.878999948501587,3.947000026702881 2.878999948501587,3.947000026702881 C2.73799991607666,3.884000062942505 2.575000047683716,3.8959999084472656 2.443000078201294,3.9769999980926514z M0,-3.322999954223633 C-1.8320000171661377,-3.322999954223633 -3.322999954223633,-1.8320000171661377 -3.322999954223633,0 C-3.322999954223633,1.8320000171661377 -1.8320000171661377,3.322999954223633 0,3.322999954223633 C1.8320000171661377,3.322999954223633 3.322999954223633,1.8320000171661377 3.322999954223633,0 C3.322999954223633,-1.8320000171661377 1.8320000171661377,-3.322999954223633 0,-3.322999954223633z M0,2.385999917984009 C-1.315000057220459,2.385999917984009 -2.384999990463257,1.315000057220459 -2.384999990463257,0 C-2.384999990463257,-1.315999984741211 -1.315000057220459,-2.384999990463257 0,-2.384999990463257 C1.315000057220459,-2.384999990463257 2.385999917984009,-1.315999984741211 2.385999917984009,0 C2.385999917984009,1.315000057220459 1.315000057220459,2.385999917984009 0,2.385999917984009z"></path><g opacity="1" transform="matrix(1,0,0,1,0,0)"></g></g></g><g transform="matrix(30.280000686645508,0,0,30.280000686645508,540.0009765625,540.0009765625)" opacity="1" style="display: block;"><g opacity="1" transform="matrix(1,0,0,1,0,0)"><path fill="rgb(92,255,79)" fill-opacity="1" d=" M-0.4690000116825104,-10.8100004196167 C-0.4690000116825104,-10.8100004196167 -0.4690000116825104,-9.359999656677246 -0.4690000116825104,-9.359999656677246 C-0.6150000095367432,-9.559000015258789 -0.8939999938011169,-9.611000061035156 -1.1030000448226929,-9.473999977111816 C-1.319000005722046,-9.331999778747559 -1.3799999952316284,-9.043000221252441 -1.2380000352859497,-8.826000213623047 C-1.2380000352859497,-8.826000213623047 -0.3919999897480011,-7.534999847412109 -0.3919999897480011,-7.534999847412109 C-0.3050000071525574,-7.4029998779296875 -0.15800000727176666,-7.322999954223633 0,-7.322999954223633 C0,-7.322999954223633 0.0010000000474974513,-7.322999954223633 0.0010000000474974513,-7.322999954223633 C0.1599999964237213,-7.323999881744385 0.30799999833106995,-7.40500020980835 0.39399999380111694,-7.538000106811523 C0.39399999380111694,-7.538000106811523 1.2309999465942383,-8.833000183105469 1.2309999465942383,-8.833000183105469 C1.371999979019165,-9.050000190734863 1.309000015258789,-9.340999603271484 1.0920000076293945,-9.482000350952148 C0.8870000243186951,-9.614999771118164 0.6169999837875366,-9.565999984741211 0.4690000116825104,-9.376999855041504 C0.4690000116825104,-9.376999855041504 0.4690000116825104,-10.8100004196167 0.4690000116825104,-10.8100004196167 C1.284999966621399,-11.019000053405762 1.8899999856948853,-11.76099967956543 1.8899999856948853,-12.640999794006348 C1.8899999856948853,-13.682999610900879 1.0420000553131104,-14.531000137329102 0,-14.531000137329102 C-1.0420000553131104,-14.531000137329102 -1.8899999856948853,-13.682999610900879 -1.8899999856948853,-12.640999794006348 C-1.8899999856948853,-11.760000228881836 -1.284999966621399,-11.019000053405762 -0.4690000116825104,-10.8100004196167z M0,-13.593999862670898 C0.5249999761581421,-13.593999862670898 0.953000009059906,-13.166000366210938 0.953000009059906,-12.640999794006348 C0.953000009059906,-12.116000175476074 0.5249999761581421,-11.687999725341797 0,-11.687999725341797 C-0.5249999761581421,-11.687999725341797 -0.953000009059906,-12.116000175476074 -0.953000009059906,-12.640999794006348 C-0.953000009059906,-13.166000366210938 -0.5249999761581421,-13.593999862670898 0,-13.593999862670898z M12.640999794006348,-1.8899999856948853 C11.76099967956543,-1.8899999856948853 11.019000053405762,-1.284999966621399 10.8100004196167,-0.4690000116825104 C10.8100004196167,-0.4690000116825104 9.359999656677246,-0.4690000116825104 9.359999656677246,-0.4690000116825104 C9.559000015258789,-0.6150000095367432 9.612000465393066,-0.8939999938011169 9.475000381469727,-1.1030000448226929 C9.333000183105469,-1.319000005722046 9.043000221252441,-1.3799999952316284 8.826000213623047,-1.2380000352859497 C8.826000213623047,-1.2380000352859497 7.534999847412109,-0.3919999897480011 7.534999847412109,-0.3919999897480011 C7.4019999504089355,-0.3050000071525574 7.322000026702881,-0.15700000524520874 7.322999954223633,0.0010000000474974513 C7.323999881744385,0.1599999964237213 7.40500020980835,0.30799999833106995 7.538000106811523,0.39399999380111694 C7.538000106811523,0.39399999380111694 8.833000183105469,1.2309999465942383 8.833000183105469,1.2309999465942383 C8.911999702453613,1.281999945640564 9,1.305999994277954 9.086999893188477,1.305999994277954 C9.241000175476074,1.305999994277954 9.392000198364258,1.2309999465942383 9.482000350952148,1.0920000076293945 C9.614999771118164,0.8870000243186951 9.565999984741211,0.6169999837875366 9.376999855041504,0.4690000116825104 C9.376999855041504,0.4690000116825104 10.8100004196167,0.4690000116825104 10.8100004196167,0.4690000116825104 C11.019000053405762,1.284999966621399 11.76099967956543,1.8899999856948853 12.640999794006348,1.8899999856948853 C13.682999610900879,1.8899999856948853 14.531000137329102,1.0420000553131104 14.531000137329102,0 C14.531000137329102,-1.0420000553131104 13.682999610900879,-1.8899999856948853 12.640999794006348,-1.8899999856948853z M12.640999794006348,0.953000009059906 C12.116000175476074,0.953000009059906 11.687999725341797,0.5249999761581421 11.687999725341797,0 C11.687999725341797,-0.5249999761581421 12.116000175476074,-0.953000009059906 12.640999794006348,-0.953000009059906 C13.166000366210938,-0.953000009059906 13.593999862670898,-0.5249999761581421 13.593999862670898,0 C13.593999862670898,0.5249999761581421 13.166000366210938,0.953000009059906 12.640999794006348,0.953000009059906z M0.4690000116825104,10.8100004196167 C0.4690000116825104,10.8100004196167 0.4690000116825104,9.359999656677246 0.4690000116825104,9.359999656677246 C0.6150000095367432,9.559000015258789 0.8930000066757202,9.612000465393066 1.1030000448226929,9.475000381469727 C1.319000005722046,9.333000183105469 1.3799999952316284,9.043000221252441 1.2380000352859497,8.826000213623047 C1.2380000352859497,8.826000213623047 0.3919999897480011,7.534999847412109 0.3919999897480011,7.534999847412109 C0.3050000071525574,7.4029998779296875 0.15800000727176666,7.322999954223633 0,7.322999954223633 C-0.0010000000474974513,7.322999954223633 -0.0010000000474974513,7.322999954223633 -0.0010000000474974513,7.322999954223633 C-0.1599999964237213,7.323999881744385 -0.30799999833106995,7.40500020980835 -0.39399999380111694,7.538000106811523 C-0.39399999380111694,7.538000106811523 -1.2309999465942383,8.833000183105469 -1.2309999465942383,8.833000183105469 C-1.371999979019165,9.050000190734863 -1.309000015258789,9.340999603271484 -1.0920000076293945,9.482000350952148 C-1.0130000114440918,9.532999992370605 -0.925000011920929,9.557000160217285 -0.8379999995231628,9.557000160217285 C-0.6970000267028809,9.557000160217285 -0.5600000023841858,9.493000030517578 -0.4690000116825104,9.37600040435791 C-0.4690000116825104,9.37600040435791 -0.4690000116825104,10.8100004196167 -0.4690000116825104,10.8100004196167 C-1.284999966621399,11.019000053405762 -1.8899999856948853,11.760000228881836 -1.8899999856948853,12.640999794006348 C-1.8899999856948853,13.682999610900879 -1.0420000553131104,14.531000137329102 0,14.531000137329102 C1.0420000553131104,14.531000137329102 1.8899999856948853,13.682999610900879 1.8899999856948853,12.640999794006348 C1.8899999856948853,11.760000228881836 1.284999966621399,11.019000053405762 0.4690000116825104,10.8100004196167z M0,13.593999862670898 C-0.5249999761581421,13.593999862670898 -0.953000009059906,13.166000366210938 -0.953000009059906,12.640999794006348 C-0.953000009059906,12.116000175476074 -0.5249999761581421,11.687999725341797 0,11.687999725341797 C0.5249999761581421,11.687999725341797 0.953000009059906,12.116000175476074 0.953000009059906,12.640999794006348 C0.953000009059906,13.166000366210938 0.5249999761581421,13.593999862670898 0,13.593999862670898z M-10.8100004196167,0.4690000116825104 C-10.8100004196167,0.4690000116825104 -9.359999656677246,0.4690000116825104 -9.359999656677246,0.4690000116825104 C-9.559000015258789,0.6150000095367432 -9.611000061035156,0.8939999938011169 -9.473999977111816,1.1030000448226929 C-9.383999824523926,1.2400000095367432 -9.234999656677246,1.315000057220459 -9.081999778747559,1.315000057220459 C-8.994000434875488,1.315000057220459 -8.904000282287598,1.2899999618530273 -8.824999809265137,1.2380000352859497 C-8.824999809265137,1.2380000352859497 -7.534999847412109,0.3919999897480011 -7.534999847412109,0.3919999897480011 C-7.4019999504089355,0.3050000071525574 -7.322000026702881,0.15700000524520874 -7.322999954223633,-0.0010000000474974513 C-7.323999881744385,-0.1599999964237213 -7.40500020980835,-0.30799999833106995 -7.538000106811523,-0.39399999380111694 C-7.538000106811523,-0.39399999380111694 -8.833000183105469,-1.2309999465942383 -8.833000183105469,-1.2309999465942383 C-9.050000190734863,-1.371999979019165 -9.340999603271484,-1.309000015258789 -9.482000350952148,-1.0920000076293945 C-9.614999771118164,-0.8870000243186951 -9.565999984741211,-0.6169999837875366 -9.376999855041504,-0.4690000116825104 C-9.376999855041504,-0.4690000116825104 -10.8100004196167,-0.4690000116825104 -10.8100004196167,-0.4690000116825104 C-11.019000053405762,-1.284999966621399 -11.76099967956543,-1.8899999856948853 -12.640999794006348,-1.8899999856948853 C-13.682999610900879,-1.8899999856948853 -14.531000137329102,-1.0420000553131104 -14.531000137329102,0 C-14.531000137329102,1.0420000553131104 -13.682999610900879,1.8899999856948853 -12.640999794006348,1.8899999856948853 C-11.760000228881836,1.8899999856948853 -11.019000053405762,1.284999966621399 -10.8100004196167,0.4690000116825104z M-13.593999862670898,0 C-13.593999862670898,-0.5249999761581421 -13.166000366210938,-0.953000009059906 -12.640999794006348,-0.953000009059906 C-12.116000175476074,-0.953000009059906 -11.687999725341797,-0.5249999761581421 -11.687999725341797,0 C-11.687999725341797,0.5249999761581421 -12.116000175476074,0.953000009059906 -12.640999794006348,0.953000009059906 C-13.166000366210938,0.953000009059906 -13.593999862670898,0.5249999761581421 -13.593999862670898,0z"></path><g opacity="1" transform="matrix(1,0,0,1,0,0)"></g></g></g><g transform="matrix(30.280000686645508,0,0,30.280000686645508,540.0150146484375,539.99267578125)" opacity="1" style="display: block;"><g opacity="1" transform="matrix(1,0,0,1,0,0)"><path fill="rgb(92,255,79)" fill-opacity="1" d=" M12.506999969482422,3.7300000190734863 C11.892999649047852,5.791999816894531 10.758999824523926,7.690999984741211 9.229999542236328,9.222000122070312 C8.048999786376953,10.404000282287598 6.646999835968018,11.350000381469727 5.119999885559082,12.003000259399414 C5.119999885559082,12.003000259399414 5.47599983215332,12.104999542236328 5.47599983215332,12.104999542236328 C5.724999904632568,12.177000045776367 5.86899995803833,12.437000274658203 5.796999931335449,12.685999870300293 C5.73799991607666,12.890999794006348 5.551000118255615,13.024999618530273 5.3470001220703125,13.024999618530273 C5.303999900817871,13.024999618530273 5.260000228881836,13.017999649047852 5.2170000076293945,13.005999565124512 C5.2170000076293945,13.005999565124512 3.4769999980926514,12.505000114440918 3.4769999980926514,12.505000114440918 C3.3389999866485596,12.46500015258789 3.2269999980926514,12.36400032043457 3.1730000972747803,12.229999542236328 C3.11899995803833,12.095999717712402 3.128999948501587,11.944999694824219 3.2009999752044678,11.819999694824219 C3.2009999752044678,11.819999694824219 4.105000019073486,10.251999855041504 4.105000019073486,10.251999855041504 C4.234000205993652,10.027999877929688 4.520999908447266,9.951000213623047 4.744999885559082,10.079999923706055 C4.968999862670898,10.208999633789062 5.046000003814697,10.496000289916992 4.916999816894531,10.720000267028809 C4.916999816894531,10.720000267028809 4.6479997634887695,11.185999870300293 4.6479997634887695,11.185999870300293 C8,9.798999786376953 10.557999610900879,6.986999988555908 11.607999801635742,3.4619998931884766 C11.682000160217285,3.2139999866485596 11.942999839782715,3.072999954223633 12.190999984741211,3.1470000743865967 C12.439000129699707,3.2209999561309814 12.581000328063965,3.4820001125335693 12.506999969482422,3.7300000190734863z"></path><g opacity="1" transform="matrix(1,0,0,1,0,0)"></g></g></g><g transform="matrix(30.280000686645508,0,0,30.280000686645508,539.9887084960938,539.9859619140625)" opacity="1" style="display: block;"><g opacity="1" transform="matrix(1,0,0,1,0,0)"><path fill="rgb(92,255,79)" fill-opacity="1" d=" M3.1470000743865967,-12.190999984741211 C3.2209999561309814,-12.439000129699707 3.4820001125335693,-12.581000328063965 3.7300000190734863,-12.506999969482422 C5.791999816894531,-11.892999649047852 7.690999984741211,-10.758999824523926 9.222000122070312,-9.229999542236328 C10.437000274658203,-8.015999794006348 11.401000022888184,-6.568999767303467 12.055999755859375,-4.993000030517578 C12.055999755859375,-4.993000030517578 12.229000091552734,-5.468999862670898 12.229000091552734,-5.468999862670898 C12.317000389099121,-5.7129998207092285 12.586000442504883,-5.839000225067139 12.829000473022461,-5.750999927520752 C13.071999549865723,-5.663000106811523 13.197999954223633,-5.394000053405762 13.109999656677246,-5.150000095367432 C13.109999656677246,-5.150000095367432 12.494999885559082,-3.447999954223633 12.494999885559082,-3.447999954223633 C12.446000099182129,-3.312999963760376 12.338000297546387,-3.2070000171661377 12.201000213623047,-3.1619999408721924 C12.152999877929688,-3.1459999084472656 12.102999687194824,-3.1389999389648438 12.053999900817871,-3.1389999389648438 C11.961999893188477,-3.1389999389648438 11.871999740600586,-3.1649999618530273 11.793999671936035,-3.2170000076293945 C11.793999671936035,-3.2170000076293945 10.288999557495117,-4.2230000495910645 10.288999557495117,-4.2230000495910645 C10.074000358581543,-4.367000102996826 10.015000343322754,-4.6579999923706055 10.159000396728516,-4.873000144958496 C10.303000450134277,-5.0879998207092285 10.593999862670898,-5.145999908447266 10.809000015258789,-5.001999855041504 C10.809000015258789,-5.001999855041504 11.12600040435791,-4.790999889373779 11.12600040435791,-4.790999889373779 C9.718999862670898,-8.072999954223633 6.935999870300293,-10.572999954223633 3.4619998931884766,-11.607999801635742 C3.2139999866485596,-11.682000160217285 3.072999954223633,-11.942999839782715 3.1470000743865967,-12.190999984741211z"></path><g opacity="1" transform="matrix(1,0,0,1,0,0)"></g></g></g><g transform="matrix(30.280000686645508,0,0,30.280000686645508,540.0115966796875,539.9857177734375)" opacity="1" style="display: block;"><g opacity="1" transform="matrix(1,0,0,1,0,0)"><path fill="rgb(92,255,79)" fill-opacity="1" d=" M-3.1470000743865967,12.190999984741211 C-3.2079999446868896,12.394000053405762 -3.3940000534057617,12.527000427246094 -3.5959999561309814,12.527000427246094 C-3.640000104904175,12.527000427246094 -3.684999942779541,12.520000457763672 -3.7300000190734863,12.506999969482422 C-5.791999816894531,11.892999649047852 -7.690999984741211,10.758999824523926 -9.222000122070312,9.229999542236328 C-10.425999641418457,8.027000427246094 -11.383999824523926,6.59499979019165 -12.038000106811523,5.034999847412109 C-12.038000106811523,5.034999847412109 -12.1850004196167,5.4730000495910645 -12.1850004196167,5.4730000495910645 C-12.25100040435791,5.669000148773193 -12.432999610900879,5.791999816894531 -12.628999710083008,5.791999816894531 C-12.678000450134277,5.791999816894531 -12.729000091552734,5.784999847412109 -12.777999877929688,5.76800012588501 C-13.02299976348877,5.685999870300293 -13.156000137329102,5.420000076293945 -13.074000358581543,5.175000190734863 C-13.074000358581543,5.175000190734863 -12.49899959564209,3.4579999446868896 -12.49899959564209,3.4579999446868896 C-12.45300006866455,3.321000099182129 -12.347000122070312,3.2130000591278076 -12.211000442504883,3.1649999618530273 C-12.074999809265137,3.117000102996826 -11.925000190734863,3.134999990463257 -11.803000450134277,3.2119998931884766 C-11.803000450134277,3.2119998931884766 -10.274999618530273,4.181000232696533 -10.274999618530273,4.181000232696533 C-10.055999755859375,4.320000171661377 -9.991000175476074,4.609000205993652 -10.130000114440918,4.828000068664551 C-10.269000053405762,5.046999931335449 -10.557999610900879,5.111999988555908 -10.777000427246094,4.9730000495910645 C-10.777000427246094,4.9730000495910645 -11.14900016784668,4.736000061035156 -11.14900016784668,4.736000061035156 C-9.74899959564209,8.043999671936035 -6.954999923706055,10.567999839782715 -3.4619998931884766,11.607999801635742 C-3.2139999866485596,11.682000160217285 -3.072999954223633,11.942999839782715 -3.1470000743865967,12.190999984741211z"></path><g opacity="1" transform="matrix(1,0,0,1,0,0)"></g></g></g><g transform="matrix(30.280000686645508,0,0,30.280000686645508,539.9859619140625,540.00732421875)" opacity="1" style="display: block;"><g opacity="1" transform="matrix(1,0,0,1,0,0)"><path fill="rgb(92,255,79)" fill-opacity="1" d=" M-12.506999969482422,-3.7300000190734863 C-11.892999649047852,-5.791999816894531 -10.758999824523926,-7.690999984741211 -9.229999542236328,-9.222000122070312 C-8.02299976348877,-10.430000305175781 -6.586999893188477,-11.390000343322754 -5.021999835968018,-12.043999671936035 C-5.021999835968018,-12.043999671936035 -5.4720001220703125,-12.197999954223633 -5.4720001220703125,-12.197999954223633 C-5.7170000076293945,-12.281999588012695 -5.8470001220703125,-12.548999786376953 -5.763000011444092,-12.793999671936035 C-5.678999900817871,-13.038999557495117 -5.4120001792907715,-13.168999671936035 -5.166999816894531,-13.085000038146973 C-5.166999816894531,-13.085000038146973 -3.4549999237060547,-12.498000144958496 -3.4549999237060547,-12.498000144958496 C-3.319000005722046,-12.451000213623047 -3.2109999656677246,-12.343999862670898 -3.1640000343322754,-12.208000183105469 C-3.117000102996826,-12.071999549865723 -3.134999990463257,-11.920999526977539 -3.2130000591278076,-11.800000190734863 C-3.2130000591278076,-11.800000190734863 -4.193999767303467,-10.279000282287598 -4.193999767303467,-10.279000282287598 C-4.283999919891357,-10.140000343322754 -4.434999942779541,-10.064000129699707 -4.589000225067139,-10.064000129699707 C-4.676000118255615,-10.064000129699707 -4.763000011444092,-10.088000297546387 -4.8420000076293945,-10.138999938964844 C-5.059999942779541,-10.279000282287598 -5.122000217437744,-10.569000244140625 -4.98199987411499,-10.786999702453613 C-4.98199987411499,-10.786999702453613 -4.752999782562256,-11.142000198364258 -4.752999782562256,-11.142000198364258 C-8.053000450134277,-9.739999771118164 -10.569000244140625,-6.949999809265137 -11.607999801635742,-3.4619998931884766 C-11.668999671936035,-3.257999897003174 -11.854999542236328,-3.127000093460083 -12.057000160217285,-3.127000093460083 C-12.10099983215332,-3.127000093460083 -12.145999908447266,-3.132999897003174 -12.190999984741211,-3.1459999084472656 C-12.439000129699707,-3.2200000286102295 -12.581000328063965,-3.4820001125335693 -12.506999969482422,-3.7300000190734863z"></path><g opacity="1" transform="matrix(1,0,0,1,0,0)"></g></g></g></g></svg>