<svg xmlns="http://www.w3.org/2000/svg" xmlns:xlink="http://www.w3.org/1999/xlink" viewBox="0 0 1080 1080" width="1080" height="1080" preserveAspectRatio="xMidYMid meet" style="width: 100%; height: 100%; transform: translate3d(0px, 0px, 0px); content-visibility: visible;"><defs><clipPath id="__lottie_element_38"><rect width="1080" height="1080" x="0" y="0"></rect></clipPath></defs><g clip-path="url(#__lottie_element_38)"><g transform="matrix(29.610000610351562,0,0,29.610000610351562,540.0009765625,540)" opacity="1" style="display: block;"><g opacity="1" transform="matrix(1,0,0,1,0,0)"><path fill="rgb(92,255,79)" fill-opacity="1" d=" M0,-7.734000205993652 C-1.5299999713897705,-7.734000205993652 -3.0250000953674316,-7.281000137329102 -4.296999931335449,-6.431000232696533 C-5.568999767303467,-5.580999851226807 -6.560999870300293,-4.373000144958496 -7.145999908447266,-2.9600000381469727 C-7.730999946594238,-1.5470000505447388 -7.883999824523926,0.008999999612569809 -7.585999965667725,1.5089999437332153 C-7.288000106811523,3.009000062942505 -6.551000118255615,4.38700008392334 -5.468999862670898,5.468999862670898 C-4.38700008392334,6.551000118255615 -3.009000062942505,7.2870001792907715 -1.5089999437332153,7.585999965667725 C-0.008999999612569809,7.883999824523926 1.5470000505447388,7.730999946594238 2.9600000381469727,7.145999908447266 C4.373000144958496,6.560999870300293 5.580999851226807,5.568999767303467 6.431000232696533,4.296999931335449 C7.281000137329102,3.0250000953674316 7.734000205993652,1.5299999713897705 7.734000205993652,0 C7.73199987411499,-2.0510001182556152 6.915999889373779,-4.015999794006348 5.466000080108643,-5.466000080108643 C4.015999794006348,-6.915999889373779 2.0510001182556152,-7.73199987411499 0,-7.734000205993652z M0,6.796999931335449 C-1.343999981880188,6.796999931335449 -2.6579999923706055,6.3979997634887695 -3.7760000228881836,5.651000022888184 C-4.894000053405762,4.9039998054504395 -5.764999866485596,3.8429999351501465 -6.2789998054504395,2.6010000705718994 C-6.793000221252441,1.3589999675750732 -6.927999973297119,-0.00800000037997961 -6.665999889373779,-1.3259999752044678 C-6.4039998054504395,-2.6440000534057617 -5.756999969482422,-3.8550000190734863 -4.806000232696533,-4.806000232696533 C-3.8550000190734863,-5.756999969482422 -2.6440000534057617,-6.4039998054504395 -1.3259999752044678,-6.665999889373779 C-0.00800000037997961,-6.927999973297119 1.3589999675750732,-6.793000221252441 2.6010000705718994,-6.2789998054504395 C3.8429999351501465,-5.764999866485596 4.9039998054504395,-4.894000053405762 5.651000022888184,-3.7760000228881836 C6.3979997634887695,-2.6579999923706055 6.796999931335449,-1.343999981880188 6.796999931335449,0 C6.795000076293945,1.8020000457763672 6.078000068664551,3.5299999713897705 4.803999900817871,4.803999900817871 C3.5299999713897705,6.078000068664551 1.8020000457763672,6.795000076293945 0,6.796999931335449z"></path></g></g><g transform="matrix(29.610000610351562,0,0,29.610000610351562,540.0009765625,539.9990234375)" opacity="1" style="display: block;"><g opacity="1" transform="matrix(1,0,0,1,0,0)"><path fill="rgb(92,255,79)" fill-opacity="1" d=" M0,-4.218999862670898 C-0.8339999914169312,-4.218999862670898 -1.649999976158142,-3.9719998836517334 -2.3440001010894775,-3.507999897003174 C-3.0380001068115234,-3.0439999103546143 -3.5789999961853027,-2.384999990463257 -3.8980000019073486,-1.6139999628067017 C-4.2170000076293945,-0.8429999947547913 -4.301000118255615,0.004999999888241291 -4.138000011444092,0.8230000138282776 C-3.9749999046325684,1.6410000324249268 -3.572999954223633,2.3929998874664307 -2.9830000400543213,2.9830000400543213 C-2.3929998874664307,3.572999954223633 -1.6410000324249268,3.9749999046325684 -0.8230000138282776,4.138000011444092 C-0.004999999888241291,4.301000118255615 0.8429999947547913,4.2170000076293945 1.6139999628067017,3.8980000019073486 C2.384999990463257,3.5789999961853027 3.0439999103546143,3.0380001068115234 3.507999897003174,2.3440001010894775 C3.9719998836517334,1.649999976158142 4.218999862670898,0.8339999914169312 4.218999862670898,0 C4.2179999351501465,-1.1180000305175781 3.7730000019073486,-2.190999984741211 2.9820001125335693,-2.9820001125335693 C2.190999984741211,-3.7730000019073486 1.1180000305175781,-4.2179999351501465 0,-4.218999862670898z M0,3.2809998989105225 C-0.6489999890327454,3.2809998989105225 -1.2829999923706055,3.0889999866485596 -1.8229999542236328,2.7279999256134033 C-2.36299991607666,2.367000102996826 -2.7829999923706055,1.8559999465942383 -3.0309998989105225,1.25600004196167 C-3.2790000438690186,0.656000018119812 -3.3450000286102295,-0.003000000026077032 -3.2179999351501465,-0.6399999856948853 C-3.0910000801086426,-1.2769999504089355 -2.7790000438690186,-1.8609999418258667 -2.319999933242798,-2.319999933242798 C-1.8609999418258667,-2.7790000438690186 -1.2769999504089355,-3.0910000801086426 -0.6399999856948853,-3.2179999351501465 C-0.003000000026077032,-3.3450000286102295 0.656000018119812,-3.2790000438690186 1.25600004196167,-3.0309998989105225 C1.8559999465942383,-2.7829999923706055 2.367000102996826,-2.36299991607666 2.7279999256134033,-1.8229999542236328 C3.0889999866485596,-1.2829999923706055 3.2809998989105225,-0.6489999890327454 3.2809998989105225,0 C3.2799999713897705,0.8700000047683716 2.934000015258789,1.7039999961853027 2.319000005722046,2.319000005722046 C1.7039999961853027,2.934000015258789 0.8700000047683716,3.2799999713897705 0,3.2809998989105225z"></path></g></g><g transform="matrix(1,0,0,1,0,0)" opacity="1" style="display: block;"><g opacity="1" transform="matrix(29.610000610351562,0,0,29.610000610351562,539.9902954101562,540.01123046875)"><g opacity="1" transform="matrix(1,0,0,1,0,0)"><path fill="rgb(92,255,79)" fill-opacity="1" d=" M-10.930999755859375,-2.1700000762939453 C-10.826000213623047,-2.1700000762939453 -10.723999977111816,-2.2060000896453857 -10.640999794006348,-2.2709999084472656 C-10.557999610900879,-2.3359999656677246 -10.5,-2.427000045776367 -10.475000381469727,-2.5290000438690186 C-10.003999710083008,-4.453000068664551 -9.015000343322754,-6.211999893188477 -7.613999843597412,-7.61299991607666 C-6.2129998207092285,-9.013999938964844 -4.453999996185303,-10.003999710083008 -2.5299999713897705,-10.475000381469727 C-2.4110000133514404,-10.505999565124512 -2.309000015258789,-10.581999778747559 -2.246000051498413,-10.687000274658203 C-2.183000087738037,-10.791999816894531 -2.1630001068115234,-10.918999671936035 -2.191999912261963,-11.038000106811523 C-2.2209999561309814,-11.156999588012695 -2.2939999103546143,-11.26099967956543 -2.3980000019073486,-11.326000213623047 C-2.502000093460083,-11.390999794006348 -2.628000020980835,-11.413000106811523 -2.747999906539917,-11.38700008392334 C-4.840000152587891,-10.875 -6.751999855041504,-9.79800033569336 -8.274999618530273,-8.274999618530273 C-9.79800033569336,-6.751999855041504 -10.875,-4.840000152587891 -11.38700008392334,-2.747999906539917 C-11.402999877929688,-2.678999900817871 -11.402999877929688,-2.6070001125335693 -11.387999534606934,-2.5380001068115234 C-11.373000144958496,-2.4690001010894775 -11.342000007629395,-2.4040000438690186 -11.29800033569336,-2.3489999771118164 C-11.253999710083008,-2.2929999828338623 -11.199000358581543,-2.247999906539917 -11.135000228881836,-2.2170000076293945 C-11.071000099182129,-2.186000108718872 -11.001999855041504,-2.1700000762939453 -10.930999755859375,-2.1700000762939453z"></path></g></g><g opacity="1" transform="matrix(29.610000610351562,0,0,29.610000610351562,539.9996948242188,540.0111083984375)"><g opacity="1" transform="matrix(1,0,0,1,0,0)"><path fill="rgb(92,255,79)" fill-opacity="1" d=" M11.039999961853027,2.183000087738037 C10.918999671936035,2.1549999713897705 10.793000221252441,2.174999952316284 10.687000274658203,2.240000009536743 C10.581000328063965,2.305000066757202 10.503999710083008,2.4089999198913574 10.475000381469727,2.5299999713897705 C10.003999710083008,4.453999996185303 9.015000343322754,6.211999893188477 7.613999843597412,7.61299991607666 C6.2129998207092285,9.013999938964844 4.453999996185303,10.003999710083008 2.5299999713897705,10.475000381469727 C2.4200000762939453,10.503000259399414 2.3239998817443848,10.571000099182129 2.259999990463257,10.664999961853027 C2.196000099182129,10.758999824523926 2.1679999828338623,10.871999740600586 2.180999994277954,10.984999656677246 C2.194000005722046,11.097999572753906 2.247999906539917,11.20199966430664 2.3320000171661377,11.277999877929688 C2.4159998893737793,11.354000091552734 2.5260000228881836,11.39799976348877 2.6389999389648438,11.399999618530273 C4.75600004196167,10.90999984741211 6.693999767303467,9.842000007629395 8.23900032043457,8.314000129699707 C9.784000396728516,6.785999774932861 10.87399959564209,4.859000205993652 11.38700008392334,2.747999906539917 C11.401000022888184,2.687999963760376 11.404000282287598,2.625999927520752 11.394000053405762,2.565000057220459 C11.383999824523926,2.503999948501587 11.36299991607666,2.446000099182129 11.331000328063965,2.3940000534057617 C11.298999786376953,2.3410000801086426 11.256999969482422,2.2950000762939453 11.206999778747559,2.259000062942505 C11.156999588012695,2.2230000495910645 11.100000381469727,2.197000026702881 11.039999961853027,2.183000087738037z"></path></g></g><g opacity="1" transform="matrix(29.610000610351562,0,0,29.610000610351562,539.999267578125,539.9961547851562)"><g opacity="1" transform="matrix(1,0,0,1,0,0)"><path fill="rgb(92,255,79)" fill-opacity="1" d=" M-2.5299999713897705,10.475000381469727 C-4.453999996185303,10.003999710083008 -6.2129998207092285,9.013999938964844 -7.613999843597412,7.61299991607666 C-9.015000343322754,6.211999893188477 -10.003999710083008,4.453999996185303 -10.475000381469727,2.5299999713897705 C-10.48900032043457,2.4700000286102295 -10.515999794006348,2.4140000343322754 -10.552000045776367,2.364000082015991 C-10.588000297546387,2.313999891281128 -10.633999824523926,2.2709999084472656 -10.685999870300293,2.239000082015991 C-10.73799991607666,2.2070000171661377 -10.79699993133545,2.186000108718872 -10.857999801635742,2.1760001182556152 C-10.918999671936035,2.1659998893737793 -10.979999542236328,2.1689999103546143 -11.039999961853027,2.183000087738037 C-11.100000381469727,2.197000026702881 -11.156999588012695,2.2230000495910645 -11.206999778747559,2.259000062942505 C-11.256999969482422,2.2950000762939453 -11.298999786376953,2.3410000801086426 -11.331000328063965,2.3929998874664307 C-11.36299991607666,2.446000099182129 -11.383999824523926,2.503999948501587 -11.394000053405762,2.565000057220459 C-11.404000282287598,2.625999927520752 -11.401000022888184,2.687999963760376 -11.38700008392334,2.747999906539917 C-10.87399959564209,4.859000205993652 -9.784000396728516,6.785999774932861 -8.23900032043457,8.314000129699707 C-6.693999767303467,9.842000007629395 -4.75600004196167,10.90999984741211 -2.6389999389648438,11.399999618530273 C-2.5260000228881836,11.39799976348877 -2.4159998893737793,11.354000091552734 -2.3320000171661377,11.277999877929688 C-2.247999906539917,11.20199966430664 -2.194000005722046,11.097999572753906 -2.180999994277954,10.984999656677246 C-2.1679999828338623,10.871999740600586 -2.196000099182129,10.758999824523926 -2.259999990463257,10.664999961853027 C-2.3239998817443848,10.571000099182129 -2.4200000762939453,10.503999710083008 -2.5299999713897705,10.475000381469727z"></path></g></g><g opacity="1" transform="matrix(29.610000610351562,0,0,29.610000610351562,539.99072265625,539.98828125)"><g opacity="1" transform="matrix(1,0,0,1,0,0)"><path fill="rgb(92,255,79)" fill-opacity="1" d=" M2.5299999713897705,-10.475000381469727 C4.453999996185303,-10.003999710083008 6.211999893188477,-9.015000343322754 7.61299991607666,-7.613999843597412 C9.013999938964844,-6.2129998207092285 10.003999710083008,-4.453999996185303 10.475000381469727,-2.5299999713897705 C10.503999710083008,-2.4089999198913574 10.579999923706055,-2.305000066757202 10.685999870300293,-2.240000009536743 C10.791999816894531,-2.174999952316284 10.918999671936035,-2.1540000438690186 11.039999961853027,-2.183000087738037 C11.16100025177002,-2.2119998931884766 11.265999794006348,-2.2880001068115234 11.331000328063965,-2.3940000534057617 C11.395999908447266,-2.5 11.416000366210938,-2.627000093460083 11.38700008392334,-2.747999906539917 C10.875,-4.840000152587891 9.79800033569336,-6.752999782562256 8.274999618530273,-8.276000022888184 C6.751999855041504,-9.798999786376953 4.840000152587891,-10.875 2.747999906539917,-11.38700008392334 C2.628000020980835,-11.413999557495117 2.502000093460083,-11.392000198364258 2.3980000019073486,-11.32699966430664 C2.2939999103546143,-11.26200008392334 2.2190001010894775,-11.159000396728516 2.190000057220459,-11.038999557495117 C2.1610000133514404,-10.918999671936035 2.180999994277954,-10.791999816894531 2.244999885559082,-10.687000274658203 C2.309000015258789,-10.581999778747559 2.4110000133514404,-10.505000114440918 2.5299999713897705,-10.475000381469727z"></path></g></g></g><g transform="matrix(1,0,0,1,0,0)" opacity="1" style="display: block;"><g opacity="1" transform="matrix(29.610000610351562,0,0,29.610000610351562,540.0020141601562,539.99951171875)"><g opacity="1" transform="matrix(1,0,0,1,0,0)"><path fill="rgb(92,255,79)" fill-opacity="1" d=" M-0.4189999997615814,-9.633999824523926 C-0.3799999952316284,-9.555999755859375 -0.3199999928474426,-9.491000175476074 -0.2460000067949295,-9.444999694824219 C-0.1720000058412552,-9.39900016784668 -0.08699999749660492,-9.375 0,-9.375 C0.08699999749660492,-9.375 0.17299999296665192,-9.39900016784668 0.24699999392032623,-9.444999694824219 C0.32100000977516174,-9.491000175476074 0.3799999952316284,-9.555999755859375 0.4189999997615814,-9.633999824523926 C0.4189999997615814,-9.633999824523926 1.8259999752044678,-12.446999549865723 1.8259999752044678,-12.446999549865723 C1.8619999885559082,-12.517999649047852 1.878999948501587,-12.597000122070312 1.875,-12.677000045776367 C1.871000051498413,-12.756999969482422 1.847000002861023,-12.835000038146973 1.8049999475479126,-12.902999877929688 C1.7630000114440918,-12.970999717712402 1.7050000429153442,-13.027000427246094 1.6349999904632568,-13.065999984741211 C1.565000057220459,-13.104999542236328 1.4859999418258667,-13.125 1.406000018119812,-13.125 C1.406000018119812,-13.125 -1.406000018119812,-13.125 -1.406000018119812,-13.125 C-1.4859999418258667,-13.125 -1.565000057220459,-13.104999542236328 -1.6349999904632568,-13.065999984741211 C-1.7050000429153442,-13.027000427246094 -1.7630000114440918,-12.970999717712402 -1.8049999475479126,-12.902999877929688 C-1.847000002861023,-12.835000038146973 -1.8700000047683716,-12.756999969482422 -1.8739999532699585,-12.677000045776367 C-1.878000020980835,-12.597000122070312 -1.8619999885559082,-12.517999649047852 -1.8259999752044678,-12.446999549865723 C-1.8259999752044678,-12.446999549865723 -0.4189999997615814,-9.633999824523926 -0.4189999997615814,-9.633999824523926z M0.6480000019073486,-12.187999725341797 C0.6480000019073486,-12.187999725341797 0,-10.892000198364258 0,-10.892000198364258 C0,-10.892000198364258 -0.6480000019073486,-12.187999725341797 -0.6480000019073486,-12.187999725341797 C-0.6480000019073486,-12.187999725341797 0.6480000019073486,-12.187999725341797 0.6480000019073486,-12.187999725341797z"></path></g></g><g opacity="1" transform="matrix(29.610000610351562,0,0,29.610000610351562,540.000732421875,540)"><g opacity="1" transform="matrix(1,0,0,1,0,0)"><path fill="rgb(92,255,79)" fill-opacity="1" d=" M-9.633999824523926,-0.4189999997615814 C-9.633999824523926,-0.4189999997615814 -12.446999549865723,-1.8259999752044678 -12.446999549865723,-1.8259999752044678 C-12.517999649047852,-1.8619999885559082 -12.597000122070312,-1.878000020980835 -12.677000045776367,-1.8739999532699585 C-12.756999969482422,-1.8700000047683716 -12.835000038146973,-1.847000002861023 -12.902999877929688,-1.8049999475479126 C-12.970999717712402,-1.7630000114440918 -13.027000427246094,-1.7050000429153442 -13.065999984741211,-1.6349999904632568 C-13.104999542236328,-1.565000057220459 -13.125,-1.4859999418258667 -13.125,-1.406000018119812 C-13.125,-1.406000018119812 -13.125,1.406000018119812 -13.125,1.406000018119812 C-13.125,1.4859999418258667 -13.104999542236328,1.565000057220459 -13.065999984741211,1.6349999904632568 C-13.027000427246094,1.7050000429153442 -12.970999717712402,1.7630000114440918 -12.902999877929688,1.8049999475479126 C-12.835000038146973,1.847000002861023 -12.756999969482422,1.8700000047683716 -12.677000045776367,1.8739999532699585 C-12.597000122070312,1.878000020980835 -12.517999649047852,1.8619999885559082 -12.446999549865723,1.8259999752044678 C-12.446999549865723,1.8259999752044678 -9.633999824523926,0.4189999997615814 -9.633999824523926,0.4189999997615814 C-9.557000160217285,0.3790000081062317 -9.493000030517578,0.3190000057220459 -9.447999954223633,0.24500000476837158 C-9.402999877929688,0.17100000381469727 -9.378999710083008,0.08699999749660492 -9.378999710083008,0 C-9.378999710083008,-0.08699999749660492 -9.402999877929688,-0.17100000381469727 -9.447999954223633,-0.24500000476837158 C-9.493000030517578,-0.3190000057220459 -9.557000160217285,-0.3790000081062317 -9.633999824523926,-0.4189999997615814z M-12.187999725341797,0.6480000019073486 C-12.187999725341797,0.6480000019073486 -12.187999725341797,-0.6480000019073486 -12.187999725341797,-0.6480000019073486 C-12.187999725341797,-0.6480000019073486 -10.892000198364258,0 -10.892000198364258,0 C-10.892000198364258,0 -12.187999725341797,0.6480000019073486 -12.187999725341797,0.6480000019073486z"></path></g></g><g opacity="1" transform="matrix(29.610000610351562,0,0,29.610000610351562,539.9979858398438,540.00341796875)"><g opacity="1" transform="matrix(1,0,0,1,0,0)"><path fill="rgb(92,255,79)" fill-opacity="1" d=" M0.4189999997615814,9.633999824523926 C0.37599998712539673,9.560999870300293 0.3149999976158142,9.50100040435791 0.2409999966621399,9.458999633789062 C0.16699999570846558,9.416999816894531 0.08500000089406967,9.395999908447266 0,9.395999908447266 C-0.08500000089406967,9.395999908447266 -0.16699999570846558,9.416999816894531 -0.2409999966621399,9.458999633789062 C-0.3149999976158142,9.50100040435791 -0.37599998712539673,9.560999870300293 -0.4189999997615814,9.633999824523926 C-0.4189999997615814,9.633999824523926 -1.8259999752044678,12.446000099182129 -1.8259999752044678,12.446000099182129 C-1.8609999418258667,12.517999649047852 -1.8760000467300415,12.597000122070312 -1.871999979019165,12.675999641418457 C-1.8680000305175781,12.755000114440918 -1.8450000286102295,12.833000183105469 -1.8029999732971191,12.901000022888184 C-1.7610000371932983,12.968999862670898 -1.7020000219345093,13.024999618530273 -1.6330000162124634,13.064000129699707 C-1.5640000104904175,13.102999687194824 -1.4859999418258667,13.12399959564209 -1.406000018119812,13.125 C-1.406000018119812,13.125 1.406000018119812,13.125 1.406000018119812,13.125 C1.4859999418258667,13.12399959564209 1.5640000104904175,13.102999687194824 1.6330000162124634,13.064000129699707 C1.7020000219345093,13.024999618530273 1.7599999904632568,12.968999862670898 1.8020000457763672,12.901000022888184 C1.843999981880188,12.833000183105469 1.8680000305175781,12.755000114440918 1.871999979019165,12.675999641418457 C1.8760000467300415,12.597000122070312 1.8609999418258667,12.517999649047852 1.8259999752044678,12.446000099182129 C1.8259999752044678,12.446000099182129 0.4189999997615814,9.633999824523926 0.4189999997615814,9.633999824523926z M-0.6480000019073486,12.187000274658203 C-0.6480000019073486,12.187000274658203 0,10.892000198364258 0,10.892000198364258 C0,10.892000198364258 0.6480000019073486,12.187000274658203 0.6480000019073486,12.187000274658203 C0.6480000019073486,12.187000274658203 -0.6480000019073486,12.187000274658203 -0.6480000019073486,12.187000274658203z"></path></g></g><g opacity="1" transform="matrix(29.610000610351562,0,0,29.610000610351562,539.998291015625,540)"><g opacity="1" transform="matrix(1,0,0,1,0,0)"><path fill="rgb(92,255,79)" fill-opacity="1" d=" M12.902000427246094,-1.8049999475479126 C12.833999633789062,-1.847000002861023 12.756999969482422,-1.8700000047683716 12.677000045776367,-1.8739999532699585 C12.597000122070312,-1.878000020980835 12.517999649047852,-1.8619999885559082 12.446999549865723,-1.8259999752044678 C12.446999549865723,-1.8259999752044678 9.633999824523926,-0.4189999997615814 9.633999824523926,-0.4189999997615814 C9.557000160217285,-0.3790000081062317 9.493000030517578,-0.3190000057220459 9.447999954223633,-0.24500000476837158 C9.402999877929688,-0.17100000381469727 9.378999710083008,-0.08699999749660492 9.378999710083008,0 C9.378999710083008,0.08699999749660492 9.402999877929688,0.17100000381469727 9.447999954223633,0.24500000476837158 C9.493000030517578,0.3190000057220459 9.557000160217285,0.3790000081062317 9.633999824523926,0.4189999997615814 C9.633999824523926,0.4189999997615814 12.446999549865723,1.8259999752044678 12.446999549865723,1.8259999752044678 C12.519000053405762,1.8619999885559082 12.597000122070312,1.878000020980835 12.677000045776367,1.8739999532699585 C12.756999969482422,1.8700000047683716 12.835000038146973,1.847000002861023 12.902999877929688,1.8049999475479126 C12.970999717712402,1.7630000114440918 13.027000427246094,1.7050000429153442 13.065999984741211,1.6349999904632568 C13.104999542236328,1.565000057220459 13.125,1.4859999418258667 13.125,1.406000018119812 C13.125,1.406000018119812 13.125,-1.406000018119812 13.125,-1.406000018119812 C13.125,-1.4859999418258667 13.104999542236328,-1.565000057220459 13.065999984741211,-1.6349999904632568 C13.027000427246094,-1.7050000429153442 12.970000267028809,-1.7630000114440918 12.902000427246094,-1.8049999475479126z M12.187999725341797,0.6480000019073486 C12.187999725341797,0.6480000019073486 10.892000198364258,0 10.892000198364258,0 C10.892000198364258,0 12.187999725341797,-0.6480000019073486 12.187999725341797,-0.6480000019073486 C12.187999725341797,-0.6480000019073486 12.187999725341797,0.6480000019073486 12.187999725341797,0.6480000019073486z"></path></g></g></g></g></svg>