<svg xmlns="http://www.w3.org/2000/svg" xmlns:xlink="http://www.w3.org/1999/xlink" viewBox="0 0 1080 1080" width="1080" height="1080" preserveAspectRatio="xMidYMid meet" style="width: 100%; height: 100%; transform: translate3d(0px, 0px, 0px); content-visibility: visible;"><defs><clipPath id="__lottie_element_381"><rect width="1080" height="1080" x="0" y="0"></rect></clipPath></defs><g clip-path="url(#__lottie_element_381)"><g transform="matrix(28.540000915527344,0,0,28.540000915527344,540.0076904296875,539.9920043945312)" opacity="1" style="display: block;"><g opacity="1" transform="matrix(1,0,0,1,0,0)"><path fill="rgb(92,255,79)" fill-opacity="1" d=" M12.059000015258789,3.0230000019073486 C12.059000015258789,3.0230000019073486 12.059000015258789,-10.5 12.059000015258789,-10.5 C12.059000015258789,-11.604999542236328 11.163999557495117,-12.5 10.059000015258789,-12.5 C10.059000015258789,-12.5 8.059000015258789,-12.5 8.059000015258789,-12.5 C8.059000015258789,-12.5 8.059000015258789,-13.5 8.059000015258789,-13.5 C8.059000015258789,-14.329000473022461 7.388000011444092,-15 6.559000015258789,-15 C6.559000015258789,-15 6.059000015258789,-15 6.059000015258789,-15 C5.230000019073486,-15 4.559000015258789,-14.329000473022461 4.559000015258789,-13.5 C4.559000015258789,-13.5 4.559000015258789,-12.5 4.559000015258789,-12.5 C4.559000015258789,-12.5 0.057999998331069946,-12.5 0.057999998331069946,-12.5 C0.057999998331069946,-12.5 0.057999998331069946,-13.5 0.057999998331069946,-13.5 C0.057999998331069946,-14.329000473022461 -0.6129999756813049,-15 -1.440999984741211,-15 C-1.440999984741211,-15 -1.940999984741211,-15 -1.940999984741211,-15 C-2.7690000534057617,-15 -3.441999912261963,-14.329000473022461 -3.441999912261963,-13.5 C-3.441999912261963,-13.5 -3.441999912261963,-12.5 -3.441999912261963,-12.5 C-3.441999912261963,-12.5 -7.441999912261963,-12.5 -7.441999912261963,-12.5 C-7.441999912261963,-12.5 -7.441999912261963,-13.5 -7.441999912261963,-13.5 C-7.441999912261963,-14.329000473022461 -8.11400032043457,-15 -8.942000389099121,-15 C-8.942000389099121,-15 -9.442000389099121,-15 -9.442000389099121,-15 C-10.270000457763672,-15 -10.942000389099121,-14.329000473022461 -10.942000389099121,-13.5 C-10.942000389099121,-13.5 -10.942000389099121,-12.5 -10.942000389099121,-12.5 C-10.942000389099121,-12.5 -12.942000389099121,-12.5 -12.942000389099121,-12.5 C-14.04699993133545,-12.5 -14.942000389099121,-11.604999542236328 -14.942000389099121,-10.5 C-14.942000389099121,-10.5 -14.942000389099121,8.5 -14.942000389099121,8.5 C-14.942000389099121,9.604999542236328 -14.04699993133545,10.5 -12.942000389099121,10.5 C-12.942000389099121,10.5 2.372999906539917,10.5 2.372999906539917,10.5 C3.255000114440918,13.22599983215332 5.816999912261963,15.053000450134277 8.680999755859375,14.99899959564209 C11.545000076293945,14.944999694824219 14.03600025177002,13.020999908447266 14.814000129699707,10.263999938964844 C15.592000007629395,7.506999969482422 14.472999572753906,4.565999984741211 12.059000015258789,3.0230000019073486z M5.559000015258789,-13.5 C5.559000015258789,-13.776000022888184 5.7829999923706055,-14 6.059000015258789,-14 C6.059000015258789,-14 6.559000015258789,-14 6.559000015258789,-14 C6.835000038146973,-14 7.059000015258789,-13.776000022888184 7.059000015258789,-13.5 C7.059000015258789,-13.5 7.059000015258789,-10.5 7.059000015258789,-10.5 C7.059000015258789,-10.223999977111816 6.835000038146973,-10 6.559000015258789,-10 C6.559000015258789,-10 6.059000015258789,-10 6.059000015258789,-10 C5.7829999923706055,-10 5.559000015258789,-10.223999977111816 5.559000015258789,-10.5 C5.559000015258789,-10.5 5.559000015258789,-13.5 5.559000015258789,-13.5z M-2.441999912261963,-13.5 C-2.441999912261963,-13.776000022888184 -2.2170000076293945,-14 -1.940999984741211,-14 C-1.940999984741211,-14 -1.440999984741211,-14 -1.440999984741211,-14 C-1.1649999618530273,-14 -0.9409999847412109,-13.776000022888184 -0.9409999847412109,-13.5 C-0.9409999847412109,-13.5 -0.9409999847412109,-10.5 -0.9409999847412109,-10.5 C-0.9409999847412109,-10.223999977111816 -1.1649999618530273,-10 -1.440999984741211,-10 C-1.440999984741211,-10 -1.940999984741211,-10 -1.940999984741211,-10 C-2.2170000076293945,-10 -2.441999912261963,-10.223999977111816 -2.441999912261963,-10.5 C-2.441999912261963,-10.5 -2.441999912261963,-13.5 -2.441999912261963,-13.5z M-9.942000389099121,-13.5 C-9.942000389099121,-13.776000022888184 -9.718000411987305,-14 -9.442000389099121,-14 C-9.442000389099121,-14 -8.942000389099121,-14 -8.942000389099121,-14 C-8.666000366210938,-14 -8.442000389099121,-13.776000022888184 -8.442000389099121,-13.5 C-8.442000389099121,-13.5 -8.442000389099121,-10.5 -8.442000389099121,-10.5 C-8.442000389099121,-10.223999977111816 -8.666000366210938,-10 -8.942000389099121,-10 C-8.942000389099121,-10 -9.442000389099121,-10 -9.442000389099121,-10 C-9.718000411987305,-10 -9.942000389099121,-10.223999977111816 -9.942000389099121,-10.5 C-9.942000389099121,-10.5 -9.942000389099121,-13.5 -9.942000389099121,-13.5z M-13.942000389099121,-10.5 C-13.942000389099121,-11.052000045776367 -13.494000434875488,-11.5 -12.942000389099121,-11.5 C-12.942000389099121,-11.5 -10.942000389099121,-11.5 -10.942000389099121,-11.5 C-10.942000389099121,-11.5 -10.942000389099121,-10.5 -10.942000389099121,-10.5 C-10.942000389099121,-9.67199993133545 -10.270000457763672,-9 -9.442000389099121,-9 C-9.442000389099121,-9 -8.942000389099121,-9 -8.942000389099121,-9 C-8.11400032043457,-9 -7.441999912261963,-9.67199993133545 -7.441999912261963,-10.5 C-7.441999912261963,-10.5 -7.441999912261963,-11.5 -7.441999912261963,-11.5 C-7.441999912261963,-11.5 -3.441999912261963,-11.5 -3.441999912261963,-11.5 C-3.441999912261963,-11.5 -3.441999912261963,-10.5 -3.441999912261963,-10.5 C-3.441999912261963,-9.67199993133545 -2.7690000534057617,-9 -1.940999984741211,-9 C-1.940999984741211,-9 -1.440999984741211,-9 -1.440999984741211,-9 C-0.6129999756813049,-9 0.057999998331069946,-9.67199993133545 0.057999998331069946,-10.5 C0.057999998331069946,-10.5 0.057999998331069946,-11.5 0.057999998331069946,-11.5 C0.057999998331069946,-11.5 4.559000015258789,-11.5 4.559000015258789,-11.5 C4.559000015258789,-11.5 4.559000015258789,-10.5 4.559000015258789,-10.5 C4.559000015258789,-9.67199993133545 5.230000019073486,-9 6.059000015258789,-9 C6.059000015258789,-9 6.559000015258789,-9 6.559000015258789,-9 C7.388000011444092,-9 8.059000015258789,-9.67199993133545 8.059000015258789,-10.5 C8.059000015258789,-10.5 8.059000015258789,-11.5 8.059000015258789,-11.5 C8.059000015258789,-11.5 10.059000015258789,-11.5 10.059000015258789,-11.5 C10.611000061035156,-11.5 11.059000015258789,-11.052000045776367 11.059000015258789,-10.5 C11.059000015258789,-10.5 11.059000015258789,-7 11.059000015258789,-7 C11.059000015258789,-7 -13.942000389099121,-7 -13.942000389099121,-7 C-13.942000389099121,-7 -13.942000389099121,-10.5 -13.942000389099121,-10.5z M-12.942000389099121,9.5 C-13.494000434875488,9.5 -13.942000389099121,9.052000045776367 -13.942000389099121,8.5 C-13.942000389099121,8.5 -13.942000389099121,-6 -13.942000389099121,-6 C-13.942000389099121,-6 11.059000015258789,-6 11.059000015258789,-6 C11.059000015258789,-6 11.059000015258789,2.496000051498413 11.059000015258789,2.496000051498413 C11.043000221252441,2.490000009536743 11.024999618530273,2.4860000610351562 11.008000373840332,2.4790000915527344 C10.904000282287598,2.437000036239624 10.798999786376953,2.3980000019073486 10.692999839782715,2.361999988555908 C10.642999649047852,2.3440001010894775 10.592000007629395,2.3239998817443848 10.538999557495117,2.308000087738037 C10.380000114440918,2.257999897003174 10.218999862670898,2.2109999656677246 10.057000160217285,2.1730000972747803 C8.123000144958496,1.718000054359436 6.0879998207092285,2.1710000038146973 4.5289998054504395,3.4040000438690186 C2.9709999561309814,4.636000156402588 2.059999942779541,6.513000011444092 2.058000087738037,8.5 C2.059999942779541,8.746999740600586 2.0759999752044678,8.994000434875488 2.1059999465942383,9.23900032043457 C2.1110000610351562,9.288999557495117 2.115999937057495,9.33899974822998 2.122999906539917,9.388999938964844 C2.128000020980835,9.425999641418457 2.13100004196167,9.46399974822998 2.135999917984009,9.5 C2.135999917984009,9.5 -12.942000389099121,9.5 -12.942000389099121,9.5z M8.559000015258789,14 C6.173999786376953,14.008000373840332 4.056000232696533,12.470999717712402 3.3259999752044678,10.199999809265137 C3.2950000762939453,10.097999572753906 3.2639999389648438,9.996000289916992 3.2360000610351562,9.871000289916992 C3.117000102996826,9.423999786376953 3.056999921798706,8.963000297546387 3.058000087738037,8.5 C3.059999942779541,6.817999839782715 3.8310000896453857,5.230000019073486 5.150000095367432,4.186999797821045 C6.468999862670898,3.1440000534057617 8.192000389099121,2.760999917984009 9.829000473022461,3.1470000743865967 C9.979000091552734,3.181999921798706 10.12600040435791,3.2249999046325684 10.272000312805176,3.2730000019073486 C10.633000373840332,3.390000104904175 10.980999946594238,3.5450000762939453 11.3100004196167,3.7339999675750732 C13.470000267028809,4.9770002365112305 14.52299976348877,7.517000198364258 13.878000259399414,9.923999786376953 C13.232999801635742,12.331000328063965 11.050999641418457,14.003000259399414 8.559000015258789,14z"></path></g></g><g transform="matrix(28.540000915527344,0,0,28.540000915527344,540.01123046875,539.9979858398438)" opacity="1" style="display: block;"><g opacity="1" transform="matrix(1,0,0,1,0,0)"><path fill="rgb(92,255,79)" fill-opacity="1" d=" M-6.942999839782715,-4.5 C-6.942999839782715,-4.5 -9.942999839782715,-4.5 -9.942999839782715,-4.5 C-10.494999885559082,-4.5 -10.942999839782715,-4.052000045776367 -10.942999839782715,-3.5 C-10.942999839782715,-3.5 -10.942999839782715,-0.5 -10.942999839782715,-0.5 C-10.942999839782715,0.052000001072883606 -10.494999885559082,0.5 -9.942999839782715,0.5 C-9.942999839782715,0.5 -6.942999839782715,0.5 -6.942999839782715,0.5 C-6.390999794006348,0.5 -5.942999839782715,0.052000001072883606 -5.942999839782715,-0.5 C-5.942999839782715,-0.5 -5.942999839782715,-3.5 -5.942999839782715,-3.5 C-5.942999839782715,-4.052000045776367 -6.390999794006348,-4.5 -6.942999839782715,-4.5z M-9.942999839782715,-0.5 C-9.942999839782715,-0.5 -9.942999839782715,-3.5 -9.942999839782715,-3.5 C-9.942999839782715,-3.5 -6.942999839782715,-3.5 -6.942999839782715,-3.5 C-6.942999839782715,-3.5 -6.942999839782715,-0.5 -6.942999839782715,-0.5 C-6.942999839782715,-0.5 -9.942999839782715,-0.5 -9.942999839782715,-0.5z"></path></g></g><g transform="matrix(28.540000915527344,0,0,28.540000915527344,540.0066528320312,539.9979858398438)" opacity="1" style="display: block;"><g opacity="1" transform="matrix(1,0,0,1,0,0)"><path fill="rgb(92,255,79)" fill-opacity="1" d=" M0.057999998331069946,-4.5 C0.057999998331069946,-4.5 -2.941999912261963,-4.5 -2.941999912261963,-4.5 C-3.49399995803833,-4.5 -3.941999912261963,-4.052000045776367 -3.941999912261963,-3.5 C-3.941999912261963,-3.5 -3.941999912261963,-0.5 -3.941999912261963,-0.5 C-3.941999912261963,0.052000001072883606 -3.49399995803833,0.5 -2.941999912261963,0.5 C-2.941999912261963,0.5 0.057999998331069946,0.5 0.057999998331069946,0.5 C0.6100000143051147,0.5 1.0579999685287476,0.052000001072883606 1.0579999685287476,-0.5 C1.0579999685287476,-0.5 1.0579999685287476,-3.5 1.0579999685287476,-3.5 C1.0579999685287476,-4.052000045776367 0.6100000143051147,-4.5 0.057999998331069946,-4.5z M-2.941999912261963,-0.5 C-2.941999912261963,-0.5 -2.941999912261963,-3.5 -2.941999912261963,-3.5 C-2.941999912261963,-3.5 0.057999998331069946,-3.5 0.057999998331069946,-3.5 C0.057999998331069946,-3.5 0.057999998331069946,-0.5 0.057999998331069946,-0.5 C0.057999998331069946,-0.5 -2.941999912261963,-0.5 -2.941999912261963,-0.5z"></path></g></g><g transform="matrix(28.540000915527344,0,0,28.540000915527344,540.01123046875,539.9929809570312)" opacity="1" style="display: block;"><g opacity="1" transform="matrix(1,0,0,1,0,0)"><path fill="rgb(92,255,79)" fill-opacity="1" d=" M-6.942999839782715,1.5 C-6.942999839782715,1.5 -9.942999839782715,1.5 -9.942999839782715,1.5 C-10.494999885559082,1.5 -10.942999839782715,1.9479999542236328 -10.942999839782715,2.5 C-10.942999839782715,2.5 -10.942999839782715,5.5 -10.942999839782715,5.5 C-10.942999839782715,6.052000045776367 -10.494999885559082,6.5 -9.942999839782715,6.5 C-9.942999839782715,6.5 -6.942999839782715,6.5 -6.942999839782715,6.5 C-6.390999794006348,6.5 -5.942999839782715,6.052000045776367 -5.942999839782715,5.5 C-5.942999839782715,5.5 -5.942999839782715,2.5 -5.942999839782715,2.5 C-5.942999839782715,1.9479999542236328 -6.390999794006348,1.5 -6.942999839782715,1.5z M-9.942999839782715,5.5 C-9.942999839782715,5.5 -9.942999839782715,2.5 -9.942999839782715,2.5 C-9.942999839782715,2.5 -6.942999839782715,2.5 -6.942999839782715,2.5 C-6.942999839782715,2.5 -6.942999839782715,5.5 -6.942999839782715,5.5 C-6.942999839782715,5.5 -9.942999839782715,5.5 -9.942999839782715,5.5z"></path></g></g><g transform="matrix(28.540000915527344,0,0,28.540000915527344,540.0066528320312,539.9929809570312)" opacity="1" style="display: block;"><g opacity="1" transform="matrix(1,0,0,1,0,0)"><path fill="rgb(92,255,79)" fill-opacity="1" d=" M0.057999998331069946,1.5 C0.057999998331069946,1.5 -2.941999912261963,1.5 -2.941999912261963,1.5 C-3.49399995803833,1.5 -3.941999912261963,1.9479999542236328 -3.941999912261963,2.5 C-3.941999912261963,2.5 -3.941999912261963,5.5 -3.941999912261963,5.5 C-3.941999912261963,6.052000045776367 -3.49399995803833,6.5 -2.941999912261963,6.5 C-2.941999912261963,6.5 0.057999998331069946,6.5 0.057999998331069946,6.5 C0.6100000143051147,6.5 1.0579999685287476,6.052000045776367 1.0579999685287476,5.5 C1.0579999685287476,5.5 1.0579999685287476,2.5 1.0579999685287476,2.5 C1.0579999685287476,1.9479999542236328 0.6100000143051147,1.5 0.057999998331069946,1.5z M-2.941999912261963,5.5 C-2.941999912261963,5.5 -2.941999912261963,2.5 -2.941999912261963,2.5 C-2.941999912261963,2.5 0.057999998331069946,2.5 0.057999998331069946,2.5 C0.057999998331069946,2.5 0.057999998331069946,5.5 0.057999998331069946,5.5 C0.057999998331069946,5.5 -2.941999912261963,5.5 -2.941999912261963,5.5z"></path></g></g><g transform="matrix(28.540000915527344,0,0,28.540000915527344,540.0116577148438,539.9979858398438)" opacity="1" style="display: block;"><g opacity="1" transform="matrix(1,0,0,1,0,0)"><path fill="rgb(92,255,79)" fill-opacity="1" d=" M4.058000087738037,0.5 C4.058000087738037,0.5 7.059000015258789,0.5 7.059000015258789,0.5 C7.611000061035156,0.5 8.059000015258789,0.052000001072883606 8.059000015258789,-0.5 C8.059000015258789,-0.5 8.059000015258789,-3.5 8.059000015258789,-3.5 C8.059000015258789,-4.052000045776367 7.611000061035156,-4.5 7.059000015258789,-4.5 C7.059000015258789,-4.5 4.058000087738037,-4.5 4.058000087738037,-4.5 C3.50600004196167,-4.5 3.058000087738037,-4.052000045776367 3.058000087738037,-3.5 C3.058000087738037,-3.5 3.058000087738037,-0.5 3.058000087738037,-0.5 C3.058000087738037,0.052000001072883606 3.50600004196167,0.5 4.058000087738037,0.5z M4.058000087738037,-3.5 C4.058000087738037,-3.5 7.059000015258789,-3.5 7.059000015258789,-3.5 C7.059000015258789,-3.5 7.059000015258789,-0.5 7.059000015258789,-0.5 C7.059000015258789,-0.5 4.058000087738037,-0.5 4.058000087738037,-0.5 C4.058000087738037,-0.5 4.058000087738037,-3.5 4.058000087738037,-3.5z"></path></g></g><g transform="matrix(28.540000915527344,0,0,28.540000915527344,540.0116577148438,540.0020141601562)" opacity="1" style="display: block;"><g opacity="1" transform="matrix(1,0,0,1,0,0)"><path fill="rgb(92,255,79)" fill-opacity="1" d=" M10.687999725341797,6.163000106811523 C10.687999725341797,6.163000106811523 7.421999931335449,9.756999969482422 7.421999931335449,9.756999969482422 C7.421999931335449,9.756999969482422 6.427999973297119,8.663000106811523 6.427999973297119,8.663000106811523 C6.242000102996826,8.458999633789062 5.926000118255615,8.444000244140625 5.7220001220703125,8.630000114440918 C5.51800012588501,8.815999984741211 5.501999855041504,9.133000373840332 5.688000202178955,9.336999893188477 C5.688000202178955,9.336999893188477 7.052000045776367,10.836000442504883 7.052000045776367,10.836000442504883 C7.146999835968018,10.940999984741211 7.281000137329102,11 7.421999931335449,11 C7.563000202178955,11 7.697000026702881,10.940999984741211 7.791999816894531,10.836000442504883 C7.791999816894531,10.836000442504883 11.428000450134277,6.835999965667725 11.428000450134277,6.835999965667725 C11.54800033569336,6.703999996185303 11.59000015258789,6.51800012588501 11.53499984741211,6.3480000495910645 C11.480999946594238,6.177999973297119 11.34000015258789,6.048999786376953 11.164999961853027,6.011000156402588 C10.989999771118164,5.9730000495910645 10.807999610900879,6.031000137329102 10.687999725341797,6.163000106811523z"></path></g></g><g transform="matrix(1,0,0,1,540,540)" opacity="1" style="display: block;"><g opacity="1" transform="matrix(1,0,0,1,0,0)"><path stroke-linecap="round" stroke-linejoin="round" fill-opacity="0" stroke="rgb(92,255,79)" stroke-opacity="1" stroke-width="28" d="M0 0"></path></g></g><g transform="matrix(0.9100000262260437,0,0,0.9100000262260437,549.2799682617188,544.1799926757812)" opacity="1" style="display: block;"><g opacity="1" transform="matrix(1,0,0,1,0,0)"><path stroke-linecap="round" stroke-linejoin="round" fill-opacity="0" stroke-dasharray=" 66" stroke-dashoffset="0" stroke="rgb(92,255,79)" stroke-opacity="1" stroke-width="33" d=" M-400,82 C-400,82 -400,247.5 -400,247.5 C-400,247.5 -236,248 -236,248"></path></g></g></g></svg>