<svg xmlns="http://www.w3.org/2000/svg" xmlns:xlink="http://www.w3.org/1999/xlink" viewBox="0 0 1080 1080" width="1080" height="1080" preserveAspectRatio="xMidYMid meet" style="width: 100%; height: 100%; transform: translate3d(0px, 0px, 0px); content-visibility: visible;"><defs><clipPath id="__lottie_element_277"><rect width="1080" height="1080" x="0" y="0"></rect></clipPath><mask id="__lottie_element_288"><rect fill="#ffffff" width="1080" height="1080" transform="matrix(0.037383176386356354,0,0,0.037383176386356354,-20.187026977539062,-20.18691635131836)"></rect><path fill="#000000" clip-rule="nonzero" d=" M10.991000175476074,-6.6539998054504395 C10.991000175476074,-6.6539998054504395 -12.486000061035156,-6.6539998054504395 -12.486000061035156,-6.6539998054504395 C-12.486000061035156,-6.6539998054504395 -12.486000061035156,9.944000244140625 -12.486000061035156,9.944000244140625 C-12.486000061035156,9.944000244140625 11.0649995803833,9.944000244140625 11.0649995803833,9.944000244140625 C11.0649995803833,9.944000244140625 10.991000175476074,-6.6539998054504395 10.991000175476074,-6.6539998054504395" fill-opacity="1"></path></mask><mask id="__lottie_element_291"><path fill="#ffffff" clip-rule="nonzero" d=" M10.317999839782715,-6.429999828338623 C10.317999839782715,-6.429999828338623 -12.149999618530273,-6.691999912261963 -12.149999618530273,-6.691999912261963 C-12.149999618530273,-6.691999912261963 -12.149999618530273,9.906999588012695 -12.149999618530273,9.906999588012695 C-12.149999618530273,9.906999588012695 11.102999687194824,9.906999588012695 11.102999687194824,9.906999588012695 C11.102999687194824,9.906999588012695 11.064000129699707,4.635000228881836 11.064000129699707,4.635000228881836 C11.064000129699707,4.635000228881836 10.317999839782715,-6.429999828338623 10.317999839782715,-6.429999828338623" fill-opacity="1"></path></mask></defs><g clip-path="url(#__lottie_element_277)"><g transform="matrix(26.75,0,0,26.75,540,540)" opacity="1" style="display: block;"><g opacity="1" transform="matrix(1,0,0,1,0,0)"><path fill="rgb(92,255,79)" fill-opacity="1" d=" M-11.5,-10 C-11.20300006866455,-10 -10.913999557495117,-10.088000297546387 -10.666999816894531,-10.253000259399414 C-10.420000076293945,-10.418000221252441 -10.227999687194824,-10.652000427246094 -10.11400032043457,-10.925999641418457 C-10,-11.199999809265137 -9.970999717712402,-11.501999855041504 -10.029000282287598,-11.793000221252441 C-10.086999893188477,-12.083999633789062 -10.229000091552734,-12.35099983215332 -10.439000129699707,-12.560999870300293 C-10.64900016784668,-12.770999908447266 -10.916000366210938,-12.913000106811523 -11.206999778747559,-12.970999717712402 C-11.498000144958496,-13.029000282287598 -11.800000190734863,-13 -12.074000358581543,-12.88599967956543 C-12.347999572753906,-12.772000312805176 -12.581999778747559,-12.579999923706055 -12.746999740600586,-12.333000183105469 C-12.911999702453613,-12.086000442504883 -13,-11.79699993133545 -13,-11.5 C-13,-11.10200023651123 -12.842000007629395,-10.720000267028809 -12.560999870300293,-10.439000129699707 C-12.279999732971191,-10.157999992370605 -11.89799976348877,-10 -11.5,-10z M-11.5,-12 C-11.401000022888184,-12 -11.303999900817871,-11.970999717712402 -11.222000122070312,-11.916000366210938 C-11.140000343322754,-11.861000061035156 -11.076000213623047,-11.781999588012695 -11.038000106811523,-11.690999984741211 C-11,-11.600000381469727 -10.991000175476074,-11.49899959564209 -11.010000228881836,-11.402000427246094 C-11.029000282287598,-11.305000305175781 -11.076000213623047,-11.215999603271484 -11.145999908447266,-11.145999908447266 C-11.215999603271484,-11.076000213623047 -11.305000305175781,-11.029000282287598 -11.402000427246094,-11.010000228881836 C-11.49899959564209,-10.991000175476074 -11.600000381469727,-11 -11.690999984741211,-11.038000106811523 C-11.781999588012695,-11.076000213623047 -11.861000061035156,-11.140000343322754 -11.916000366210938,-11.222000122070312 C-11.970999717712402,-11.303999900817871 -12,-11.401000022888184 -12,-11.5 C-12,-11.633000373840332 -11.947999954223633,-11.760000228881836 -11.854000091552734,-11.854000091552734 C-11.760000228881836,-11.947999954223633 -11.633000373840332,-12 -11.5,-12z"></path></g></g><g transform="matrix(26.75,0,0,26.75,540.00048828125,539.99951171875)" opacity="1" style="display: block;"><g opacity="1" transform="matrix(1,0,0,1,0,0)"><path fill="rgb(92,255,79)" fill-opacity="1" d=" M-8.75,-0.5 C-8.206000328063965,-0.5 -7.673999786376953,-0.6620000004768372 -7.2220001220703125,-0.9639999866485596 C-6.769999980926514,-1.2660000324249268 -6.416999816894531,-1.6950000524520874 -6.209000110626221,-2.197999954223633 C-6.000999927520752,-2.7009999752044678 -5.947000026702881,-3.253000020980835 -6.052999973297119,-3.7860000133514404 C-6.158999919891357,-4.318999767303467 -6.420000076293945,-4.809999942779541 -6.804999828338623,-5.195000171661377 C-7.190000057220459,-5.579999923706055 -7.681000232696533,-5.841000080108643 -8.21399974822998,-5.947000026702881 C-8.746999740600586,-6.052999973297119 -9.298999786376953,-5.999000072479248 -9.802000045776367,-5.790999889373779 C-10.305000305175781,-5.583000183105469 -10.734999656677246,-5.230000019073486 -11.036999702453613,-4.7779998779296875 C-11.33899974822998,-4.326000213623047 -11.5,-3.7939999103546143 -11.5,-3.25 C-11.49899959564209,-2.5209999084472656 -11.210000038146973,-1.8229999542236328 -10.694000244140625,-1.3070000410079956 C-10.178000450134277,-0.7910000085830688 -9.479000091552734,-0.5009999871253967 -8.75,-0.5z M-8.75,-5 C-8.404000282287598,-5 -8.065999984741211,-4.896999835968018 -7.7779998779296875,-4.704999923706055 C-7.489999771118164,-4.513000011444092 -7.264999866485596,-4.239999771118164 -7.132999897003174,-3.9200000762939453 C-7.000999927520752,-3.5999999046325684 -6.966000080108643,-3.247999906539917 -7.033999919891357,-2.9089999198913574 C-7.1020002365112305,-2.569999933242798 -7.26800012588501,-2.257999897003174 -7.513000011444092,-2.013000011444092 C-7.757999897003174,-1.7680000066757202 -8.069999694824219,-1.6019999980926514 -8.409000396728516,-1.534000039100647 C-8.748000144958496,-1.465999960899353 -9.100000381469727,-1.5010000467300415 -9.420000076293945,-1.6330000162124634 C-9.739999771118164,-1.7660000324249268 -10.012999534606934,-1.9900000095367432 -10.204999923706055,-2.2780001163482666 C-10.397000312805176,-2.565999984741211 -10.5,-2.9040000438690186 -10.5,-3.25 C-10.5,-3.7139999866485596 -10.3149995803833,-4.158999919891357 -9.987000465393066,-4.486999988555908 C-9.659000396728516,-4.815000057220459 -9.21399974822998,-5 -8.75,-5z"></path></g></g><g mask="url(#__lottie_element_291)" transform="matrix(26.75,0,0,26.75,540.0029907226562,540)" opacity="1" style="display: block;"><g opacity="1" transform="matrix(1,0,0,1,0,0)"><path fill="rgb(92,255,79)" fill-opacity="1" d=" M12,-3.6740000247955322 C12,-3.6740000247955322 12,-13 12,-13 C12,-13.529999732971191 11.788999557495117,-14.038999557495117 11.413999557495117,-14.413999557495117 C11.038999557495117,-14.788999557495117 10.529999732971191,-15 10,-15 C10,-15 -13,-15 -13,-15 C-13.529999732971191,-15 -14.038999557495117,-14.788999557495117 -14.413999557495117,-14.413999557495117 C-14.788999557495117,-14.038999557495117 -15,-13.529999732971191 -15,-13 C-15,-13 -15,10 -15,10 C-15,10.529999732971191 -14.788999557495117,11.038999557495117 -14.413999557495117,11.413999557495117 C-14.038999557495117,11.788999557495117 -13.529999732971191,12 -13,12 C-13,12 -3.565999984741211,12 -3.565999984741211,12 C-3.565999984741211,12 3.9189999103546143,12 3.9189999103546143,12 C3.9189999103546143,12 10,12 10,12 C10.529999732971191,12 11.038999557495117,11.788999557495117 11.413999557495117,11.413999557495117 C11.788999557495117,11.038999557495117 12,10.529999732971191 12,10 C12,10 12,3.9170000553131104 12,3.9170000553131104 C12,3.9170000553131104 12.11299991607666,-3.5999999046325684 12,-3.6740000247955322z M-13,-14 C-13,-14 10,-14 10,-14 C10.265000343322754,-14 10.519000053405762,-13.895000457763672 10.706999778747559,-13.706999778747559 C10.895000457763672,-13.519000053405762 11,-13.265000343322754 11,-13 C11,-13 11,-9 11,-9 C11,-9 -14,-9 -14,-9 C-14,-9 -14,-13 -14,-13 C-14,-13.265000343322754 -13.895000457763672,-13.519000053405762 -13.706999778747559,-13.706999778747559 C-13.519000053405762,-13.895000457763672 -13.265000343322754,-14 -13,-14z M-13,11 C-13.265000343322754,11 -13.519000053405762,10.895000457763672 -13.706999778747559,10.706999778747559 C-13.895000457763672,10.519000053405762 -14,10.265000343322754 -14,10 C-14,10 -14,-8 -14,-8 C-14,-8 11,-8 11,-8 C11,-8 11,-3.990999937057495 11,-3.990999937057495 C10.723999977111816,-4.00600004196167 11.270000457763672,7.551000118255615 11.01200008392334,7.650000095367432 C10.753999710083008,7.749000072479248 5.748000144958496,0.3709999918937683 5.748000144958496,0.3709999918937683 C5.748000144958496,0.3709999918937683 2.25,-3.0160000324249268 2.25,-3.0160000324249268 C2.0420000553131104,-3.194000005722046 1.777999997138977,-3.2920000553131104 1.503999948501587,-3.2920000553131104 C1.2300000190734863,-3.2920000553131104 0.9660000205039978,-3.194000005722046 0.7580000162124634,-3.0160000324249268 C0.7580000162124634,-3.0160000324249268 -6.01200008392334,2.8499999046325684 -6.01200008392334,2.8499999046325684 C-6.01200008392334,2.8499999046325684 -7.745999813079834,1.4620000123977661 -7.745999813079834,1.4620000123977661 C-7.965000152587891,1.2890000343322754 -8.239999771118164,1.2039999961853027 -8.519000053405762,1.2200000286102295 C-8.79800033569336,1.2359999418258667 -9.0600004196167,1.3550000190734863 -9.258000373840332,1.5520000457763672 C-9.258000373840332,1.5520000457763672 -11.559000015258789,3.8519999980926514 -11.559000015258789,3.8519999980926514 C-11.699000358581543,3.990999937057495 -11.8100004196167,4.1570000648498535 -11.88599967956543,4.339000225067139 C-11.961999893188477,4.520999908447266 -12,4.7170000076293945 -12,4.914999961853027 C-12,4.914999961853027 -12,8 -12,8 C-12,8.39799976348877 -11.842000007629395,8.779999732971191 -11.560999870300293,9.060999870300293 C-11.279999732971191,9.342000007629395 -10.89799976348877,9.5 -10.5,9.5 C-10.5,9.5 -2.877000093460083,9.5 -2.877000093460083,9.5 C-2.888000011444092,9.53499984741211 -2.9030001163482666,9.567999839782715 -2.9130001068115234,9.604000091552734 C-2.9130001068115234,9.604000091552734 -3.368000030517578,11 -3.368000030517578,11 C-3.368000030517578,11 -13,11 -13,11z M-2.369999885559082,8.5 C-2.369999885559082,8.5 -10.5,8.5 -10.5,8.5 C-10.633000373840332,8.5 -10.760000228881836,8.447999954223633 -10.854000091552734,8.354000091552734 C-10.947999954223633,8.260000228881836 -11,8.133000373840332 -11,8 C-11,8 -11,4.914999961853027 -11,4.914999961853027 C-11,4.848999977111816 -10.987000465393066,4.7829999923706055 -10.961000442504883,4.7220001220703125 C-10.9350004196167,4.660999774932861 -10.897000312805176,4.605000019073486 -10.850000381469727,4.559000015258789 C-10.850000381469727,4.559000015258789 -8.550000190734863,2.257999897003174 -8.550000190734863,2.257999897003174 C-8.526000022888184,2.2339999675750732 -8.494999885559082,2.2200000286102295 -8.461000442504883,2.2170000076293945 C-8.427000045776367,2.2139999866485596 -8.392999649047852,2.2249999046325684 -8.366000175476074,2.244999885559082 C-8.366000175476074,2.244999885559082 -6.310999870300293,3.890000104904175 -6.310999870300293,3.890000104904175 C-6.21999979019165,3.9630000591278076 -6.105999946594238,4.001999855041504 -5.988999843597412,4 C-5.872000217437744,3.997999906539917 -5.758999824523926,3.9539999961853027 -5.671000003814697,3.878000020980835 C-5.671000003814697,3.878000020980835 1.409999966621399,-2.259999990463257 1.409999966621399,-2.259999990463257 C1.434999942779541,-2.2829999923706055 1.468000054359436,-2.2950000762939453 1.5019999742507935,-2.2950000762939453 C1.5360000133514404,-2.2950000762939453 1.569000005722046,-2.2829999923706055 1.593999981880188,-2.259999990463257 C1.593999981880188,-2.259999990463257 5.078000068664551,1.0429999828338623 5.078000068664551,1.0429999828338623 C5.078000068664551,1.0429999828338623 10.670000076293945,8.611000061035156 10.670000076293945,8.611000061035156 C10.642000198364258,8.638999938964844 -2.303999900817871,8.413000106811523 -2.369999885559082,8.5z M11.083999633789062,9.701000213623047 C11.083999633789062,9.965999603271484 10.895000457763672,10.519000053405762 10.706999778747559,10.706999778747559 C10.519000053405762,10.895000457763672 10.265000343322754,11 10,11 C10,11 -3.374000072479248,11.015000343322754 -3.374000072479248,11.015000343322754 C-3.374000072479248,11.015000343322754 -2.875999927520752,9.494999885559082 -2.875999927520752,9.494999885559082 C-2.875999927520752,9.494999885559082 9.430000305175781,9.664999961853027 9.430000305175781,9.664999961853027 C9.430000305175781,9.664999961853027 11.083999633789062,9.701000213623047 11.083999633789062,9.701000213623047z"></path></g></g><g mask="url(#__lottie_element_288)" transform="matrix(26.75,0,0,26.75,540.0029907226562,540)" opacity="1" style="display: block;"><g opacity="1" transform="matrix(1,0,0,1,0,0)"><path fill="rgb(92,255,79)" fill-opacity="1" d=" M12,-3.6740000247955322 C12,-3.6740000247955322 12,-13 12,-13 C12,-13.529999732971191 11.788999557495117,-14.038999557495117 11.413999557495117,-14.413999557495117 C11.038999557495117,-14.788999557495117 10.529999732971191,-15 10,-15 C10,-15 -13,-15 -13,-15 C-13.529999732971191,-15 -14.038999557495117,-14.788999557495117 -14.413999557495117,-14.413999557495117 C-14.788999557495117,-14.038999557495117 -15,-13.529999732971191 -15,-13 C-15,-13 -15,10 -15,10 C-15,10.529999732971191 -14.788999557495117,11.038999557495117 -14.413999557495117,11.413999557495117 C-14.038999557495117,11.788999557495117 -13.529999732971191,12 -13,12 C-13,12 -3.565999984741211,12 -3.565999984741211,12 C-3.565999984741211,12 3.9189999103546143,12 3.9189999103546143,12 C3.9189999103546143,12 10,12 10,12 C10.529999732971191,12 11.038999557495117,11.788999557495117 11.413999557495117,11.413999557495117 C11.788999557495117,11.038999557495117 12,10.529999732971191 12,10 C12,10 12,3.9170000553131104 12,3.9170000553131104 C12,3.9170000553131104 12.11299991607666,-3.5999999046325684 12,-3.6740000247955322z M-13,-14 C-13,-14 10,-14 10,-14 C10.265000343322754,-14 10.519000053405762,-13.895000457763672 10.706999778747559,-13.706999778747559 C10.895000457763672,-13.519000053405762 11,-13.265000343322754 11,-13 C11,-13 11,-9 11,-9 C11,-9 -14,-9 -14,-9 C-14,-9 -14,-13 -14,-13 C-14,-13.265000343322754 -13.895000457763672,-13.519000053405762 -13.706999778747559,-13.706999778747559 C-13.519000053405762,-13.895000457763672 -13.265000343322754,-14 -13,-14z M-13,11 C-13.265000343322754,11 -13.519000053405762,10.895000457763672 -13.706999778747559,10.706999778747559 C-13.895000457763672,10.519000053405762 -14,10.265000343322754 -14,10 C-14,10 -14,-8 -14,-8 C-14,-8 11,-8 11,-8 C11,-8 11,-3.990999937057495 11,-3.990999937057495 C10.723999977111816,-4.00600004196167 11.270000457763672,7.551000118255615 11.01200008392334,7.650000095367432 C10.753999710083008,7.749000072479248 5.748000144958496,0.3709999918937683 5.748000144958496,0.3709999918937683 C5.748000144958496,0.3709999918937683 2.25,-3.0160000324249268 2.25,-3.0160000324249268 C2.0420000553131104,-3.194000005722046 1.777999997138977,-3.2920000553131104 1.503999948501587,-3.2920000553131104 C1.2300000190734863,-3.2920000553131104 0.9660000205039978,-3.194000005722046 0.7580000162124634,-3.0160000324249268 C0.7580000162124634,-3.0160000324249268 -6.01200008392334,2.8499999046325684 -6.01200008392334,2.8499999046325684 C-6.01200008392334,2.8499999046325684 -7.745999813079834,1.4620000123977661 -7.745999813079834,1.4620000123977661 C-7.965000152587891,1.2890000343322754 -8.239999771118164,1.2039999961853027 -8.519000053405762,1.2200000286102295 C-8.79800033569336,1.2359999418258667 -9.0600004196167,1.3550000190734863 -9.258000373840332,1.5520000457763672 C-9.258000373840332,1.5520000457763672 -11.559000015258789,3.8519999980926514 -11.559000015258789,3.8519999980926514 C-11.699000358581543,3.990999937057495 -11.8100004196167,4.1570000648498535 -11.88599967956543,4.339000225067139 C-11.961999893188477,4.520999908447266 -12,4.7170000076293945 -12,4.914999961853027 C-12,4.914999961853027 -12,8 -12,8 C-12,8.39799976348877 -11.842000007629395,8.779999732971191 -11.560999870300293,9.060999870300293 C-11.279999732971191,9.342000007629395 -10.89799976348877,9.5 -10.5,9.5 C-10.5,9.5 -2.877000093460083,9.5 -2.877000093460083,9.5 C-2.888000011444092,9.53499984741211 -2.9030001163482666,9.567999839782715 -2.9130001068115234,9.604000091552734 C-2.9130001068115234,9.604000091552734 -3.368000030517578,11 -3.368000030517578,11 C-3.368000030517578,11 -13,11 -13,11z M-2.369999885559082,8.5 C-2.369999885559082,8.5 -10.5,8.5 -10.5,8.5 C-10.633000373840332,8.5 -10.760000228881836,8.447999954223633 -10.854000091552734,8.354000091552734 C-10.947999954223633,8.260000228881836 -11,8.133000373840332 -11,8 C-11,8 -11,4.914999961853027 -11,4.914999961853027 C-11,4.848999977111816 -10.987000465393066,4.7829999923706055 -10.961000442504883,4.7220001220703125 C-10.9350004196167,4.660999774932861 -10.897000312805176,4.605000019073486 -10.850000381469727,4.559000015258789 C-10.850000381469727,4.559000015258789 -8.550000190734863,2.257999897003174 -8.550000190734863,2.257999897003174 C-8.526000022888184,2.2339999675750732 -8.494999885559082,2.2200000286102295 -8.461000442504883,2.2170000076293945 C-8.427000045776367,2.2139999866485596 -8.392999649047852,2.2249999046325684 -8.366000175476074,2.244999885559082 C-8.366000175476074,2.244999885559082 -6.310999870300293,3.890000104904175 -6.310999870300293,3.890000104904175 C-6.21999979019165,3.9630000591278076 -6.105999946594238,4.001999855041504 -5.988999843597412,4 C-5.872000217437744,3.997999906539917 -5.758999824523926,3.9539999961853027 -5.671000003814697,3.878000020980835 C-5.671000003814697,3.878000020980835 1.409999966621399,-2.259999990463257 1.409999966621399,-2.259999990463257 C1.434999942779541,-2.2829999923706055 1.468000054359436,-2.2950000762939453 1.5019999742507935,-2.2950000762939453 C1.5360000133514404,-2.2950000762939453 1.569000005722046,-2.2829999923706055 1.593999981880188,-2.259999990463257 C1.593999981880188,-2.259999990463257 5.078000068664551,1.0429999828338623 5.078000068664551,1.0429999828338623 C5.078000068664551,1.0429999828338623 10.670000076293945,8.611000061035156 10.670000076293945,8.611000061035156 C10.642000198364258,8.638999938964844 -2.303999900817871,8.413000106811523 -2.369999885559082,8.5z M11.083999633789062,9.701000213623047 C11.083999633789062,9.965999603271484 10.895000457763672,10.519000053405762 10.706999778747559,10.706999778747559 C10.519000053405762,10.895000457763672 10.265000343322754,11 10,11 C10,11 -3.374000072479248,11.015000343322754 -3.374000072479248,11.015000343322754 C-3.374000072479248,11.015000343322754 -2.875999927520752,9.494999885559082 -2.875999927520752,9.494999885559082 C-2.875999927520752,9.494999885559082 9.430000305175781,9.664999961853027 9.430000305175781,9.664999961853027 C9.430000305175781,9.664999961853027 11.083999633789062,9.701000213623047 11.083999633789062,9.701000213623047z"></path></g></g><g transform="matrix(1,0,0,1,540,540)" opacity="1" style="display: block;"><g opacity="1" transform="matrix(1,0,0,0.9894199967384338,5,0)"><path stroke-linecap="round" stroke-linejoin="miter" fill-opacity="0" stroke-miterlimit="4" stroke="rgb(91,255,79)" stroke-opacity="1" stroke-width="24" d=" M-220,-284 C-220,-284 -125,-284 -125,-284"></path></g></g><g transform="matrix(1,0,0,1,540,540)" opacity="1" style="display: block;"><g opacity="1" transform="matrix(1,0,0,1,0,0)"><path stroke-linecap="round" stroke-linejoin="miter" fill-opacity="0" stroke-miterlimit="4" stroke="rgb(91,255,79)" stroke-opacity="1" stroke-width="24" d=" M-215,-334 C-215,-334 -53,-334 -53,-334"></path></g></g><g transform="matrix(1,0,0,1,540,540)" opacity="1" style="display: block;"><g opacity="1" transform="matrix(1,0,0,1,0,0)"><path stroke-linecap="round" stroke-linejoin="round" fill-opacity="0" stroke="rgb(91,255,79)" stroke-opacity="1" stroke-width="24" d=" M264.5,-76.5 C264.5,-76.5 -57,236 -57,236 C-57,236 -89,385 -89,385 C-89,385 66,343 66,343 C66,343 345,60 345,60 C345,60 417.3659973144531,12.635000228881836 351.89300537109375,-52.8380012512207 C293.8659973144531,-110.86499786376953 264.5,-76.5 264.5,-76.5z"></path></g><g opacity="1" transform="matrix(1,0,0,1,0,0)"><path stroke-linecap="butt" stroke-linejoin="miter" fill-opacity="0" stroke-miterlimit="4" stroke="rgb(91,255,79)" stroke-opacity="1" stroke-width="24" d=" M-46.5,225.5 C-46.5,225.5 69,343 69,343"></path></g><g opacity="1" transform="matrix(1,0,0,1,0,0)"><path stroke-linecap="butt" stroke-linejoin="miter" fill-opacity="0" stroke-miterlimit="4" stroke="rgb(91,255,79)" stroke-opacity="1" stroke-width="24" d=" M11.5,281.5 C11.5,281.5 225,68 225,68"></path></g><g opacity="1" transform="matrix(1,0,0,1,0,0)"><path stroke-linecap="butt" stroke-linejoin="miter" fill-opacity="0" stroke-miterlimit="4" stroke="rgb(91,255,79)" stroke-opacity="1" stroke-width="24" d=" M172,23 C172,23 272,123 272,123"></path></g><g opacity="1" transform="matrix(1,0,0,1,0,0)"><path stroke-linecap="butt" stroke-linejoin="miter" fill-opacity="0" stroke-miterlimit="4" stroke="rgb(91,255,79)" stroke-opacity="1" stroke-width="24" d=" M230,-35 C230,-35 330,65 330,65"></path></g></g></g></svg>