<svg xmlns="http://www.w3.org/2000/svg" xmlns:xlink="http://www.w3.org/1999/xlink" viewBox="0 0 1080 1080" width="1080" height="1080" preserveAspectRatio="xMidYMid meet" style="width: 100%; height: 100%; transform: translate3d(0px, 0px, 0px); content-visibility: visible;"><defs><clipPath id="__lottie_element_352"><rect width="1080" height="1080" x="0" y="0"></rect></clipPath><mask id="__lottie_element_355"><rect fill="#ffffff" width="1080" height="1080" transform="matrix(0.03524849936366081,0,0,0.03524849936366081,-19.034080505371094,-19.034156799316406)"></rect><path fill="#000000" clip-rule="nonzero" d=" M4.754000186920166,5.177000045776367 C4.754000186920166,5.177000045776367 4.063000202178955,5.172999858856201 4.033999919891357,5.339000225067139 C3.759999990463257,5.644999980926514 3.6549999713897705,6.47599983215332 3.6549999713897705,6.47599983215332 C3.6549999713897705,6.47599983215332 3.119999885559082,6.406000137329102 3.119999885559082,6.406000137329102 C3.119999885559082,6.406000137329102 1.9809999465942383,5.761000156402588 1.9809999465942383,5.761000156402588 C1.9809999465942383,5.761000156402588 0.2750000059604645,7.565000057220459 0.2750000059604645,7.565000057220459 C0.2750000059604645,7.565000057220459 -0.47099998593330383,10.164999961853027 -0.47099998593330383,10.164999961853027 C-0.47099998593330383,10.164999961853027 0.4580000042915344,11.965999603271484 0.4580000042915344,11.965999603271484 C0.4580000042915344,11.965999603271484 0.7929999828338623,13.786999702453613 0.7929999828338623,13.786999702453613 C0.7929999828338623,13.786999702453613 4.886000156402588,15.345999717712402 4.886000156402588,15.345999717712402 C4.886000156402588,15.345999717712402 6.982999801635742,14.984000205993652 6.982999801635742,14.984000205993652 C6.982999801635742,14.984000205993652 9.925999641418457,12.52299976348877 9.925999641418457,12.52299976348877 C9.925999641418457,12.52299976348877 10.350000381469727,9.213000297546387 10.350000381469727,9.213000297546387 C10.350000381469727,9.213000297546387 8.399999618530273,8.888999938964844 8.399999618530273,8.888999938964844 C8.399999618530273,8.888999938964844 8.220999717712402,8.414999961853027 8.220999717712402,8.414999961853027 C8.220999717712402,8.414999961853027 9.336999893188477,7.117000102996826 9.336999893188477,7.117000102996826 C9.336999893188477,7.117000102996826 7.623000144958496,5.7789998054504395 7.623000144958496,5.7789998054504395 C7.623000144958496,5.7789998054504395 5.807000160217285,5.171000003814697 5.807000160217285,5.171000003814697 C5.807000160217285,5.171000003814697 4.754000186920166,5.177000045776367 4.754000186920166,5.177000045776367" fill-opacity="1"></path><path fill="#000000" clip-rule="nonzero" d=" M2.678999900817871,-17.957000732421875 C2.678999900817871,-17.957000732421875 1.3040000200271606,-11.472000122070312 1.3040000200271606,-11.472000122070312 C1.3040000200271606,-11.472000122070312 8.460000038146973,-8.335000038146973 8.460000038146973,-8.335000038146973 C8.460000038146973,-8.335000038146973 7.050000190734863,-5.197000026702881 7.050000190734863,-5.197000026702881 C7.050000190734863,-5.197000026702881 12.302000045776367,-2.7300000190734863 12.302000045776367,-2.7300000190734863 C12.302000045776367,-2.7300000190734863 16.388999938964844,-8.970000267028809 16.388999938964844,-8.970000267028809 C16.388999938964844,-8.970000267028809 12.54800033569336,-17.041000366210938 12.54800033569336,-17.041000366210938 C12.54800033569336,-17.041000366210938 2.678999900817871,-17.957000732421875 2.678999900817871,-17.957000732421875" fill-opacity="1"></path></mask><clipPath id="__lottie_element_369"><path fill="#ffffff" clip-rule="nonzero" d=" M4.771999835968018,5.177000045776367 C4.771999835968018,5.177000045776367 3.992000102996826,5.182000160217285 3.9630000591278076,5.3480000495910645 C3.7360000610351562,5.702000141143799 3.6549999713897705,6.47599983215332 3.6549999713897705,6.47599983215332 C3.6549999713897705,6.47599983215332 3.119999885559082,6.406000137329102 3.119999885559082,6.406000137329102 C3.119999885559082,6.406000137329102 1.9809999465942383,5.761000156402588 1.9809999465942383,5.761000156402588 C1.9809999465942383,5.761000156402588 0.2750000059604645,7.565000057220459 0.2750000059604645,7.565000057220459 C0.2750000059604645,7.565000057220459 -0.47099998593330383,10.164999961853027 -0.47099998593330383,10.164999961853027 C-0.47099998593330383,10.164999961853027 0.4580000042915344,11.965999603271484 0.4580000042915344,11.965999603271484 C0.4580000042915344,11.965999603271484 0.7929999828338623,13.786999702453613 0.7929999828338623,13.786999702453613 C0.7929999828338623,13.786999702453613 4.886000156402588,15.345999717712402 4.886000156402588,15.345999717712402 C4.886000156402588,15.345999717712402 6.982999801635742,14.984000205993652 6.982999801635742,14.984000205993652 C6.982999801635742,14.984000205993652 9.925999641418457,12.52299976348877 9.925999641418457,12.52299976348877 C9.925999641418457,12.52299976348877 10.350000381469727,9.213000297546387 10.350000381469727,9.213000297546387 C10.350000381469727,9.213000297546387 8.399999618530273,8.888999938964844 8.399999618530273,8.888999938964844 C8.399999618530273,8.888999938964844 8.220999717712402,8.414999961853027 8.220999717712402,8.414999961853027 C8.220999717712402,8.414999961853027 9.336999893188477,7.117000102996826 9.336999893188477,7.117000102996826 C9.336999893188477,7.117000102996826 7.623000144958496,5.7789998054504395 7.623000144958496,5.7789998054504395 C7.623000144958496,5.7789998054504395 5.833000183105469,5.188000202178955 5.833000183105469,5.188000202178955 C5.833000183105469,5.188000202178955 4.771999835968018,5.177000045776367 4.771999835968018,5.177000045776367" fill-opacity="1"></path></clipPath><clipPath id="__lottie_element_372"><path d="M0,0 L1080,0 L1080,1080 L0,1080z"></path></clipPath><mask id="__lottie_element_373"><rect fill="#ffffff" width="1080" height="1080" transform="matrix(0.9999574422836304,0,0,0.9999574422836304,0.026073329150676727,0.02393718995153904)"></rect><path fill="#000000" clip-rule="nonzero" d=" M598,238 C598,238 528,362 528,362 C528,362 797,480 797,480 C797,480 813,435 813,435 C813,435 736,393 736,393 C736,393 765,316 765,316 C765,316 598,238 598,238" fill-opacity="1"></path></mask><clipPath id="__lottie_element_379"><path fill="#ffffff" clip-rule="nonzero" d=" M4.771999835968018,5.177000045776367 C4.771999835968018,5.177000045776367 3.992000102996826,5.182000160217285 3.9630000591278076,5.3480000495910645 C3.7360000610351562,5.702000141143799 3.6549999713897705,6.47599983215332 3.6549999713897705,6.47599983215332 C3.6549999713897705,6.47599983215332 3.119999885559082,6.406000137329102 3.119999885559082,6.406000137329102 C3.119999885559082,6.406000137329102 1.9809999465942383,5.761000156402588 1.9809999465942383,5.761000156402588 C1.9809999465942383,5.761000156402588 0.2750000059604645,7.565000057220459 0.2750000059604645,7.565000057220459 C0.2750000059604645,7.565000057220459 -0.47099998593330383,10.164999961853027 -0.47099998593330383,10.164999961853027 C-0.47099998593330383,10.164999961853027 0.4580000042915344,11.965999603271484 0.4580000042915344,11.965999603271484 C0.4580000042915344,11.965999603271484 0.7929999828338623,13.786999702453613 0.7929999828338623,13.786999702453613 C0.7929999828338623,13.786999702453613 4.886000156402588,15.345999717712402 4.886000156402588,15.345999717712402 C4.886000156402588,15.345999717712402 6.982999801635742,14.984000205993652 6.982999801635742,14.984000205993652 C6.982999801635742,14.984000205993652 9.925999641418457,12.52299976348877 9.925999641418457,12.52299976348877 C9.925999641418457,12.52299976348877 10.350000381469727,9.213000297546387 10.350000381469727,9.213000297546387 C10.350000381469727,9.213000297546387 8.399999618530273,8.888999938964844 8.399999618530273,8.888999938964844 C8.399999618530273,8.888999938964844 8.220999717712402,8.414999961853027 8.220999717712402,8.414999961853027 C8.220999717712402,8.414999961853027 9.336999893188477,7.117000102996826 9.336999893188477,7.117000102996826 C9.336999893188477,7.117000102996826 7.623000144958496,5.7789998054504395 7.623000144958496,5.7789998054504395 C7.623000144958496,5.7789998054504395 5.833000183105469,5.188000202178955 5.833000183105469,5.188000202178955 C5.833000183105469,5.188000202178955 4.771999835968018,5.177000045776367 4.771999835968018,5.177000045776367" fill-opacity="1"></path></clipPath></defs><g clip-path="url(#__lottie_element_352)"><g clip-path="url(#__lottie_element_372)" transform="matrix(1.0000425577163696,0,0,1.0000425577163696,-0.02607443928718567,-0.02393820881843567)" opacity="1" style="display: block;"><g mask="url(#__lottie_element_373)"><g clip-path="url(#__lottie_element_379)" transform="matrix(34.59000015258789,0,0,34.59000015258789,598.455078125,-70.78863525390625)" opacity="1" style="display: block;"><g opacity="1" transform="matrix(1,0,0,1,0,0)"><path fill="rgb(92,255,79)" fill-opacity="1" d=" M14.736000061035156,-1.093999981880188 C14.725000381469727,-1.3250000476837158 14.526000022888184,-1.5149999856948853 14.293999671936035,-1.5149999856948853 C14.293999671936035,-1.5149999856948853 9.199000358581543,-1.5149999856948853 9.199000358581543,-1.5149999856948853 C9.199000358581543,-1.5149999856948853 10.024999618530273,-3.4000000953674316 10.024999618530273,-3.4000000953674316 C10.071999549865723,-3.50600004196167 10.074999809265137,-3.63100004196167 10.032999992370605,-3.739000082015991 C10.032999992370605,-3.739000082015991 9.609000205993652,-4.826000213623047 9.609000205993652,-4.826000213623047 C9.845000267028809,-4.913000106811523 10.072999954223633,-5.01800012588501 10.291999816894531,-5.142000198364258 C10.291999816894531,-5.142000198364258 11.354000091552734,-4.486000061035156 11.354000091552734,-4.486000061035156 C11.550000190734863,-4.376999855041504 11.737000465393066,-4.4019999504089355 11.913999557495117,-4.564000129699707 C11.913999557495117,-4.564000129699707 12.9399995803833,-5.691999912261963 12.9399995803833,-5.691999912261963 C13.085000038146973,-5.85099983215332 13.095000267028809,-6.0920000076293945 12.961999893188477,-6.26200008392334 C12.961999893188477,-6.26200008392334 12.199999809265137,-7.241000175476074 12.199999809265137,-7.241000175476074 C12.293000221252441,-7.449999809265137 12.369999885559082,-7.664000034332275 12.430999755859375,-7.883999824523926 C12.430999755859375,-7.883999824523926 13.64799976348877,-8.164999961853027 13.64799976348877,-8.164999961853027 C13.857000350952148,-8.213000297546387 14.001999855041504,-8.404999732971191 13.991000175476074,-8.619000434875488 C13.991000175476074,-8.619000434875488 13.913999557495117,-10.135000228881836 13.913999557495117,-10.135000228881836 C13.902999877929688,-10.348999977111816 13.741000175476074,-10.526000022888184 13.527999877929688,-10.553000450134277 C13.527999877929688,-10.553000450134277 12.288000106811523,-10.708999633789062 12.288000106811523,-10.708999633789062 C12.206000328063965,-10.920999526977539 12.107999801635742,-11.128000259399414 11.994000434875488,-11.326000213623047 C11.994000434875488,-11.326000213623047 12.652999877929688,-12.37600040435791 12.652999877929688,-12.37600040435791 C12.767999649047852,-12.559000015258789 12.734999656677246,-12.79699993133545 12.574000358581543,-12.940999984741211 C12.574000358581543,-12.940999984741211 11.439000129699707,-13.958999633789062 11.439000129699707,-13.958999633789062 C11.279999732971191,-14.10099983215332 11.043000221252441,-14.111000061035156 10.87399959564209,-13.980999946594238 C10.87399959564209,-13.980999946594238 9.883999824523926,-13.220999717712402 9.883999824523926,-13.220999717712402 C9.67199993133545,-13.314000129699707 9.454999923706055,-13.392000198364258 9.232000350952148,-13.45199966430664 C9.232000350952148,-13.45199966430664 8.949999809265137,-14.657999992370605 8.949999809265137,-14.657999992370605 C8.901000022888184,-14.866999626159668 8.710000038146973,-15.01099967956543 8.496999740600586,-14.99899959564209 C8.496999740600586,-14.99899959564209 6.968999862670898,-14.92199993133545 6.968999862670898,-14.92199993133545 C6.755000114440918,-14.91100025177002 6.578999996185303,-14.74899959564209 6.552000045776367,-14.536999702453613 C6.552000045776367,-14.536999702453613 6.39300012588501,-13.307999610900879 6.39300012588501,-13.307999610900879 C6.177999973297119,-13.22599983215332 5.968999862670898,-13.126999855041504 5.76800012588501,-13.012999534606934 C5.76800012588501,-13.012999534606934 4.705999851226807,-13.668999671936035 4.705999851226807,-13.668999671936035 C4.525000095367432,-13.781000137329102 4.289000034332275,-13.74899959564209 4.145999908447266,-13.590999603271484 C4.145999908447266,-13.590999603271484 3.119999885559082,-12.46399974822998 3.119999885559082,-12.46399974822998 C2.9749999046325684,-12.305000305175781 2.9649999141693115,-12.062999725341797 3.0980000495910645,-11.892999649047852 C3.0980000495910645,-11.892999649047852 3.859999895095825,-10.914999961853027 3.859999895095825,-10.914999961853027 C3.7869999408721924,-10.753000259399414 3.7249999046325684,-10.586000442504883 3.671999931335449,-10.416999816894531 C3.671999931335449,-10.416999816894531 1.5980000495910645,-11.32699966430664 1.5980000495910645,-11.32699966430664 C1.340999960899353,-11.411999702453613 1.1469999551773071,-11.336000442504883 1.0149999856948853,-11.098999977111816 C1.0149999856948853,-11.098999977111816 -0.7459999918937683,-7.083000183105469 -0.7459999918937683,-7.083000183105469 C-0.7459999918937683,-7.083000183105469 -0.7459999918937683,-13.963000297546387 -0.7459999918937683,-13.963000297546387 C-0.7459999918937683,-14.53600025177002 -1.6319999694824219,-14.53600025177002 -1.6319999694824219,-13.963000297546387 C-1.6319999694824219,-13.963000297546387 -1.6319999694824219,-12.02299976348877 -1.6319999694824219,-12.02299976348877 C-4.666999816894531,-11.895000457763672 -7.4670000076293945,-10.291000366210938 -9.14799976348877,-7.705999851226807 C-9.449999809265137,-7.242000102996826 -8.732999801635742,-6.718999862670898 -8.404999732971191,-7.2230000495910645 C-6.888000011444092,-9.557000160217285 -4.367000102996826,-11.008999824523926 -1.6319999694824219,-11.13700008392334 C-1.6319999694824219,-11.13700008392334 -1.6319999694824219,7.613999843597412 -1.6319999694824219,7.613999843597412 C-1.6319999694824219,7.613999843597412 -4.36299991607666,7.613999843597412 -4.36299991607666,7.613999843597412 C-4.736000061035156,7.613999843597412 -5.038000106811523,7.309000015258789 -5.038000106811523,6.934000015258789 C-5.038000106811523,6.934000015258789 -5.038000106811523,5.415999889373779 -5.038000106811523,5.415999889373779 C-5.038000106811523,5.252999782562256 -5.127999782562256,5.103000164031982 -5.270999908447266,5.026000022888184 C-8.08899974822998,3.507999897003174 -9.821000099182129,0.5730000138282776 -9.791000366210938,-2.634999990463257 C-9.782999992370605,-3.4730000495910645 -9.652999877929688,-4.302999973297119 -9.404000282287598,-5.099999904632568 C-9.232999801635742,-5.646999835968018 -10.079000473022461,-5.910999774932861 -10.25,-5.363999843597412 C-10.524999618530273,-4.484000205993652 -10.668000221252441,-3.569000005722046 -10.677000045776367,-2.6440000534057617 C-10.708999633789062,0.8040000200271606 -8.895000457763672,3.9679999351501465 -5.923999786376953,5.676000118255615 C-5.923999786376953,5.676000118255615 -5.923999786376953,6.934000015258789 -5.923999786376953,6.934000015258789 C-5.923999786376953,7.64300012588501 -5.451000213623047,8.243000030517578 -4.804999828338623,8.4350004196167 C-4.804999828338623,8.4350004196167 -4.804999828338623,10.532999992370605 -4.804999828338623,10.532999992370605 C-4.804999828338623,11.887999534606934 -3.703000068664551,12.989999771118164 -2.3480000495910645,12.989999771118164 C-2.3480000495910645,12.989999771118164 -1.6319999694824219,12.989999771118164 -1.6319999694824219,12.989999771118164 C-1.6319999694824219,12.989999771118164 -1.6319999694824219,14.557000160217285 -1.6319999694824219,14.557000160217285 C-1.6319999694824219,15.130000114440918 -0.7459999918937683,15.130000114440918 -0.7459999918937683,14.557000160217285 C-0.7459999918937683,14.557000160217285 -0.7459999918937683,3.9570000171661377 -0.7459999918937683,3.9570000171661377 C-0.7459999918937683,3.9570000171661377 3.7660000324249268,5.934999942779541 3.7660000324249268,5.934999942779541 C3.7660000324249268,5.934999942779541 3.6649999618530273,6.513999938964844 3.6649999618530273,6.513999938964844 C3.5160000324249268,6.565000057220459 3.369999885559082,6.624000072479248 3.2290000915527344,6.692999839782715 C3.2290000915527344,6.692999839782715 2.434000015258789,6.138999938964844 2.434000015258789,6.138999938964844 C2.257999897003174,6.015999794006348 2.0199999809265137,6.0370001792907715 1.8680000305175781,6.189000129699707 C1.8680000305175781,6.189000129699707 0.9929999709129333,7.065000057220459 0.9929999709129333,7.065000057220459 C0.8410000205039978,7.2170000076293945 0.8199999928474426,7.454999923706055 0.9430000185966492,7.63100004196167 C0.9430000185966492,7.63100004196167 1.4980000257492065,8.425999641418457 1.4980000257492065,8.425999641418457 C1.4290000200271606,8.567000389099121 1.3700000047683716,8.713000297546387 1.319000005722046,8.862000465393066 C1.319000005722046,8.862000465393066 0.3720000088214874,9.029000282287598 0.3720000088214874,9.029000282287598 C0.1599999964237213,9.067000389099121 0.004999999888241291,9.25100040435791 0.006000000052154064,9.467000007629395 C0.006000000052154064,9.467000007629395 0.012000000104308128,10.708999633789062 0.012000000104308128,10.708999633789062 C0.013000000268220901,10.92199993133545 0.16500000655651093,11.104999542236328 0.375,11.142999649047852 C0.375,11.142999649047852 1.3270000219345093,11.317000389099121 1.3270000219345093,11.317000389099121 C1.378999948501587,11.468000411987305 1.4420000314712524,11.614999771118164 1.5119999647140503,11.758000373840332 C1.5119999647140503,11.758000373840332 0.9639999866485596,12.54800033569336 0.9639999866485596,12.54800033569336 C0.8420000076293945,12.723999977111816 0.8640000224113464,12.961999893188477 1.0160000324249268,13.11299991607666 C1.0160000324249268,13.11299991607666 1.8969999551773071,13.994000434875488 1.8969999551773071,13.994000434875488 C2.0490000247955322,14.145000457763672 2.2869999408721924,14.166999816894531 2.4630000591278076,14.045000076293945 C2.4630000591278076,14.045000076293945 3.252000093460083,13.496999740600586 3.252000093460083,13.496999740600586 C3.3949999809265137,13.567000389099121 3.5420000553131104,13.628000259399414 3.693000078201294,13.680000305175781 C3.693000078201294,13.680000305175781 3.868000030517578,14.633000373840332 3.868000030517578,14.633000373840332 C3.9059998989105225,14.843000411987305 4.089000225067139,14.994999885559082 4.302000045776367,14.996000289916992 C4.302000045776367,14.996000289916992 5.544000148773193,15 5.544000148773193,15 C5.544000148773193,15 5.546000003814697,15 5.546000003814697,15 C5.761000156402588,15 5.945000171661377,14.845999717712402 5.98199987411499,14.633999824523926 C5.98199987411499,14.633999824523926 6.1479997634887695,13.685999870300293 6.1479997634887695,13.685999870300293 C6.296999931335449,13.635000228881836 6.442999839782715,13.576000213623047 6.584000110626221,13.506999969482422 C6.584000110626221,13.506999969482422 7.379000186920166,14.060999870300293 7.379000186920166,14.060999870300293 C7.554999828338623,14.184000015258789 7.794000148773193,14.163000106811523 7.946000099182129,14.01099967956543 C7.946000099182129,14.01099967956543 8.819999694824219,13.135000228881836 8.819999694824219,13.135000228881836 C8.972000122070312,12.982999801635742 8.993000030517578,12.744999885559082 8.869999885559082,12.569000244140625 C8.869999885559082,12.569000244140625 8.3149995803833,11.77400016784668 8.3149995803833,11.77400016784668 C8.383999824523926,11.633000373840332 8.442999839782715,11.48799991607666 8.494000434875488,11.33899974822998 C8.494000434875488,11.33899974822998 9.440999984741211,11.170999526977539 9.440999984741211,11.170999526977539 C9.652999877929688,11.133999824523926 9.807999610900879,10.949999809265137 9.807000160217285,10.734000205993652 C9.807000160217285,10.734000205993652 9.802000045776367,9.491000175476074 9.802000045776367,9.491000175476074 C9.800999641418457,9.277999877929688 9.64900016784668,9.095000267028809 9.439000129699707,9.057000160217285 C9.439000129699707,9.057000160217285 8.543000221252441,8.894000053405762 8.543000221252441,8.894000053405762 C9.810999870300293,8.887999534606934 11.097999572753906,8.887999534606934 12.350000381469727,8.887999534606934 C12.496000289916992,8.914999961853027 12.631999969482422,8.871999740600586 12.755999565124512,8.756999969482422 C12.755999565124512,8.756999969482422 14.616999626159668,6.7769999504089355 14.616999626159668,6.7769999504089355 C14.694000244140625,6.695000171661377 14.737000465393066,6.586999893188477 14.737000465393066,6.473999977111816 C14.737000465393066,6.473999977111816 14.737000465393066,-1.0720000267028809 14.737000465393066,-1.0720000267028809 C14.737000465393066,-1.0800000429153442 14.736000061035156,-1.0870000123977661 14.736000061035156,-1.093999981880188z M13.270000457763672,-0.6290000081062317 C13.270000457763672,-0.6290000081062317 12.26099967956543,0.4440000057220459 12.26099967956543,0.4440000057220459 C12.26099967956543,0.4440000057220459 5.9070000648498535,0.4440000057220459 5.9070000648498535,0.4440000057220459 C5.9070000648498535,0.4440000057220459 6.915999889373779,-0.6290000081062317 6.915999889373779,-0.6290000081062317 C6.915999889373779,-0.6290000081062317 13.270000457763672,-0.6290000081062317 13.270000457763672,-0.6290000081062317z M8.272000312805176,-8.258999824523926 C8.229999542236328,-8.366000175476074 8.142000198364258,-8.456999778747559 8.036999702453613,-8.503000259399414 C8.036999702453613,-8.503000259399414 6.355999946594238,-9.239999771118164 6.355999946594238,-9.239999771118164 C6.435999870300293,-10.04699993133545 7.104000091552734,-10.699000358581543 7.946000099182129,-10.741999626159668 C8.873000144958496,-10.786999702453613 9.663999557495117,-10.079999923706055 9.710000038146973,-9.161999702453613 C9.748000144958496,-8.40999984741211 9.269000053405762,-7.734000205993652 8.567999839782715,-7.499000072479248 C8.567999839782715,-7.499000072479248 8.272000312805176,-8.258999824523926 8.272000312805176,-8.258999824523926z M7.834000110626221,-6.943999767303467 C7.834000110626221,-6.943999767303467 8.312000274658203,-5.716000080108643 8.312000274658203,-5.716000080108643 C8.312000274658203,-5.716000080108643 8.817999839782715,-4.416999816894531 8.817999839782715,-4.416999816894531 C8.817999839782715,-4.416999816894531 7.059999942779541,-5.192999839782715 7.059999942779541,-5.192999839782715 C7.059999942779541,-5.192999839782715 7.834000110626221,-6.943999767303467 7.834000110626221,-6.943999767303467z M4.728000164031982,-11.241000175476074 C4.728000164031982,-11.241000175476074 4.026000022888184,-12.142999649047852 4.026000022888184,-12.142999649047852 C4.026000022888184,-12.142999649047852 4.552999973297119,-12.722000122070312 4.552999973297119,-12.722000122070312 C4.552999973297119,-12.722000122070312 5.5329999923706055,-12.116000175476074 5.5329999923706055,-12.116000175476074 C5.678999900817871,-12.026000022888184 5.864999771118164,-12.029000282287598 6.008999824523926,-12.123000144958496 C6.295000076293945,-12.3100004196167 6.604000091552734,-12.456000328063965 6.928999900817871,-12.557000160217285 C7.093999862670898,-12.607999801635742 7.214000225067139,-12.75100040435791 7.236000061035156,-12.92300033569336 C7.236000061035156,-12.92300033569336 7.382999897003174,-14.055999755859375 7.382999897003174,-14.055999755859375 C7.382999897003174,-14.055999755859375 8.17199993133545,-14.095999717712402 8.17199993133545,-14.095999717712402 C8.17199993133545,-14.095999717712402 8.432000160217285,-12.984000205993652 8.432000160217285,-12.984000205993652 C8.470999717712402,-12.8149995803833 8.604999542236328,-12.6850004196167 8.774999618530273,-12.649999618530273 C9.107999801635742,-12.581999778747559 9.430999755859375,-12.468000411987305 9.734000205993652,-12.310999870300293 C9.88700008392334,-12.232000350952148 10.071999549865723,-12.248000144958496 10.208000183105469,-12.352999687194824 C10.208000183105469,-12.352999687194824 11.121000289916992,-13.053999900817871 11.121000289916992,-13.053999900817871 C11.121000289916992,-13.053999900817871 11.704000473022461,-12.531000137329102 11.704000473022461,-12.531000137329102 C11.704000473022461,-12.531000137329102 11.097000122070312,-11.562999725341797 11.097000122070312,-11.562999725341797 C11.003999710083008,-11.416000366210938 11.006999969482422,-11.227999687194824 11.102999687194824,-11.083000183105469 C11.291000366210938,-10.800000190734863 11.437999725341797,-10.493000030517578 11.538999557495117,-10.170999526977539 C11.590999603271484,-10.005999565124512 11.734000205993652,-9.88700008392334 11.906000137329102,-9.864999771118164 C11.906000137329102,-9.864999771118164 13.04800033569336,-9.720000267028809 13.04800033569336,-9.720000267028809 C13.04800033569336,-9.720000267028809 13.086999893188477,-8.944000244140625 13.086999893188477,-8.944000244140625 C13.086999893188477,-8.944000244140625 11.96500015258789,-8.6850004196167 11.96500015258789,-8.6850004196167 C11.795999526977539,-8.645999908447266 11.666000366210938,-8.51200008392334 11.630999565124512,-8.343000411987305 C11.562999725341797,-8.012999534606934 11.447999954223633,-7.693999767303467 11.288999557495117,-7.39300012588501 C11.208000183105469,-7.238999843597412 11.225000381469727,-7.051000118255615 11.331999778747559,-6.914000034332275 C11.331999778747559,-6.914000034332275 12.034000396728516,-6.01200008392334 12.034000396728516,-6.01200008392334 C12.034000396728516,-6.01200008392334 11.506999969482422,-5.433000087738037 11.506999969482422,-5.433000087738037 C11.506999969482422,-5.433000087738037 10.527000427246094,-6.039000034332275 10.527000427246094,-6.039000034332275 C10.380999565124512,-6.129000186920166 10.194999694824219,-6.125999927520752 10.050999641418457,-6.0320000648498535 C9.812000274658203,-5.875 9.555999755859375,-5.748000144958496 9.288000106811523,-5.651000022888184 C9.288000106811523,-5.651000022888184 8.888999938964844,-6.672999858856201 8.888999938964844,-6.672999858856201 C9.939000129699707,-7.044000148773193 10.651000022888184,-8.069000244140625 10.593999862670898,-9.206999778747559 C10.52299976348877,-10.612000465393066 9.3149995803833,-11.699000358581543 7.901000022888184,-11.626999855041504 C6.715000152587891,-11.567000389099121 5.75600004196167,-10.711999893188477 5.519000053405762,-9.607999801635742 C5.519000053405762,-9.607999801635742 4.488999843597412,-10.059000015258789 4.488999843597412,-10.059000015258789 C4.558000087738037,-10.302000045776367 4.651000022888184,-10.538000106811523 4.769999980926514,-10.762999534606934 C4.85099983215332,-10.916999816894531 4.835000038146973,-11.104000091552734 4.728000164031982,-11.241000175476074z M-2.3489999771118164,12.104999542236328 C-3.2149999141693115,12.104999542236328 -3.9200000762939453,11.39900016784668 -3.9200000762939453,10.532999992370605 C-3.9200000762939453,10.532999992370605 -3.9200000762939453,8.5 -3.9200000762939453,8.5 C-3.9200000762939453,8.5 -1.6319999694824219,8.5 -1.6319999694824219,8.5 C-1.6319999694824219,8.5 -1.6319999694824219,12.104999542236328 -1.6319999694824219,12.104999542236328 C-1.6319999694824219,12.104999542236328 -2.3489999771118164,12.104999542236328 -2.3489999771118164,12.104999542236328z M-0.7459999918937683,-4.876999855041504 C-0.7459999918937683,-4.876999855041504 1.6480000019073486,-10.338000297546387 1.6480000019073486,-10.338000297546387 C1.6480000019073486,-10.338000297546387 7.275000095367432,-7.870999813079834 7.275000095367432,-7.870999813079834 C7.275000095367432,-7.870999813079834 6.071000099182129,-5.145999908447266 6.071000099182129,-5.145999908447266 C5.985000133514404,-4.888999938964844 6.059999942779541,-4.693999767303467 6.296999931335449,-4.561999797821045 C6.296999931335449,-4.561999797821045 9.036999702453613,-3.3519999980926514 9.036999702453613,-3.3519999980926514 C9.036999702453613,-3.3519999980926514 8.232000350952148,-1.5149999856948853 8.232000350952148,-1.5149999856948853 C8.232000350952148,-1.5149999856948853 6.723999977111816,-1.5149999856948853 6.723999977111816,-1.5149999856948853 C6.6020002365112305,-1.5149999856948853 6.486000061035156,-1.4639999866485596 6.4019999504089355,-1.375 C6.4019999504089355,-1.375 4.539999961853027,0.6039999723434448 4.539999961853027,0.6039999723434448 C4.448999881744385,0.7009999752044678 4.401000022888184,0.9599999785423279 4.4120001792907715,1.0989999771118164 C4.4120001792907715,1.0989999771118164 4.4120001792907715,5.201000213623047 4.4120001792907715,5.201000213623047 C4.4120001792907715,5.201000213623047 4.296000003814697,5.201000213623047 4.296000003814697,5.201000213623047 C4.296000003814697,5.201000213623047 -0.7459999918937683,2.990000009536743 -0.7459999918937683,2.990000009536743 C-0.7459999918937683,2.990000009536743 -0.7459999918937683,-4.876999855041504 -0.7459999918937683,-4.876999855041504z M8.920000076293945,10.36400032043457 C8.920000076293945,10.36400032043457 8.071000099182129,10.513999938964844 8.071000099182129,10.513999938964844 C7.89900016784668,10.543999671936035 7.761000156402588,10.67199993133545 7.7179999351501465,10.840999603271484 C7.6519999504089355,11.10200023651123 7.550000190734863,11.35099983215332 7.414999961853027,11.581000328063965 C7.328000068664551,11.729999542236328 7.335000038146973,11.916999816894531 7.434000015258789,12.059000015258789 C7.434000015258789,12.059000015258789 7.932000160217285,12.772000312805176 7.932000160217285,12.772000312805176 C7.932000160217285,12.772000312805176 7.580999851226807,13.123000144958496 7.580999851226807,13.123000144958496 C7.580999851226807,13.123000144958496 6.867000102996826,12.625 6.867000102996826,12.625 C6.724999904632568,12.526000022888184 6.539000034332275,12.519000053405762 6.389999866485596,12.607000350952148 C6.159999847412109,12.741999626159668 5.910999774932861,12.843999862670898 5.650000095367432,12.91100025177002 C5.480999946594238,12.954000473022461 5.353000164031982,13.092000007629395 5.322999954223633,13.263999938964844 C5.322999954223633,13.263999938964844 5.173999786376953,14.11299991607666 5.173999786376953,14.11299991607666 C5.173999786376953,14.11299991607666 4.672999858856201,14.111000061035156 4.672999858856201,14.111000061035156 C4.672999858856201,14.111000061035156 4.515999794006348,13.255000114440918 4.515999794006348,13.255000114440918 C4.485000133514404,13.086000442504883 4.357999801635742,12.949999809265137 4.191999912261963,12.906000137329102 C3.930000066757202,12.838000297546387 3.680000066757202,12.734000205993652 3.447999954223633,12.597000122070312 C3.2990000247955322,12.508999824523926 3.111999988555908,12.515000343322754 2.9700000286102295,12.61400032043457 C2.9700000286102295,12.61400032043457 2.26200008392334,13.105999946594238 2.26200008392334,13.105999946594238 C2.26200008392334,13.105999946594238 1.902999997138977,12.748000144958496 1.902999997138977,12.748000144958496 C1.902999997138977,12.748000144958496 2.3940000534057617,12.038999557495117 2.3940000534057617,12.038999557495117 C2.493000030517578,11.897000312805176 2.499000072479248,11.710000038146973 2.4110000133514404,11.560999870300293 C2.2739999294281006,11.329000473022461 2.1700000762939453,11.079000473022461 2.1010000705718994,10.817000389099121 C2.056999921798706,10.651000022888184 1.9210000038146973,10.524999618530273 1.7519999742507935,10.494000434875488 C1.7519999742507935,10.494000434875488 0.8960000276565552,10.336999893188477 0.8960000276565552,10.336999893188477 C0.8960000276565552,10.336999893188477 0.8930000066757202,9.836000442504883 0.8930000066757202,9.836000442504883 C0.8930000066757202,9.836000442504883 1.7419999837875366,9.685999870300293 1.7419999837875366,9.685999870300293 C1.9129999876022339,9.656000137329102 2.052000045776367,9.527999877929688 2.0950000286102295,9.359000205993652 C2.1610000133514404,9.097999572753906 2.263000011444092,8.848999977111816 2.3980000019073486,8.619000434875488 C2.484999895095825,8.470000267028809 2.4790000915527344,8.284000396728516 2.380000114440918,8.142000198364258 C2.380000114440918,8.142000198364258 1.8819999694824219,7.427999973297119 1.8819999694824219,7.427999973297119 C1.8819999694824219,7.427999973297119 2.2320001125335693,7.078000068664551 2.2320001125335693,7.078000068664551 C2.2320001125335693,7.078000068664551 2.946000099182129,7.574999809265137 2.946000099182129,7.574999809265137 C3.0880000591278076,7.673999786376953 3.2739999294281006,7.682000160217285 3.4230000972747803,7.593999862670898 C3.6530001163482666,7.459000110626221 3.9019999504089355,7.355999946594238 4.163000106811523,7.289000034332275 C4.331999778747559,7.245999813079834 4.460000038146973,7.109000205993652 4.489999771118164,6.936999797821045 C4.489999771118164,6.936999797821045 4.638999938964844,6.086999893188477 4.638999938964844,6.086999893188477 C4.638999938964844,6.086999893188477 5.139999866485596,6.089000225067139 5.139999866485596,6.089000225067139 C5.139999866485596,6.089000225067139 5.296999931335449,6.945000171661377 5.296999931335449,6.945000171661377 C5.328000068664551,7.113999843597412 5.454999923706055,7.250999927520752 5.620999813079834,7.294000148773193 C5.882999897003174,7.361999988555908 6.132999897003174,7.4670000076293945 6.364999771118164,7.604000091552734 C6.513999938964844,7.691999912261963 6.701000213623047,7.684999942779541 6.8429999351501465,7.585999965667725 C6.8429999351501465,7.585999965667725 7.551000118255615,7.093999862670898 7.551000118255615,7.093999862670898 C7.551000118255615,7.093999862670898 7.909999847412109,7.452000141143799 7.909999847412109,7.452000141143799 C7.909999847412109,7.452000141143799 7.419000148773193,8.16100025177002 7.419000148773193,8.16100025177002 C7.320000171661377,8.303000450134277 7.314000129699707,8.489999771118164 7.4019999504089355,8.638999938964844 C7.539000034332275,8.871000289916992 7.64300012588501,9.121000289916992 7.711999893188477,9.383000373840332 C7.75600004196167,9.548999786376953 7.892000198364258,9.675000190734863 8.060999870300293,9.706000328063965 C8.060999870300293,9.706000328063965 8.916999816894531,9.86299991607666 8.916999816894531,9.86299991607666 C8.916999816894531,9.86299991607666 8.920000076293945,10.36400032043457 8.920000076293945,10.36400032043457z M12.876999855041504,7.335000038146973 C12.876999855041504,6.89900016784668 12.87600040435791,5.821000099182129 12.87600040435791,5.821000099182129 C12.87600040435791,5.248000144958496 11.989999771118164,5.248000144958496 11.989999771118164,5.821000099182129 C11.989999771118164,5.821000099182129 11.989999771118164,8.003000259399414 11.989999771118164,8.003000259399414 C10.871999740600586,8.003000259399414 9.730999946594238,8.003000259399414 8.602999687194824,8.008000373840332 C8.602999687194824,8.008000373840332 8.848999977111816,7.6529998779296875 8.848999977111816,7.6529998779296875 C8.970999717712402,7.4770002365112305 8.949999809265137,7.23799991607666 8.79800033569336,7.086999893188477 C8.79800033569336,7.086999893188477 7.915999889373779,6.205999851226807 7.915999889373779,6.205999851226807 C7.763999938964844,6.054999828338623 7.526000022888184,6.033999919891357 7.349999904632568,6.156000137329102 C7.349999904632568,6.156000137329102 6.561999797821045,6.703999996185303 6.561999797821045,6.703999996185303 C6.419000148773193,6.633999824523926 6.270999908447266,6.572000026702881 6.119999885559082,6.519999980926514 C6.119999885559082,6.519999980926514 5.945000171661377,5.566999912261963 5.945000171661377,5.566999912261963 C5.888999938964844,5.263000011444092 5.567999839782715,5.164999961853027 5.303999900817871,5.203999996185303 C5.296999931335449,4.711999893188477 5.349999904632568,2.1389999389648438 5.303999900817871,1.350000023841858 C5.303999900817871,1.350000023841858 11.989999771118164,1.350000023841858 11.989999771118164,1.350000023841858 C11.989999771118164,1.350000023841858 11.989999771118164,3.509000062942505 11.989999771118164,3.509000062942505 C11.989999771118164,4.081999778747559 12.87600040435791,4.081999778747559 12.87600040435791,3.509000062942505 C12.87600040435791,3.509000062942505 12.876999855041504,1.843999981880188 12.876999855041504,1.0820000171661377 C12.876999855041504,1.0820000171661377 13.85200023651123,0.04600000008940697 13.85200023651123,0.04600000008940697 C13.85200023651123,0.04600000008940697 13.85200023651123,6.298999786376953 13.85200023651123,6.298999786376953 C13.85200023651123,6.298999786376953 12.876999855041504,7.335000038146973 12.876999855041504,7.335000038146973z"></path></g></g><g transform="matrix(1,0,0,1,488,566)" opacity="1" style="display: block;"><g opacity="1" transform="matrix(1,0,0,1,279,-289)"><path stroke-linecap="butt" stroke-linejoin="miter" fill-opacity="0" stroke-miterlimit="4" stroke="rgb(91,255,79)" stroke-opacity="1" stroke-width="27" d=" M0,-59 C32.56209945678711,-59 59,-32.56209945678711 59,0 C59,32.56209945678711 32.56209945678711,59 0,59 C-32.56209945678711,59 -59,32.56209945678711 -59,0 C-59,-32.56209945678711 -32.56209945678711,-59 0,-59z"></path></g></g></g></g><g mask="url(#__lottie_element_355)" transform="matrix(28.3700008392334,0,0,28.3700008392334,539.9968872070312,539.9990234375)" opacity="1" style="display: block;"><g opacity="1" transform="matrix(1,0,0,1,0,0)"><path fill="rgb(92,255,79)" fill-opacity="1" d=" M14.736000061035156,-1.093999981880188 C14.725000381469727,-1.3250000476837158 14.526000022888184,-1.5149999856948853 14.293999671936035,-1.5149999856948853 C14.293999671936035,-1.5149999856948853 9.199000358581543,-1.5149999856948853 9.199000358581543,-1.5149999856948853 C9.199000358581543,-1.5149999856948853 10.024999618530273,-3.4000000953674316 10.024999618530273,-3.4000000953674316 C10.071999549865723,-3.50600004196167 10.074999809265137,-3.63100004196167 10.032999992370605,-3.739000082015991 C10.032999992370605,-3.739000082015991 9.609000205993652,-4.826000213623047 9.609000205993652,-4.826000213623047 C9.845000267028809,-4.913000106811523 10.072999954223633,-5.01800012588501 10.291999816894531,-5.142000198364258 C10.291999816894531,-5.142000198364258 11.354000091552734,-4.486000061035156 11.354000091552734,-4.486000061035156 C11.550000190734863,-4.376999855041504 11.737000465393066,-4.4019999504089355 11.913999557495117,-4.564000129699707 C11.913999557495117,-4.564000129699707 12.9399995803833,-5.691999912261963 12.9399995803833,-5.691999912261963 C13.085000038146973,-5.85099983215332 13.095000267028809,-6.0920000076293945 12.961999893188477,-6.26200008392334 C12.961999893188477,-6.26200008392334 12.199999809265137,-7.241000175476074 12.199999809265137,-7.241000175476074 C12.293000221252441,-7.449999809265137 12.369999885559082,-7.664000034332275 12.430999755859375,-7.883999824523926 C12.430999755859375,-7.883999824523926 13.64799976348877,-8.164999961853027 13.64799976348877,-8.164999961853027 C13.857000350952148,-8.213000297546387 14.001999855041504,-8.404999732971191 13.991000175476074,-8.619000434875488 C13.991000175476074,-8.619000434875488 13.913999557495117,-10.135000228881836 13.913999557495117,-10.135000228881836 C13.902999877929688,-10.348999977111816 13.741000175476074,-10.526000022888184 13.527999877929688,-10.553000450134277 C13.527999877929688,-10.553000450134277 12.288000106811523,-10.708999633789062 12.288000106811523,-10.708999633789062 C12.206000328063965,-10.920999526977539 12.107999801635742,-11.128000259399414 11.994000434875488,-11.326000213623047 C11.994000434875488,-11.326000213623047 12.652999877929688,-12.37600040435791 12.652999877929688,-12.37600040435791 C12.767999649047852,-12.559000015258789 12.734999656677246,-12.79699993133545 12.574000358581543,-12.940999984741211 C12.574000358581543,-12.940999984741211 11.439000129699707,-13.958999633789062 11.439000129699707,-13.958999633789062 C11.279999732971191,-14.10099983215332 11.043000221252441,-14.111000061035156 10.87399959564209,-13.980999946594238 C10.87399959564209,-13.980999946594238 9.883999824523926,-13.220999717712402 9.883999824523926,-13.220999717712402 C9.67199993133545,-13.314000129699707 9.454999923706055,-13.392000198364258 9.232000350952148,-13.45199966430664 C9.232000350952148,-13.45199966430664 8.949999809265137,-14.657999992370605 8.949999809265137,-14.657999992370605 C8.901000022888184,-14.866999626159668 8.710000038146973,-15.01099967956543 8.496999740600586,-14.99899959564209 C8.496999740600586,-14.99899959564209 6.968999862670898,-14.92199993133545 6.968999862670898,-14.92199993133545 C6.755000114440918,-14.91100025177002 6.578999996185303,-14.74899959564209 6.552000045776367,-14.536999702453613 C6.552000045776367,-14.536999702453613 6.39300012588501,-13.307999610900879 6.39300012588501,-13.307999610900879 C6.177999973297119,-13.22599983215332 5.968999862670898,-13.126999855041504 5.76800012588501,-13.012999534606934 C5.76800012588501,-13.012999534606934 4.705999851226807,-13.668999671936035 4.705999851226807,-13.668999671936035 C4.525000095367432,-13.781000137329102 4.289000034332275,-13.74899959564209 4.145999908447266,-13.590999603271484 C4.145999908447266,-13.590999603271484 3.119999885559082,-12.46399974822998 3.119999885559082,-12.46399974822998 C2.9749999046325684,-12.305000305175781 2.9649999141693115,-12.062999725341797 3.0980000495910645,-11.892999649047852 C3.0980000495910645,-11.892999649047852 3.859999895095825,-10.914999961853027 3.859999895095825,-10.914999961853027 C3.7869999408721924,-10.753000259399414 3.7249999046325684,-10.586000442504883 3.671999931335449,-10.416999816894531 C3.671999931335449,-10.416999816894531 1.5980000495910645,-11.32699966430664 1.5980000495910645,-11.32699966430664 C1.340999960899353,-11.411999702453613 1.1469999551773071,-11.336000442504883 1.0149999856948853,-11.098999977111816 C1.0149999856948853,-11.098999977111816 -0.7459999918937683,-7.083000183105469 -0.7459999918937683,-7.083000183105469 C-0.7459999918937683,-7.083000183105469 -0.7459999918937683,-13.963000297546387 -0.7459999918937683,-13.963000297546387 C-0.7459999918937683,-14.53600025177002 -1.6319999694824219,-14.53600025177002 -1.6319999694824219,-13.963000297546387 C-1.6319999694824219,-13.963000297546387 -1.6319999694824219,-12.02299976348877 -1.6319999694824219,-12.02299976348877 C-4.666999816894531,-11.895000457763672 -7.4670000076293945,-10.291000366210938 -9.14799976348877,-7.705999851226807 C-9.449999809265137,-7.242000102996826 -8.732999801635742,-6.718999862670898 -8.404999732971191,-7.2230000495910645 C-6.888000011444092,-9.557000160217285 -4.367000102996826,-11.008999824523926 -1.6319999694824219,-11.13700008392334 C-1.6319999694824219,-11.13700008392334 -1.6319999694824219,7.613999843597412 -1.6319999694824219,7.613999843597412 C-1.6319999694824219,7.613999843597412 -4.36299991607666,7.613999843597412 -4.36299991607666,7.613999843597412 C-4.736000061035156,7.613999843597412 -5.038000106811523,7.309000015258789 -5.038000106811523,6.934000015258789 C-5.038000106811523,6.934000015258789 -5.038000106811523,5.415999889373779 -5.038000106811523,5.415999889373779 C-5.038000106811523,5.252999782562256 -5.127999782562256,5.103000164031982 -5.270999908447266,5.026000022888184 C-8.08899974822998,3.507999897003174 -9.821000099182129,0.5730000138282776 -9.791000366210938,-2.634999990463257 C-9.782999992370605,-3.4730000495910645 -9.652999877929688,-4.302999973297119 -9.404000282287598,-5.099999904632568 C-9.232999801635742,-5.646999835968018 -10.079000473022461,-5.910999774932861 -10.25,-5.363999843597412 C-10.524999618530273,-4.484000205993652 -10.668000221252441,-3.569000005722046 -10.677000045776367,-2.6440000534057617 C-10.708999633789062,0.8040000200271606 -8.895000457763672,3.9679999351501465 -5.923999786376953,5.676000118255615 C-5.923999786376953,5.676000118255615 -5.923999786376953,6.934000015258789 -5.923999786376953,6.934000015258789 C-5.923999786376953,7.64300012588501 -5.451000213623047,8.243000030517578 -4.804999828338623,8.4350004196167 C-4.804999828338623,8.4350004196167 -4.804999828338623,10.532999992370605 -4.804999828338623,10.532999992370605 C-4.804999828338623,11.887999534606934 -3.703000068664551,12.989999771118164 -2.3480000495910645,12.989999771118164 C-2.3480000495910645,12.989999771118164 -1.6319999694824219,12.989999771118164 -1.6319999694824219,12.989999771118164 C-1.6319999694824219,12.989999771118164 -1.6319999694824219,14.557000160217285 -1.6319999694824219,14.557000160217285 C-1.6319999694824219,15.130000114440918 -0.7459999918937683,15.130000114440918 -0.7459999918937683,14.557000160217285 C-0.7459999918937683,14.557000160217285 -0.7459999918937683,3.9570000171661377 -0.7459999918937683,3.9570000171661377 C-0.7459999918937683,3.9570000171661377 3.7660000324249268,5.934999942779541 3.7660000324249268,5.934999942779541 C3.7660000324249268,5.934999942779541 3.6649999618530273,6.513999938964844 3.6649999618530273,6.513999938964844 C3.5160000324249268,6.565000057220459 3.369999885559082,6.624000072479248 3.2290000915527344,6.692999839782715 C3.2290000915527344,6.692999839782715 2.434000015258789,6.138999938964844 2.434000015258789,6.138999938964844 C2.257999897003174,6.015999794006348 2.0199999809265137,6.0370001792907715 1.8680000305175781,6.189000129699707 C1.8680000305175781,6.189000129699707 0.9929999709129333,7.065000057220459 0.9929999709129333,7.065000057220459 C0.8410000205039978,7.2170000076293945 0.8199999928474426,7.454999923706055 0.9430000185966492,7.63100004196167 C0.9430000185966492,7.63100004196167 1.4980000257492065,8.425999641418457 1.4980000257492065,8.425999641418457 C1.4290000200271606,8.567000389099121 1.3700000047683716,8.713000297546387 1.319000005722046,8.862000465393066 C1.319000005722046,8.862000465393066 0.3720000088214874,9.029000282287598 0.3720000088214874,9.029000282287598 C0.1599999964237213,9.067000389099121 0.004999999888241291,9.25100040435791 0.006000000052154064,9.467000007629395 C0.006000000052154064,9.467000007629395 0.012000000104308128,10.708999633789062 0.012000000104308128,10.708999633789062 C0.013000000268220901,10.92199993133545 0.16500000655651093,11.104999542236328 0.375,11.142999649047852 C0.375,11.142999649047852 1.3270000219345093,11.317000389099121 1.3270000219345093,11.317000389099121 C1.378999948501587,11.468000411987305 1.4420000314712524,11.614999771118164 1.5119999647140503,11.758000373840332 C1.5119999647140503,11.758000373840332 0.9639999866485596,12.54800033569336 0.9639999866485596,12.54800033569336 C0.8420000076293945,12.723999977111816 0.8640000224113464,12.961999893188477 1.0160000324249268,13.11299991607666 C1.0160000324249268,13.11299991607666 1.8969999551773071,13.994000434875488 1.8969999551773071,13.994000434875488 C2.0490000247955322,14.145000457763672 2.2869999408721924,14.166999816894531 2.4630000591278076,14.045000076293945 C2.4630000591278076,14.045000076293945 3.252000093460083,13.496999740600586 3.252000093460083,13.496999740600586 C3.3949999809265137,13.567000389099121 3.5420000553131104,13.628000259399414 3.693000078201294,13.680000305175781 C3.693000078201294,13.680000305175781 3.868000030517578,14.633000373840332 3.868000030517578,14.633000373840332 C3.9059998989105225,14.843000411987305 4.089000225067139,14.994999885559082 4.302000045776367,14.996000289916992 C4.302000045776367,14.996000289916992 5.544000148773193,15 5.544000148773193,15 C5.544000148773193,15 5.546000003814697,15 5.546000003814697,15 C5.761000156402588,15 5.945000171661377,14.845999717712402 5.98199987411499,14.633999824523926 C5.98199987411499,14.633999824523926 6.1479997634887695,13.685999870300293 6.1479997634887695,13.685999870300293 C6.296999931335449,13.635000228881836 6.442999839782715,13.576000213623047 6.584000110626221,13.506999969482422 C6.584000110626221,13.506999969482422 7.379000186920166,14.060999870300293 7.379000186920166,14.060999870300293 C7.554999828338623,14.184000015258789 7.794000148773193,14.163000106811523 7.946000099182129,14.01099967956543 C7.946000099182129,14.01099967956543 8.819999694824219,13.135000228881836 8.819999694824219,13.135000228881836 C8.972000122070312,12.982999801635742 8.993000030517578,12.744999885559082 8.869999885559082,12.569000244140625 C8.869999885559082,12.569000244140625 8.3149995803833,11.77400016784668 8.3149995803833,11.77400016784668 C8.383999824523926,11.633000373840332 8.442999839782715,11.48799991607666 8.494000434875488,11.33899974822998 C8.494000434875488,11.33899974822998 9.440999984741211,11.170999526977539 9.440999984741211,11.170999526977539 C9.652999877929688,11.133999824523926 9.807999610900879,10.949999809265137 9.807000160217285,10.734000205993652 C9.807000160217285,10.734000205993652 9.802000045776367,9.491000175476074 9.802000045776367,9.491000175476074 C9.800999641418457,9.277999877929688 9.64900016784668,9.095000267028809 9.439000129699707,9.057000160217285 C9.439000129699707,9.057000160217285 8.543000221252441,8.894000053405762 8.543000221252441,8.894000053405762 C9.810999870300293,8.887999534606934 11.097999572753906,8.887999534606934 12.350000381469727,8.887999534606934 C12.496000289916992,8.914999961853027 12.631999969482422,8.871999740600586 12.755999565124512,8.756999969482422 C12.755999565124512,8.756999969482422 14.616999626159668,6.7769999504089355 14.616999626159668,6.7769999504089355 C14.694000244140625,6.695000171661377 14.737000465393066,6.586999893188477 14.737000465393066,6.473999977111816 C14.737000465393066,6.473999977111816 14.737000465393066,-1.0720000267028809 14.737000465393066,-1.0720000267028809 C14.737000465393066,-1.0800000429153442 14.736000061035156,-1.0870000123977661 14.736000061035156,-1.093999981880188z M13.270000457763672,-0.6290000081062317 C13.270000457763672,-0.6290000081062317 12.26099967956543,0.4440000057220459 12.26099967956543,0.4440000057220459 C12.26099967956543,0.4440000057220459 5.9070000648498535,0.4440000057220459 5.9070000648498535,0.4440000057220459 C5.9070000648498535,0.4440000057220459 6.915999889373779,-0.6290000081062317 6.915999889373779,-0.6290000081062317 C6.915999889373779,-0.6290000081062317 13.270000457763672,-0.6290000081062317 13.270000457763672,-0.6290000081062317z M8.272000312805176,-8.258999824523926 C8.229999542236328,-8.366000175476074 8.142000198364258,-8.456999778747559 8.036999702453613,-8.503000259399414 C8.036999702453613,-8.503000259399414 6.355999946594238,-9.239999771118164 6.355999946594238,-9.239999771118164 C6.435999870300293,-10.04699993133545 7.104000091552734,-10.699000358581543 7.946000099182129,-10.741999626159668 C8.873000144958496,-10.786999702453613 9.663999557495117,-10.079999923706055 9.710000038146973,-9.161999702453613 C9.748000144958496,-8.40999984741211 9.269000053405762,-7.734000205993652 8.567999839782715,-7.499000072479248 C8.567999839782715,-7.499000072479248 8.272000312805176,-8.258999824523926 8.272000312805176,-8.258999824523926z M7.834000110626221,-6.943999767303467 C7.834000110626221,-6.943999767303467 8.312000274658203,-5.716000080108643 8.312000274658203,-5.716000080108643 C8.312000274658203,-5.716000080108643 8.817999839782715,-4.416999816894531 8.817999839782715,-4.416999816894531 C8.817999839782715,-4.416999816894531 7.059999942779541,-5.192999839782715 7.059999942779541,-5.192999839782715 C7.059999942779541,-5.192999839782715 7.834000110626221,-6.943999767303467 7.834000110626221,-6.943999767303467z M4.728000164031982,-11.241000175476074 C4.728000164031982,-11.241000175476074 4.026000022888184,-12.142999649047852 4.026000022888184,-12.142999649047852 C4.026000022888184,-12.142999649047852 4.552999973297119,-12.722000122070312 4.552999973297119,-12.722000122070312 C4.552999973297119,-12.722000122070312 5.5329999923706055,-12.116000175476074 5.5329999923706055,-12.116000175476074 C5.678999900817871,-12.026000022888184 5.864999771118164,-12.029000282287598 6.008999824523926,-12.123000144958496 C6.295000076293945,-12.3100004196167 6.604000091552734,-12.456000328063965 6.928999900817871,-12.557000160217285 C7.093999862670898,-12.607999801635742 7.214000225067139,-12.75100040435791 7.236000061035156,-12.92300033569336 C7.236000061035156,-12.92300033569336 7.382999897003174,-14.055999755859375 7.382999897003174,-14.055999755859375 C7.382999897003174,-14.055999755859375 8.17199993133545,-14.095999717712402 8.17199993133545,-14.095999717712402 C8.17199993133545,-14.095999717712402 8.432000160217285,-12.984000205993652 8.432000160217285,-12.984000205993652 C8.470999717712402,-12.8149995803833 8.604999542236328,-12.6850004196167 8.774999618530273,-12.649999618530273 C9.107999801635742,-12.581999778747559 9.430999755859375,-12.468000411987305 9.734000205993652,-12.310999870300293 C9.88700008392334,-12.232000350952148 10.071999549865723,-12.248000144958496 10.208000183105469,-12.352999687194824 C10.208000183105469,-12.352999687194824 11.121000289916992,-13.053999900817871 11.121000289916992,-13.053999900817871 C11.121000289916992,-13.053999900817871 11.704000473022461,-12.531000137329102 11.704000473022461,-12.531000137329102 C11.704000473022461,-12.531000137329102 11.097000122070312,-11.562999725341797 11.097000122070312,-11.562999725341797 C11.003999710083008,-11.416000366210938 11.006999969482422,-11.227999687194824 11.102999687194824,-11.083000183105469 C11.291000366210938,-10.800000190734863 11.437999725341797,-10.493000030517578 11.538999557495117,-10.170999526977539 C11.590999603271484,-10.005999565124512 11.734000205993652,-9.88700008392334 11.906000137329102,-9.864999771118164 C11.906000137329102,-9.864999771118164 13.04800033569336,-9.720000267028809 13.04800033569336,-9.720000267028809 C13.04800033569336,-9.720000267028809 13.086999893188477,-8.944000244140625 13.086999893188477,-8.944000244140625 C13.086999893188477,-8.944000244140625 11.96500015258789,-8.6850004196167 11.96500015258789,-8.6850004196167 C11.795999526977539,-8.645999908447266 11.666000366210938,-8.51200008392334 11.630999565124512,-8.343000411987305 C11.562999725341797,-8.012999534606934 11.447999954223633,-7.693999767303467 11.288999557495117,-7.39300012588501 C11.208000183105469,-7.238999843597412 11.225000381469727,-7.051000118255615 11.331999778747559,-6.914000034332275 C11.331999778747559,-6.914000034332275 12.034000396728516,-6.01200008392334 12.034000396728516,-6.01200008392334 C12.034000396728516,-6.01200008392334 11.506999969482422,-5.433000087738037 11.506999969482422,-5.433000087738037 C11.506999969482422,-5.433000087738037 10.527000427246094,-6.039000034332275 10.527000427246094,-6.039000034332275 C10.380999565124512,-6.129000186920166 10.194999694824219,-6.125999927520752 10.050999641418457,-6.0320000648498535 C9.812000274658203,-5.875 9.555999755859375,-5.748000144958496 9.288000106811523,-5.651000022888184 C9.288000106811523,-5.651000022888184 8.888999938964844,-6.672999858856201 8.888999938964844,-6.672999858856201 C9.939000129699707,-7.044000148773193 10.651000022888184,-8.069000244140625 10.593999862670898,-9.206999778747559 C10.52299976348877,-10.612000465393066 9.3149995803833,-11.699000358581543 7.901000022888184,-11.626999855041504 C6.715000152587891,-11.567000389099121 5.75600004196167,-10.711999893188477 5.519000053405762,-9.607999801635742 C5.519000053405762,-9.607999801635742 4.488999843597412,-10.059000015258789 4.488999843597412,-10.059000015258789 C4.558000087738037,-10.302000045776367 4.651000022888184,-10.538000106811523 4.769999980926514,-10.762999534606934 C4.85099983215332,-10.916999816894531 4.835000038146973,-11.104000091552734 4.728000164031982,-11.241000175476074z M-2.3489999771118164,12.104999542236328 C-3.2149999141693115,12.104999542236328 -3.9200000762939453,11.39900016784668 -3.9200000762939453,10.532999992370605 C-3.9200000762939453,10.532999992370605 -3.9200000762939453,8.5 -3.9200000762939453,8.5 C-3.9200000762939453,8.5 -1.6319999694824219,8.5 -1.6319999694824219,8.5 C-1.6319999694824219,8.5 -1.6319999694824219,12.104999542236328 -1.6319999694824219,12.104999542236328 C-1.6319999694824219,12.104999542236328 -2.3489999771118164,12.104999542236328 -2.3489999771118164,12.104999542236328z M-0.7459999918937683,-4.876999855041504 C-0.7459999918937683,-4.876999855041504 1.6480000019073486,-10.338000297546387 1.6480000019073486,-10.338000297546387 C1.6480000019073486,-10.338000297546387 7.275000095367432,-7.870999813079834 7.275000095367432,-7.870999813079834 C7.275000095367432,-7.870999813079834 6.071000099182129,-5.145999908447266 6.071000099182129,-5.145999908447266 C5.985000133514404,-4.888999938964844 6.059999942779541,-4.693999767303467 6.296999931335449,-4.561999797821045 C6.296999931335449,-4.561999797821045 9.036999702453613,-3.3519999980926514 9.036999702453613,-3.3519999980926514 C9.036999702453613,-3.3519999980926514 8.232000350952148,-1.5149999856948853 8.232000350952148,-1.5149999856948853 C8.232000350952148,-1.5149999856948853 6.723999977111816,-1.5149999856948853 6.723999977111816,-1.5149999856948853 C6.6020002365112305,-1.5149999856948853 6.486000061035156,-1.4639999866485596 6.4019999504089355,-1.375 C6.4019999504089355,-1.375 4.539999961853027,0.6039999723434448 4.539999961853027,0.6039999723434448 C4.448999881744385,0.7009999752044678 4.401000022888184,0.9599999785423279 4.4120001792907715,1.0989999771118164 C4.4120001792907715,1.0989999771118164 4.4120001792907715,5.201000213623047 4.4120001792907715,5.201000213623047 C4.4120001792907715,5.201000213623047 4.296000003814697,5.201000213623047 4.296000003814697,5.201000213623047 C4.296000003814697,5.201000213623047 -0.7459999918937683,2.990000009536743 -0.7459999918937683,2.990000009536743 C-0.7459999918937683,2.990000009536743 -0.7459999918937683,-4.876999855041504 -0.7459999918937683,-4.876999855041504z M8.920000076293945,10.36400032043457 C8.920000076293945,10.36400032043457 8.071000099182129,10.513999938964844 8.071000099182129,10.513999938964844 C7.89900016784668,10.543999671936035 7.761000156402588,10.67199993133545 7.7179999351501465,10.840999603271484 C7.6519999504089355,11.10200023651123 7.550000190734863,11.35099983215332 7.414999961853027,11.581000328063965 C7.328000068664551,11.729999542236328 7.335000038146973,11.916999816894531 7.434000015258789,12.059000015258789 C7.434000015258789,12.059000015258789 7.932000160217285,12.772000312805176 7.932000160217285,12.772000312805176 C7.932000160217285,12.772000312805176 7.580999851226807,13.123000144958496 7.580999851226807,13.123000144958496 C7.580999851226807,13.123000144958496 6.867000102996826,12.625 6.867000102996826,12.625 C6.724999904632568,12.526000022888184 6.539000034332275,12.519000053405762 6.389999866485596,12.607000350952148 C6.159999847412109,12.741999626159668 5.910999774932861,12.843999862670898 5.650000095367432,12.91100025177002 C5.480999946594238,12.954000473022461 5.353000164031982,13.092000007629395 5.322999954223633,13.263999938964844 C5.322999954223633,13.263999938964844 5.173999786376953,14.11299991607666 5.173999786376953,14.11299991607666 C5.173999786376953,14.11299991607666 4.672999858856201,14.111000061035156 4.672999858856201,14.111000061035156 C4.672999858856201,14.111000061035156 4.515999794006348,13.255000114440918 4.515999794006348,13.255000114440918 C4.485000133514404,13.086000442504883 4.357999801635742,12.949999809265137 4.191999912261963,12.906000137329102 C3.930000066757202,12.838000297546387 3.680000066757202,12.734000205993652 3.447999954223633,12.597000122070312 C3.2990000247955322,12.508999824523926 3.111999988555908,12.515000343322754 2.9700000286102295,12.61400032043457 C2.9700000286102295,12.61400032043457 2.26200008392334,13.105999946594238 2.26200008392334,13.105999946594238 C2.26200008392334,13.105999946594238 1.902999997138977,12.748000144958496 1.902999997138977,12.748000144958496 C1.902999997138977,12.748000144958496 2.3940000534057617,12.038999557495117 2.3940000534057617,12.038999557495117 C2.493000030517578,11.897000312805176 2.499000072479248,11.710000038146973 2.4110000133514404,11.560999870300293 C2.2739999294281006,11.329000473022461 2.1700000762939453,11.079000473022461 2.1010000705718994,10.817000389099121 C2.056999921798706,10.651000022888184 1.9210000038146973,10.524999618530273 1.7519999742507935,10.494000434875488 C1.7519999742507935,10.494000434875488 0.8960000276565552,10.336999893188477 0.8960000276565552,10.336999893188477 C0.8960000276565552,10.336999893188477 0.8930000066757202,9.836000442504883 0.8930000066757202,9.836000442504883 C0.8930000066757202,9.836000442504883 1.7419999837875366,9.685999870300293 1.7419999837875366,9.685999870300293 C1.9129999876022339,9.656000137329102 2.052000045776367,9.527999877929688 2.0950000286102295,9.359000205993652 C2.1610000133514404,9.097999572753906 2.263000011444092,8.848999977111816 2.3980000019073486,8.619000434875488 C2.484999895095825,8.470000267028809 2.4790000915527344,8.284000396728516 2.380000114440918,8.142000198364258 C2.380000114440918,8.142000198364258 1.8819999694824219,7.427999973297119 1.8819999694824219,7.427999973297119 C1.8819999694824219,7.427999973297119 2.2320001125335693,7.078000068664551 2.2320001125335693,7.078000068664551 C2.2320001125335693,7.078000068664551 2.946000099182129,7.574999809265137 2.946000099182129,7.574999809265137 C3.0880000591278076,7.673999786376953 3.2739999294281006,7.682000160217285 3.4230000972747803,7.593999862670898 C3.6530001163482666,7.459000110626221 3.9019999504089355,7.355999946594238 4.163000106811523,7.289000034332275 C4.331999778747559,7.245999813079834 4.460000038146973,7.109000205993652 4.489999771118164,6.936999797821045 C4.489999771118164,6.936999797821045 4.638999938964844,6.086999893188477 4.638999938964844,6.086999893188477 C4.638999938964844,6.086999893188477 5.139999866485596,6.089000225067139 5.139999866485596,6.089000225067139 C5.139999866485596,6.089000225067139 5.296999931335449,6.945000171661377 5.296999931335449,6.945000171661377 C5.328000068664551,7.113999843597412 5.454999923706055,7.250999927520752 5.620999813079834,7.294000148773193 C5.882999897003174,7.361999988555908 6.132999897003174,7.4670000076293945 6.364999771118164,7.604000091552734 C6.513999938964844,7.691999912261963 6.701000213623047,7.684999942779541 6.8429999351501465,7.585999965667725 C6.8429999351501465,7.585999965667725 7.551000118255615,7.093999862670898 7.551000118255615,7.093999862670898 C7.551000118255615,7.093999862670898 7.909999847412109,7.452000141143799 7.909999847412109,7.452000141143799 C7.909999847412109,7.452000141143799 7.419000148773193,8.16100025177002 7.419000148773193,8.16100025177002 C7.320000171661377,8.303000450134277 7.314000129699707,8.489999771118164 7.4019999504089355,8.638999938964844 C7.539000034332275,8.871000289916992 7.64300012588501,9.121000289916992 7.711999893188477,9.383000373840332 C7.75600004196167,9.548999786376953 7.892000198364258,9.675000190734863 8.060999870300293,9.706000328063965 C8.060999870300293,9.706000328063965 8.916999816894531,9.86299991607666 8.916999816894531,9.86299991607666 C8.916999816894531,9.86299991607666 8.920000076293945,10.36400032043457 8.920000076293945,10.36400032043457z M12.876999855041504,7.335000038146973 C12.876999855041504,6.89900016784668 12.87600040435791,5.821000099182129 12.87600040435791,5.821000099182129 C12.87600040435791,5.248000144958496 11.989999771118164,5.248000144958496 11.989999771118164,5.821000099182129 C11.989999771118164,5.821000099182129 11.989999771118164,8.003000259399414 11.989999771118164,8.003000259399414 C10.871999740600586,8.003000259399414 9.730999946594238,8.003000259399414 8.602999687194824,8.008000373840332 C8.602999687194824,8.008000373840332 8.848999977111816,7.6529998779296875 8.848999977111816,7.6529998779296875 C8.970999717712402,7.4770002365112305 8.949999809265137,7.23799991607666 8.79800033569336,7.086999893188477 C8.79800033569336,7.086999893188477 7.915999889373779,6.205999851226807 7.915999889373779,6.205999851226807 C7.763999938964844,6.054999828338623 7.526000022888184,6.033999919891357 7.349999904632568,6.156000137329102 C7.349999904632568,6.156000137329102 6.561999797821045,6.703999996185303 6.561999797821045,6.703999996185303 C6.419000148773193,6.633999824523926 6.270999908447266,6.572000026702881 6.119999885559082,6.519999980926514 C6.119999885559082,6.519999980926514 5.945000171661377,5.566999912261963 5.945000171661377,5.566999912261963 C5.888999938964844,5.263000011444092 5.567999839782715,5.164999961853027 5.303999900817871,5.203999996185303 C5.296999931335449,4.711999893188477 5.349999904632568,2.1389999389648438 5.303999900817871,1.350000023841858 C5.303999900817871,1.350000023841858 11.989999771118164,1.350000023841858 11.989999771118164,1.350000023841858 C11.989999771118164,1.350000023841858 11.989999771118164,3.509000062942505 11.989999771118164,3.509000062942505 C11.989999771118164,4.081999778747559 12.87600040435791,4.081999778747559 12.87600040435791,3.509000062942505 C12.87600040435791,3.509000062942505 12.876999855041504,1.843999981880188 12.876999855041504,1.0820000171661377 C12.876999855041504,1.0820000171661377 13.85200023651123,0.04600000008940697 13.85200023651123,0.04600000008940697 C13.85200023651123,0.04600000008940697 13.85200023651123,6.298999786376953 13.85200023651123,6.298999786376953 C13.85200023651123,6.298999786376953 12.876999855041504,7.335000038146973 12.876999855041504,7.335000038146973z"></path></g></g><g clip-path="url(#__lottie_element_369)" transform="matrix(28.3700008392334,0,0,28.3700008392334,539.9953002929688,540.0084838867188)" opacity="1" style="display: block;"><g opacity="1" transform="matrix(1,0,0,1,0,0)"><path fill="rgb(92,255,79)" fill-opacity="1" d=" M14.736000061035156,-1.093999981880188 C14.725000381469727,-1.3250000476837158 14.526000022888184,-1.5149999856948853 14.293999671936035,-1.5149999856948853 C14.293999671936035,-1.5149999856948853 9.199000358581543,-1.5149999856948853 9.199000358581543,-1.5149999856948853 C9.199000358581543,-1.5149999856948853 10.024999618530273,-3.4000000953674316 10.024999618530273,-3.4000000953674316 C10.071999549865723,-3.50600004196167 10.074999809265137,-3.63100004196167 10.032999992370605,-3.739000082015991 C10.032999992370605,-3.739000082015991 9.609000205993652,-4.826000213623047 9.609000205993652,-4.826000213623047 C9.845000267028809,-4.913000106811523 10.072999954223633,-5.01800012588501 10.291999816894531,-5.142000198364258 C10.291999816894531,-5.142000198364258 11.354000091552734,-4.486000061035156 11.354000091552734,-4.486000061035156 C11.550000190734863,-4.376999855041504 11.737000465393066,-4.4019999504089355 11.913999557495117,-4.564000129699707 C11.913999557495117,-4.564000129699707 12.9399995803833,-5.691999912261963 12.9399995803833,-5.691999912261963 C13.085000038146973,-5.85099983215332 13.095000267028809,-6.0920000076293945 12.961999893188477,-6.26200008392334 C12.961999893188477,-6.26200008392334 12.199999809265137,-7.241000175476074 12.199999809265137,-7.241000175476074 C12.293000221252441,-7.449999809265137 12.369999885559082,-7.664000034332275 12.430999755859375,-7.883999824523926 C12.430999755859375,-7.883999824523926 13.64799976348877,-8.164999961853027 13.64799976348877,-8.164999961853027 C13.857000350952148,-8.213000297546387 14.001999855041504,-8.404999732971191 13.991000175476074,-8.619000434875488 C13.991000175476074,-8.619000434875488 13.913999557495117,-10.135000228881836 13.913999557495117,-10.135000228881836 C13.902999877929688,-10.348999977111816 13.741000175476074,-10.526000022888184 13.527999877929688,-10.553000450134277 C13.527999877929688,-10.553000450134277 12.288000106811523,-10.708999633789062 12.288000106811523,-10.708999633789062 C12.206000328063965,-10.920999526977539 12.107999801635742,-11.128000259399414 11.994000434875488,-11.326000213623047 C11.994000434875488,-11.326000213623047 12.652999877929688,-12.37600040435791 12.652999877929688,-12.37600040435791 C12.767999649047852,-12.559000015258789 12.734999656677246,-12.79699993133545 12.574000358581543,-12.940999984741211 C12.574000358581543,-12.940999984741211 11.439000129699707,-13.958999633789062 11.439000129699707,-13.958999633789062 C11.279999732971191,-14.10099983215332 11.043000221252441,-14.111000061035156 10.87399959564209,-13.980999946594238 C10.87399959564209,-13.980999946594238 9.883999824523926,-13.220999717712402 9.883999824523926,-13.220999717712402 C9.67199993133545,-13.314000129699707 9.454999923706055,-13.392000198364258 9.232000350952148,-13.45199966430664 C9.232000350952148,-13.45199966430664 8.949999809265137,-14.657999992370605 8.949999809265137,-14.657999992370605 C8.901000022888184,-14.866999626159668 8.710000038146973,-15.01099967956543 8.496999740600586,-14.99899959564209 C8.496999740600586,-14.99899959564209 6.968999862670898,-14.92199993133545 6.968999862670898,-14.92199993133545 C6.755000114440918,-14.91100025177002 6.578999996185303,-14.74899959564209 6.552000045776367,-14.536999702453613 C6.552000045776367,-14.536999702453613 6.39300012588501,-13.307999610900879 6.39300012588501,-13.307999610900879 C6.177999973297119,-13.22599983215332 5.968999862670898,-13.126999855041504 5.76800012588501,-13.012999534606934 C5.76800012588501,-13.012999534606934 4.705999851226807,-13.668999671936035 4.705999851226807,-13.668999671936035 C4.525000095367432,-13.781000137329102 4.289000034332275,-13.74899959564209 4.145999908447266,-13.590999603271484 C4.145999908447266,-13.590999603271484 3.119999885559082,-12.46399974822998 3.119999885559082,-12.46399974822998 C2.9749999046325684,-12.305000305175781 2.9649999141693115,-12.062999725341797 3.0980000495910645,-11.892999649047852 C3.0980000495910645,-11.892999649047852 3.859999895095825,-10.914999961853027 3.859999895095825,-10.914999961853027 C3.7869999408721924,-10.753000259399414 3.7249999046325684,-10.586000442504883 3.671999931335449,-10.416999816894531 C3.671999931335449,-10.416999816894531 1.5980000495910645,-11.32699966430664 1.5980000495910645,-11.32699966430664 C1.340999960899353,-11.411999702453613 1.1469999551773071,-11.336000442504883 1.0149999856948853,-11.098999977111816 C1.0149999856948853,-11.098999977111816 -0.7459999918937683,-7.083000183105469 -0.7459999918937683,-7.083000183105469 C-0.7459999918937683,-7.083000183105469 -0.7459999918937683,-13.963000297546387 -0.7459999918937683,-13.963000297546387 C-0.7459999918937683,-14.53600025177002 -1.6319999694824219,-14.53600025177002 -1.6319999694824219,-13.963000297546387 C-1.6319999694824219,-13.963000297546387 -1.6319999694824219,-12.02299976348877 -1.6319999694824219,-12.02299976348877 C-4.666999816894531,-11.895000457763672 -7.4670000076293945,-10.291000366210938 -9.14799976348877,-7.705999851226807 C-9.449999809265137,-7.242000102996826 -8.732999801635742,-6.718999862670898 -8.404999732971191,-7.2230000495910645 C-6.888000011444092,-9.557000160217285 -4.367000102996826,-11.008999824523926 -1.6319999694824219,-11.13700008392334 C-1.6319999694824219,-11.13700008392334 -1.6319999694824219,7.613999843597412 -1.6319999694824219,7.613999843597412 C-1.6319999694824219,7.613999843597412 -4.36299991607666,7.613999843597412 -4.36299991607666,7.613999843597412 C-4.736000061035156,7.613999843597412 -5.038000106811523,7.309000015258789 -5.038000106811523,6.934000015258789 C-5.038000106811523,6.934000015258789 -5.038000106811523,5.415999889373779 -5.038000106811523,5.415999889373779 C-5.038000106811523,5.252999782562256 -5.127999782562256,5.103000164031982 -5.270999908447266,5.026000022888184 C-8.08899974822998,3.507999897003174 -9.821000099182129,0.5730000138282776 -9.791000366210938,-2.634999990463257 C-9.782999992370605,-3.4730000495910645 -9.652999877929688,-4.302999973297119 -9.404000282287598,-5.099999904632568 C-9.232999801635742,-5.646999835968018 -10.079000473022461,-5.910999774932861 -10.25,-5.363999843597412 C-10.524999618530273,-4.484000205993652 -10.668000221252441,-3.569000005722046 -10.677000045776367,-2.6440000534057617 C-10.708999633789062,0.8040000200271606 -8.895000457763672,3.9679999351501465 -5.923999786376953,5.676000118255615 C-5.923999786376953,5.676000118255615 -5.923999786376953,6.934000015258789 -5.923999786376953,6.934000015258789 C-5.923999786376953,7.64300012588501 -5.451000213623047,8.243000030517578 -4.804999828338623,8.4350004196167 C-4.804999828338623,8.4350004196167 -4.804999828338623,10.532999992370605 -4.804999828338623,10.532999992370605 C-4.804999828338623,11.887999534606934 -3.703000068664551,12.989999771118164 -2.3480000495910645,12.989999771118164 C-2.3480000495910645,12.989999771118164 -1.6319999694824219,12.989999771118164 -1.6319999694824219,12.989999771118164 C-1.6319999694824219,12.989999771118164 -1.6319999694824219,14.557000160217285 -1.6319999694824219,14.557000160217285 C-1.6319999694824219,15.130000114440918 -0.7459999918937683,15.130000114440918 -0.7459999918937683,14.557000160217285 C-0.7459999918937683,14.557000160217285 -0.7459999918937683,3.9570000171661377 -0.7459999918937683,3.9570000171661377 C-0.7459999918937683,3.9570000171661377 3.7660000324249268,5.934999942779541 3.7660000324249268,5.934999942779541 C3.7660000324249268,5.934999942779541 3.6649999618530273,6.513999938964844 3.6649999618530273,6.513999938964844 C3.5160000324249268,6.565000057220459 3.369999885559082,6.624000072479248 3.2290000915527344,6.692999839782715 C3.2290000915527344,6.692999839782715 2.434000015258789,6.138999938964844 2.434000015258789,6.138999938964844 C2.257999897003174,6.015999794006348 2.0199999809265137,6.0370001792907715 1.8680000305175781,6.189000129699707 C1.8680000305175781,6.189000129699707 0.9929999709129333,7.065000057220459 0.9929999709129333,7.065000057220459 C0.8410000205039978,7.2170000076293945 0.8199999928474426,7.454999923706055 0.9430000185966492,7.63100004196167 C0.9430000185966492,7.63100004196167 1.4980000257492065,8.425999641418457 1.4980000257492065,8.425999641418457 C1.4290000200271606,8.567000389099121 1.3700000047683716,8.713000297546387 1.319000005722046,8.862000465393066 C1.319000005722046,8.862000465393066 0.3720000088214874,9.029000282287598 0.3720000088214874,9.029000282287598 C0.1599999964237213,9.067000389099121 0.004999999888241291,9.25100040435791 0.006000000052154064,9.467000007629395 C0.006000000052154064,9.467000007629395 0.012000000104308128,10.708999633789062 0.012000000104308128,10.708999633789062 C0.013000000268220901,10.92199993133545 0.16500000655651093,11.104999542236328 0.375,11.142999649047852 C0.375,11.142999649047852 1.3270000219345093,11.317000389099121 1.3270000219345093,11.317000389099121 C1.378999948501587,11.468000411987305 1.4420000314712524,11.614999771118164 1.5119999647140503,11.758000373840332 C1.5119999647140503,11.758000373840332 0.9639999866485596,12.54800033569336 0.9639999866485596,12.54800033569336 C0.8420000076293945,12.723999977111816 0.8640000224113464,12.961999893188477 1.0160000324249268,13.11299991607666 C1.0160000324249268,13.11299991607666 1.8969999551773071,13.994000434875488 1.8969999551773071,13.994000434875488 C2.0490000247955322,14.145000457763672 2.2869999408721924,14.166999816894531 2.4630000591278076,14.045000076293945 C2.4630000591278076,14.045000076293945 3.252000093460083,13.496999740600586 3.252000093460083,13.496999740600586 C3.3949999809265137,13.567000389099121 3.5420000553131104,13.628000259399414 3.693000078201294,13.680000305175781 C3.693000078201294,13.680000305175781 3.868000030517578,14.633000373840332 3.868000030517578,14.633000373840332 C3.9059998989105225,14.843000411987305 4.089000225067139,14.994999885559082 4.302000045776367,14.996000289916992 C4.302000045776367,14.996000289916992 5.544000148773193,15 5.544000148773193,15 C5.544000148773193,15 5.546000003814697,15 5.546000003814697,15 C5.761000156402588,15 5.945000171661377,14.845999717712402 5.98199987411499,14.633999824523926 C5.98199987411499,14.633999824523926 6.1479997634887695,13.685999870300293 6.1479997634887695,13.685999870300293 C6.296999931335449,13.635000228881836 6.442999839782715,13.576000213623047 6.584000110626221,13.506999969482422 C6.584000110626221,13.506999969482422 7.379000186920166,14.060999870300293 7.379000186920166,14.060999870300293 C7.554999828338623,14.184000015258789 7.794000148773193,14.163000106811523 7.946000099182129,14.01099967956543 C7.946000099182129,14.01099967956543 8.819999694824219,13.135000228881836 8.819999694824219,13.135000228881836 C8.972000122070312,12.982999801635742 8.993000030517578,12.744999885559082 8.869999885559082,12.569000244140625 C8.869999885559082,12.569000244140625 8.3149995803833,11.77400016784668 8.3149995803833,11.77400016784668 C8.383999824523926,11.633000373840332 8.442999839782715,11.48799991607666 8.494000434875488,11.33899974822998 C8.494000434875488,11.33899974822998 9.440999984741211,11.170999526977539 9.440999984741211,11.170999526977539 C9.652999877929688,11.133999824523926 9.807999610900879,10.949999809265137 9.807000160217285,10.734000205993652 C9.807000160217285,10.734000205993652 9.802000045776367,9.491000175476074 9.802000045776367,9.491000175476074 C9.800999641418457,9.277999877929688 9.64900016784668,9.095000267028809 9.439000129699707,9.057000160217285 C9.439000129699707,9.057000160217285 8.543000221252441,8.894000053405762 8.543000221252441,8.894000053405762 C9.810999870300293,8.887999534606934 11.097999572753906,8.887999534606934 12.350000381469727,8.887999534606934 C12.496000289916992,8.914999961853027 12.631999969482422,8.871999740600586 12.755999565124512,8.756999969482422 C12.755999565124512,8.756999969482422 14.616999626159668,6.7769999504089355 14.616999626159668,6.7769999504089355 C14.694000244140625,6.695000171661377 14.737000465393066,6.586999893188477 14.737000465393066,6.473999977111816 C14.737000465393066,6.473999977111816 14.737000465393066,-1.0720000267028809 14.737000465393066,-1.0720000267028809 C14.737000465393066,-1.0800000429153442 14.736000061035156,-1.0870000123977661 14.736000061035156,-1.093999981880188z M13.270000457763672,-0.6290000081062317 C13.270000457763672,-0.6290000081062317 12.26099967956543,0.4440000057220459 12.26099967956543,0.4440000057220459 C12.26099967956543,0.4440000057220459 5.9070000648498535,0.4440000057220459 5.9070000648498535,0.4440000057220459 C5.9070000648498535,0.4440000057220459 6.915999889373779,-0.6290000081062317 6.915999889373779,-0.6290000081062317 C6.915999889373779,-0.6290000081062317 13.270000457763672,-0.6290000081062317 13.270000457763672,-0.6290000081062317z M8.272000312805176,-8.258999824523926 C8.229999542236328,-8.366000175476074 8.142000198364258,-8.456999778747559 8.036999702453613,-8.503000259399414 C8.036999702453613,-8.503000259399414 6.355999946594238,-9.239999771118164 6.355999946594238,-9.239999771118164 C6.435999870300293,-10.04699993133545 7.104000091552734,-10.699000358581543 7.946000099182129,-10.741999626159668 C8.873000144958496,-10.786999702453613 9.663999557495117,-10.079999923706055 9.710000038146973,-9.161999702453613 C9.748000144958496,-8.40999984741211 9.269000053405762,-7.734000205993652 8.567999839782715,-7.499000072479248 C8.567999839782715,-7.499000072479248 8.272000312805176,-8.258999824523926 8.272000312805176,-8.258999824523926z M7.834000110626221,-6.943999767303467 C7.834000110626221,-6.943999767303467 8.312000274658203,-5.716000080108643 8.312000274658203,-5.716000080108643 C8.312000274658203,-5.716000080108643 8.817999839782715,-4.416999816894531 8.817999839782715,-4.416999816894531 C8.817999839782715,-4.416999816894531 7.059999942779541,-5.192999839782715 7.059999942779541,-5.192999839782715 C7.059999942779541,-5.192999839782715 7.834000110626221,-6.943999767303467 7.834000110626221,-6.943999767303467z M4.728000164031982,-11.241000175476074 C4.728000164031982,-11.241000175476074 4.026000022888184,-12.142999649047852 4.026000022888184,-12.142999649047852 C4.026000022888184,-12.142999649047852 4.552999973297119,-12.722000122070312 4.552999973297119,-12.722000122070312 C4.552999973297119,-12.722000122070312 5.5329999923706055,-12.116000175476074 5.5329999923706055,-12.116000175476074 C5.678999900817871,-12.026000022888184 5.864999771118164,-12.029000282287598 6.008999824523926,-12.123000144958496 C6.295000076293945,-12.3100004196167 6.604000091552734,-12.456000328063965 6.928999900817871,-12.557000160217285 C7.093999862670898,-12.607999801635742 7.214000225067139,-12.75100040435791 7.236000061035156,-12.92300033569336 C7.236000061035156,-12.92300033569336 7.382999897003174,-14.055999755859375 7.382999897003174,-14.055999755859375 C7.382999897003174,-14.055999755859375 8.17199993133545,-14.095999717712402 8.17199993133545,-14.095999717712402 C8.17199993133545,-14.095999717712402 8.432000160217285,-12.984000205993652 8.432000160217285,-12.984000205993652 C8.470999717712402,-12.8149995803833 8.604999542236328,-12.6850004196167 8.774999618530273,-12.649999618530273 C9.107999801635742,-12.581999778747559 9.430999755859375,-12.468000411987305 9.734000205993652,-12.310999870300293 C9.88700008392334,-12.232000350952148 10.071999549865723,-12.248000144958496 10.208000183105469,-12.352999687194824 C10.208000183105469,-12.352999687194824 11.121000289916992,-13.053999900817871 11.121000289916992,-13.053999900817871 C11.121000289916992,-13.053999900817871 11.704000473022461,-12.531000137329102 11.704000473022461,-12.531000137329102 C11.704000473022461,-12.531000137329102 11.097000122070312,-11.562999725341797 11.097000122070312,-11.562999725341797 C11.003999710083008,-11.416000366210938 11.006999969482422,-11.227999687194824 11.102999687194824,-11.083000183105469 C11.291000366210938,-10.800000190734863 11.437999725341797,-10.493000030517578 11.538999557495117,-10.170999526977539 C11.590999603271484,-10.005999565124512 11.734000205993652,-9.88700008392334 11.906000137329102,-9.864999771118164 C11.906000137329102,-9.864999771118164 13.04800033569336,-9.720000267028809 13.04800033569336,-9.720000267028809 C13.04800033569336,-9.720000267028809 13.086999893188477,-8.944000244140625 13.086999893188477,-8.944000244140625 C13.086999893188477,-8.944000244140625 11.96500015258789,-8.6850004196167 11.96500015258789,-8.6850004196167 C11.795999526977539,-8.645999908447266 11.666000366210938,-8.51200008392334 11.630999565124512,-8.343000411987305 C11.562999725341797,-8.012999534606934 11.447999954223633,-7.693999767303467 11.288999557495117,-7.39300012588501 C11.208000183105469,-7.238999843597412 11.225000381469727,-7.051000118255615 11.331999778747559,-6.914000034332275 C11.331999778747559,-6.914000034332275 12.034000396728516,-6.01200008392334 12.034000396728516,-6.01200008392334 C12.034000396728516,-6.01200008392334 11.506999969482422,-5.433000087738037 11.506999969482422,-5.433000087738037 C11.506999969482422,-5.433000087738037 10.527000427246094,-6.039000034332275 10.527000427246094,-6.039000034332275 C10.380999565124512,-6.129000186920166 10.194999694824219,-6.125999927520752 10.050999641418457,-6.0320000648498535 C9.812000274658203,-5.875 9.555999755859375,-5.748000144958496 9.288000106811523,-5.651000022888184 C9.288000106811523,-5.651000022888184 8.888999938964844,-6.672999858856201 8.888999938964844,-6.672999858856201 C9.939000129699707,-7.044000148773193 10.651000022888184,-8.069000244140625 10.593999862670898,-9.206999778747559 C10.52299976348877,-10.612000465393066 9.3149995803833,-11.699000358581543 7.901000022888184,-11.626999855041504 C6.715000152587891,-11.567000389099121 5.75600004196167,-10.711999893188477 5.519000053405762,-9.607999801635742 C5.519000053405762,-9.607999801635742 4.488999843597412,-10.059000015258789 4.488999843597412,-10.059000015258789 C4.558000087738037,-10.302000045776367 4.651000022888184,-10.538000106811523 4.769999980926514,-10.762999534606934 C4.85099983215332,-10.916999816894531 4.835000038146973,-11.104000091552734 4.728000164031982,-11.241000175476074z M-2.3489999771118164,12.104999542236328 C-3.2149999141693115,12.104999542236328 -3.9200000762939453,11.39900016784668 -3.9200000762939453,10.532999992370605 C-3.9200000762939453,10.532999992370605 -3.9200000762939453,8.5 -3.9200000762939453,8.5 C-3.9200000762939453,8.5 -1.6319999694824219,8.5 -1.6319999694824219,8.5 C-1.6319999694824219,8.5 -1.6319999694824219,12.104999542236328 -1.6319999694824219,12.104999542236328 C-1.6319999694824219,12.104999542236328 -2.3489999771118164,12.104999542236328 -2.3489999771118164,12.104999542236328z M-0.7459999918937683,-4.876999855041504 C-0.7459999918937683,-4.876999855041504 1.6480000019073486,-10.338000297546387 1.6480000019073486,-10.338000297546387 C1.6480000019073486,-10.338000297546387 7.275000095367432,-7.870999813079834 7.275000095367432,-7.870999813079834 C7.275000095367432,-7.870999813079834 6.071000099182129,-5.145999908447266 6.071000099182129,-5.145999908447266 C5.985000133514404,-4.888999938964844 6.059999942779541,-4.693999767303467 6.296999931335449,-4.561999797821045 C6.296999931335449,-4.561999797821045 9.036999702453613,-3.3519999980926514 9.036999702453613,-3.3519999980926514 C9.036999702453613,-3.3519999980926514 8.232000350952148,-1.5149999856948853 8.232000350952148,-1.5149999856948853 C8.232000350952148,-1.5149999856948853 6.723999977111816,-1.5149999856948853 6.723999977111816,-1.5149999856948853 C6.6020002365112305,-1.5149999856948853 6.486000061035156,-1.4639999866485596 6.4019999504089355,-1.375 C6.4019999504089355,-1.375 4.539999961853027,0.6039999723434448 4.539999961853027,0.6039999723434448 C4.448999881744385,0.7009999752044678 4.401000022888184,0.9599999785423279 4.4120001792907715,1.0989999771118164 C4.4120001792907715,1.0989999771118164 4.4120001792907715,5.201000213623047 4.4120001792907715,5.201000213623047 C4.4120001792907715,5.201000213623047 4.296000003814697,5.201000213623047 4.296000003814697,5.201000213623047 C4.296000003814697,5.201000213623047 -0.7459999918937683,2.990000009536743 -0.7459999918937683,2.990000009536743 C-0.7459999918937683,2.990000009536743 -0.7459999918937683,-4.876999855041504 -0.7459999918937683,-4.876999855041504z M8.920000076293945,10.36400032043457 C8.920000076293945,10.36400032043457 8.071000099182129,10.513999938964844 8.071000099182129,10.513999938964844 C7.89900016784668,10.543999671936035 7.761000156402588,10.67199993133545 7.7179999351501465,10.840999603271484 C7.6519999504089355,11.10200023651123 7.550000190734863,11.35099983215332 7.414999961853027,11.581000328063965 C7.328000068664551,11.729999542236328 7.335000038146973,11.916999816894531 7.434000015258789,12.059000015258789 C7.434000015258789,12.059000015258789 7.932000160217285,12.772000312805176 7.932000160217285,12.772000312805176 C7.932000160217285,12.772000312805176 7.580999851226807,13.123000144958496 7.580999851226807,13.123000144958496 C7.580999851226807,13.123000144958496 6.867000102996826,12.625 6.867000102996826,12.625 C6.724999904632568,12.526000022888184 6.539000034332275,12.519000053405762 6.389999866485596,12.607000350952148 C6.159999847412109,12.741999626159668 5.910999774932861,12.843999862670898 5.650000095367432,12.91100025177002 C5.480999946594238,12.954000473022461 5.353000164031982,13.092000007629395 5.322999954223633,13.263999938964844 C5.322999954223633,13.263999938964844 5.173999786376953,14.11299991607666 5.173999786376953,14.11299991607666 C5.173999786376953,14.11299991607666 4.672999858856201,14.111000061035156 4.672999858856201,14.111000061035156 C4.672999858856201,14.111000061035156 4.515999794006348,13.255000114440918 4.515999794006348,13.255000114440918 C4.485000133514404,13.086000442504883 4.357999801635742,12.949999809265137 4.191999912261963,12.906000137329102 C3.930000066757202,12.838000297546387 3.680000066757202,12.734000205993652 3.447999954223633,12.597000122070312 C3.2990000247955322,12.508999824523926 3.111999988555908,12.515000343322754 2.9700000286102295,12.61400032043457 C2.9700000286102295,12.61400032043457 2.26200008392334,13.105999946594238 2.26200008392334,13.105999946594238 C2.26200008392334,13.105999946594238 1.902999997138977,12.748000144958496 1.902999997138977,12.748000144958496 C1.902999997138977,12.748000144958496 2.3940000534057617,12.038999557495117 2.3940000534057617,12.038999557495117 C2.493000030517578,11.897000312805176 2.499000072479248,11.710000038146973 2.4110000133514404,11.560999870300293 C2.2739999294281006,11.329000473022461 2.1700000762939453,11.079000473022461 2.1010000705718994,10.817000389099121 C2.056999921798706,10.651000022888184 1.9210000038146973,10.524999618530273 1.7519999742507935,10.494000434875488 C1.7519999742507935,10.494000434875488 0.8960000276565552,10.336999893188477 0.8960000276565552,10.336999893188477 C0.8960000276565552,10.336999893188477 0.8930000066757202,9.836000442504883 0.8930000066757202,9.836000442504883 C0.8930000066757202,9.836000442504883 1.7419999837875366,9.685999870300293 1.7419999837875366,9.685999870300293 C1.9129999876022339,9.656000137329102 2.052000045776367,9.527999877929688 2.0950000286102295,9.359000205993652 C2.1610000133514404,9.097999572753906 2.263000011444092,8.848999977111816 2.3980000019073486,8.619000434875488 C2.484999895095825,8.470000267028809 2.4790000915527344,8.284000396728516 2.380000114440918,8.142000198364258 C2.380000114440918,8.142000198364258 1.8819999694824219,7.427999973297119 1.8819999694824219,7.427999973297119 C1.8819999694824219,7.427999973297119 2.2320001125335693,7.078000068664551 2.2320001125335693,7.078000068664551 C2.2320001125335693,7.078000068664551 2.946000099182129,7.574999809265137 2.946000099182129,7.574999809265137 C3.0880000591278076,7.673999786376953 3.2739999294281006,7.682000160217285 3.4230000972747803,7.593999862670898 C3.6530001163482666,7.459000110626221 3.9019999504089355,7.355999946594238 4.163000106811523,7.289000034332275 C4.331999778747559,7.245999813079834 4.460000038146973,7.109000205993652 4.489999771118164,6.936999797821045 C4.489999771118164,6.936999797821045 4.638999938964844,6.086999893188477 4.638999938964844,6.086999893188477 C4.638999938964844,6.086999893188477 5.139999866485596,6.089000225067139 5.139999866485596,6.089000225067139 C5.139999866485596,6.089000225067139 5.296999931335449,6.945000171661377 5.296999931335449,6.945000171661377 C5.328000068664551,7.113999843597412 5.454999923706055,7.250999927520752 5.620999813079834,7.294000148773193 C5.882999897003174,7.361999988555908 6.132999897003174,7.4670000076293945 6.364999771118164,7.604000091552734 C6.513999938964844,7.691999912261963 6.701000213623047,7.684999942779541 6.8429999351501465,7.585999965667725 C6.8429999351501465,7.585999965667725 7.551000118255615,7.093999862670898 7.551000118255615,7.093999862670898 C7.551000118255615,7.093999862670898 7.909999847412109,7.452000141143799 7.909999847412109,7.452000141143799 C7.909999847412109,7.452000141143799 7.419000148773193,8.16100025177002 7.419000148773193,8.16100025177002 C7.320000171661377,8.303000450134277 7.314000129699707,8.489999771118164 7.4019999504089355,8.638999938964844 C7.539000034332275,8.871000289916992 7.64300012588501,9.121000289916992 7.711999893188477,9.383000373840332 C7.75600004196167,9.548999786376953 7.892000198364258,9.675000190734863 8.060999870300293,9.706000328063965 C8.060999870300293,9.706000328063965 8.916999816894531,9.86299991607666 8.916999816894531,9.86299991607666 C8.916999816894531,9.86299991607666 8.920000076293945,10.36400032043457 8.920000076293945,10.36400032043457z M12.876999855041504,7.335000038146973 C12.876999855041504,6.89900016784668 12.87600040435791,5.821000099182129 12.87600040435791,5.821000099182129 C12.87600040435791,5.248000144958496 11.989999771118164,5.248000144958496 11.989999771118164,5.821000099182129 C11.989999771118164,5.821000099182129 11.989999771118164,8.003000259399414 11.989999771118164,8.003000259399414 C10.871999740600586,8.003000259399414 9.730999946594238,8.003000259399414 8.602999687194824,8.008000373840332 C8.602999687194824,8.008000373840332 8.848999977111816,7.6529998779296875 8.848999977111816,7.6529998779296875 C8.970999717712402,7.4770002365112305 8.949999809265137,7.23799991607666 8.79800033569336,7.086999893188477 C8.79800033569336,7.086999893188477 7.915999889373779,6.205999851226807 7.915999889373779,6.205999851226807 C7.763999938964844,6.054999828338623 7.526000022888184,6.033999919891357 7.349999904632568,6.156000137329102 C7.349999904632568,6.156000137329102 6.561999797821045,6.703999996185303 6.561999797821045,6.703999996185303 C6.419000148773193,6.633999824523926 6.270999908447266,6.572000026702881 6.119999885559082,6.519999980926514 C6.119999885559082,6.519999980926514 5.945000171661377,5.566999912261963 5.945000171661377,5.566999912261963 C5.888999938964844,5.263000011444092 5.567999839782715,5.164999961853027 5.303999900817871,5.203999996185303 C5.296999931335449,4.711999893188477 5.349999904632568,2.1389999389648438 5.303999900817871,1.350000023841858 C5.303999900817871,1.350000023841858 11.989999771118164,1.350000023841858 11.989999771118164,1.350000023841858 C11.989999771118164,1.350000023841858 11.989999771118164,3.509000062942505 11.989999771118164,3.509000062942505 C11.989999771118164,4.081999778747559 12.87600040435791,4.081999778747559 12.87600040435791,3.509000062942505 C12.87600040435791,3.509000062942505 12.876999855041504,1.843999981880188 12.876999855041504,1.0820000171661377 C12.876999855041504,1.0820000171661377 13.85200023651123,0.04600000008940697 13.85200023651123,0.04600000008940697 C13.85200023651123,0.04600000008940697 13.85200023651123,6.298999786376953 13.85200023651123,6.298999786376953 C13.85200023651123,6.298999786376953 12.876999855041504,7.335000038146973 12.876999855041504,7.335000038146973z"></path></g></g><g transform="matrix(28.3700008392334,0,0,28.3700008392334,539.9953002929688,540.0084838867188)" opacity="1" style="display: block;"><g opacity="1" transform="matrix(1,0,0,1,0,0)"><path fill="rgb(92,255,79)" fill-opacity="1" d=" M4.90500020980835,8.088000297546387 C4.9029998779296875,8.088000297546387 4.900000095367432,8.088000297546387 4.8979997634887695,8.088000297546387 C4.36299991607666,8.088000297546387 3.861999988555908,8.295999526977539 3.484999895095825,8.67300033569336 C3.1070001125335693,9.052000045776367 2.8989999294281006,9.555999755859375 2.9010000228881836,10.093000411987305 C2.9030001163482666,10.628999710083008 3.114000082015991,11.133000373840332 3.49399995803833,11.512999534606934 C3.874000072479248,11.892999649047852 4.379000186920166,12.102999687194824 4.914999961853027,12.104999542236328 C4.914999961853027,12.104999542236328 4.921000003814697,12.104999542236328 4.921000003814697,12.104999542236328 C5.455999851226807,12.104999542236328 5.958000183105469,11.897000312805176 6.335000038146973,11.520000457763672 C6.7129998207092285,11.140999794006348 6.920000076293945,10.63700008392334 6.918000221252441,10.100000381469727 C6.915999889373779,9.564000129699707 6.704999923706055,9.0600004196167 6.324999809265137,8.680000305175781 C5.945000171661377,8.300000190734863 5.440999984741211,8.09000015258789 4.90500020980835,8.088000297546387z M5.708000183105469,10.894000053405762 C5.498000144958496,11.104999542236328 5.216000080108643,11.222000122070312 4.916999816894531,11.218999862670898 C4.617000102996826,11.218000411987305 4.334000110626221,11.100000381469727 4.119999885559082,10.88700008392334 C3.9059998989105225,10.673999786376953 3.7880001068115234,10.390000343322754 3.7869999408721924,10.09000015258789 C3.7860000133514404,9.791000366210938 3.9019999504089355,9.510000228881836 4.111999988555908,9.298999786376953 C4.322000026702881,9.088000297546387 4.604000091552734,8.972000122070312 4.9019999504089355,8.973999977111816 C5.202000141143799,8.975000381469727 5.485000133514404,9.092000007629395 5.698999881744385,9.305999755859375 C5.913000106811523,9.519000053405762 6.031000137329102,9.803000450134277 6.0320000648498535,10.102999687194824 C6.0329999923706055,10.402000427246094 5.918000221252441,10.682999610900879 5.708000183105469,10.894000053405762z"></path></g></g><g transform="matrix(28.3700008392334,0,0,28.3700008392334,539.9968872070312,539.9990234375)" opacity="1" style="display: block;"><g opacity="1" transform="matrix(1,0,0,1,0,0)"><path fill="rgb(92,255,79)" fill-opacity="1" d=" M-8.994999885559082,-9.902000427246094 C-8.623000144958496,-9.902000427246094 -8.418999671936035,-10.395000457763672 -8.682000160217285,-10.657999992370605 C-8.682000160217285,-10.657999992370605 -10.192000389099121,-12.168999671936035 -10.192000389099121,-12.168999671936035 C-10.597000122070312,-12.574000358581543 -11.222999572753906,-11.946999549865723 -10.817999839782715,-11.541999816894531 C-10.817999839782715,-11.541999816894531 -9.307999610900879,-10.031999588012695 -9.307999610900879,-10.031999588012695 C-9.220999717712402,-9.944999694824219 -9.107999801635742,-9.902000427246094 -8.994999885559082,-9.902000427246094z"></path></g></g><g transform="matrix(28.3700008392334,0,0,28.3700008392334,539.9968872070312,539.9990234375)" opacity="1" style="display: block;"><g opacity="1" transform="matrix(1,0,0,1,0,0)"><path fill="rgb(92,255,79)" fill-opacity="1" d=" M-12.17199993133545,-2.924999952316284 C-12.17199993133545,-2.924999952316284 -14.307999610900879,-2.924999952316284 -14.307999610900879,-2.924999952316284 C-14.880999565124512,-2.924999952316284 -14.880999565124512,-2.0390000343322754 -14.307999610900879,-2.0390000343322754 C-14.307999610900879,-2.0390000343322754 -12.17199993133545,-2.0390000343322754 -12.17199993133545,-2.0390000343322754 C-11.598999977111816,-2.0390000343322754 -11.598999977111816,-2.924999952316284 -12.17199993133545,-2.924999952316284z"></path></g></g><g transform="matrix(28.3700008392334,0,0,28.3700008392334,539.9968872070312,539.9990234375)" opacity="1" style="display: block;"><g opacity="1" transform="matrix(1,0,0,1,0,0)"><path fill="rgb(92,255,79)" fill-opacity="1" d=" M-9.17300033569336,5.01200008392334 C-9.17300033569336,5.01200008392334 -10.682999610900879,6.521999835968018 -10.682999610900879,6.521999835968018 C-11.088000297546387,6.927000045776367 -10.461999893188477,7.552999973297119 -10.057000160217285,7.1479997634887695 C-10.057000160217285,7.1479997634887695 -8.54699993133545,5.638000011444092 -8.54699993133545,5.638000011444092 C-8.142000198364258,5.232999801635742 -8.767999649047852,4.60699987411499 -9.17300033569336,5.01200008392334z"></path></g></g></g></svg>