<svg xmlns="http://www.w3.org/2000/svg" xmlns:xlink="http://www.w3.org/1999/xlink" viewBox="0 0 1080 1080" width="1080" height="1080" preserveAspectRatio="xMidYMid meet" style="width: 100%; height: 100%; transform: translate3d(0px, 0px, 0px); content-visibility: visible;"><defs><clipPath id="__lottie_element_509"><rect width="1080" height="1080" x="0" y="0"></rect></clipPath></defs><g clip-path="url(#__lottie_element_509)"><g transform="matrix(28.239999771118164,0,0,28.239999771118164,540.010986328125,540.0128784179688)" opacity="1" style="display: block;"><g opacity="1" transform="matrix(1,0,0,1,0,0)"><path fill="rgb(92,255,79)" fill-opacity="1" d=" M10.986000061035156,0.12099999934434891 C10.986000061035156,-0.8259999752044678 10.461000442504883,-1.690000057220459 9.645999908447266,-2.134000062942505 C9.687999725341797,-2.374000072479248 9.710000038146973,-2.617000102996826 9.710000038146973,-2.859999895095825 C9.710000038146973,-4.53000020980835 8.73799991607666,-6.006999969482422 7.21999979019165,-6.671000003814697 C6.4120001792907715,-8.364999771118164 4.703000068664551,-9.449999809265137 2.815999984741211,-9.449999809265137 C1.840999960899353,-9.449999809265137 0.9150000214576721,-9.168999671936035 0.11500000208616257,-8.633999824523926 C-0.40400001406669617,-9.111000061035156 -1.0820000171661377,-9.378000259399414 -1.7979999780654907,-9.378000259399414 C-2.937999963760376,-9.378000259399414 -3.9549999237060547,-8.694000244140625 -4.3979997634887695,-7.671999931335449 C-4.6529998779296875,-7.7129998207092285 -4.910999774932861,-7.732999801635742 -5.169000148773193,-7.732999801635742 C-6.196000099182129,-7.732999801635742 -7.177999973297119,-7.419000148773193 -8.010000228881836,-6.822000026702881 C-8.206999778747559,-6.681000232696533 -8.251999855041504,-6.40500020980835 -8.111000061035156,-6.208000183105469 C-7.96999979019165,-6.011000156402588 -7.695000171661377,-5.965000152587891 -7.498000144958496,-6.10699987411499 C-6.815999984741211,-6.5960001945495605 -6.011000156402588,-6.854000091552734 -5.169000148773193,-6.854000091552734 C-4.848999977111816,-6.854000091552734 -4.5269999504089355,-6.815999984741211 -4.214000225067139,-6.738999843597412 C-3.9820001125335693,-6.682000160217285 -3.746999979019165,-6.821000099182129 -3.684999942779541,-7.052000045776367 C-3.4570000171661377,-7.9039998054504395 -2.680999994277954,-8.49899959564209 -1.7979999780654907,-8.49899959564209 C-1.2070000171661377,-8.49899959564209 -0.652999997138977,-8.234999656677246 -0.2800000011920929,-7.775000095367432 C-0.12800000607967377,-7.5879998207092285 0.14499999582767487,-7.558000087738037 0.33399999141693115,-7.706999778747559 C1.0470000505447388,-8.272000312805176 1.906000018119812,-8.571000099182129 2.815999984741211,-8.571000099182129 C4.413000106811523,-8.571000099182129 5.854000091552734,-7.624000072479248 6.488999843597412,-6.1570000648498535 C6.535999774932861,-6.048999786376953 6.624000072479248,-5.965000152587891 6.734000205993652,-5.921999931335449 C8.008000373840332,-5.427999973297119 8.831000328063965,-4.22599983215332 8.831000328063965,-2.859999895095825 C8.831000328063965,-2.569000005722046 8.791999816894531,-2.2790000438690186 8.71500015258789,-1.996999979019165 C8.654999732971191,-1.7760000228881836 8.776000022888184,-1.5449999570846558 8.991000175476074,-1.468000054359436 C9.659000396728516,-1.2280000448226929 10.107000350952148,-0.5889999866485596 10.107000350952148,0.12099999934434891 C10.107000350952148,0.6909999847412109 9.822999954223633,1.218000054359436 9.345000267028809,1.531999945640564 C9.246000289916992,1.597000002861023 9.178000450134277,1.6990000009536743 9.154999732971191,1.815000057220459 C9.131999969482422,1.930999994277954 9.156000137329102,2.0510001182556152 9.222999572753906,2.1480000019073486 C9.626999855041504,2.739000082015991 9.840999603271484,3.430999994277954 9.840999603271484,4.14900016784668 C9.840999603271484,4.309000015258789 9.829999923706055,4.4710001945495605 9.809000015258789,4.629000186920166 C9.777000427246094,4.86899995803833 9.944999694824219,5.091000080108643 10.185999870300293,5.123000144958496 C10.206000328063965,5.125999927520752 10.225000381469727,5.126999855041504 10.244999885559082,5.126999855041504 C10.461999893188477,5.126999855041504 10.649999618530273,4.9670000076293945 10.680000305175781,4.745999813079834 C10.706999778747559,4.548999786376953 10.720000267028809,4.3480000495910645 10.720000267028809,4.14900016784668 C10.720000267028809,3.3910000324249268 10.529000282287598,2.6570000648498535 10.164999961853027,2.002000093460083 C10.6850004196167,1.5199999809265137 10.986000061035156,0.8429999947547913 10.986000061035156,0.12099999934434891z"></path></g></g><g transform="matrix(28.239999771118164,0,0,28.239999771118164,540.0111083984375,539.9944458007812)" opacity="1" style="display: block;"><g opacity="1" transform="matrix(1,0,0,1,0,0)"><path fill="rgb(92,255,79)" fill-opacity="1" d=" M9.729999542236328,6.21999979019165 C9.536999702453613,6.072999954223633 9.26099967956543,6.109000205993652 9.11400032043457,6.302000045776367 C8.435999870300293,7.189000129699707 7.4070000648498535,7.698999881744385 6.291999816894531,7.698999881744385 C5.9019999504089355,7.698999881744385 5.51800012588501,7.635000228881836 5.1479997634887695,7.508999824523926 C5,7.459000110626221 4.835000038146973,7.491000175476074 4.7170000076293945,7.593999862670898 C4.11899995803833,8.114999771118164 3.3540000915527344,8.402000427246094 2.562000036239624,8.402000427246094 C1.815999984741211,8.402000427246094 1.1119999885559082,8.156999588012695 0.5270000100135803,7.693999767303467 C0.4300000071525574,7.617000102996826 0.3050000071525574,7.585000038146973 0.18299999833106995,7.605000019073486 C0.061000000685453415,7.625 -0.04800000041723251,7.695000171661377 -0.11500000208616257,7.798999786376953 C-0.42800000309944153,8.281999588012695 -0.9580000042915344,8.571000099182129 -1.531999945640564,8.571000099182129 C-2.200000047683716,8.571000099182129 -2.806999921798706,8.175999641418457 -3.0769999027252197,7.564000129699707 C-3.1730000972747803,7.3460001945495605 -3.4260001182556152,7.24399995803833 -3.6459999084472656,7.335000038146973 C-4.130000114440918,7.534999847412109 -4.64300012588501,7.635000228881836 -5.169000148773193,7.635000228881836 C-7.375,7.635000228881836 -9.170000076293945,5.840000152587891 -9.170000076293945,3.634000062942505 C-9.170000076293945,3.187999963760376 -9.097000122070312,2.749000072479248 -8.951000213623047,2.3269999027252197 C-8.883000373840332,2.128999948501587 -8.963000297546387,1.9110000133514404 -9.142999649047852,1.8049999475479126 C-9.73799991607666,1.4550000429153442 -10.107000350952148,0.8100000023841858 -10.107000350952148,0.12099999934434891 C-10.107000350952148,-0.5270000100135803 -9.786999702453613,-1.1319999694824219 -9.25,-1.496999979019165 C-9.100000381469727,-1.5989999771118164 -9.027999877929688,-1.781999945640564 -9.067999839782715,-1.9579999446868896 C-9.13599967956543,-2.253999948501587 -9.170000076293945,-2.555999994277954 -9.170000076293945,-2.8540000915527344 C-9.170000076293945,-3.509999990463257 -9.017000198364258,-4.135000228881836 -8.71399974822998,-4.710999965667725 C-8.60099983215332,-4.926000118255615 -8.684000015258789,-5.190999984741211 -8.89900016784668,-5.303999900817871 C-9.11400032043457,-5.416999816894531 -9.378999710083008,-5.334000110626221 -9.491999626159668,-5.11899995803833 C-9.855999946594238,-4.425000190734863 -10.048999786376953,-3.6419999599456787 -10.048999786376953,-2.8540000915527344 C-10.048999786376953,-2.5840001106262207 -10.026000022888184,-2.312999963760376 -9.980999946594238,-2.0439999103546143 C-10.614999771118164,-1.5080000162124634 -10.986000061035156,-0.718999981880188 -10.986000061035156,0.11999999731779099 C-10.986000061035156,1 -10.569999694824219,1.8329999446868896 -9.880999565124512,2.365000009536743 C-9.993000030517578,2.7790000438690186 -10.048999786376953,3.2039999961853027 -10.048999786376953,3.634000062942505 C-10.048999786376953,6.324999809265137 -7.860000133514404,8.513999938964844 -5.169000148773193,8.513999938964844 C-4.659999847412109,8.513999938964844 -4.163000106811523,8.437000274658203 -3.684000015258789,8.282999992370605 C-3.2149999141693115,9.003000259399414 -2.4079999923706055,9.449999809265137 -1.531999945640564,9.449999809265137 C-0.8130000233650208,9.449999809265137 -0.14000000059604645,9.152999877929688 0.3409999907016754,8.637999534606934 C1.003999948501587,9.059000015258789 1.7640000581741333,9.279999732971191 2.562000036239624,9.279999732971191 C3.4830000400543213,9.279999732971191 4.375999927520752,8.975000381469727 5.1020002365112305,8.414999961853027 C5.488999843597412,8.52299976348877 5.888999938964844,8.57800006866455 6.291999816894531,8.57800006866455 C7.684000015258789,8.57800006866455 8.967000007629395,7.942999839782715 9.812999725341797,6.835999965667725 C9.960000038146973,6.64300012588501 9.92300033569336,6.367000102996826 9.729999542236328,6.21999979019165z"></path></g></g><g transform="matrix(28.239999771118164,0,0,28.239999771118164,540.0006713867188,539.9993286132812)" opacity="1" style="display: block;"><g opacity="1" transform="matrix(1,0,0,1,0,0)"><path fill="rgb(92,255,79)" fill-opacity="1" d=" M-4.568999767303467,-3.441999912261963 C-4.515999794006348,-3.441999912261963 -4.461999893188477,-3.437000036239624 -4.408999919891357,-3.427000045776367 C-4.188000202178955,-3.384000062942505 -3.9719998836517334,-3.515000104904175 -3.9059998989105225,-3.7300000190734863 C-3.7990000247955322,-4.081999778747559 -3.4779999256134033,-4.316999912261963 -3.109999895095825,-4.316999912261963 C-2.9210000038146973,-4.316999912261963 -2.74399995803833,-4.255000114440918 -2.5959999561309814,-4.138999938964844 C-2.4049999713897705,-3.989000082015991 -2.128999948501587,-4.020999908447266 -1.9789999723434448,-4.211999893188477 C-1.8289999961853027,-4.4029998779296875 -1.8609999418258667,-4.679999828338623 -2.052000045776367,-4.829999923706055 C-2.3519999980926514,-5.065999984741211 -2.7269999980926514,-5.196000099182129 -3.109999895095825,-5.196000099182129 C-3.743000030517578,-5.196000099182129 -4.307000160217285,-4.855999946594238 -4.604000091552734,-4.321000099182129 C-5.531000137329102,-4.302000045776367 -6.2789998054504395,-3.5420000553131104 -6.2789998054504395,-2.6110000610351562 C-6.2789998054504395,-2.308000087738037 -6.198999881744385,-2.009999990463257 -6.046999931335449,-1.75 C-5.965000152587891,-1.6100000143051147 -5.817999839782715,-1.531999945640564 -5.666999816894531,-1.531999945640564 C-5.5920000076293945,-1.531999945640564 -5.515999794006348,-1.5509999990463257 -5.446000099182129,-1.5920000076293945 C-5.236000061035156,-1.7139999866485596 -5.165999889373779,-1.9830000400543213 -5.288000106811523,-2.193000078201294 C-5.361999988555908,-2.319000005722046 -5.400000095367432,-2.4639999866485596 -5.400000095367432,-2.6110000610351562 C-5.400000095367432,-3.069000005722046 -5.0279998779296875,-3.441999912261963 -4.568999767303467,-3.441999912261963z"></path></g></g><g transform="matrix(28.239999771118164,0,0,28.239999771118164,540.0020141601562,539.9950561523438)" opacity="1" style="display: block;"><g opacity="1" transform="matrix(1,0,0,1,0,0)"><path fill="rgb(92,255,79)" fill-opacity="1" d=" M5.1519999504089355,4.817999839782715 C4.889999866485596,4.817999839782715 4.636000156402588,4.74399995803833 4.414999961853027,4.605000019073486 C4.271999835968018,4.514999866485596 4.0879998207092285,4.514999866485596 3.944999933242798,4.605000019073486 C3.7239999771118164,4.74399995803833 3.4700000286102295,4.817999839782715 3.2079999446868896,4.817999839782715 C2.6070001125335693,4.817999839782715 2.0769999027252197,4.434999942779541 1.8899999856948853,3.864000082015991 C1.8140000104904175,3.632999897003174 1.5670000314712524,3.506999969482422 1.3359999656677246,3.5829999446868896 C1.1050000190734863,3.6589999198913574 0.9789999723434448,3.9070000648498535 1.0549999475479126,4.138000011444092 C1.3609999418258667,5.071000099182129 2.2260000705718994,5.697000026702881 3.2079999446868896,5.697000026702881 C3.5460000038146973,5.697000026702881 3.877000093460083,5.622000217437744 4.179999828338623,5.478000164031982 C4.482999801635742,5.622000217437744 4.814000129699707,5.697000026702881 5.1519999504089355,5.697000026702881 C6.401000022888184,5.697000026702881 7.416999816894531,4.681000232696533 7.416999816894531,3.431999921798706 C7.416999816894531,3.0220000743865967 7.309000015258789,2.63100004196167 7.104000091552734,2.2839999198913574 C7.230999946594238,1.996999979019165 7.296999931335449,1.684999942779541 7.296999931335449,1.3680000305175781 C7.296999931335449,0.718999981880188 7.01800012588501,0.10100000351667404 6.5320000648498535,-0.32899999618530273 C6.349999904632568,-0.49000000953674316 6.072999954223633,-0.4729999899864197 5.9120001792907715,-0.29100000858306885 C5.750999927520752,-0.10899999737739563 5.76800012588501,0.1679999977350235 5.949999809265137,0.32899999618530273 C6.248000144958496,0.5920000076293945 6.418000221252441,0.9710000157356262 6.418000221252441,1.3680000305175781 C6.418000221252441,1.621999979019165 6.348999977111816,1.8700000047683716 6.2179999351501465,2.0859999656677246 C6.123000144958496,2.242000102996826 6.135000228881836,2.438999891281128 6.247000217437744,2.5829999446868896 C6.438000202178955,2.828000068664551 6.538000106811523,3.121999979019165 6.538000106811523,3.431999921798706 C6.538000106811523,4.196000099182129 5.915999889373779,4.817999839782715 5.1519999504089355,4.817999839782715z"></path></g></g><g transform="matrix(28.239999771118164,0,0,28.239999771118164,539.9960327148438,539.997314453125)" opacity="1" style="display: block;"><g opacity="1" transform="matrix(1,0,0,1,0,0)"><path fill="rgb(92,255,79)" fill-opacity="1" d=" M-6.511000156402588,2.8889999389648438 C-6.7230000495910645,2.7709999084472656 -6.991000175476074,2.8489999771118164 -7.109000205993652,3.061000108718872 C-7.5879998207092285,3.924999952316284 -7.27400016784668,5.017000198364258 -6.409999847412109,5.495999813079834 C-6.138000011444092,5.646999835968018 -5.839000225067139,5.7220001220703125 -5.540999889373779,5.7220001220703125 C-5.14900016784668,5.7220001220703125 -4.758999824523926,5.5929999351501465 -4.435999870300293,5.340000152587891 C-4.244999885559082,5.190000057220459 -4.210999965667725,4.914000034332275 -4.361000061035156,4.7230000495910645 C-4.511000156402588,4.5320000648498535 -4.7870001792907715,4.498000144958496 -4.978000164031982,4.6479997634887695 C-5.26800012588501,4.875 -5.6620001792907715,4.906000137329102 -5.984000205993652,4.728000164031982 C-6.197000026702881,4.610000133514404 -6.3520002365112305,4.414999961853027 -6.419000148773193,4.181000232696533 C-6.486000061035156,3.947000026702881 -6.458000183105469,3.6989998817443848 -6.340000152587891,3.4860000610351562 C-6.2220001220703125,3.2739999294281006 -6.298999786376953,3.006999969482422 -6.511000156402588,2.8889999389648438z"></path></g></g><g transform="matrix(28.239999771118164,0,0,28.239999771118164,540.0118408203125,540.0032958984375)" opacity="1" style="display: block;"><g opacity="1" transform="matrix(1,0,0,1,0,0)"><path fill="rgb(92,255,79)" fill-opacity="1" d=" M-12.260000228881836,-9.871000289916992 C-12.156000137329102,-9.852999687194824 -12.053000450134277,-9.843999862670898 -11.951000213623047,-9.843999862670898 C-11.253999710083008,-9.843999862670898 -10.621000289916992,-10.255999565124512 -10.335000038146973,-10.883000373840332 C-9.885000228881836,-10.817000389099121 -9.4350004196167,-10.923999786376953 -9.060999870300293,-11.185999870300293 C-8.67199993133545,-11.458000183105469 -8.411999702453613,-11.864999771118164 -8.329999923706055,-12.331999778747559 C-8.248000144958496,-12.798999786376953 -8.35200023651123,-13.270999908447266 -8.62399959564209,-13.65999984741211 C-8.895999908447266,-14.048999786376953 -9.303999900817871,-14.309000015258789 -9.770999908447266,-14.390999794006348 C-9.942000389099121,-14.420999526977539 -10.11299991607666,-14.425999641418457 -10.281999588012695,-14.406000137329102 C-10.545999526977539,-14.701000213623047 -10.902999877929688,-14.902999877929688 -11.29800033569336,-14.972999572753906 C-12.262999534606934,-15.144000053405762 -13.185999870300293,-14.496999740600586 -13.355999946594238,-13.531999588012695 C-13.402000427246094,-13.270000457763672 -13.390000343322754,-13.005000114440918 -13.319999694824219,-12.753000259399414 C-13.515000343322754,-12.517000198364258 -13.647000312805176,-12.232999801635742 -13.701000213623047,-11.928999900817871 C-13.782999992370605,-11.461999893188477 -13.678999900817871,-10.991000175476074 -13.406999588012695,-10.60200023651123 C-13.135000228881836,-10.213000297546387 -12.72700023651123,-9.95300006866455 -12.260000228881836,-9.871000289916992z M-12.836000442504883,-11.776000022888184 C-12.798999786376953,-11.982999801635742 -12.6899995803833,-12.17300033569336 -12.529000282287598,-12.307999610900879 C-12.375,-12.437000274658203 -12.329000473022461,-12.654000282287598 -12.416000366210938,-12.835000038146973 C-12.498000144958496,-13.005000114440918 -12.52299976348877,-13.192999839782715 -12.489999771118164,-13.378999710083008 C-12.413000106811523,-13.814000129699707 -12.034000396728516,-14.121000289916992 -11.607000350952148,-14.121000289916992 C-11.555000305175781,-14.121000289916992 -11.503999710083008,-14.116000175476074 -11.451000213623047,-14.107000350952148 C-11.197999954223633,-14.062000274658203 -10.97599983215332,-13.91100025177002 -10.840999603271484,-13.690999984741211 C-10.737000465393066,-13.520000457763672 -10.531000137329102,-13.442000389099121 -10.33899974822998,-13.5 C-10.204000473022461,-13.541000366210938 -10.064000129699707,-13.550000190734863 -9.923999786376953,-13.524999618530273 C-9.687999725341797,-13.482999801635742 -9.482000350952148,-13.35200023651123 -9.343999862670898,-13.156000137329102 C-9.206000328063965,-12.960000038146973 -9.154000282287598,-12.720999717712402 -9.196000099182129,-12.484999656677246 C-9.23799991607666,-12.24899959564209 -9.369000434875488,-12.043000221252441 -9.5649995803833,-11.904999732971191 C-9.76099967956543,-11.767999649047852 -9.99899959564209,-11.71500015258789 -10.234999656677246,-11.756999969482422 C-10.309000015258789,-11.770000457763672 -10.380999565124512,-11.791999816894531 -10.449000358581543,-11.822999954223633 C-10.574000358581543,-11.878999710083008 -10.718999862670898,-11.87399959564209 -10.84000015258789,-11.807999610900879 C-10.961000442504883,-11.741999626159668 -11.043000221252441,-11.62399959564209 -11.064000129699707,-11.48799991607666 C-11.064000129699707,-11.48799991607666 -11.067000389099121,-11.46500015258789 -11.067000389099121,-11.46500015258789 C-11.152999877929688,-10.97700023651123 -11.619000434875488,-10.649999618530273 -12.107000350952148,-10.736000061035156 C-12.343000411987305,-10.777999877929688 -12.548999786376953,-10.90999984741211 -12.687000274658203,-11.105999946594238 C-12.824999809265137,-11.302000045776367 -12.878000259399414,-11.539999961853027 -12.836000442504883,-11.776000022888184z"></path></g></g><g transform="matrix(28.239999771118164,0,0,28.239999771118164,540.0020141601562,540.0052490234375)" opacity="1" style="display: block;"><g opacity="1" transform="matrix(1,0,0,1,0,0)"><path fill="rgb(92,255,79)" fill-opacity="1" d=" M-5.294000148773193,13.425999641418457 C-5.5,13.29800033569336 -5.770999908447266,13.361000061035156 -5.89900016784668,13.567000389099121 C-6.114999771118164,13.913999557495117 -6.486999988555908,14.121000289916992 -6.894999980926514,14.121000289916992 C-7.307000160217285,14.121000289916992 -7.682000160217285,13.91100025177002 -7.896999835968018,13.557999610900879 C-7.999000072479248,13.390999794006348 -8.199000358581543,13.310999870300293 -8.387999534606934,13.36299991607666 C-8.451000213623047,13.380000114440918 -8.513999938964844,13.388999938964844 -8.574000358581543,13.388999938964844 C-8.961999893188477,13.388999938964844 -9.277000427246094,13.072999954223633 -9.277000427246094,12.685999870300293 C-9.277000427246094,12.29800033569336 -8.961999893188477,11.982999801635742 -8.574000358581543,11.982999801635742 C-8.437000274658203,11.982999801635742 -8.305000305175781,12.02299976348877 -8.1899995803833,12.097999572753906 C-8.026000022888184,12.206000328063965 -7.809999942779541,12.190999984741211 -7.660999774932861,12.062999725341797 C-7.447999954223633,11.878999710083008 -7.176000118255615,11.777000427246094 -6.894999980926514,11.777000427246094 C-6.563000202178955,11.777000427246094 -6.244999885559082,11.920000076293945 -6.0229997634887695,12.166999816894531 C-5.861000061035156,12.347999572753906 -5.584000110626221,12.362000465393066 -5.4029998779296875,12.199999809265137 C-5.2220001220703125,12.038000106811523 -5.206999778747559,11.758999824523926 -5.36899995803833,11.579000473022461 C-5.757999897003174,11.145999908447266 -6.314000129699707,10.89799976348877 -6.894999980926514,10.89799976348877 C-7.284999847412109,10.89799976348877 -7.664000034332275,11.010000228881836 -7.989999771118164,11.215999603271484 C-8.175000190734863,11.142000198364258 -8.373000144958496,11.104000091552734 -8.574000358581543,11.104000091552734 C-9.446000099182129,11.104000091552734 -10.154999732971191,11.814000129699707 -10.154999732971191,12.685999870300293 C-10.154999732971191,13.557999610900879 -9.446000099182129,14.267999649047852 -8.574000358581543,14.267999649047852 C-8.538999557495117,14.267999649047852 -8.505000114440918,14.265999794006348 -8.470000267028809,14.263999938964844 C-8.083000183105469,14.729000091552734 -7.513000011444092,15 -6.894999980926514,15 C-6.181000232696533,15 -5.53000020980835,14.637999534606934 -5.1529998779296875,14.031000137329102 C-5.025000095367432,13.824999809265137 -5.0879998207092285,13.553999900817871 -5.294000148773193,13.425999641418457z"></path></g></g><g transform="matrix(28.239999771118164,0,0,28.239999771118164,540.0089111328125,540.012451171875)" opacity="1" style="display: block;"><g opacity="1" transform="matrix(1,0,0,1,0,0)"><path fill="rgb(92,255,79)" fill-opacity="1" d=" M11.298999786376953,-9.866999626159668 C11.333000183105469,-9.866999626159668 11.366000175476074,-9.868000030517578 11.399999618530273,-9.869999885559082 C11.784000396728516,-9.407999992370605 12.350000381469727,-9.140999794006348 12.963000297546387,-9.140999794006348 C14.086000442504883,-9.140999794006348 15,-10.055000305175781 15,-11.178000450134277 C15,-12.192000389099121 14.255000114440918,-13.03499984741211 13.284000396728516,-13.1899995803833 C13.041000366210938,-13.711000442504883 12.510000228881836,-14.062000274658203 11.916999816894531,-14.062000274658203 C11.149999618530273,-14.062000274658203 10.513999938964844,-13.486000061035156 10.420999526977539,-12.743000030517578 C9.991000175476074,-12.454999923706055 9.72700023651123,-11.968999862670898 9.72700023651123,-11.439000129699707 C9.72700023651123,-10.571999549865723 10.432000160217285,-9.866999626159668 11.298999786376953,-9.866999626159668z M11.026000022888184,-12.076000213623047 C11.197999954223633,-12.149999618530273 11.303999900817871,-12.324000358581543 11.291000366210938,-12.51099967956543 C11.291000366210938,-12.51099967956543 11.289999961853027,-12.520999908447266 11.289999961853027,-12.520999908447266 C11.288999557495117,-12.531999588012695 11.288000106811523,-12.543999671936035 11.288000106811523,-12.555000305175781 C11.288000106811523,-12.902000427246094 11.569999694824219,-13.184000015258789 11.916999816894531,-13.184000015258789 C12.213000297546387,-13.184000015258789 12.470999717712402,-12.973999977111816 12.531999588012695,-12.6850004196167 C12.574999809265137,-12.480999946594238 12.753999710083008,-12.336000442504883 12.961999893188477,-12.336000442504883 C12.96399974822998,-12.336000442504883 12.965999603271484,-12.336000442504883 12.968000411987305,-12.336000442504883 C13.604000091552734,-12.333000183105469 14.121000289916992,-11.8149995803833 14.121000289916992,-11.178000450134277 C14.121000289916992,-10.538999557495117 13.60200023651123,-10.019000053405762 12.963000297546387,-10.019000053405762 C12.555000305175781,-10.019000053405762 12.1850004196167,-10.22700023651123 11.972999572753906,-10.576000213623047 C11.892000198364258,-10.708999633789062 11.748000144958496,-10.786999702453613 11.597999572753906,-10.786999702453613 C11.5600004196167,-10.786999702453613 11.520000457763672,-10.781999588012695 11.482000350952148,-10.770999908447266 C11.420000076293945,-10.753999710083008 11.357000350952148,-10.746000289916992 11.29800033569336,-10.746000289916992 C10.916000366210938,-10.746000289916992 10.604999542236328,-11.057000160217285 10.604999542236328,-11.439000129699707 C10.604999542236328,-11.717000007629395 10.770999908447266,-11.965999603271484 11.026000022888184,-12.076000213623047z"></path></g></g><g transform="matrix(1,0,0,1,0.000030517578125,0)" opacity="1" style="display: block;"><g opacity="1" transform="matrix(28.239999771118164,0,0,28.239999771118164,540.0028076171875,539.9987182617188)"><g opacity="1" transform="matrix(1,0,0,1,0,0)"><path fill="rgb(92,255,79)" fill-opacity="1" d=" M-2.9140000343322754,-11.873000144958496 C-2.8540000915527344,-11.687000274658203 -2.680999994277954,-11.569000244140625 -2.496000051498413,-11.569000244140625 C-2.4509999752044678,-11.569000244140625 -2.4049999713897705,-11.576000213623047 -2.359999895095825,-11.590999603271484 C-2.128999948501587,-11.666000366210938 -2.003000020980835,-11.913000106811523 -2.078000068664551,-12.144000053405762 C-2.078000068664551,-12.144000053405762 -2.6760001182556152,-13.982999801635742 -2.6760001182556152,-13.982999801635742 C-2.750999927520752,-14.21399974822998 -2.997999906539917,-14.34000015258789 -3.2290000915527344,-14.265000343322754 C-3.4600000381469727,-14.1899995803833 -3.5869998931884766,-13.942999839782715 -3.51200008392334,-13.711999893188477 C-3.51200008392334,-13.711999893188477 -2.9140000343322754,-11.873000144958496 -2.9140000343322754,-11.873000144958496z"></path></g></g><g opacity="1" transform="matrix(28.239999771118164,0,0,28.239999771118164,540.0123291015625,540.0122680664062)"><g opacity="1" transform="matrix(1,0,0,1,0,0)"><path fill="rgb(92,255,79)" fill-opacity="1" d=" M5.7270002365112305,11.873000144958496 C5.6519999504089355,11.642000198364258 5.4039998054504395,11.515999794006348 5.172999858856201,11.590999603271484 C4.941999912261963,11.666000366210938 4.815999984741211,11.913999557495117 4.890999794006348,12.145000457763672 C4.890999794006348,12.145000457763672 5.48799991607666,13.984000205993652 5.48799991607666,13.984000205993652 C5.547999858856201,14.170000076293945 5.7210001945495605,14.288000106811523 5.906000137329102,14.288000106811523 C5.951000213623047,14.288000106811523 5.997000217437744,14.281000137329102 6.041999816894531,14.265999794006348 C6.2729997634887695,14.190999984741211 6.39900016784668,13.942999839782715 6.323999881744385,13.711999893188477 C6.323999881744385,13.711999893188477 5.7270002365112305,11.873000144958496 5.7270002365112305,11.873000144958496z"></path></g></g><g opacity="1" transform="matrix(28.239999771118164,0,0,28.239999771118164,539.9907836914062,539.9892578125)"><g opacity="1" transform="matrix(1,0,0,1,0,0)"><path fill="rgb(92,255,79)" fill-opacity="1" d=" M0.6110000014305115,-12.192000389099121 C0.6549999713897705,-12.178000450134277 0.7009999752044678,-12.170999526977539 0.7450000047683716,-12.170999526977539 C0.9309999942779541,-12.170999526977539 1.1039999723434448,-12.288999557495117 1.1640000343322754,-12.47599983215332 C1.1640000343322754,-12.47599983215332 1.4249999523162842,-13.293000221252441 1.4249999523162842,-13.293000221252441 C1.4989999532699585,-13.52400016784668 1.371000051498413,-13.770999908447266 1.1399999856948853,-13.845000267028809 C0.9089999794960022,-13.918999671936035 0.6620000004768372,-13.791000366210938 0.5879999995231628,-13.5600004196167 C0.5879999995231628,-13.5600004196167 0.3269999921321869,-12.744000434875488 0.3269999921321869,-12.744000434875488 C0.2529999911785126,-12.512999534606934 0.3799999952316284,-12.265999794006348 0.6110000014305115,-12.192000389099121z"></path></g></g><g opacity="1" transform="matrix(28.239999771118164,0,0,28.239999771118164,540.00732421875,539.99169921875)"><g opacity="1" transform="matrix(1,0,0,1,0,0)"><path fill="rgb(92,255,79)" fill-opacity="1" d=" M2.2009999752044678,12.190999984741211 C1.9700000286102295,12.116999626159668 1.722000002861023,12.244999885559082 1.6480000019073486,12.47599983215332 C1.6480000019073486,12.47599983215332 1.3869999647140503,13.291999816894531 1.3869999647140503,13.291999816894531 C1.312999963760376,13.52299976348877 1.440999984741211,13.770999908447266 1.6720000505447388,13.845000267028809 C1.715999960899353,13.859000205993652 1.7619999647140503,13.864999771118164 1.805999994277954,13.864999771118164 C1.9919999837875366,13.864999771118164 2.1640000343322754,13.746999740600586 2.2239999771118164,13.5600004196167 C2.2239999771118164,13.5600004196167 2.484999895095825,12.743000030517578 2.484999895095825,12.743000030517578 C2.559000015258789,12.51200008392334 2.431999921798706,12.265000343322754 2.2009999752044678,12.190999984741211z"></path></g></g><g opacity="1" transform="matrix(28.239999771118164,0,0,28.239999771118164,540.0120849609375,539.997314453125)"><g opacity="1" transform="matrix(1,0,0,1,0,0)"><path fill="rgb(92,255,79)" fill-opacity="1" d=" M-6.421999931335449,-10.741999626159668 C-6.421999931335449,-10.741999626159668 -5.730999946594238,-10.234999656677246 -5.730999946594238,-10.234999656677246 C-5.6529998779296875,-10.178000450134277 -5.560999870300293,-10.149999618530273 -5.4710001945495605,-10.149999618530273 C-5.335999965667725,-10.149999618530273 -5.203000068664551,-10.213000297546387 -5.117000102996826,-10.329999923706055 C-4.9730000495910645,-10.526000022888184 -5.014999866485596,-10.800000190734863 -5.210999965667725,-10.944000244140625 C-5.210999965667725,-10.944000244140625 -5.9019999504089355,-11.451000213623047 -5.9019999504089355,-11.451000213623047 C-6.0980000495910645,-11.595000267028809 -6.372000217437744,-11.553000450134277 -6.515999794006348,-11.357000350952148 C-6.659999847412109,-11.16100025177002 -6.618000030517578,-10.88599967956543 -6.421999931335449,-10.741999626159668z"></path></g></g><g opacity="1" transform="matrix(28.239999771118164,0,0,28.239999771118164,539.99609375,540.0126953125)"><g opacity="1" transform="matrix(1,0,0,1,0,0)"><path fill="rgb(92,255,79)" fill-opacity="1" d=" M9.234000205993652,10.743000030517578 C9.234000205993652,10.743000030517578 8.543000221252441,10.236000061035156 8.543000221252441,10.236000061035156 C8.347000122070312,10.092000007629395 8.072999954223633,10.133999824523926 7.928999900817871,10.329999923706055 C7.784999847412109,10.526000022888184 7.827000141143799,10.800000190734863 8.02299976348877,10.944000244140625 C8.02299976348877,10.944000244140625 8.71399974822998,11.451000213623047 8.71399974822998,11.451000213623047 C8.791999816894531,11.508000373840332 8.883999824523926,11.53600025177002 8.973999977111816,11.53600025177002 C9.109000205993652,11.53600025177002 9.243000030517578,11.473999977111816 9.329000473022461,11.357000350952148 C9.472999572753906,11.16100025177002 9.430000305175781,10.88700008392334 9.234000205993652,10.743000030517578z"></path></g></g><g opacity="1" transform="matrix(28.239999771118164,0,0,28.239999771118164,540.002197265625,539.990966796875)"><g opacity="1" transform="matrix(1,0,0,1,0,0)"><path fill="rgb(92,255,79)" fill-opacity="1" d=" M14.484000205993652,-3.6040000915527344 C14.484000205993652,-3.6040000915527344 12.595999717712402,-3.2709999084472656 12.595999717712402,-3.2709999084472656 C12.357000350952148,-3.2290000915527344 12.196999549865723,-3 12.23900032043457,-2.760999917984009 C12.277000427246094,-2.5480000972747803 12.461999893188477,-2.3980000019073486 12.670999526977539,-2.3980000019073486 C12.696000099182129,-2.3980000019073486 12.722000122070312,-2.4000000953674316 12.748000144958496,-2.4049999713897705 C12.748000144958496,-2.4049999713897705 14.63700008392334,-2.73799991607666 14.63700008392334,-2.73799991607666 C14.87600040435791,-2.7799999713897705 15.03499984741211,-3.007999897003174 14.993000030517578,-3.246999979019165 C14.951000213623047,-3.4860000610351562 14.722999572753906,-3.6459999084472656 14.484000205993652,-3.6040000915527344z"></path></g></g><g opacity="1" transform="matrix(28.239999771118164,0,0,28.239999771118164,539.9898681640625,540.0115966796875)"><g opacity="1" transform="matrix(1,0,0,1,0,0)"><path fill="rgb(92,255,79)" fill-opacity="1" d=" M-12.23900032043457,1.472000002861023 C-12.281000137329102,1.2330000400543213 -12.510000228881836,1.0729999542236328 -12.74899959564209,1.1150000095367432 C-12.74899959564209,1.1150000095367432 -14.63700008392334,1.4479999542236328 -14.63700008392334,1.4479999542236328 C-14.87600040435791,1.4900000095367432 -15.03499984741211,1.718000054359436 -14.993000030517578,1.9570000171661377 C-14.954999923706055,2.1700000762939453 -14.770000457763672,2.319999933242798 -14.560999870300293,2.319999933242798 C-14.53600025177002,2.319999933242798 -14.510000228881836,2.319000005722046 -14.484000205993652,2.313999891281128 C-14.484000205993652,2.313999891281128 -12.595999717712402,1.9809999465942383 -12.595999717712402,1.9809999465942383 C-12.357000350952148,1.9390000104904175 -12.196999549865723,1.7109999656677246 -12.23900032043457,1.472000002861023z"></path></g></g><g opacity="1" transform="matrix(28.239999771118164,0,0,28.239999771118164,540.0013427734375,539.9931640625)"><g opacity="1" transform="matrix(1,0,0,1,0,0)"><path fill="rgb(92,255,79)" fill-opacity="1" d=" M12.59000015258789,-6.877999782562256 C12.416000366210938,-7.046999931335449 12.13700008392334,-7.044000148773193 11.968000411987305,-6.869999885559082 C11.968000411987305,-6.869999885559082 11.375,-6.26200008392334 11.375,-6.26200008392334 C11.206000328063965,-6.0879998207092285 11.208999633789062,-5.809000015258789 11.383000373840332,-5.639999866485596 C11.468000411987305,-5.557000160217285 11.57800006866455,-5.515999794006348 11.689000129699707,-5.515999794006348 C11.803000450134277,-5.515999794006348 11.918000221252441,-5.559999942779541 12.003999710083008,-5.6479997634887695 C12.003999710083008,-5.6479997634887695 12.597000122070312,-6.256999969482422 12.597000122070312,-6.256999969482422 C12.765999794006348,-6.431000232696533 12.763999938964844,-6.709000110626221 12.59000015258789,-6.877999782562256z"></path></g></g><g opacity="1" transform="matrix(28.239999771118164,0,0,28.239999771118164,540.0116577148438,540.0062255859375)"><g opacity="1" transform="matrix(1,0,0,1,0,0)"><path fill="rgb(92,255,79)" fill-opacity="1" d=" M-12.003999710083008,4.359000205993652 C-12.003999710083008,4.359000205993652 -12.597000122070312,4.9679999351501465 -12.597000122070312,4.9679999351501465 C-12.765999794006348,5.142000198364258 -12.762999534606934,5.420000076293945 -12.58899974822998,5.589000225067139 C-12.503999710083008,5.671999931335449 -12.392999649047852,5.714000225067139 -12.281999588012695,5.714000225067139 C-12.168000221252441,5.714000225067139 -12.053999900817871,5.669000148773193 -11.968000411987305,5.580999851226807 C-11.968000411987305,5.580999851226807 -11.37399959564209,4.9730000495910645 -11.37399959564209,4.9730000495910645 C-11.204999923706055,4.798999786376953 -11.208000183105469,4.519999980926514 -11.381999969482422,4.35099983215332 C-11.555999755859375,4.182000160217285 -11.835000038146973,4.184999942779541 -12.003999710083008,4.359000205993652z"></path></g></g><g opacity="1" transform="matrix(28.239999771118164,0,0,28.239999771118164,539.990478515625,540.0081176757812)"><g opacity="1" transform="matrix(1,0,0,1,0,0)"><path fill="rgb(92,255,79)" fill-opacity="1" d=" M13.770999908447266,0.4009999930858612 C13.770999908447266,0.4009999930858612 13.005000114440918,0.03200000151991844 13.005000114440918,0.03200000151991844 C12.78600025177002,-0.0729999989271164 12.52400016784668,0.017999999225139618 12.418999671936035,0.2370000034570694 C12.314000129699707,0.4560000002384186 12.404999732971191,0.718999981880188 12.62399959564209,0.8240000009536743 C12.62399959564209,0.8240000009536743 13.390000343322754,1.1929999589920044 13.390000343322754,1.1929999589920044 C13.45199966430664,1.2230000495910645 13.515999794006348,1.2359999418258667 13.579999923706055,1.2359999418258667 C13.743000030517578,1.2359999418258667 13.899999618530273,1.1449999809265137 13.97599983215332,0.9879999756813049 C14.081000328063965,0.7689999938011169 13.989999771118164,0.5059999823570251 13.770999908447266,0.4009999930858612z"></path></g></g><g opacity="1" transform="matrix(28.239999771118164,0,0,28.239999771118164,539.9974975585938,539.990234375)"><g opacity="1" transform="matrix(1,0,0,1,0,0)"><path fill="rgb(92,255,79)" fill-opacity="1" d=" M-13.772000312805176,-1.690000057220459 C-13.772000312805176,-1.690000057220459 -13.005999565124512,-1.3209999799728394 -13.005999565124512,-1.3209999799728394 C-12.944000244140625,-1.2910000085830688 -12.880000114440918,-1.2769999504089355 -12.815999984741211,-1.2769999504089355 C-12.652000427246094,-1.2769999504089355 -12.494999885559082,-1.36899995803833 -12.418999671936035,-1.5260000228881836 C-12.314000129699707,-1.7450000047683716 -12.404999732971191,-2.007999897003174 -12.62399959564209,-2.11299991607666 C-12.62399959564209,-2.11299991607666 -13.390000343322754,-2.4820001125335693 -13.390000343322754,-2.4820001125335693 C-13.609000205993652,-2.5869998931884766 -13.871999740600586,-2.496000051498413 -13.97700023651123,-2.2769999504089355 C-14.081999778747559,-2.058000087738037 -13.991000175476074,-1.7949999570846558 -13.772000312805176,-1.690000057220459z"></path></g></g></g></g></svg>