<svg xmlns="http://www.w3.org/2000/svg" xmlns:xlink="http://www.w3.org/1999/xlink" viewBox="0 0 1080 1080" width="1080" height="1080" preserveAspectRatio="xMidYMid meet" style="width: 100%; height: 100%; transform: translate3d(0px, 0px, 0px); content-visibility: visible;"><defs><clipPath id="__lottie_element_538"><rect width="1080" height="1080" x="0" y="0"></rect></clipPath><clipPath id="__lottie_element_540"><path d="M0,0 L1080,0 L1080,1080 L0,1080z"></path></clipPath><g id="__lottie_element_546"><g style="display: none;"><g><path></path></g></g></g><mask id="__lottie_element_546_1" mask-type="alpha"><use xlink:href="#__lottie_element_546"></use></mask><clipPath id="__lottie_element_559"><path d="M0,0 L1080,0 L1080,1080 L0,1080z"></path></clipPath><g id="__lottie_element_565"><g transform="matrix(1,0,0,1,540,540)" opacity="1" style="display: block;"><g opacity="1" transform="matrix(1,0,0,1,15,-129)"><path fill="rgb(244,244,246)" fill-opacity="1" d=" M353,-309 C353,-309 353,309 353,309 C353,309 -353,309 -353,309 C-353,309 -353,-309 -353,-309 C-353,-309 353,-309 353,-309z"></path></g></g></g><mask id="__lottie_element_565_1" mask-type="alpha"><use xlink:href="#__lottie_element_565"></use></mask></defs><g clip-path="url(#__lottie_element_538)"><g clip-path="url(#__lottie_element_559)" transform="matrix(1,0,0,1,0,0)" opacity="1" style="display: block;"><g transform="matrix(29.3799991607666,0,0,29.3799991607666,540.0098876953125,542.0300903320312)" opacity="1" style="display: block;"><g opacity="1" transform="matrix(1,0,0,1,0,0)"><path fill="rgb(92,255,79)" fill-opacity="1" d=" M9.37399959564209,4.10099983215332 C9.696999549865723,4.10099983215332 9.960000038146973,3.8380000591278076 9.960000038146973,3.515000104904175 C9.960000038146973,3.191999912261963 9.696999549865723,2.928999900817871 9.37399959564209,2.928999900817871 C9.050000190734863,2.928999900817871 8.788000106811523,3.191999912261963 8.788000106811523,3.515000104904175 C8.788000106811523,3.8380000591278076 9.050000190734863,4.10099983215332 9.37399959564209,4.10099983215332z"></path></g></g><g transform="matrix(29.3799991607666,0,0,29.3799991607666,540.0113525390625,539.9929809570312)" opacity="1" style="display: block;"><g opacity="1" transform="matrix(1,0,0,1,0,0)"><path fill="rgb(92,255,79)" fill-opacity="1" d=" M14.413000106811523,13.82800006866455 C14.413000106811523,13.82800006866455 13.47599983215332,13.82800006866455 13.47599983215332,13.82800006866455 C13.47599983215332,13.82800006866455 13.476151466369629,-2.2388458251953125 13.476151466369629,-2.2388458251953125 C13.476151466369629,-2.5628459453582764 13.214151382446289,-2.824846029281616 12.890151023864746,-2.824846029281616 C12.890151023864746,-2.824846029281616 9.374156951904297,-2.824846029281616 9.374156951904297,-2.824846029281616 C9.05015754699707,-2.824846029281616 8.78815746307373,-2.5628459453582764 8.78815746307373,-2.2388458251953125 C8.78815746307373,-2.2388458251953125 8.788239479064941,1.2553077936172485 8.788239479064941,1.2553077936172485 C8.788239479064941,1.5793077945709229 9.050239562988281,1.8413077592849731 9.374238967895508,1.8413077592849731 C9.69823932647705,1.8413077592849731 9.960232734680176,1.5793077945709229 9.960232734680176,1.2553077936172485 C9.960232734680176,1.2553077936172485 9.960150718688965,-1.6528459787368774 9.960150718688965,-1.6528459787368774 C9.960150718688965,-1.6528459787368774 12.304150581359863,-1.6528459787368774 12.304150581359863,-1.6528459787368774 C12.304150581359863,-1.6528459787368774 12.303999900817871,13.82800006866455 12.303999900817871,13.82800006866455 C12.303999900817871,13.82800006866455 9.960000038146973,13.82800006866455 9.960000038146973,13.82800006866455 C9.960000038146973,13.82800006866455 9.960188865661621,5.9166107177734375 9.960188865661621,5.9166107177734375 C9.960188865661621,5.592610836029053 9.698182106018066,5.334253787994385 9.37418270111084,5.334253787994385 C9.050182342529297,5.334253787994385 8.788188934326172,5.592610836029053 8.788188934326172,5.9166107177734375 C8.788188934326172,5.9166107177734375 8.788000106811523,13.82800006866455 8.788000106811523,13.82800006866455 C8.788000106811523,13.82800006866455 6.445000171661377,13.82800006866455 6.445000171661377,13.82800006866455 C6.445000171661377,13.82800006866455 6.445176124572754,2.419593572616577 6.445176124572754,2.419593572616577 C6.445176124572754,2.0955936908721924 6.183176040649414,1.8335999250411987 5.859176158905029,1.8335999250411987 C5.859176158905029,1.8335999250411987 2.3431825637817383,1.8335999250411987 2.3431825637817383,1.8335999250411987 C2.0191824436187744,1.8335999250411987 1.7571824789047241,2.0955936908721924 1.7571824789047241,2.419593572616577 C1.7571824789047241,2.419593572616577 1.7569999694824219,13.82800006866455 1.7569999694824219,13.82800006866455 C1.7569999694824219,13.82800006866455 -0.5870000123977661,13.82800006866455 -0.5870000123977661,13.82800006866455 C-0.5870000123977661,13.82800006866455 -0.5871069431304932,5.912967681884766 -0.5871069431304932,5.912967681884766 C-0.5871069431304932,5.588967800140381 -0.8491069674491882,5.326967716217041 -1.1731069087982178,5.326967716217041 C-1.1731069087982178,5.326967716217041 -4.688113212585449,5.326967716217041 -4.688113212585449,5.326967716217041 C-5.012113094329834,5.326967716217041 -5.274113178253174,5.588967800140381 -5.274113178253174,5.912967681884766 C-5.274113178253174,5.912967681884766 -5.27400016784668,13.82800006866455 -5.27400016784668,13.82800006866455 C-5.27400016784668,13.82800006866455 -7.618000030517578,13.82800006866455 -7.618000030517578,13.82800006866455 C-7.618000030517578,13.82800006866455 -7.617805004119873,8.241979598999023 -7.617805004119873,8.241979598999023 C-7.617805004119873,7.917979717254639 -7.879805088043213,7.655979633331299 -8.203804969787598,7.655979633331299 C-8.203804969787598,7.655979633331299 -11.71881103515625,7.655979633331299 -11.71881103515625,7.655979633331299 C-12.042811393737793,7.655979633331299 -12.304811477661133,7.917979717254639 -12.304811477661133,8.241979598999023 C-12.304811477661133,8.241979598999023 -12.305000305175781,13.82800006866455 -12.305000305175781,13.82800006866455 C-12.305000305175781,13.82800006866455 -13.829000473022461,13.82800006866455 -13.829000473022461,13.82800006866455 C-13.829000473022461,13.82800006866455 -13.829000473022461,-14.413999557495117 -13.829000473022461,-14.413999557495117 C-13.829000473022461,-14.73799991607666 -14.090999603271484,-15 -14.414999961853027,-15 C-14.73900032043457,-15 -15.00100040435791,-14.73799991607666 -15.00100040435791,-14.413999557495117 C-15.00100040435791,-14.413999557495117 -15.00100040435791,14.413999557495117 -15.00100040435791,14.413999557495117 C-15.00100040435791,14.73799991607666 -14.73900032043457,15 -14.414999961853027,15 C-14.414999961853027,15 14.413000106811523,15 14.413000106811523,15 C14.737000465393066,15 14.99899959564209,14.73799991607666 14.99899959564209,14.413999557495117 C14.99899959564209,14.09000015258789 14.737000465393066,13.82800006866455 14.413000106811523,13.82800006866455z M-8.789999961853027,13.82800006866455 C-8.789999961853027,13.82800006866455 -11.133000373840332,13.82800006866455 -11.133000373840332,13.82800006866455 C-11.133000373840332,13.82800006866455 -11.132811546325684,8.827980041503906 -11.132811546325684,8.827980041503906 C-11.132811546325684,8.827980041503906 -8.78980541229248,8.827980041503906 -8.78980541229248,8.827980041503906 C-8.78980541229248,8.827980041503906 -8.789999961853027,13.82800006866455 -8.789999961853027,13.82800006866455z M-1.7580000162124634,13.82800006866455 C-1.7580000162124634,13.82800006866455 -4.1020002365112305,13.82800006866455 -4.1020002365112305,13.82800006866455 C-4.1020002365112305,13.82800006866455 -4.102113246917725,6.49896764755249 -4.102113246917725,6.49896764755249 C-4.102113246917725,6.49896764755249 -1.7581132650375366,6.49896764755249 -1.7581132650375366,6.49896764755249 C-1.7581132650375366,6.49896764755249 -1.7580000162124634,13.82800006866455 -1.7580000162124634,13.82800006866455z M5.2729997634887695,13.82800006866455 C5.2729997634887695,13.82800006866455 2.928999900817871,13.82800006866455 2.928999900817871,13.82800006866455 C2.928999900817871,13.82800006866455 2.929182529449463,3.0045998096466064 2.929182529449463,3.0045998096466064 C2.929182529449463,3.0045998096466064 5.273176193237305,3.0045998096466064 5.273176193237305,3.0045998096466064 C5.273176193237305,3.0045998096466064 5.2729997634887695,13.82800006866455 5.2729997634887695,13.82800006866455z"></path></g></g><g mask="url(#__lottie_element_565_1)" style="display: block;"><g transform="matrix(28.965858459472656,-4.915626049041748,4.915626049041748,28.965858459472656,616.7757568359375,486.92425537109375)" opacity="1"><g opacity="1" transform="matrix(1,0,0,1,0,0)"><path fill="rgb(92,255,79)" fill-opacity="1" d=" M-9.496999740600586,3.503000020980835 C-9.814000129699707,3.569999933242798 -10.015999794006348,3.88100004196167 -9.949000358581543,4.197999954223633 C-9.881999969482422,4.513999938964844 -9.571000099182129,4.716000080108643 -9.253999710083008,4.64900016784668 C-1.656000018119812,3.0390000343322754 4.749000072479248,-1.5449999570846558 8.791000366210938,-7.714000225067139 C8.791000366210938,-7.714000225067139 9.762999534606934,-7.0329999923706055 9.762999534606934,-7.0329999923706055 C10.119000434875488,-6.783999919891357 10.614999771118164,-6.995999813079834 10.678999900817871,-7.427000045776367 C10.678999900817871,-7.427000045776367 11.255000114440918,-11.3149995803833 11.255000114440918,-11.3149995803833 C11.288000106811523,-11.534000396728516 11.194000244140625,-11.753999710083008 11.01200008392334,-11.880999565124512 C10.829999923706055,-12.008000373840332 10.592000007629395,-12.022000312805176 10.397000312805176,-11.916000366210938 C10.397000312805176,-11.916000366210938 6.940999984741211,-10.045000076293945 6.940999984741211,-10.045000076293945 C6.558000087738037,-9.838000297546387 6.526000022888184,-9.298999786376953 6.882999897003174,-9.048999786376953 C6.882999897003174,-9.048999786376953 7.829999923706055,-8.38599967956543 7.829999923706055,-8.38599967956543 C3.8580000400543213,-2.315999984741211 -2.4260001182556152,2.005000114440918 -9.496999740600586,3.503000020980835z M9.923999786376953,-10.32800006866455 C9.923999786376953,-10.32800006866455 9.659000396728516,-8.536999702453613 9.659000396728516,-8.536999702453613 C9.659000396728516,-8.536999702453613 8.331999778747559,-9.465999603271484 8.331999778747559,-9.465999603271484 C8.331999778747559,-9.465999603271484 9.923999786376953,-10.32800006866455 9.923999786376953,-10.32800006866455z"></path></g></g></g><g transform="matrix(1.0142899751663208,0,0,1.0142899751663208,546.0571899414062,533.955322265625)" opacity="1" style="display: block;"><g opacity="1" transform="matrix(1,0,0,1.0047500133514404,0,0)"><path stroke-linecap="round" stroke-linejoin="miter" fill-opacity="0" stroke-miterlimit="4" stroke="rgb(92,255,79)" stroke-opacity="1" stroke-width="34" d=" M-424,421 C-424,421 416,421 416,421"></path></g></g></g><g clip-path="url(#__lottie_element_540)" style="display: none;"><g style="display: none;"><g><path></path></g></g><g style="display: none;"><g><path></path></g></g><g mask="url(#__lottie_element_546_1)" style="display: none;"><g><g><path></path></g></g></g><g style="display: none;"><g><path stroke-linecap="round" stroke-linejoin="miter" fill-opacity="0" stroke-miterlimit="4"></path></g></g></g></g></svg>